G04 #@! TF.GenerationSoftware,KiCad,Pcbnew,(5.1.9)-1*
G04 #@! TF.CreationDate,2021-05-05T14:43:55+02:00*
G04 #@! TF.ProjectId,MTDevBoard,4d544465-7642-46f6-9172-642e6b696361,rev?*
G04 #@! TF.SameCoordinates,Original*
G04 #@! TF.FileFunction,Soldermask,Bot*
G04 #@! TF.FilePolarity,Negative*
%FSLAX46Y46*%
G04 Gerber Fmt 4.6, Leading zero omitted, Abs format (unit mm)*
G04 Created by KiCad (PCBNEW (5.1.9)-1) date 2021-05-05 14:43:55*
%MOMM*%
%LPD*%
G01*
G04 APERTURE LIST*
%ADD10C,0.100000*%
%ADD11O,1.829200X1.829200*%
%ADD12O,1.102000X1.102000*%
%ADD13C,2.100980*%
%ADD14O,1.802000X1.802000*%
%ADD15C,2.202000*%
%ADD16C,6.502000*%
%ADD17C,3.102000*%
%ADD18C,2.602000*%
%ADD19C,2.702000*%
%ADD20O,1.152000X1.602000*%
G04 APERTURE END LIST*
D10*
G36*
X32630000Y-83550000D02*
G01*
X32900000Y-83960000D01*
X32100000Y-83960000D01*
X32170000Y-83120000D01*
X32630000Y-83550000D01*
G37*
X32630000Y-83550000D02*
X32900000Y-83960000D01*
X32100000Y-83960000D01*
X32170000Y-83120000D01*
X32630000Y-83550000D01*
G36*
X42756000Y-49380000D02*
G01*
X40806000Y-49380000D01*
X40806000Y-41194000D01*
X42756000Y-41194000D01*
X42756000Y-49380000D01*
G37*
X42756000Y-49380000D02*
X40806000Y-49380000D01*
X40806000Y-41194000D01*
X42756000Y-41194000D01*
X42756000Y-49380000D01*
G36*
X37656000Y-64014000D02*
G01*
X35756000Y-64014000D01*
X35810000Y-40010000D01*
X37710000Y-40010000D01*
X37656000Y-64014000D01*
G37*
X37656000Y-64014000D02*
X35756000Y-64014000D01*
X35810000Y-40010000D01*
X37710000Y-40010000D01*
X37656000Y-64014000D01*
G36*
X32606000Y-49310000D02*
G01*
X30656000Y-49310000D01*
X30635000Y-40060000D01*
X32585000Y-40060000D01*
X32606000Y-49310000D01*
G37*
X32606000Y-49310000D02*
X30656000Y-49310000D01*
X30635000Y-40060000D01*
X32585000Y-40060000D01*
X32606000Y-49310000D01*
G36*
X43050000Y-92920000D02*
G01*
X41150000Y-92920000D01*
X41110000Y-83820000D01*
X43010000Y-83820000D01*
X43050000Y-92920000D01*
G37*
X43050000Y-92920000D02*
X41150000Y-92920000D01*
X41110000Y-83820000D01*
X43010000Y-83820000D01*
X43050000Y-92920000D01*
G36*
X37950000Y-92240000D02*
G01*
X36050000Y-92240000D01*
X36050000Y-69240000D01*
X37950000Y-69240000D01*
X37950000Y-92240000D01*
G37*
X37950000Y-92240000D02*
X36050000Y-92240000D01*
X36050000Y-69240000D01*
X37950000Y-69240000D01*
X37950000Y-92240000D01*
G36*
X32874000Y-92246000D02*
G01*
X30974000Y-92246000D01*
X31010000Y-83970000D01*
X32910000Y-83970000D01*
X32874000Y-92246000D01*
G37*
X32874000Y-92246000D02*
X30974000Y-92246000D01*
X31010000Y-83970000D01*
X32910000Y-83970000D01*
X32874000Y-92246000D01*
G36*
X41410000Y-50210000D02*
G01*
X40830000Y-49500000D01*
X41530000Y-49500000D01*
X41410000Y-50210000D01*
G37*
X41410000Y-50210000D02*
X40830000Y-49500000D01*
X41530000Y-49500000D01*
X41410000Y-50210000D01*
G36*
X32520000Y-49820000D02*
G01*
X32320000Y-50060000D01*
X32100000Y-49400000D01*
X32600000Y-49310000D01*
X32520000Y-49820000D01*
G37*
X32520000Y-49820000D02*
X32320000Y-50060000D01*
X32100000Y-49400000D01*
X32600000Y-49310000D01*
X32520000Y-49820000D01*
G36*
X41560000Y-83810000D02*
G01*
X41110000Y-83810000D01*
X41410000Y-83160000D01*
X41560000Y-83810000D01*
G37*
X41560000Y-83810000D02*
X41110000Y-83810000D01*
X41410000Y-83160000D01*
X41560000Y-83810000D01*
D11*
X100030000Y-40570000D03*
X102570000Y-40570000D03*
X100030000Y-43110000D03*
X102570000Y-43110000D03*
X100030000Y-45650000D03*
X102570000Y-45650000D03*
X100030000Y-48190000D03*
X102570000Y-48190000D03*
X100030000Y-50730000D03*
G36*
G01*
X103484600Y-49866400D02*
X103484600Y-51593600D01*
G75*
G02*
X103433600Y-51644600I-51000J0D01*
G01*
X101706400Y-51644600D01*
G75*
G02*
X101655400Y-51593600I0J51000D01*
G01*
X101655400Y-49866400D01*
G75*
G02*
X101706400Y-49815400I51000J0D01*
G01*
X103433600Y-49815400D01*
G75*
G02*
X103484600Y-49866400I0J-51000D01*
G01*
G37*
D12*
X65960000Y-40680000D03*
X64690000Y-40680000D03*
X65960000Y-39410000D03*
X64690000Y-39410000D03*
X65960000Y-38140000D03*
X64690000Y-38140000D03*
X65960000Y-36870000D03*
G36*
G01*
X64139000Y-37370000D02*
X64139000Y-36370000D01*
G75*
G02*
X64190000Y-36319000I51000J0D01*
G01*
X65190000Y-36319000D01*
G75*
G02*
X65241000Y-36370000I0J-51000D01*
G01*
X65241000Y-37370000D01*
G75*
G02*
X65190000Y-37421000I-51000J0D01*
G01*
X64190000Y-37421000D01*
G75*
G02*
X64139000Y-37370000I0J51000D01*
G01*
G37*
G36*
G01*
X140236400Y-108285400D02*
X141963600Y-108285400D01*
G75*
G02*
X142014600Y-108336400I0J-51000D01*
G01*
X142014600Y-110063600D01*
G75*
G02*
X141963600Y-110114600I-51000J0D01*
G01*
X140236400Y-110114600D01*
G75*
G02*
X140185400Y-110063600I0J51000D01*
G01*
X140185400Y-108336400D01*
G75*
G02*
X140236400Y-108285400I51000J0D01*
G01*
G37*
D11*
X141100000Y-111740000D03*
X143640000Y-109200000D03*
X143640000Y-111740000D03*
X146180000Y-109200000D03*
X146180000Y-111740000D03*
X148720000Y-109200000D03*
X148720000Y-111740000D03*
X151260000Y-109200000D03*
X151260000Y-111740000D03*
X153800000Y-109200000D03*
X153800000Y-111740000D03*
D13*
X109900000Y-36670000D03*
G36*
G01*
X113615400Y-41253600D02*
X113615400Y-39526400D01*
G75*
G02*
X113666400Y-39475400I51000J0D01*
G01*
X115393600Y-39475400D01*
G75*
G02*
X115444600Y-39526400I0J-51000D01*
G01*
X115444600Y-41253600D01*
G75*
G02*
X115393600Y-41304600I-51000J0D01*
G01*
X113666400Y-41304600D01*
G75*
G02*
X113615400Y-41253600I0J51000D01*
G01*
G37*
D11*
X117070000Y-40390000D03*
X114530000Y-42930000D03*
X117070000Y-42930000D03*
X114530000Y-45470000D03*
X117070000Y-45470000D03*
X114530000Y-48010000D03*
X117070000Y-48010000D03*
X114530000Y-50550000D03*
X117070000Y-50550000D03*
X114530000Y-53090000D03*
X117070000Y-53090000D03*
G36*
G01*
X108389000Y-55350000D02*
X108389000Y-53850000D01*
G75*
G02*
X108440000Y-53799000I51000J0D01*
G01*
X109440000Y-53799000D01*
G75*
G02*
X109491000Y-53850000I0J-51000D01*
G01*
X109491000Y-55350000D01*
G75*
G02*
X109440000Y-55401000I-51000J0D01*
G01*
X108440000Y-55401000D01*
G75*
G02*
X108389000Y-55350000I0J51000D01*
G01*
G37*
D10*
G36*
X110246112Y-53799602D02*
G01*
X110264534Y-53799602D01*
X110269533Y-53799848D01*
X110318364Y-53804658D01*
X110323314Y-53805392D01*
X110371439Y-53814964D01*
X110376295Y-53816180D01*
X110423250Y-53830424D01*
X110427961Y-53832110D01*
X110473294Y-53850887D01*
X110477820Y-53853027D01*
X110521093Y-53876158D01*
X110525384Y-53878731D01*
X110566183Y-53905991D01*
X110570204Y-53908973D01*
X110608133Y-53940101D01*
X110611841Y-53943462D01*
X110646538Y-53978159D01*
X110649899Y-53981867D01*
X110681027Y-54019796D01*
X110684009Y-54023817D01*
X110711269Y-54064616D01*
X110713842Y-54068907D01*
X110736973Y-54112180D01*
X110739113Y-54116706D01*
X110757890Y-54162039D01*
X110759576Y-54166750D01*
X110773820Y-54213705D01*
X110775036Y-54218561D01*
X110784608Y-54266686D01*
X110785342Y-54271636D01*
X110790152Y-54320467D01*
X110790398Y-54325466D01*
X110790398Y-54343888D01*
X110791000Y-54350000D01*
X110791000Y-54850000D01*
X110790398Y-54856112D01*
X110790398Y-54874534D01*
X110790152Y-54879533D01*
X110785342Y-54928364D01*
X110784608Y-54933314D01*
X110775036Y-54981439D01*
X110773820Y-54986295D01*
X110759576Y-55033250D01*
X110757890Y-55037961D01*
X110739113Y-55083294D01*
X110736973Y-55087820D01*
X110713842Y-55131093D01*
X110711269Y-55135384D01*
X110684009Y-55176183D01*
X110681027Y-55180204D01*
X110649899Y-55218133D01*
X110646538Y-55221841D01*
X110611841Y-55256538D01*
X110608133Y-55259899D01*
X110570204Y-55291027D01*
X110566183Y-55294009D01*
X110525384Y-55321269D01*
X110521093Y-55323842D01*
X110477820Y-55346973D01*
X110473294Y-55349113D01*
X110427961Y-55367890D01*
X110423250Y-55369576D01*
X110376295Y-55383820D01*
X110371439Y-55385036D01*
X110323314Y-55394608D01*
X110318364Y-55395342D01*
X110269533Y-55400152D01*
X110264534Y-55400398D01*
X110246112Y-55400398D01*
X110240000Y-55401000D01*
X109690000Y-55401000D01*
X109680050Y-55400020D01*
X109670483Y-55397118D01*
X109661666Y-55392405D01*
X109653938Y-55386062D01*
X109647595Y-55378334D01*
X109642882Y-55369517D01*
X109639980Y-55359950D01*
X109639000Y-55350000D01*
X109639000Y-53850000D01*
X109639980Y-53840050D01*
X109642882Y-53830483D01*
X109647595Y-53821666D01*
X109653938Y-53813938D01*
X109661666Y-53807595D01*
X109670483Y-53802882D01*
X109680050Y-53799980D01*
X109690000Y-53799000D01*
X110240000Y-53799000D01*
X110246112Y-53799602D01*
G37*
G36*
X108199950Y-53799980D02*
G01*
X108209517Y-53802882D01*
X108218334Y-53807595D01*
X108226062Y-53813938D01*
X108232405Y-53821666D01*
X108237118Y-53830483D01*
X108240020Y-53840050D01*
X108241000Y-53850000D01*
X108241000Y-55350000D01*
X108240020Y-55359950D01*
X108237118Y-55369517D01*
X108232405Y-55378334D01*
X108226062Y-55386062D01*
X108218334Y-55392405D01*
X108209517Y-55397118D01*
X108199950Y-55400020D01*
X108190000Y-55401000D01*
X107640000Y-55401000D01*
X107633888Y-55400398D01*
X107615466Y-55400398D01*
X107610467Y-55400152D01*
X107561636Y-55395342D01*
X107556686Y-55394608D01*
X107508561Y-55385036D01*
X107503705Y-55383820D01*
X107456750Y-55369576D01*
X107452039Y-55367890D01*
X107406706Y-55349113D01*
X107402180Y-55346973D01*
X107358907Y-55323842D01*
X107354616Y-55321269D01*
X107313817Y-55294009D01*
X107309796Y-55291027D01*
X107271867Y-55259899D01*
X107268159Y-55256538D01*
X107233462Y-55221841D01*
X107230101Y-55218133D01*
X107198973Y-55180204D01*
X107195991Y-55176183D01*
X107168731Y-55135384D01*
X107166158Y-55131093D01*
X107143027Y-55087820D01*
X107140887Y-55083294D01*
X107122110Y-55037961D01*
X107120424Y-55033250D01*
X107106180Y-54986295D01*
X107104964Y-54981439D01*
X107095392Y-54933314D01*
X107094658Y-54928364D01*
X107089848Y-54879533D01*
X107089602Y-54874534D01*
X107089602Y-54856112D01*
X107089000Y-54850000D01*
X107089000Y-54350000D01*
X107089602Y-54343888D01*
X107089602Y-54325466D01*
X107089848Y-54320467D01*
X107094658Y-54271636D01*
X107095392Y-54266686D01*
X107104964Y-54218561D01*
X107106180Y-54213705D01*
X107120424Y-54166750D01*
X107122110Y-54162039D01*
X107140887Y-54116706D01*
X107143027Y-54112180D01*
X107166158Y-54068907D01*
X107168731Y-54064616D01*
X107195991Y-54023817D01*
X107198973Y-54019796D01*
X107230101Y-53981867D01*
X107233462Y-53978159D01*
X107268159Y-53943462D01*
X107271867Y-53940101D01*
X107309796Y-53908973D01*
X107313817Y-53905991D01*
X107354616Y-53878731D01*
X107358907Y-53876158D01*
X107402180Y-53853027D01*
X107406706Y-53850887D01*
X107452039Y-53832110D01*
X107456750Y-53830424D01*
X107503705Y-53816180D01*
X107508561Y-53814964D01*
X107556686Y-53805392D01*
X107561636Y-53804658D01*
X107610467Y-53799848D01*
X107615466Y-53799602D01*
X107633888Y-53799602D01*
X107640000Y-53799000D01*
X108190000Y-53799000D01*
X108199950Y-53799980D01*
G37*
G36*
G01*
X108399000Y-52770000D02*
X108399000Y-51270000D01*
G75*
G02*
X108450000Y-51219000I51000J0D01*
G01*
X109450000Y-51219000D01*
G75*
G02*
X109501000Y-51270000I0J-51000D01*
G01*
X109501000Y-52770000D01*
G75*
G02*
X109450000Y-52821000I-51000J0D01*
G01*
X108450000Y-52821000D01*
G75*
G02*
X108399000Y-52770000I0J51000D01*
G01*
G37*
G36*
X110256112Y-51219602D02*
G01*
X110274534Y-51219602D01*
X110279533Y-51219848D01*
X110328364Y-51224658D01*
X110333314Y-51225392D01*
X110381439Y-51234964D01*
X110386295Y-51236180D01*
X110433250Y-51250424D01*
X110437961Y-51252110D01*
X110483294Y-51270887D01*
X110487820Y-51273027D01*
X110531093Y-51296158D01*
X110535384Y-51298731D01*
X110576183Y-51325991D01*
X110580204Y-51328973D01*
X110618133Y-51360101D01*
X110621841Y-51363462D01*
X110656538Y-51398159D01*
X110659899Y-51401867D01*
X110691027Y-51439796D01*
X110694009Y-51443817D01*
X110721269Y-51484616D01*
X110723842Y-51488907D01*
X110746973Y-51532180D01*
X110749113Y-51536706D01*
X110767890Y-51582039D01*
X110769576Y-51586750D01*
X110783820Y-51633705D01*
X110785036Y-51638561D01*
X110794608Y-51686686D01*
X110795342Y-51691636D01*
X110800152Y-51740467D01*
X110800398Y-51745466D01*
X110800398Y-51763888D01*
X110801000Y-51770000D01*
X110801000Y-52270000D01*
X110800398Y-52276112D01*
X110800398Y-52294534D01*
X110800152Y-52299533D01*
X110795342Y-52348364D01*
X110794608Y-52353314D01*
X110785036Y-52401439D01*
X110783820Y-52406295D01*
X110769576Y-52453250D01*
X110767890Y-52457961D01*
X110749113Y-52503294D01*
X110746973Y-52507820D01*
X110723842Y-52551093D01*
X110721269Y-52555384D01*
X110694009Y-52596183D01*
X110691027Y-52600204D01*
X110659899Y-52638133D01*
X110656538Y-52641841D01*
X110621841Y-52676538D01*
X110618133Y-52679899D01*
X110580204Y-52711027D01*
X110576183Y-52714009D01*
X110535384Y-52741269D01*
X110531093Y-52743842D01*
X110487820Y-52766973D01*
X110483294Y-52769113D01*
X110437961Y-52787890D01*
X110433250Y-52789576D01*
X110386295Y-52803820D01*
X110381439Y-52805036D01*
X110333314Y-52814608D01*
X110328364Y-52815342D01*
X110279533Y-52820152D01*
X110274534Y-52820398D01*
X110256112Y-52820398D01*
X110250000Y-52821000D01*
X109700000Y-52821000D01*
X109690050Y-52820020D01*
X109680483Y-52817118D01*
X109671666Y-52812405D01*
X109663938Y-52806062D01*
X109657595Y-52798334D01*
X109652882Y-52789517D01*
X109649980Y-52779950D01*
X109649000Y-52770000D01*
X109649000Y-51270000D01*
X109649980Y-51260050D01*
X109652882Y-51250483D01*
X109657595Y-51241666D01*
X109663938Y-51233938D01*
X109671666Y-51227595D01*
X109680483Y-51222882D01*
X109690050Y-51219980D01*
X109700000Y-51219000D01*
X110250000Y-51219000D01*
X110256112Y-51219602D01*
G37*
G36*
X108209950Y-51219980D02*
G01*
X108219517Y-51222882D01*
X108228334Y-51227595D01*
X108236062Y-51233938D01*
X108242405Y-51241666D01*
X108247118Y-51250483D01*
X108250020Y-51260050D01*
X108251000Y-51270000D01*
X108251000Y-52770000D01*
X108250020Y-52779950D01*
X108247118Y-52789517D01*
X108242405Y-52798334D01*
X108236062Y-52806062D01*
X108228334Y-52812405D01*
X108219517Y-52817118D01*
X108209950Y-52820020D01*
X108200000Y-52821000D01*
X107650000Y-52821000D01*
X107643888Y-52820398D01*
X107625466Y-52820398D01*
X107620467Y-52820152D01*
X107571636Y-52815342D01*
X107566686Y-52814608D01*
X107518561Y-52805036D01*
X107513705Y-52803820D01*
X107466750Y-52789576D01*
X107462039Y-52787890D01*
X107416706Y-52769113D01*
X107412180Y-52766973D01*
X107368907Y-52743842D01*
X107364616Y-52741269D01*
X107323817Y-52714009D01*
X107319796Y-52711027D01*
X107281867Y-52679899D01*
X107278159Y-52676538D01*
X107243462Y-52641841D01*
X107240101Y-52638133D01*
X107208973Y-52600204D01*
X107205991Y-52596183D01*
X107178731Y-52555384D01*
X107176158Y-52551093D01*
X107153027Y-52507820D01*
X107150887Y-52503294D01*
X107132110Y-52457961D01*
X107130424Y-52453250D01*
X107116180Y-52406295D01*
X107114964Y-52401439D01*
X107105392Y-52353314D01*
X107104658Y-52348364D01*
X107099848Y-52299533D01*
X107099602Y-52294534D01*
X107099602Y-52276112D01*
X107099000Y-52270000D01*
X107099000Y-51770000D01*
X107099602Y-51763888D01*
X107099602Y-51745466D01*
X107099848Y-51740467D01*
X107104658Y-51691636D01*
X107105392Y-51686686D01*
X107114964Y-51638561D01*
X107116180Y-51633705D01*
X107130424Y-51586750D01*
X107132110Y-51582039D01*
X107150887Y-51536706D01*
X107153027Y-51532180D01*
X107176158Y-51488907D01*
X107178731Y-51484616D01*
X107205991Y-51443817D01*
X107208973Y-51439796D01*
X107240101Y-51401867D01*
X107243462Y-51398159D01*
X107278159Y-51363462D01*
X107281867Y-51360101D01*
X107319796Y-51328973D01*
X107323817Y-51325991D01*
X107364616Y-51298731D01*
X107368907Y-51296158D01*
X107412180Y-51273027D01*
X107416706Y-51270887D01*
X107462039Y-51252110D01*
X107466750Y-51250424D01*
X107513705Y-51236180D01*
X107518561Y-51234964D01*
X107566686Y-51225392D01*
X107571636Y-51224658D01*
X107620467Y-51219848D01*
X107625466Y-51219602D01*
X107643888Y-51219602D01*
X107650000Y-51219000D01*
X108200000Y-51219000D01*
X108209950Y-51219980D01*
G37*
G36*
G01*
X108419000Y-50180000D02*
X108419000Y-48680000D01*
G75*
G02*
X108470000Y-48629000I51000J0D01*
G01*
X109470000Y-48629000D01*
G75*
G02*
X109521000Y-48680000I0J-51000D01*
G01*
X109521000Y-50180000D01*
G75*
G02*
X109470000Y-50231000I-51000J0D01*
G01*
X108470000Y-50231000D01*
G75*
G02*
X108419000Y-50180000I0J51000D01*
G01*
G37*
G36*
X110276112Y-48629602D02*
G01*
X110294534Y-48629602D01*
X110299533Y-48629848D01*
X110348364Y-48634658D01*
X110353314Y-48635392D01*
X110401439Y-48644964D01*
X110406295Y-48646180D01*
X110453250Y-48660424D01*
X110457961Y-48662110D01*
X110503294Y-48680887D01*
X110507820Y-48683027D01*
X110551093Y-48706158D01*
X110555384Y-48708731D01*
X110596183Y-48735991D01*
X110600204Y-48738973D01*
X110638133Y-48770101D01*
X110641841Y-48773462D01*
X110676538Y-48808159D01*
X110679899Y-48811867D01*
X110711027Y-48849796D01*
X110714009Y-48853817D01*
X110741269Y-48894616D01*
X110743842Y-48898907D01*
X110766973Y-48942180D01*
X110769113Y-48946706D01*
X110787890Y-48992039D01*
X110789576Y-48996750D01*
X110803820Y-49043705D01*
X110805036Y-49048561D01*
X110814608Y-49096686D01*
X110815342Y-49101636D01*
X110820152Y-49150467D01*
X110820398Y-49155466D01*
X110820398Y-49173888D01*
X110821000Y-49180000D01*
X110821000Y-49680000D01*
X110820398Y-49686112D01*
X110820398Y-49704534D01*
X110820152Y-49709533D01*
X110815342Y-49758364D01*
X110814608Y-49763314D01*
X110805036Y-49811439D01*
X110803820Y-49816295D01*
X110789576Y-49863250D01*
X110787890Y-49867961D01*
X110769113Y-49913294D01*
X110766973Y-49917820D01*
X110743842Y-49961093D01*
X110741269Y-49965384D01*
X110714009Y-50006183D01*
X110711027Y-50010204D01*
X110679899Y-50048133D01*
X110676538Y-50051841D01*
X110641841Y-50086538D01*
X110638133Y-50089899D01*
X110600204Y-50121027D01*
X110596183Y-50124009D01*
X110555384Y-50151269D01*
X110551093Y-50153842D01*
X110507820Y-50176973D01*
X110503294Y-50179113D01*
X110457961Y-50197890D01*
X110453250Y-50199576D01*
X110406295Y-50213820D01*
X110401439Y-50215036D01*
X110353314Y-50224608D01*
X110348364Y-50225342D01*
X110299533Y-50230152D01*
X110294534Y-50230398D01*
X110276112Y-50230398D01*
X110270000Y-50231000D01*
X109720000Y-50231000D01*
X109710050Y-50230020D01*
X109700483Y-50227118D01*
X109691666Y-50222405D01*
X109683938Y-50216062D01*
X109677595Y-50208334D01*
X109672882Y-50199517D01*
X109669980Y-50189950D01*
X109669000Y-50180000D01*
X109669000Y-48680000D01*
X109669980Y-48670050D01*
X109672882Y-48660483D01*
X109677595Y-48651666D01*
X109683938Y-48643938D01*
X109691666Y-48637595D01*
X109700483Y-48632882D01*
X109710050Y-48629980D01*
X109720000Y-48629000D01*
X110270000Y-48629000D01*
X110276112Y-48629602D01*
G37*
G36*
X108229950Y-48629980D02*
G01*
X108239517Y-48632882D01*
X108248334Y-48637595D01*
X108256062Y-48643938D01*
X108262405Y-48651666D01*
X108267118Y-48660483D01*
X108270020Y-48670050D01*
X108271000Y-48680000D01*
X108271000Y-50180000D01*
X108270020Y-50189950D01*
X108267118Y-50199517D01*
X108262405Y-50208334D01*
X108256062Y-50216062D01*
X108248334Y-50222405D01*
X108239517Y-50227118D01*
X108229950Y-50230020D01*
X108220000Y-50231000D01*
X107670000Y-50231000D01*
X107663888Y-50230398D01*
X107645466Y-50230398D01*
X107640467Y-50230152D01*
X107591636Y-50225342D01*
X107586686Y-50224608D01*
X107538561Y-50215036D01*
X107533705Y-50213820D01*
X107486750Y-50199576D01*
X107482039Y-50197890D01*
X107436706Y-50179113D01*
X107432180Y-50176973D01*
X107388907Y-50153842D01*
X107384616Y-50151269D01*
X107343817Y-50124009D01*
X107339796Y-50121027D01*
X107301867Y-50089899D01*
X107298159Y-50086538D01*
X107263462Y-50051841D01*
X107260101Y-50048133D01*
X107228973Y-50010204D01*
X107225991Y-50006183D01*
X107198731Y-49965384D01*
X107196158Y-49961093D01*
X107173027Y-49917820D01*
X107170887Y-49913294D01*
X107152110Y-49867961D01*
X107150424Y-49863250D01*
X107136180Y-49816295D01*
X107134964Y-49811439D01*
X107125392Y-49763314D01*
X107124658Y-49758364D01*
X107119848Y-49709533D01*
X107119602Y-49704534D01*
X107119602Y-49686112D01*
X107119000Y-49680000D01*
X107119000Y-49180000D01*
X107119602Y-49173888D01*
X107119602Y-49155466D01*
X107119848Y-49150467D01*
X107124658Y-49101636D01*
X107125392Y-49096686D01*
X107134964Y-49048561D01*
X107136180Y-49043705D01*
X107150424Y-48996750D01*
X107152110Y-48992039D01*
X107170887Y-48946706D01*
X107173027Y-48942180D01*
X107196158Y-48898907D01*
X107198731Y-48894616D01*
X107225991Y-48853817D01*
X107228973Y-48849796D01*
X107260101Y-48811867D01*
X107263462Y-48808159D01*
X107298159Y-48773462D01*
X107301867Y-48770101D01*
X107339796Y-48738973D01*
X107343817Y-48735991D01*
X107384616Y-48708731D01*
X107388907Y-48706158D01*
X107432180Y-48683027D01*
X107436706Y-48680887D01*
X107482039Y-48662110D01*
X107486750Y-48660424D01*
X107533705Y-48646180D01*
X107538561Y-48644964D01*
X107586686Y-48635392D01*
X107591636Y-48634658D01*
X107640467Y-48629848D01*
X107645466Y-48629602D01*
X107663888Y-48629602D01*
X107670000Y-48629000D01*
X108220000Y-48629000D01*
X108229950Y-48629980D01*
G37*
G36*
G01*
X108439000Y-47620000D02*
X108439000Y-46120000D01*
G75*
G02*
X108490000Y-46069000I51000J0D01*
G01*
X109490000Y-46069000D01*
G75*
G02*
X109541000Y-46120000I0J-51000D01*
G01*
X109541000Y-47620000D01*
G75*
G02*
X109490000Y-47671000I-51000J0D01*
G01*
X108490000Y-47671000D01*
G75*
G02*
X108439000Y-47620000I0J51000D01*
G01*
G37*
G36*
X110296112Y-46069602D02*
G01*
X110314534Y-46069602D01*
X110319533Y-46069848D01*
X110368364Y-46074658D01*
X110373314Y-46075392D01*
X110421439Y-46084964D01*
X110426295Y-46086180D01*
X110473250Y-46100424D01*
X110477961Y-46102110D01*
X110523294Y-46120887D01*
X110527820Y-46123027D01*
X110571093Y-46146158D01*
X110575384Y-46148731D01*
X110616183Y-46175991D01*
X110620204Y-46178973D01*
X110658133Y-46210101D01*
X110661841Y-46213462D01*
X110696538Y-46248159D01*
X110699899Y-46251867D01*
X110731027Y-46289796D01*
X110734009Y-46293817D01*
X110761269Y-46334616D01*
X110763842Y-46338907D01*
X110786973Y-46382180D01*
X110789113Y-46386706D01*
X110807890Y-46432039D01*
X110809576Y-46436750D01*
X110823820Y-46483705D01*
X110825036Y-46488561D01*
X110834608Y-46536686D01*
X110835342Y-46541636D01*
X110840152Y-46590467D01*
X110840398Y-46595466D01*
X110840398Y-46613888D01*
X110841000Y-46620000D01*
X110841000Y-47120000D01*
X110840398Y-47126112D01*
X110840398Y-47144534D01*
X110840152Y-47149533D01*
X110835342Y-47198364D01*
X110834608Y-47203314D01*
X110825036Y-47251439D01*
X110823820Y-47256295D01*
X110809576Y-47303250D01*
X110807890Y-47307961D01*
X110789113Y-47353294D01*
X110786973Y-47357820D01*
X110763842Y-47401093D01*
X110761269Y-47405384D01*
X110734009Y-47446183D01*
X110731027Y-47450204D01*
X110699899Y-47488133D01*
X110696538Y-47491841D01*
X110661841Y-47526538D01*
X110658133Y-47529899D01*
X110620204Y-47561027D01*
X110616183Y-47564009D01*
X110575384Y-47591269D01*
X110571093Y-47593842D01*
X110527820Y-47616973D01*
X110523294Y-47619113D01*
X110477961Y-47637890D01*
X110473250Y-47639576D01*
X110426295Y-47653820D01*
X110421439Y-47655036D01*
X110373314Y-47664608D01*
X110368364Y-47665342D01*
X110319533Y-47670152D01*
X110314534Y-47670398D01*
X110296112Y-47670398D01*
X110290000Y-47671000D01*
X109740000Y-47671000D01*
X109730050Y-47670020D01*
X109720483Y-47667118D01*
X109711666Y-47662405D01*
X109703938Y-47656062D01*
X109697595Y-47648334D01*
X109692882Y-47639517D01*
X109689980Y-47629950D01*
X109689000Y-47620000D01*
X109689000Y-46120000D01*
X109689980Y-46110050D01*
X109692882Y-46100483D01*
X109697595Y-46091666D01*
X109703938Y-46083938D01*
X109711666Y-46077595D01*
X109720483Y-46072882D01*
X109730050Y-46069980D01*
X109740000Y-46069000D01*
X110290000Y-46069000D01*
X110296112Y-46069602D01*
G37*
G36*
X108249950Y-46069980D02*
G01*
X108259517Y-46072882D01*
X108268334Y-46077595D01*
X108276062Y-46083938D01*
X108282405Y-46091666D01*
X108287118Y-46100483D01*
X108290020Y-46110050D01*
X108291000Y-46120000D01*
X108291000Y-47620000D01*
X108290020Y-47629950D01*
X108287118Y-47639517D01*
X108282405Y-47648334D01*
X108276062Y-47656062D01*
X108268334Y-47662405D01*
X108259517Y-47667118D01*
X108249950Y-47670020D01*
X108240000Y-47671000D01*
X107690000Y-47671000D01*
X107683888Y-47670398D01*
X107665466Y-47670398D01*
X107660467Y-47670152D01*
X107611636Y-47665342D01*
X107606686Y-47664608D01*
X107558561Y-47655036D01*
X107553705Y-47653820D01*
X107506750Y-47639576D01*
X107502039Y-47637890D01*
X107456706Y-47619113D01*
X107452180Y-47616973D01*
X107408907Y-47593842D01*
X107404616Y-47591269D01*
X107363817Y-47564009D01*
X107359796Y-47561027D01*
X107321867Y-47529899D01*
X107318159Y-47526538D01*
X107283462Y-47491841D01*
X107280101Y-47488133D01*
X107248973Y-47450204D01*
X107245991Y-47446183D01*
X107218731Y-47405384D01*
X107216158Y-47401093D01*
X107193027Y-47357820D01*
X107190887Y-47353294D01*
X107172110Y-47307961D01*
X107170424Y-47303250D01*
X107156180Y-47256295D01*
X107154964Y-47251439D01*
X107145392Y-47203314D01*
X107144658Y-47198364D01*
X107139848Y-47149533D01*
X107139602Y-47144534D01*
X107139602Y-47126112D01*
X107139000Y-47120000D01*
X107139000Y-46620000D01*
X107139602Y-46613888D01*
X107139602Y-46595466D01*
X107139848Y-46590467D01*
X107144658Y-46541636D01*
X107145392Y-46536686D01*
X107154964Y-46488561D01*
X107156180Y-46483705D01*
X107170424Y-46436750D01*
X107172110Y-46432039D01*
X107190887Y-46386706D01*
X107193027Y-46382180D01*
X107216158Y-46338907D01*
X107218731Y-46334616D01*
X107245991Y-46293817D01*
X107248973Y-46289796D01*
X107280101Y-46251867D01*
X107283462Y-46248159D01*
X107318159Y-46213462D01*
X107321867Y-46210101D01*
X107359796Y-46178973D01*
X107363817Y-46175991D01*
X107404616Y-46148731D01*
X107408907Y-46146158D01*
X107452180Y-46123027D01*
X107456706Y-46120887D01*
X107502039Y-46102110D01*
X107506750Y-46100424D01*
X107553705Y-46086180D01*
X107558561Y-46084964D01*
X107606686Y-46075392D01*
X107611636Y-46074658D01*
X107660467Y-46069848D01*
X107665466Y-46069602D01*
X107683888Y-46069602D01*
X107690000Y-46069000D01*
X108240000Y-46069000D01*
X108249950Y-46069980D01*
G37*
G36*
G01*
X105879000Y-37410000D02*
X105879000Y-35910000D01*
G75*
G02*
X105930000Y-35859000I51000J0D01*
G01*
X106930000Y-35859000D01*
G75*
G02*
X106981000Y-35910000I0J-51000D01*
G01*
X106981000Y-37410000D01*
G75*
G02*
X106930000Y-37461000I-51000J0D01*
G01*
X105930000Y-37461000D01*
G75*
G02*
X105879000Y-37410000I0J51000D01*
G01*
G37*
G36*
X107736112Y-35859602D02*
G01*
X107754534Y-35859602D01*
X107759533Y-35859848D01*
X107808364Y-35864658D01*
X107813314Y-35865392D01*
X107861439Y-35874964D01*
X107866295Y-35876180D01*
X107913250Y-35890424D01*
X107917961Y-35892110D01*
X107963294Y-35910887D01*
X107967820Y-35913027D01*
X108011093Y-35936158D01*
X108015384Y-35938731D01*
X108056183Y-35965991D01*
X108060204Y-35968973D01*
X108098133Y-36000101D01*
X108101841Y-36003462D01*
X108136538Y-36038159D01*
X108139899Y-36041867D01*
X108171027Y-36079796D01*
X108174009Y-36083817D01*
X108201269Y-36124616D01*
X108203842Y-36128907D01*
X108226973Y-36172180D01*
X108229113Y-36176706D01*
X108247890Y-36222039D01*
X108249576Y-36226750D01*
X108263820Y-36273705D01*
X108265036Y-36278561D01*
X108274608Y-36326686D01*
X108275342Y-36331636D01*
X108280152Y-36380467D01*
X108280398Y-36385466D01*
X108280398Y-36403888D01*
X108281000Y-36410000D01*
X108281000Y-36910000D01*
X108280398Y-36916112D01*
X108280398Y-36934534D01*
X108280152Y-36939533D01*
X108275342Y-36988364D01*
X108274608Y-36993314D01*
X108265036Y-37041439D01*
X108263820Y-37046295D01*
X108249576Y-37093250D01*
X108247890Y-37097961D01*
X108229113Y-37143294D01*
X108226973Y-37147820D01*
X108203842Y-37191093D01*
X108201269Y-37195384D01*
X108174009Y-37236183D01*
X108171027Y-37240204D01*
X108139899Y-37278133D01*
X108136538Y-37281841D01*
X108101841Y-37316538D01*
X108098133Y-37319899D01*
X108060204Y-37351027D01*
X108056183Y-37354009D01*
X108015384Y-37381269D01*
X108011093Y-37383842D01*
X107967820Y-37406973D01*
X107963294Y-37409113D01*
X107917961Y-37427890D01*
X107913250Y-37429576D01*
X107866295Y-37443820D01*
X107861439Y-37445036D01*
X107813314Y-37454608D01*
X107808364Y-37455342D01*
X107759533Y-37460152D01*
X107754534Y-37460398D01*
X107736112Y-37460398D01*
X107730000Y-37461000D01*
X107180000Y-37461000D01*
X107170050Y-37460020D01*
X107160483Y-37457118D01*
X107151666Y-37452405D01*
X107143938Y-37446062D01*
X107137595Y-37438334D01*
X107132882Y-37429517D01*
X107129980Y-37419950D01*
X107129000Y-37410000D01*
X107129000Y-35910000D01*
X107129980Y-35900050D01*
X107132882Y-35890483D01*
X107137595Y-35881666D01*
X107143938Y-35873938D01*
X107151666Y-35867595D01*
X107160483Y-35862882D01*
X107170050Y-35859980D01*
X107180000Y-35859000D01*
X107730000Y-35859000D01*
X107736112Y-35859602D01*
G37*
G36*
X105689950Y-35859980D02*
G01*
X105699517Y-35862882D01*
X105708334Y-35867595D01*
X105716062Y-35873938D01*
X105722405Y-35881666D01*
X105727118Y-35890483D01*
X105730020Y-35900050D01*
X105731000Y-35910000D01*
X105731000Y-37410000D01*
X105730020Y-37419950D01*
X105727118Y-37429517D01*
X105722405Y-37438334D01*
X105716062Y-37446062D01*
X105708334Y-37452405D01*
X105699517Y-37457118D01*
X105689950Y-37460020D01*
X105680000Y-37461000D01*
X105130000Y-37461000D01*
X105123888Y-37460398D01*
X105105466Y-37460398D01*
X105100467Y-37460152D01*
X105051636Y-37455342D01*
X105046686Y-37454608D01*
X104998561Y-37445036D01*
X104993705Y-37443820D01*
X104946750Y-37429576D01*
X104942039Y-37427890D01*
X104896706Y-37409113D01*
X104892180Y-37406973D01*
X104848907Y-37383842D01*
X104844616Y-37381269D01*
X104803817Y-37354009D01*
X104799796Y-37351027D01*
X104761867Y-37319899D01*
X104758159Y-37316538D01*
X104723462Y-37281841D01*
X104720101Y-37278133D01*
X104688973Y-37240204D01*
X104685991Y-37236183D01*
X104658731Y-37195384D01*
X104656158Y-37191093D01*
X104633027Y-37147820D01*
X104630887Y-37143294D01*
X104612110Y-37097961D01*
X104610424Y-37093250D01*
X104596180Y-37046295D01*
X104594964Y-37041439D01*
X104585392Y-36993314D01*
X104584658Y-36988364D01*
X104579848Y-36939533D01*
X104579602Y-36934534D01*
X104579602Y-36916112D01*
X104579000Y-36910000D01*
X104579000Y-36410000D01*
X104579602Y-36403888D01*
X104579602Y-36385466D01*
X104579848Y-36380467D01*
X104584658Y-36331636D01*
X104585392Y-36326686D01*
X104594964Y-36278561D01*
X104596180Y-36273705D01*
X104610424Y-36226750D01*
X104612110Y-36222039D01*
X104630887Y-36176706D01*
X104633027Y-36172180D01*
X104656158Y-36128907D01*
X104658731Y-36124616D01*
X104685991Y-36083817D01*
X104688973Y-36079796D01*
X104720101Y-36041867D01*
X104723462Y-36038159D01*
X104758159Y-36003462D01*
X104761867Y-36000101D01*
X104799796Y-35968973D01*
X104803817Y-35965991D01*
X104844616Y-35938731D01*
X104848907Y-35936158D01*
X104892180Y-35913027D01*
X104896706Y-35910887D01*
X104942039Y-35892110D01*
X104946750Y-35890424D01*
X104993705Y-35876180D01*
X104998561Y-35874964D01*
X105046686Y-35865392D01*
X105051636Y-35864658D01*
X105100467Y-35859848D01*
X105105466Y-35859602D01*
X105123888Y-35859602D01*
X105130000Y-35859000D01*
X105680000Y-35859000D01*
X105689950Y-35859980D01*
G37*
G36*
G01*
X105879000Y-39960000D02*
X105879000Y-38460000D01*
G75*
G02*
X105930000Y-38409000I51000J0D01*
G01*
X106930000Y-38409000D01*
G75*
G02*
X106981000Y-38460000I0J-51000D01*
G01*
X106981000Y-39960000D01*
G75*
G02*
X106930000Y-40011000I-51000J0D01*
G01*
X105930000Y-40011000D01*
G75*
G02*
X105879000Y-39960000I0J51000D01*
G01*
G37*
G36*
X107736112Y-38409602D02*
G01*
X107754534Y-38409602D01*
X107759533Y-38409848D01*
X107808364Y-38414658D01*
X107813314Y-38415392D01*
X107861439Y-38424964D01*
X107866295Y-38426180D01*
X107913250Y-38440424D01*
X107917961Y-38442110D01*
X107963294Y-38460887D01*
X107967820Y-38463027D01*
X108011093Y-38486158D01*
X108015384Y-38488731D01*
X108056183Y-38515991D01*
X108060204Y-38518973D01*
X108098133Y-38550101D01*
X108101841Y-38553462D01*
X108136538Y-38588159D01*
X108139899Y-38591867D01*
X108171027Y-38629796D01*
X108174009Y-38633817D01*
X108201269Y-38674616D01*
X108203842Y-38678907D01*
X108226973Y-38722180D01*
X108229113Y-38726706D01*
X108247890Y-38772039D01*
X108249576Y-38776750D01*
X108263820Y-38823705D01*
X108265036Y-38828561D01*
X108274608Y-38876686D01*
X108275342Y-38881636D01*
X108280152Y-38930467D01*
X108280398Y-38935466D01*
X108280398Y-38953888D01*
X108281000Y-38960000D01*
X108281000Y-39460000D01*
X108280398Y-39466112D01*
X108280398Y-39484534D01*
X108280152Y-39489533D01*
X108275342Y-39538364D01*
X108274608Y-39543314D01*
X108265036Y-39591439D01*
X108263820Y-39596295D01*
X108249576Y-39643250D01*
X108247890Y-39647961D01*
X108229113Y-39693294D01*
X108226973Y-39697820D01*
X108203842Y-39741093D01*
X108201269Y-39745384D01*
X108174009Y-39786183D01*
X108171027Y-39790204D01*
X108139899Y-39828133D01*
X108136538Y-39831841D01*
X108101841Y-39866538D01*
X108098133Y-39869899D01*
X108060204Y-39901027D01*
X108056183Y-39904009D01*
X108015384Y-39931269D01*
X108011093Y-39933842D01*
X107967820Y-39956973D01*
X107963294Y-39959113D01*
X107917961Y-39977890D01*
X107913250Y-39979576D01*
X107866295Y-39993820D01*
X107861439Y-39995036D01*
X107813314Y-40004608D01*
X107808364Y-40005342D01*
X107759533Y-40010152D01*
X107754534Y-40010398D01*
X107736112Y-40010398D01*
X107730000Y-40011000D01*
X107180000Y-40011000D01*
X107170050Y-40010020D01*
X107160483Y-40007118D01*
X107151666Y-40002405D01*
X107143938Y-39996062D01*
X107137595Y-39988334D01*
X107132882Y-39979517D01*
X107129980Y-39969950D01*
X107129000Y-39960000D01*
X107129000Y-38460000D01*
X107129980Y-38450050D01*
X107132882Y-38440483D01*
X107137595Y-38431666D01*
X107143938Y-38423938D01*
X107151666Y-38417595D01*
X107160483Y-38412882D01*
X107170050Y-38409980D01*
X107180000Y-38409000D01*
X107730000Y-38409000D01*
X107736112Y-38409602D01*
G37*
G36*
X105689950Y-38409980D02*
G01*
X105699517Y-38412882D01*
X105708334Y-38417595D01*
X105716062Y-38423938D01*
X105722405Y-38431666D01*
X105727118Y-38440483D01*
X105730020Y-38450050D01*
X105731000Y-38460000D01*
X105731000Y-39960000D01*
X105730020Y-39969950D01*
X105727118Y-39979517D01*
X105722405Y-39988334D01*
X105716062Y-39996062D01*
X105708334Y-40002405D01*
X105699517Y-40007118D01*
X105689950Y-40010020D01*
X105680000Y-40011000D01*
X105130000Y-40011000D01*
X105123888Y-40010398D01*
X105105466Y-40010398D01*
X105100467Y-40010152D01*
X105051636Y-40005342D01*
X105046686Y-40004608D01*
X104998561Y-39995036D01*
X104993705Y-39993820D01*
X104946750Y-39979576D01*
X104942039Y-39977890D01*
X104896706Y-39959113D01*
X104892180Y-39956973D01*
X104848907Y-39933842D01*
X104844616Y-39931269D01*
X104803817Y-39904009D01*
X104799796Y-39901027D01*
X104761867Y-39869899D01*
X104758159Y-39866538D01*
X104723462Y-39831841D01*
X104720101Y-39828133D01*
X104688973Y-39790204D01*
X104685991Y-39786183D01*
X104658731Y-39745384D01*
X104656158Y-39741093D01*
X104633027Y-39697820D01*
X104630887Y-39693294D01*
X104612110Y-39647961D01*
X104610424Y-39643250D01*
X104596180Y-39596295D01*
X104594964Y-39591439D01*
X104585392Y-39543314D01*
X104584658Y-39538364D01*
X104579848Y-39489533D01*
X104579602Y-39484534D01*
X104579602Y-39466112D01*
X104579000Y-39460000D01*
X104579000Y-38960000D01*
X104579602Y-38953888D01*
X104579602Y-38935466D01*
X104579848Y-38930467D01*
X104584658Y-38881636D01*
X104585392Y-38876686D01*
X104594964Y-38828561D01*
X104596180Y-38823705D01*
X104610424Y-38776750D01*
X104612110Y-38772039D01*
X104630887Y-38726706D01*
X104633027Y-38722180D01*
X104656158Y-38678907D01*
X104658731Y-38674616D01*
X104685991Y-38633817D01*
X104688973Y-38629796D01*
X104720101Y-38591867D01*
X104723462Y-38588159D01*
X104758159Y-38553462D01*
X104761867Y-38550101D01*
X104799796Y-38518973D01*
X104803817Y-38515991D01*
X104844616Y-38488731D01*
X104848907Y-38486158D01*
X104892180Y-38463027D01*
X104896706Y-38460887D01*
X104942039Y-38442110D01*
X104946750Y-38440424D01*
X104993705Y-38426180D01*
X104998561Y-38424964D01*
X105046686Y-38415392D01*
X105051636Y-38414658D01*
X105100467Y-38409848D01*
X105105466Y-38409602D01*
X105123888Y-38409602D01*
X105130000Y-38409000D01*
X105680000Y-38409000D01*
X105689950Y-38409980D01*
G37*
G36*
G01*
X105879000Y-42510000D02*
X105879000Y-41010000D01*
G75*
G02*
X105930000Y-40959000I51000J0D01*
G01*
X106930000Y-40959000D01*
G75*
G02*
X106981000Y-41010000I0J-51000D01*
G01*
X106981000Y-42510000D01*
G75*
G02*
X106930000Y-42561000I-51000J0D01*
G01*
X105930000Y-42561000D01*
G75*
G02*
X105879000Y-42510000I0J51000D01*
G01*
G37*
G36*
X107736112Y-40959602D02*
G01*
X107754534Y-40959602D01*
X107759533Y-40959848D01*
X107808364Y-40964658D01*
X107813314Y-40965392D01*
X107861439Y-40974964D01*
X107866295Y-40976180D01*
X107913250Y-40990424D01*
X107917961Y-40992110D01*
X107963294Y-41010887D01*
X107967820Y-41013027D01*
X108011093Y-41036158D01*
X108015384Y-41038731D01*
X108056183Y-41065991D01*
X108060204Y-41068973D01*
X108098133Y-41100101D01*
X108101841Y-41103462D01*
X108136538Y-41138159D01*
X108139899Y-41141867D01*
X108171027Y-41179796D01*
X108174009Y-41183817D01*
X108201269Y-41224616D01*
X108203842Y-41228907D01*
X108226973Y-41272180D01*
X108229113Y-41276706D01*
X108247890Y-41322039D01*
X108249576Y-41326750D01*
X108263820Y-41373705D01*
X108265036Y-41378561D01*
X108274608Y-41426686D01*
X108275342Y-41431636D01*
X108280152Y-41480467D01*
X108280398Y-41485466D01*
X108280398Y-41503888D01*
X108281000Y-41510000D01*
X108281000Y-42010000D01*
X108280398Y-42016112D01*
X108280398Y-42034534D01*
X108280152Y-42039533D01*
X108275342Y-42088364D01*
X108274608Y-42093314D01*
X108265036Y-42141439D01*
X108263820Y-42146295D01*
X108249576Y-42193250D01*
X108247890Y-42197961D01*
X108229113Y-42243294D01*
X108226973Y-42247820D01*
X108203842Y-42291093D01*
X108201269Y-42295384D01*
X108174009Y-42336183D01*
X108171027Y-42340204D01*
X108139899Y-42378133D01*
X108136538Y-42381841D01*
X108101841Y-42416538D01*
X108098133Y-42419899D01*
X108060204Y-42451027D01*
X108056183Y-42454009D01*
X108015384Y-42481269D01*
X108011093Y-42483842D01*
X107967820Y-42506973D01*
X107963294Y-42509113D01*
X107917961Y-42527890D01*
X107913250Y-42529576D01*
X107866295Y-42543820D01*
X107861439Y-42545036D01*
X107813314Y-42554608D01*
X107808364Y-42555342D01*
X107759533Y-42560152D01*
X107754534Y-42560398D01*
X107736112Y-42560398D01*
X107730000Y-42561000D01*
X107180000Y-42561000D01*
X107170050Y-42560020D01*
X107160483Y-42557118D01*
X107151666Y-42552405D01*
X107143938Y-42546062D01*
X107137595Y-42538334D01*
X107132882Y-42529517D01*
X107129980Y-42519950D01*
X107129000Y-42510000D01*
X107129000Y-41010000D01*
X107129980Y-41000050D01*
X107132882Y-40990483D01*
X107137595Y-40981666D01*
X107143938Y-40973938D01*
X107151666Y-40967595D01*
X107160483Y-40962882D01*
X107170050Y-40959980D01*
X107180000Y-40959000D01*
X107730000Y-40959000D01*
X107736112Y-40959602D01*
G37*
G36*
X105689950Y-40959980D02*
G01*
X105699517Y-40962882D01*
X105708334Y-40967595D01*
X105716062Y-40973938D01*
X105722405Y-40981666D01*
X105727118Y-40990483D01*
X105730020Y-41000050D01*
X105731000Y-41010000D01*
X105731000Y-42510000D01*
X105730020Y-42519950D01*
X105727118Y-42529517D01*
X105722405Y-42538334D01*
X105716062Y-42546062D01*
X105708334Y-42552405D01*
X105699517Y-42557118D01*
X105689950Y-42560020D01*
X105680000Y-42561000D01*
X105130000Y-42561000D01*
X105123888Y-42560398D01*
X105105466Y-42560398D01*
X105100467Y-42560152D01*
X105051636Y-42555342D01*
X105046686Y-42554608D01*
X104998561Y-42545036D01*
X104993705Y-42543820D01*
X104946750Y-42529576D01*
X104942039Y-42527890D01*
X104896706Y-42509113D01*
X104892180Y-42506973D01*
X104848907Y-42483842D01*
X104844616Y-42481269D01*
X104803817Y-42454009D01*
X104799796Y-42451027D01*
X104761867Y-42419899D01*
X104758159Y-42416538D01*
X104723462Y-42381841D01*
X104720101Y-42378133D01*
X104688973Y-42340204D01*
X104685991Y-42336183D01*
X104658731Y-42295384D01*
X104656158Y-42291093D01*
X104633027Y-42247820D01*
X104630887Y-42243294D01*
X104612110Y-42197961D01*
X104610424Y-42193250D01*
X104596180Y-42146295D01*
X104594964Y-42141439D01*
X104585392Y-42093314D01*
X104584658Y-42088364D01*
X104579848Y-42039533D01*
X104579602Y-42034534D01*
X104579602Y-42016112D01*
X104579000Y-42010000D01*
X104579000Y-41510000D01*
X104579602Y-41503888D01*
X104579602Y-41485466D01*
X104579848Y-41480467D01*
X104584658Y-41431636D01*
X104585392Y-41426686D01*
X104594964Y-41378561D01*
X104596180Y-41373705D01*
X104610424Y-41326750D01*
X104612110Y-41322039D01*
X104630887Y-41276706D01*
X104633027Y-41272180D01*
X104656158Y-41228907D01*
X104658731Y-41224616D01*
X104685991Y-41183817D01*
X104688973Y-41179796D01*
X104720101Y-41141867D01*
X104723462Y-41138159D01*
X104758159Y-41103462D01*
X104761867Y-41100101D01*
X104799796Y-41068973D01*
X104803817Y-41065991D01*
X104844616Y-41038731D01*
X104848907Y-41036158D01*
X104892180Y-41013027D01*
X104896706Y-41010887D01*
X104942039Y-40992110D01*
X104946750Y-40990424D01*
X104993705Y-40976180D01*
X104998561Y-40974964D01*
X105046686Y-40965392D01*
X105051636Y-40964658D01*
X105100467Y-40959848D01*
X105105466Y-40959602D01*
X105123888Y-40959602D01*
X105130000Y-40959000D01*
X105680000Y-40959000D01*
X105689950Y-40959980D01*
G37*
G36*
G01*
X105879000Y-45060000D02*
X105879000Y-43560000D01*
G75*
G02*
X105930000Y-43509000I51000J0D01*
G01*
X106930000Y-43509000D01*
G75*
G02*
X106981000Y-43560000I0J-51000D01*
G01*
X106981000Y-45060000D01*
G75*
G02*
X106930000Y-45111000I-51000J0D01*
G01*
X105930000Y-45111000D01*
G75*
G02*
X105879000Y-45060000I0J51000D01*
G01*
G37*
G36*
X107736112Y-43509602D02*
G01*
X107754534Y-43509602D01*
X107759533Y-43509848D01*
X107808364Y-43514658D01*
X107813314Y-43515392D01*
X107861439Y-43524964D01*
X107866295Y-43526180D01*
X107913250Y-43540424D01*
X107917961Y-43542110D01*
X107963294Y-43560887D01*
X107967820Y-43563027D01*
X108011093Y-43586158D01*
X108015384Y-43588731D01*
X108056183Y-43615991D01*
X108060204Y-43618973D01*
X108098133Y-43650101D01*
X108101841Y-43653462D01*
X108136538Y-43688159D01*
X108139899Y-43691867D01*
X108171027Y-43729796D01*
X108174009Y-43733817D01*
X108201269Y-43774616D01*
X108203842Y-43778907D01*
X108226973Y-43822180D01*
X108229113Y-43826706D01*
X108247890Y-43872039D01*
X108249576Y-43876750D01*
X108263820Y-43923705D01*
X108265036Y-43928561D01*
X108274608Y-43976686D01*
X108275342Y-43981636D01*
X108280152Y-44030467D01*
X108280398Y-44035466D01*
X108280398Y-44053888D01*
X108281000Y-44060000D01*
X108281000Y-44560000D01*
X108280398Y-44566112D01*
X108280398Y-44584534D01*
X108280152Y-44589533D01*
X108275342Y-44638364D01*
X108274608Y-44643314D01*
X108265036Y-44691439D01*
X108263820Y-44696295D01*
X108249576Y-44743250D01*
X108247890Y-44747961D01*
X108229113Y-44793294D01*
X108226973Y-44797820D01*
X108203842Y-44841093D01*
X108201269Y-44845384D01*
X108174009Y-44886183D01*
X108171027Y-44890204D01*
X108139899Y-44928133D01*
X108136538Y-44931841D01*
X108101841Y-44966538D01*
X108098133Y-44969899D01*
X108060204Y-45001027D01*
X108056183Y-45004009D01*
X108015384Y-45031269D01*
X108011093Y-45033842D01*
X107967820Y-45056973D01*
X107963294Y-45059113D01*
X107917961Y-45077890D01*
X107913250Y-45079576D01*
X107866295Y-45093820D01*
X107861439Y-45095036D01*
X107813314Y-45104608D01*
X107808364Y-45105342D01*
X107759533Y-45110152D01*
X107754534Y-45110398D01*
X107736112Y-45110398D01*
X107730000Y-45111000D01*
X107180000Y-45111000D01*
X107170050Y-45110020D01*
X107160483Y-45107118D01*
X107151666Y-45102405D01*
X107143938Y-45096062D01*
X107137595Y-45088334D01*
X107132882Y-45079517D01*
X107129980Y-45069950D01*
X107129000Y-45060000D01*
X107129000Y-43560000D01*
X107129980Y-43550050D01*
X107132882Y-43540483D01*
X107137595Y-43531666D01*
X107143938Y-43523938D01*
X107151666Y-43517595D01*
X107160483Y-43512882D01*
X107170050Y-43509980D01*
X107180000Y-43509000D01*
X107730000Y-43509000D01*
X107736112Y-43509602D01*
G37*
G36*
X105689950Y-43509980D02*
G01*
X105699517Y-43512882D01*
X105708334Y-43517595D01*
X105716062Y-43523938D01*
X105722405Y-43531666D01*
X105727118Y-43540483D01*
X105730020Y-43550050D01*
X105731000Y-43560000D01*
X105731000Y-45060000D01*
X105730020Y-45069950D01*
X105727118Y-45079517D01*
X105722405Y-45088334D01*
X105716062Y-45096062D01*
X105708334Y-45102405D01*
X105699517Y-45107118D01*
X105689950Y-45110020D01*
X105680000Y-45111000D01*
X105130000Y-45111000D01*
X105123888Y-45110398D01*
X105105466Y-45110398D01*
X105100467Y-45110152D01*
X105051636Y-45105342D01*
X105046686Y-45104608D01*
X104998561Y-45095036D01*
X104993705Y-45093820D01*
X104946750Y-45079576D01*
X104942039Y-45077890D01*
X104896706Y-45059113D01*
X104892180Y-45056973D01*
X104848907Y-45033842D01*
X104844616Y-45031269D01*
X104803817Y-45004009D01*
X104799796Y-45001027D01*
X104761867Y-44969899D01*
X104758159Y-44966538D01*
X104723462Y-44931841D01*
X104720101Y-44928133D01*
X104688973Y-44890204D01*
X104685991Y-44886183D01*
X104658731Y-44845384D01*
X104656158Y-44841093D01*
X104633027Y-44797820D01*
X104630887Y-44793294D01*
X104612110Y-44747961D01*
X104610424Y-44743250D01*
X104596180Y-44696295D01*
X104594964Y-44691439D01*
X104585392Y-44643314D01*
X104584658Y-44638364D01*
X104579848Y-44589533D01*
X104579602Y-44584534D01*
X104579602Y-44566112D01*
X104579000Y-44560000D01*
X104579000Y-44060000D01*
X104579602Y-44053888D01*
X104579602Y-44035466D01*
X104579848Y-44030467D01*
X104584658Y-43981636D01*
X104585392Y-43976686D01*
X104594964Y-43928561D01*
X104596180Y-43923705D01*
X104610424Y-43876750D01*
X104612110Y-43872039D01*
X104630887Y-43826706D01*
X104633027Y-43822180D01*
X104656158Y-43778907D01*
X104658731Y-43774616D01*
X104685991Y-43733817D01*
X104688973Y-43729796D01*
X104720101Y-43691867D01*
X104723462Y-43688159D01*
X104758159Y-43653462D01*
X104761867Y-43650101D01*
X104799796Y-43618973D01*
X104803817Y-43615991D01*
X104844616Y-43588731D01*
X104848907Y-43586158D01*
X104892180Y-43563027D01*
X104896706Y-43560887D01*
X104942039Y-43542110D01*
X104946750Y-43540424D01*
X104993705Y-43526180D01*
X104998561Y-43524964D01*
X105046686Y-43515392D01*
X105051636Y-43514658D01*
X105100467Y-43509848D01*
X105105466Y-43509602D01*
X105123888Y-43509602D01*
X105130000Y-43509000D01*
X105680000Y-43509000D01*
X105689950Y-43509980D01*
G37*
D14*
X68900000Y-82360000D03*
X94300000Y-82360000D03*
X68900000Y-79820000D03*
X94300000Y-79820000D03*
X68900000Y-77280000D03*
X94300000Y-77280000D03*
X68900000Y-74740000D03*
X94300000Y-74740000D03*
X68900000Y-72200000D03*
X94300000Y-72200000D03*
X68900000Y-69660000D03*
X94300000Y-69660000D03*
X68900000Y-67120000D03*
X94300000Y-67120000D03*
X68900000Y-64580000D03*
X94300000Y-64580000D03*
X68900000Y-62040000D03*
X94300000Y-62040000D03*
X68900000Y-59500000D03*
X94300000Y-59500000D03*
X68900000Y-56960000D03*
X94300000Y-56960000D03*
X68900000Y-54420000D03*
X94300000Y-54420000D03*
X68900000Y-51880000D03*
X94300000Y-51880000D03*
X68900000Y-49340000D03*
X94300000Y-49340000D03*
X68900000Y-46800000D03*
X94300000Y-46800000D03*
X68900000Y-44260000D03*
X94300000Y-44260000D03*
X68900000Y-41720000D03*
X94300000Y-41720000D03*
X68900000Y-39180000D03*
X94300000Y-39180000D03*
X68900000Y-36640000D03*
X94300000Y-36640000D03*
D13*
X109272000Y-80960000D03*
X111812000Y-80960000D03*
D14*
X83020000Y-93820000D03*
X83020000Y-91280000D03*
X83020000Y-88740000D03*
G36*
G01*
X82119000Y-87050000D02*
X82119000Y-85350000D01*
G75*
G02*
X82170000Y-85299000I51000J0D01*
G01*
X83870000Y-85299000D01*
G75*
G02*
X83921000Y-85350000I0J-51000D01*
G01*
X83921000Y-87050000D01*
G75*
G02*
X83870000Y-87101000I-51000J0D01*
G01*
X82170000Y-87101000D01*
G75*
G02*
X82119000Y-87050000I0J51000D01*
G01*
G37*
X97480000Y-91210000D03*
X94940000Y-91210000D03*
X97480000Y-88670000D03*
X94940000Y-88670000D03*
X97480000Y-86130000D03*
G36*
G01*
X94039000Y-86980000D02*
X94039000Y-85280000D01*
G75*
G02*
X94090000Y-85229000I51000J0D01*
G01*
X95790000Y-85229000D01*
G75*
G02*
X95841000Y-85280000I0J-51000D01*
G01*
X95841000Y-86980000D01*
G75*
G02*
X95790000Y-87031000I-51000J0D01*
G01*
X94090000Y-87031000D01*
G75*
G02*
X94039000Y-86980000I0J51000D01*
G01*
G37*
X97940000Y-81260000D03*
X97940000Y-78720000D03*
X100480000Y-81260000D03*
X100480000Y-78720000D03*
X103020000Y-81260000D03*
X103020000Y-78720000D03*
X105560000Y-81260000D03*
G36*
G01*
X104710000Y-77819000D02*
X106410000Y-77819000D01*
G75*
G02*
X106461000Y-77870000I0J-51000D01*
G01*
X106461000Y-79570000D01*
G75*
G02*
X106410000Y-79621000I-51000J0D01*
G01*
X104710000Y-79621000D01*
G75*
G02*
X104659000Y-79570000I0J51000D01*
G01*
X104659000Y-77870000D01*
G75*
G02*
X104710000Y-77819000I51000J0D01*
G01*
G37*
G36*
G01*
X105459000Y-75810000D02*
X105459000Y-74310000D01*
G75*
G02*
X105510000Y-74259000I51000J0D01*
G01*
X106510000Y-74259000D01*
G75*
G02*
X106561000Y-74310000I0J-51000D01*
G01*
X106561000Y-75810000D01*
G75*
G02*
X106510000Y-75861000I-51000J0D01*
G01*
X105510000Y-75861000D01*
G75*
G02*
X105459000Y-75810000I0J51000D01*
G01*
G37*
D10*
G36*
X107316112Y-74259602D02*
G01*
X107334534Y-74259602D01*
X107339533Y-74259848D01*
X107388364Y-74264658D01*
X107393314Y-74265392D01*
X107441439Y-74274964D01*
X107446295Y-74276180D01*
X107493250Y-74290424D01*
X107497961Y-74292110D01*
X107543294Y-74310887D01*
X107547820Y-74313027D01*
X107591093Y-74336158D01*
X107595384Y-74338731D01*
X107636183Y-74365991D01*
X107640204Y-74368973D01*
X107678133Y-74400101D01*
X107681841Y-74403462D01*
X107716538Y-74438159D01*
X107719899Y-74441867D01*
X107751027Y-74479796D01*
X107754009Y-74483817D01*
X107781269Y-74524616D01*
X107783842Y-74528907D01*
X107806973Y-74572180D01*
X107809113Y-74576706D01*
X107827890Y-74622039D01*
X107829576Y-74626750D01*
X107843820Y-74673705D01*
X107845036Y-74678561D01*
X107854608Y-74726686D01*
X107855342Y-74731636D01*
X107860152Y-74780467D01*
X107860398Y-74785466D01*
X107860398Y-74803888D01*
X107861000Y-74810000D01*
X107861000Y-75310000D01*
X107860398Y-75316112D01*
X107860398Y-75334534D01*
X107860152Y-75339533D01*
X107855342Y-75388364D01*
X107854608Y-75393314D01*
X107845036Y-75441439D01*
X107843820Y-75446295D01*
X107829576Y-75493250D01*
X107827890Y-75497961D01*
X107809113Y-75543294D01*
X107806973Y-75547820D01*
X107783842Y-75591093D01*
X107781269Y-75595384D01*
X107754009Y-75636183D01*
X107751027Y-75640204D01*
X107719899Y-75678133D01*
X107716538Y-75681841D01*
X107681841Y-75716538D01*
X107678133Y-75719899D01*
X107640204Y-75751027D01*
X107636183Y-75754009D01*
X107595384Y-75781269D01*
X107591093Y-75783842D01*
X107547820Y-75806973D01*
X107543294Y-75809113D01*
X107497961Y-75827890D01*
X107493250Y-75829576D01*
X107446295Y-75843820D01*
X107441439Y-75845036D01*
X107393314Y-75854608D01*
X107388364Y-75855342D01*
X107339533Y-75860152D01*
X107334534Y-75860398D01*
X107316112Y-75860398D01*
X107310000Y-75861000D01*
X106760000Y-75861000D01*
X106750050Y-75860020D01*
X106740483Y-75857118D01*
X106731666Y-75852405D01*
X106723938Y-75846062D01*
X106717595Y-75838334D01*
X106712882Y-75829517D01*
X106709980Y-75819950D01*
X106709000Y-75810000D01*
X106709000Y-74310000D01*
X106709980Y-74300050D01*
X106712882Y-74290483D01*
X106717595Y-74281666D01*
X106723938Y-74273938D01*
X106731666Y-74267595D01*
X106740483Y-74262882D01*
X106750050Y-74259980D01*
X106760000Y-74259000D01*
X107310000Y-74259000D01*
X107316112Y-74259602D01*
G37*
G36*
X105269950Y-74259980D02*
G01*
X105279517Y-74262882D01*
X105288334Y-74267595D01*
X105296062Y-74273938D01*
X105302405Y-74281666D01*
X105307118Y-74290483D01*
X105310020Y-74300050D01*
X105311000Y-74310000D01*
X105311000Y-75810000D01*
X105310020Y-75819950D01*
X105307118Y-75829517D01*
X105302405Y-75838334D01*
X105296062Y-75846062D01*
X105288334Y-75852405D01*
X105279517Y-75857118D01*
X105269950Y-75860020D01*
X105260000Y-75861000D01*
X104710000Y-75861000D01*
X104703888Y-75860398D01*
X104685466Y-75860398D01*
X104680467Y-75860152D01*
X104631636Y-75855342D01*
X104626686Y-75854608D01*
X104578561Y-75845036D01*
X104573705Y-75843820D01*
X104526750Y-75829576D01*
X104522039Y-75827890D01*
X104476706Y-75809113D01*
X104472180Y-75806973D01*
X104428907Y-75783842D01*
X104424616Y-75781269D01*
X104383817Y-75754009D01*
X104379796Y-75751027D01*
X104341867Y-75719899D01*
X104338159Y-75716538D01*
X104303462Y-75681841D01*
X104300101Y-75678133D01*
X104268973Y-75640204D01*
X104265991Y-75636183D01*
X104238731Y-75595384D01*
X104236158Y-75591093D01*
X104213027Y-75547820D01*
X104210887Y-75543294D01*
X104192110Y-75497961D01*
X104190424Y-75493250D01*
X104176180Y-75446295D01*
X104174964Y-75441439D01*
X104165392Y-75393314D01*
X104164658Y-75388364D01*
X104159848Y-75339533D01*
X104159602Y-75334534D01*
X104159602Y-75316112D01*
X104159000Y-75310000D01*
X104159000Y-74810000D01*
X104159602Y-74803888D01*
X104159602Y-74785466D01*
X104159848Y-74780467D01*
X104164658Y-74731636D01*
X104165392Y-74726686D01*
X104174964Y-74678561D01*
X104176180Y-74673705D01*
X104190424Y-74626750D01*
X104192110Y-74622039D01*
X104210887Y-74576706D01*
X104213027Y-74572180D01*
X104236158Y-74528907D01*
X104238731Y-74524616D01*
X104265991Y-74483817D01*
X104268973Y-74479796D01*
X104300101Y-74441867D01*
X104303462Y-74438159D01*
X104338159Y-74403462D01*
X104341867Y-74400101D01*
X104379796Y-74368973D01*
X104383817Y-74365991D01*
X104424616Y-74338731D01*
X104428907Y-74336158D01*
X104472180Y-74313027D01*
X104476706Y-74310887D01*
X104522039Y-74292110D01*
X104526750Y-74290424D01*
X104573705Y-74276180D01*
X104578561Y-74274964D01*
X104626686Y-74265392D01*
X104631636Y-74264658D01*
X104680467Y-74259848D01*
X104685466Y-74259602D01*
X104703888Y-74259602D01*
X104710000Y-74259000D01*
X105260000Y-74259000D01*
X105269950Y-74259980D01*
G37*
G36*
G01*
X105459000Y-73260000D02*
X105459000Y-71760000D01*
G75*
G02*
X105510000Y-71709000I51000J0D01*
G01*
X106510000Y-71709000D01*
G75*
G02*
X106561000Y-71760000I0J-51000D01*
G01*
X106561000Y-73260000D01*
G75*
G02*
X106510000Y-73311000I-51000J0D01*
G01*
X105510000Y-73311000D01*
G75*
G02*
X105459000Y-73260000I0J51000D01*
G01*
G37*
G36*
X107316112Y-71709602D02*
G01*
X107334534Y-71709602D01*
X107339533Y-71709848D01*
X107388364Y-71714658D01*
X107393314Y-71715392D01*
X107441439Y-71724964D01*
X107446295Y-71726180D01*
X107493250Y-71740424D01*
X107497961Y-71742110D01*
X107543294Y-71760887D01*
X107547820Y-71763027D01*
X107591093Y-71786158D01*
X107595384Y-71788731D01*
X107636183Y-71815991D01*
X107640204Y-71818973D01*
X107678133Y-71850101D01*
X107681841Y-71853462D01*
X107716538Y-71888159D01*
X107719899Y-71891867D01*
X107751027Y-71929796D01*
X107754009Y-71933817D01*
X107781269Y-71974616D01*
X107783842Y-71978907D01*
X107806973Y-72022180D01*
X107809113Y-72026706D01*
X107827890Y-72072039D01*
X107829576Y-72076750D01*
X107843820Y-72123705D01*
X107845036Y-72128561D01*
X107854608Y-72176686D01*
X107855342Y-72181636D01*
X107860152Y-72230467D01*
X107860398Y-72235466D01*
X107860398Y-72253888D01*
X107861000Y-72260000D01*
X107861000Y-72760000D01*
X107860398Y-72766112D01*
X107860398Y-72784534D01*
X107860152Y-72789533D01*
X107855342Y-72838364D01*
X107854608Y-72843314D01*
X107845036Y-72891439D01*
X107843820Y-72896295D01*
X107829576Y-72943250D01*
X107827890Y-72947961D01*
X107809113Y-72993294D01*
X107806973Y-72997820D01*
X107783842Y-73041093D01*
X107781269Y-73045384D01*
X107754009Y-73086183D01*
X107751027Y-73090204D01*
X107719899Y-73128133D01*
X107716538Y-73131841D01*
X107681841Y-73166538D01*
X107678133Y-73169899D01*
X107640204Y-73201027D01*
X107636183Y-73204009D01*
X107595384Y-73231269D01*
X107591093Y-73233842D01*
X107547820Y-73256973D01*
X107543294Y-73259113D01*
X107497961Y-73277890D01*
X107493250Y-73279576D01*
X107446295Y-73293820D01*
X107441439Y-73295036D01*
X107393314Y-73304608D01*
X107388364Y-73305342D01*
X107339533Y-73310152D01*
X107334534Y-73310398D01*
X107316112Y-73310398D01*
X107310000Y-73311000D01*
X106760000Y-73311000D01*
X106750050Y-73310020D01*
X106740483Y-73307118D01*
X106731666Y-73302405D01*
X106723938Y-73296062D01*
X106717595Y-73288334D01*
X106712882Y-73279517D01*
X106709980Y-73269950D01*
X106709000Y-73260000D01*
X106709000Y-71760000D01*
X106709980Y-71750050D01*
X106712882Y-71740483D01*
X106717595Y-71731666D01*
X106723938Y-71723938D01*
X106731666Y-71717595D01*
X106740483Y-71712882D01*
X106750050Y-71709980D01*
X106760000Y-71709000D01*
X107310000Y-71709000D01*
X107316112Y-71709602D01*
G37*
G36*
X105269950Y-71709980D02*
G01*
X105279517Y-71712882D01*
X105288334Y-71717595D01*
X105296062Y-71723938D01*
X105302405Y-71731666D01*
X105307118Y-71740483D01*
X105310020Y-71750050D01*
X105311000Y-71760000D01*
X105311000Y-73260000D01*
X105310020Y-73269950D01*
X105307118Y-73279517D01*
X105302405Y-73288334D01*
X105296062Y-73296062D01*
X105288334Y-73302405D01*
X105279517Y-73307118D01*
X105269950Y-73310020D01*
X105260000Y-73311000D01*
X104710000Y-73311000D01*
X104703888Y-73310398D01*
X104685466Y-73310398D01*
X104680467Y-73310152D01*
X104631636Y-73305342D01*
X104626686Y-73304608D01*
X104578561Y-73295036D01*
X104573705Y-73293820D01*
X104526750Y-73279576D01*
X104522039Y-73277890D01*
X104476706Y-73259113D01*
X104472180Y-73256973D01*
X104428907Y-73233842D01*
X104424616Y-73231269D01*
X104383817Y-73204009D01*
X104379796Y-73201027D01*
X104341867Y-73169899D01*
X104338159Y-73166538D01*
X104303462Y-73131841D01*
X104300101Y-73128133D01*
X104268973Y-73090204D01*
X104265991Y-73086183D01*
X104238731Y-73045384D01*
X104236158Y-73041093D01*
X104213027Y-72997820D01*
X104210887Y-72993294D01*
X104192110Y-72947961D01*
X104190424Y-72943250D01*
X104176180Y-72896295D01*
X104174964Y-72891439D01*
X104165392Y-72843314D01*
X104164658Y-72838364D01*
X104159848Y-72789533D01*
X104159602Y-72784534D01*
X104159602Y-72766112D01*
X104159000Y-72760000D01*
X104159000Y-72260000D01*
X104159602Y-72253888D01*
X104159602Y-72235466D01*
X104159848Y-72230467D01*
X104164658Y-72181636D01*
X104165392Y-72176686D01*
X104174964Y-72128561D01*
X104176180Y-72123705D01*
X104190424Y-72076750D01*
X104192110Y-72072039D01*
X104210887Y-72026706D01*
X104213027Y-72022180D01*
X104236158Y-71978907D01*
X104238731Y-71974616D01*
X104265991Y-71933817D01*
X104268973Y-71929796D01*
X104300101Y-71891867D01*
X104303462Y-71888159D01*
X104338159Y-71853462D01*
X104341867Y-71850101D01*
X104379796Y-71818973D01*
X104383817Y-71815991D01*
X104424616Y-71788731D01*
X104428907Y-71786158D01*
X104472180Y-71763027D01*
X104476706Y-71760887D01*
X104522039Y-71742110D01*
X104526750Y-71740424D01*
X104573705Y-71726180D01*
X104578561Y-71724964D01*
X104626686Y-71715392D01*
X104631636Y-71714658D01*
X104680467Y-71709848D01*
X104685466Y-71709602D01*
X104703888Y-71709602D01*
X104710000Y-71709000D01*
X105260000Y-71709000D01*
X105269950Y-71709980D01*
G37*
G36*
G01*
X105459000Y-70710000D02*
X105459000Y-69210000D01*
G75*
G02*
X105510000Y-69159000I51000J0D01*
G01*
X106510000Y-69159000D01*
G75*
G02*
X106561000Y-69210000I0J-51000D01*
G01*
X106561000Y-70710000D01*
G75*
G02*
X106510000Y-70761000I-51000J0D01*
G01*
X105510000Y-70761000D01*
G75*
G02*
X105459000Y-70710000I0J51000D01*
G01*
G37*
G36*
X107316112Y-69159602D02*
G01*
X107334534Y-69159602D01*
X107339533Y-69159848D01*
X107388364Y-69164658D01*
X107393314Y-69165392D01*
X107441439Y-69174964D01*
X107446295Y-69176180D01*
X107493250Y-69190424D01*
X107497961Y-69192110D01*
X107543294Y-69210887D01*
X107547820Y-69213027D01*
X107591093Y-69236158D01*
X107595384Y-69238731D01*
X107636183Y-69265991D01*
X107640204Y-69268973D01*
X107678133Y-69300101D01*
X107681841Y-69303462D01*
X107716538Y-69338159D01*
X107719899Y-69341867D01*
X107751027Y-69379796D01*
X107754009Y-69383817D01*
X107781269Y-69424616D01*
X107783842Y-69428907D01*
X107806973Y-69472180D01*
X107809113Y-69476706D01*
X107827890Y-69522039D01*
X107829576Y-69526750D01*
X107843820Y-69573705D01*
X107845036Y-69578561D01*
X107854608Y-69626686D01*
X107855342Y-69631636D01*
X107860152Y-69680467D01*
X107860398Y-69685466D01*
X107860398Y-69703888D01*
X107861000Y-69710000D01*
X107861000Y-70210000D01*
X107860398Y-70216112D01*
X107860398Y-70234534D01*
X107860152Y-70239533D01*
X107855342Y-70288364D01*
X107854608Y-70293314D01*
X107845036Y-70341439D01*
X107843820Y-70346295D01*
X107829576Y-70393250D01*
X107827890Y-70397961D01*
X107809113Y-70443294D01*
X107806973Y-70447820D01*
X107783842Y-70491093D01*
X107781269Y-70495384D01*
X107754009Y-70536183D01*
X107751027Y-70540204D01*
X107719899Y-70578133D01*
X107716538Y-70581841D01*
X107681841Y-70616538D01*
X107678133Y-70619899D01*
X107640204Y-70651027D01*
X107636183Y-70654009D01*
X107595384Y-70681269D01*
X107591093Y-70683842D01*
X107547820Y-70706973D01*
X107543294Y-70709113D01*
X107497961Y-70727890D01*
X107493250Y-70729576D01*
X107446295Y-70743820D01*
X107441439Y-70745036D01*
X107393314Y-70754608D01*
X107388364Y-70755342D01*
X107339533Y-70760152D01*
X107334534Y-70760398D01*
X107316112Y-70760398D01*
X107310000Y-70761000D01*
X106760000Y-70761000D01*
X106750050Y-70760020D01*
X106740483Y-70757118D01*
X106731666Y-70752405D01*
X106723938Y-70746062D01*
X106717595Y-70738334D01*
X106712882Y-70729517D01*
X106709980Y-70719950D01*
X106709000Y-70710000D01*
X106709000Y-69210000D01*
X106709980Y-69200050D01*
X106712882Y-69190483D01*
X106717595Y-69181666D01*
X106723938Y-69173938D01*
X106731666Y-69167595D01*
X106740483Y-69162882D01*
X106750050Y-69159980D01*
X106760000Y-69159000D01*
X107310000Y-69159000D01*
X107316112Y-69159602D01*
G37*
G36*
X105269950Y-69159980D02*
G01*
X105279517Y-69162882D01*
X105288334Y-69167595D01*
X105296062Y-69173938D01*
X105302405Y-69181666D01*
X105307118Y-69190483D01*
X105310020Y-69200050D01*
X105311000Y-69210000D01*
X105311000Y-70710000D01*
X105310020Y-70719950D01*
X105307118Y-70729517D01*
X105302405Y-70738334D01*
X105296062Y-70746062D01*
X105288334Y-70752405D01*
X105279517Y-70757118D01*
X105269950Y-70760020D01*
X105260000Y-70761000D01*
X104710000Y-70761000D01*
X104703888Y-70760398D01*
X104685466Y-70760398D01*
X104680467Y-70760152D01*
X104631636Y-70755342D01*
X104626686Y-70754608D01*
X104578561Y-70745036D01*
X104573705Y-70743820D01*
X104526750Y-70729576D01*
X104522039Y-70727890D01*
X104476706Y-70709113D01*
X104472180Y-70706973D01*
X104428907Y-70683842D01*
X104424616Y-70681269D01*
X104383817Y-70654009D01*
X104379796Y-70651027D01*
X104341867Y-70619899D01*
X104338159Y-70616538D01*
X104303462Y-70581841D01*
X104300101Y-70578133D01*
X104268973Y-70540204D01*
X104265991Y-70536183D01*
X104238731Y-70495384D01*
X104236158Y-70491093D01*
X104213027Y-70447820D01*
X104210887Y-70443294D01*
X104192110Y-70397961D01*
X104190424Y-70393250D01*
X104176180Y-70346295D01*
X104174964Y-70341439D01*
X104165392Y-70293314D01*
X104164658Y-70288364D01*
X104159848Y-70239533D01*
X104159602Y-70234534D01*
X104159602Y-70216112D01*
X104159000Y-70210000D01*
X104159000Y-69710000D01*
X104159602Y-69703888D01*
X104159602Y-69685466D01*
X104159848Y-69680467D01*
X104164658Y-69631636D01*
X104165392Y-69626686D01*
X104174964Y-69578561D01*
X104176180Y-69573705D01*
X104190424Y-69526750D01*
X104192110Y-69522039D01*
X104210887Y-69476706D01*
X104213027Y-69472180D01*
X104236158Y-69428907D01*
X104238731Y-69424616D01*
X104265991Y-69383817D01*
X104268973Y-69379796D01*
X104300101Y-69341867D01*
X104303462Y-69338159D01*
X104338159Y-69303462D01*
X104341867Y-69300101D01*
X104379796Y-69268973D01*
X104383817Y-69265991D01*
X104424616Y-69238731D01*
X104428907Y-69236158D01*
X104472180Y-69213027D01*
X104476706Y-69210887D01*
X104522039Y-69192110D01*
X104526750Y-69190424D01*
X104573705Y-69176180D01*
X104578561Y-69174964D01*
X104626686Y-69165392D01*
X104631636Y-69164658D01*
X104680467Y-69159848D01*
X104685466Y-69159602D01*
X104703888Y-69159602D01*
X104710000Y-69159000D01*
X105260000Y-69159000D01*
X105269950Y-69159980D01*
G37*
G36*
G01*
X105459000Y-68160000D02*
X105459000Y-66660000D01*
G75*
G02*
X105510000Y-66609000I51000J0D01*
G01*
X106510000Y-66609000D01*
G75*
G02*
X106561000Y-66660000I0J-51000D01*
G01*
X106561000Y-68160000D01*
G75*
G02*
X106510000Y-68211000I-51000J0D01*
G01*
X105510000Y-68211000D01*
G75*
G02*
X105459000Y-68160000I0J51000D01*
G01*
G37*
G36*
X107316112Y-66609602D02*
G01*
X107334534Y-66609602D01*
X107339533Y-66609848D01*
X107388364Y-66614658D01*
X107393314Y-66615392D01*
X107441439Y-66624964D01*
X107446295Y-66626180D01*
X107493250Y-66640424D01*
X107497961Y-66642110D01*
X107543294Y-66660887D01*
X107547820Y-66663027D01*
X107591093Y-66686158D01*
X107595384Y-66688731D01*
X107636183Y-66715991D01*
X107640204Y-66718973D01*
X107678133Y-66750101D01*
X107681841Y-66753462D01*
X107716538Y-66788159D01*
X107719899Y-66791867D01*
X107751027Y-66829796D01*
X107754009Y-66833817D01*
X107781269Y-66874616D01*
X107783842Y-66878907D01*
X107806973Y-66922180D01*
X107809113Y-66926706D01*
X107827890Y-66972039D01*
X107829576Y-66976750D01*
X107843820Y-67023705D01*
X107845036Y-67028561D01*
X107854608Y-67076686D01*
X107855342Y-67081636D01*
X107860152Y-67130467D01*
X107860398Y-67135466D01*
X107860398Y-67153888D01*
X107861000Y-67160000D01*
X107861000Y-67660000D01*
X107860398Y-67666112D01*
X107860398Y-67684534D01*
X107860152Y-67689533D01*
X107855342Y-67738364D01*
X107854608Y-67743314D01*
X107845036Y-67791439D01*
X107843820Y-67796295D01*
X107829576Y-67843250D01*
X107827890Y-67847961D01*
X107809113Y-67893294D01*
X107806973Y-67897820D01*
X107783842Y-67941093D01*
X107781269Y-67945384D01*
X107754009Y-67986183D01*
X107751027Y-67990204D01*
X107719899Y-68028133D01*
X107716538Y-68031841D01*
X107681841Y-68066538D01*
X107678133Y-68069899D01*
X107640204Y-68101027D01*
X107636183Y-68104009D01*
X107595384Y-68131269D01*
X107591093Y-68133842D01*
X107547820Y-68156973D01*
X107543294Y-68159113D01*
X107497961Y-68177890D01*
X107493250Y-68179576D01*
X107446295Y-68193820D01*
X107441439Y-68195036D01*
X107393314Y-68204608D01*
X107388364Y-68205342D01*
X107339533Y-68210152D01*
X107334534Y-68210398D01*
X107316112Y-68210398D01*
X107310000Y-68211000D01*
X106760000Y-68211000D01*
X106750050Y-68210020D01*
X106740483Y-68207118D01*
X106731666Y-68202405D01*
X106723938Y-68196062D01*
X106717595Y-68188334D01*
X106712882Y-68179517D01*
X106709980Y-68169950D01*
X106709000Y-68160000D01*
X106709000Y-66660000D01*
X106709980Y-66650050D01*
X106712882Y-66640483D01*
X106717595Y-66631666D01*
X106723938Y-66623938D01*
X106731666Y-66617595D01*
X106740483Y-66612882D01*
X106750050Y-66609980D01*
X106760000Y-66609000D01*
X107310000Y-66609000D01*
X107316112Y-66609602D01*
G37*
G36*
X105269950Y-66609980D02*
G01*
X105279517Y-66612882D01*
X105288334Y-66617595D01*
X105296062Y-66623938D01*
X105302405Y-66631666D01*
X105307118Y-66640483D01*
X105310020Y-66650050D01*
X105311000Y-66660000D01*
X105311000Y-68160000D01*
X105310020Y-68169950D01*
X105307118Y-68179517D01*
X105302405Y-68188334D01*
X105296062Y-68196062D01*
X105288334Y-68202405D01*
X105279517Y-68207118D01*
X105269950Y-68210020D01*
X105260000Y-68211000D01*
X104710000Y-68211000D01*
X104703888Y-68210398D01*
X104685466Y-68210398D01*
X104680467Y-68210152D01*
X104631636Y-68205342D01*
X104626686Y-68204608D01*
X104578561Y-68195036D01*
X104573705Y-68193820D01*
X104526750Y-68179576D01*
X104522039Y-68177890D01*
X104476706Y-68159113D01*
X104472180Y-68156973D01*
X104428907Y-68133842D01*
X104424616Y-68131269D01*
X104383817Y-68104009D01*
X104379796Y-68101027D01*
X104341867Y-68069899D01*
X104338159Y-68066538D01*
X104303462Y-68031841D01*
X104300101Y-68028133D01*
X104268973Y-67990204D01*
X104265991Y-67986183D01*
X104238731Y-67945384D01*
X104236158Y-67941093D01*
X104213027Y-67897820D01*
X104210887Y-67893294D01*
X104192110Y-67847961D01*
X104190424Y-67843250D01*
X104176180Y-67796295D01*
X104174964Y-67791439D01*
X104165392Y-67743314D01*
X104164658Y-67738364D01*
X104159848Y-67689533D01*
X104159602Y-67684534D01*
X104159602Y-67666112D01*
X104159000Y-67660000D01*
X104159000Y-67160000D01*
X104159602Y-67153888D01*
X104159602Y-67135466D01*
X104159848Y-67130467D01*
X104164658Y-67081636D01*
X104165392Y-67076686D01*
X104174964Y-67028561D01*
X104176180Y-67023705D01*
X104190424Y-66976750D01*
X104192110Y-66972039D01*
X104210887Y-66926706D01*
X104213027Y-66922180D01*
X104236158Y-66878907D01*
X104238731Y-66874616D01*
X104265991Y-66833817D01*
X104268973Y-66829796D01*
X104300101Y-66791867D01*
X104303462Y-66788159D01*
X104338159Y-66753462D01*
X104341867Y-66750101D01*
X104379796Y-66718973D01*
X104383817Y-66715991D01*
X104424616Y-66688731D01*
X104428907Y-66686158D01*
X104472180Y-66663027D01*
X104476706Y-66660887D01*
X104522039Y-66642110D01*
X104526750Y-66640424D01*
X104573705Y-66626180D01*
X104578561Y-66624964D01*
X104626686Y-66615392D01*
X104631636Y-66614658D01*
X104680467Y-66609848D01*
X104685466Y-66609602D01*
X104703888Y-66609602D01*
X104710000Y-66609000D01*
X105260000Y-66609000D01*
X105269950Y-66609980D01*
G37*
G36*
G01*
X105459000Y-65610000D02*
X105459000Y-64110000D01*
G75*
G02*
X105510000Y-64059000I51000J0D01*
G01*
X106510000Y-64059000D01*
G75*
G02*
X106561000Y-64110000I0J-51000D01*
G01*
X106561000Y-65610000D01*
G75*
G02*
X106510000Y-65661000I-51000J0D01*
G01*
X105510000Y-65661000D01*
G75*
G02*
X105459000Y-65610000I0J51000D01*
G01*
G37*
G36*
X107316112Y-64059602D02*
G01*
X107334534Y-64059602D01*
X107339533Y-64059848D01*
X107388364Y-64064658D01*
X107393314Y-64065392D01*
X107441439Y-64074964D01*
X107446295Y-64076180D01*
X107493250Y-64090424D01*
X107497961Y-64092110D01*
X107543294Y-64110887D01*
X107547820Y-64113027D01*
X107591093Y-64136158D01*
X107595384Y-64138731D01*
X107636183Y-64165991D01*
X107640204Y-64168973D01*
X107678133Y-64200101D01*
X107681841Y-64203462D01*
X107716538Y-64238159D01*
X107719899Y-64241867D01*
X107751027Y-64279796D01*
X107754009Y-64283817D01*
X107781269Y-64324616D01*
X107783842Y-64328907D01*
X107806973Y-64372180D01*
X107809113Y-64376706D01*
X107827890Y-64422039D01*
X107829576Y-64426750D01*
X107843820Y-64473705D01*
X107845036Y-64478561D01*
X107854608Y-64526686D01*
X107855342Y-64531636D01*
X107860152Y-64580467D01*
X107860398Y-64585466D01*
X107860398Y-64603888D01*
X107861000Y-64610000D01*
X107861000Y-65110000D01*
X107860398Y-65116112D01*
X107860398Y-65134534D01*
X107860152Y-65139533D01*
X107855342Y-65188364D01*
X107854608Y-65193314D01*
X107845036Y-65241439D01*
X107843820Y-65246295D01*
X107829576Y-65293250D01*
X107827890Y-65297961D01*
X107809113Y-65343294D01*
X107806973Y-65347820D01*
X107783842Y-65391093D01*
X107781269Y-65395384D01*
X107754009Y-65436183D01*
X107751027Y-65440204D01*
X107719899Y-65478133D01*
X107716538Y-65481841D01*
X107681841Y-65516538D01*
X107678133Y-65519899D01*
X107640204Y-65551027D01*
X107636183Y-65554009D01*
X107595384Y-65581269D01*
X107591093Y-65583842D01*
X107547820Y-65606973D01*
X107543294Y-65609113D01*
X107497961Y-65627890D01*
X107493250Y-65629576D01*
X107446295Y-65643820D01*
X107441439Y-65645036D01*
X107393314Y-65654608D01*
X107388364Y-65655342D01*
X107339533Y-65660152D01*
X107334534Y-65660398D01*
X107316112Y-65660398D01*
X107310000Y-65661000D01*
X106760000Y-65661000D01*
X106750050Y-65660020D01*
X106740483Y-65657118D01*
X106731666Y-65652405D01*
X106723938Y-65646062D01*
X106717595Y-65638334D01*
X106712882Y-65629517D01*
X106709980Y-65619950D01*
X106709000Y-65610000D01*
X106709000Y-64110000D01*
X106709980Y-64100050D01*
X106712882Y-64090483D01*
X106717595Y-64081666D01*
X106723938Y-64073938D01*
X106731666Y-64067595D01*
X106740483Y-64062882D01*
X106750050Y-64059980D01*
X106760000Y-64059000D01*
X107310000Y-64059000D01*
X107316112Y-64059602D01*
G37*
G36*
X105269950Y-64059980D02*
G01*
X105279517Y-64062882D01*
X105288334Y-64067595D01*
X105296062Y-64073938D01*
X105302405Y-64081666D01*
X105307118Y-64090483D01*
X105310020Y-64100050D01*
X105311000Y-64110000D01*
X105311000Y-65610000D01*
X105310020Y-65619950D01*
X105307118Y-65629517D01*
X105302405Y-65638334D01*
X105296062Y-65646062D01*
X105288334Y-65652405D01*
X105279517Y-65657118D01*
X105269950Y-65660020D01*
X105260000Y-65661000D01*
X104710000Y-65661000D01*
X104703888Y-65660398D01*
X104685466Y-65660398D01*
X104680467Y-65660152D01*
X104631636Y-65655342D01*
X104626686Y-65654608D01*
X104578561Y-65645036D01*
X104573705Y-65643820D01*
X104526750Y-65629576D01*
X104522039Y-65627890D01*
X104476706Y-65609113D01*
X104472180Y-65606973D01*
X104428907Y-65583842D01*
X104424616Y-65581269D01*
X104383817Y-65554009D01*
X104379796Y-65551027D01*
X104341867Y-65519899D01*
X104338159Y-65516538D01*
X104303462Y-65481841D01*
X104300101Y-65478133D01*
X104268973Y-65440204D01*
X104265991Y-65436183D01*
X104238731Y-65395384D01*
X104236158Y-65391093D01*
X104213027Y-65347820D01*
X104210887Y-65343294D01*
X104192110Y-65297961D01*
X104190424Y-65293250D01*
X104176180Y-65246295D01*
X104174964Y-65241439D01*
X104165392Y-65193314D01*
X104164658Y-65188364D01*
X104159848Y-65139533D01*
X104159602Y-65134534D01*
X104159602Y-65116112D01*
X104159000Y-65110000D01*
X104159000Y-64610000D01*
X104159602Y-64603888D01*
X104159602Y-64585466D01*
X104159848Y-64580467D01*
X104164658Y-64531636D01*
X104165392Y-64526686D01*
X104174964Y-64478561D01*
X104176180Y-64473705D01*
X104190424Y-64426750D01*
X104192110Y-64422039D01*
X104210887Y-64376706D01*
X104213027Y-64372180D01*
X104236158Y-64328907D01*
X104238731Y-64324616D01*
X104265991Y-64283817D01*
X104268973Y-64279796D01*
X104300101Y-64241867D01*
X104303462Y-64238159D01*
X104338159Y-64203462D01*
X104341867Y-64200101D01*
X104379796Y-64168973D01*
X104383817Y-64165991D01*
X104424616Y-64138731D01*
X104428907Y-64136158D01*
X104472180Y-64113027D01*
X104476706Y-64110887D01*
X104522039Y-64092110D01*
X104526750Y-64090424D01*
X104573705Y-64076180D01*
X104578561Y-64074964D01*
X104626686Y-64065392D01*
X104631636Y-64064658D01*
X104680467Y-64059848D01*
X104685466Y-64059602D01*
X104703888Y-64059602D01*
X104710000Y-64059000D01*
X105260000Y-64059000D01*
X105269950Y-64059980D01*
G37*
G36*
G01*
X105459000Y-63060000D02*
X105459000Y-61560000D01*
G75*
G02*
X105510000Y-61509000I51000J0D01*
G01*
X106510000Y-61509000D01*
G75*
G02*
X106561000Y-61560000I0J-51000D01*
G01*
X106561000Y-63060000D01*
G75*
G02*
X106510000Y-63111000I-51000J0D01*
G01*
X105510000Y-63111000D01*
G75*
G02*
X105459000Y-63060000I0J51000D01*
G01*
G37*
G36*
X107316112Y-61509602D02*
G01*
X107334534Y-61509602D01*
X107339533Y-61509848D01*
X107388364Y-61514658D01*
X107393314Y-61515392D01*
X107441439Y-61524964D01*
X107446295Y-61526180D01*
X107493250Y-61540424D01*
X107497961Y-61542110D01*
X107543294Y-61560887D01*
X107547820Y-61563027D01*
X107591093Y-61586158D01*
X107595384Y-61588731D01*
X107636183Y-61615991D01*
X107640204Y-61618973D01*
X107678133Y-61650101D01*
X107681841Y-61653462D01*
X107716538Y-61688159D01*
X107719899Y-61691867D01*
X107751027Y-61729796D01*
X107754009Y-61733817D01*
X107781269Y-61774616D01*
X107783842Y-61778907D01*
X107806973Y-61822180D01*
X107809113Y-61826706D01*
X107827890Y-61872039D01*
X107829576Y-61876750D01*
X107843820Y-61923705D01*
X107845036Y-61928561D01*
X107854608Y-61976686D01*
X107855342Y-61981636D01*
X107860152Y-62030467D01*
X107860398Y-62035466D01*
X107860398Y-62053888D01*
X107861000Y-62060000D01*
X107861000Y-62560000D01*
X107860398Y-62566112D01*
X107860398Y-62584534D01*
X107860152Y-62589533D01*
X107855342Y-62638364D01*
X107854608Y-62643314D01*
X107845036Y-62691439D01*
X107843820Y-62696295D01*
X107829576Y-62743250D01*
X107827890Y-62747961D01*
X107809113Y-62793294D01*
X107806973Y-62797820D01*
X107783842Y-62841093D01*
X107781269Y-62845384D01*
X107754009Y-62886183D01*
X107751027Y-62890204D01*
X107719899Y-62928133D01*
X107716538Y-62931841D01*
X107681841Y-62966538D01*
X107678133Y-62969899D01*
X107640204Y-63001027D01*
X107636183Y-63004009D01*
X107595384Y-63031269D01*
X107591093Y-63033842D01*
X107547820Y-63056973D01*
X107543294Y-63059113D01*
X107497961Y-63077890D01*
X107493250Y-63079576D01*
X107446295Y-63093820D01*
X107441439Y-63095036D01*
X107393314Y-63104608D01*
X107388364Y-63105342D01*
X107339533Y-63110152D01*
X107334534Y-63110398D01*
X107316112Y-63110398D01*
X107310000Y-63111000D01*
X106760000Y-63111000D01*
X106750050Y-63110020D01*
X106740483Y-63107118D01*
X106731666Y-63102405D01*
X106723938Y-63096062D01*
X106717595Y-63088334D01*
X106712882Y-63079517D01*
X106709980Y-63069950D01*
X106709000Y-63060000D01*
X106709000Y-61560000D01*
X106709980Y-61550050D01*
X106712882Y-61540483D01*
X106717595Y-61531666D01*
X106723938Y-61523938D01*
X106731666Y-61517595D01*
X106740483Y-61512882D01*
X106750050Y-61509980D01*
X106760000Y-61509000D01*
X107310000Y-61509000D01*
X107316112Y-61509602D01*
G37*
G36*
X105269950Y-61509980D02*
G01*
X105279517Y-61512882D01*
X105288334Y-61517595D01*
X105296062Y-61523938D01*
X105302405Y-61531666D01*
X105307118Y-61540483D01*
X105310020Y-61550050D01*
X105311000Y-61560000D01*
X105311000Y-63060000D01*
X105310020Y-63069950D01*
X105307118Y-63079517D01*
X105302405Y-63088334D01*
X105296062Y-63096062D01*
X105288334Y-63102405D01*
X105279517Y-63107118D01*
X105269950Y-63110020D01*
X105260000Y-63111000D01*
X104710000Y-63111000D01*
X104703888Y-63110398D01*
X104685466Y-63110398D01*
X104680467Y-63110152D01*
X104631636Y-63105342D01*
X104626686Y-63104608D01*
X104578561Y-63095036D01*
X104573705Y-63093820D01*
X104526750Y-63079576D01*
X104522039Y-63077890D01*
X104476706Y-63059113D01*
X104472180Y-63056973D01*
X104428907Y-63033842D01*
X104424616Y-63031269D01*
X104383817Y-63004009D01*
X104379796Y-63001027D01*
X104341867Y-62969899D01*
X104338159Y-62966538D01*
X104303462Y-62931841D01*
X104300101Y-62928133D01*
X104268973Y-62890204D01*
X104265991Y-62886183D01*
X104238731Y-62845384D01*
X104236158Y-62841093D01*
X104213027Y-62797820D01*
X104210887Y-62793294D01*
X104192110Y-62747961D01*
X104190424Y-62743250D01*
X104176180Y-62696295D01*
X104174964Y-62691439D01*
X104165392Y-62643314D01*
X104164658Y-62638364D01*
X104159848Y-62589533D01*
X104159602Y-62584534D01*
X104159602Y-62566112D01*
X104159000Y-62560000D01*
X104159000Y-62060000D01*
X104159602Y-62053888D01*
X104159602Y-62035466D01*
X104159848Y-62030467D01*
X104164658Y-61981636D01*
X104165392Y-61976686D01*
X104174964Y-61928561D01*
X104176180Y-61923705D01*
X104190424Y-61876750D01*
X104192110Y-61872039D01*
X104210887Y-61826706D01*
X104213027Y-61822180D01*
X104236158Y-61778907D01*
X104238731Y-61774616D01*
X104265991Y-61733817D01*
X104268973Y-61729796D01*
X104300101Y-61691867D01*
X104303462Y-61688159D01*
X104338159Y-61653462D01*
X104341867Y-61650101D01*
X104379796Y-61618973D01*
X104383817Y-61615991D01*
X104424616Y-61588731D01*
X104428907Y-61586158D01*
X104472180Y-61563027D01*
X104476706Y-61560887D01*
X104522039Y-61542110D01*
X104526750Y-61540424D01*
X104573705Y-61526180D01*
X104578561Y-61524964D01*
X104626686Y-61515392D01*
X104631636Y-61514658D01*
X104680467Y-61509848D01*
X104685466Y-61509602D01*
X104703888Y-61509602D01*
X104710000Y-61509000D01*
X105260000Y-61509000D01*
X105269950Y-61509980D01*
G37*
G36*
G01*
X105459000Y-60510000D02*
X105459000Y-59010000D01*
G75*
G02*
X105510000Y-58959000I51000J0D01*
G01*
X106510000Y-58959000D01*
G75*
G02*
X106561000Y-59010000I0J-51000D01*
G01*
X106561000Y-60510000D01*
G75*
G02*
X106510000Y-60561000I-51000J0D01*
G01*
X105510000Y-60561000D01*
G75*
G02*
X105459000Y-60510000I0J51000D01*
G01*
G37*
G36*
X107316112Y-58959602D02*
G01*
X107334534Y-58959602D01*
X107339533Y-58959848D01*
X107388364Y-58964658D01*
X107393314Y-58965392D01*
X107441439Y-58974964D01*
X107446295Y-58976180D01*
X107493250Y-58990424D01*
X107497961Y-58992110D01*
X107543294Y-59010887D01*
X107547820Y-59013027D01*
X107591093Y-59036158D01*
X107595384Y-59038731D01*
X107636183Y-59065991D01*
X107640204Y-59068973D01*
X107678133Y-59100101D01*
X107681841Y-59103462D01*
X107716538Y-59138159D01*
X107719899Y-59141867D01*
X107751027Y-59179796D01*
X107754009Y-59183817D01*
X107781269Y-59224616D01*
X107783842Y-59228907D01*
X107806973Y-59272180D01*
X107809113Y-59276706D01*
X107827890Y-59322039D01*
X107829576Y-59326750D01*
X107843820Y-59373705D01*
X107845036Y-59378561D01*
X107854608Y-59426686D01*
X107855342Y-59431636D01*
X107860152Y-59480467D01*
X107860398Y-59485466D01*
X107860398Y-59503888D01*
X107861000Y-59510000D01*
X107861000Y-60010000D01*
X107860398Y-60016112D01*
X107860398Y-60034534D01*
X107860152Y-60039533D01*
X107855342Y-60088364D01*
X107854608Y-60093314D01*
X107845036Y-60141439D01*
X107843820Y-60146295D01*
X107829576Y-60193250D01*
X107827890Y-60197961D01*
X107809113Y-60243294D01*
X107806973Y-60247820D01*
X107783842Y-60291093D01*
X107781269Y-60295384D01*
X107754009Y-60336183D01*
X107751027Y-60340204D01*
X107719899Y-60378133D01*
X107716538Y-60381841D01*
X107681841Y-60416538D01*
X107678133Y-60419899D01*
X107640204Y-60451027D01*
X107636183Y-60454009D01*
X107595384Y-60481269D01*
X107591093Y-60483842D01*
X107547820Y-60506973D01*
X107543294Y-60509113D01*
X107497961Y-60527890D01*
X107493250Y-60529576D01*
X107446295Y-60543820D01*
X107441439Y-60545036D01*
X107393314Y-60554608D01*
X107388364Y-60555342D01*
X107339533Y-60560152D01*
X107334534Y-60560398D01*
X107316112Y-60560398D01*
X107310000Y-60561000D01*
X106760000Y-60561000D01*
X106750050Y-60560020D01*
X106740483Y-60557118D01*
X106731666Y-60552405D01*
X106723938Y-60546062D01*
X106717595Y-60538334D01*
X106712882Y-60529517D01*
X106709980Y-60519950D01*
X106709000Y-60510000D01*
X106709000Y-59010000D01*
X106709980Y-59000050D01*
X106712882Y-58990483D01*
X106717595Y-58981666D01*
X106723938Y-58973938D01*
X106731666Y-58967595D01*
X106740483Y-58962882D01*
X106750050Y-58959980D01*
X106760000Y-58959000D01*
X107310000Y-58959000D01*
X107316112Y-58959602D01*
G37*
G36*
X105269950Y-58959980D02*
G01*
X105279517Y-58962882D01*
X105288334Y-58967595D01*
X105296062Y-58973938D01*
X105302405Y-58981666D01*
X105307118Y-58990483D01*
X105310020Y-59000050D01*
X105311000Y-59010000D01*
X105311000Y-60510000D01*
X105310020Y-60519950D01*
X105307118Y-60529517D01*
X105302405Y-60538334D01*
X105296062Y-60546062D01*
X105288334Y-60552405D01*
X105279517Y-60557118D01*
X105269950Y-60560020D01*
X105260000Y-60561000D01*
X104710000Y-60561000D01*
X104703888Y-60560398D01*
X104685466Y-60560398D01*
X104680467Y-60560152D01*
X104631636Y-60555342D01*
X104626686Y-60554608D01*
X104578561Y-60545036D01*
X104573705Y-60543820D01*
X104526750Y-60529576D01*
X104522039Y-60527890D01*
X104476706Y-60509113D01*
X104472180Y-60506973D01*
X104428907Y-60483842D01*
X104424616Y-60481269D01*
X104383817Y-60454009D01*
X104379796Y-60451027D01*
X104341867Y-60419899D01*
X104338159Y-60416538D01*
X104303462Y-60381841D01*
X104300101Y-60378133D01*
X104268973Y-60340204D01*
X104265991Y-60336183D01*
X104238731Y-60295384D01*
X104236158Y-60291093D01*
X104213027Y-60247820D01*
X104210887Y-60243294D01*
X104192110Y-60197961D01*
X104190424Y-60193250D01*
X104176180Y-60146295D01*
X104174964Y-60141439D01*
X104165392Y-60093314D01*
X104164658Y-60088364D01*
X104159848Y-60039533D01*
X104159602Y-60034534D01*
X104159602Y-60016112D01*
X104159000Y-60010000D01*
X104159000Y-59510000D01*
X104159602Y-59503888D01*
X104159602Y-59485466D01*
X104159848Y-59480467D01*
X104164658Y-59431636D01*
X104165392Y-59426686D01*
X104174964Y-59378561D01*
X104176180Y-59373705D01*
X104190424Y-59326750D01*
X104192110Y-59322039D01*
X104210887Y-59276706D01*
X104213027Y-59272180D01*
X104236158Y-59228907D01*
X104238731Y-59224616D01*
X104265991Y-59183817D01*
X104268973Y-59179796D01*
X104300101Y-59141867D01*
X104303462Y-59138159D01*
X104338159Y-59103462D01*
X104341867Y-59100101D01*
X104379796Y-59068973D01*
X104383817Y-59065991D01*
X104424616Y-59038731D01*
X104428907Y-59036158D01*
X104472180Y-59013027D01*
X104476706Y-59010887D01*
X104522039Y-58992110D01*
X104526750Y-58990424D01*
X104573705Y-58976180D01*
X104578561Y-58974964D01*
X104626686Y-58965392D01*
X104631636Y-58964658D01*
X104680467Y-58959848D01*
X104685466Y-58959602D01*
X104703888Y-58959602D01*
X104710000Y-58959000D01*
X105260000Y-58959000D01*
X105269950Y-58959980D01*
G37*
D14*
X118280000Y-79080000D03*
X115740000Y-79080000D03*
X118280000Y-76540000D03*
X115740000Y-76540000D03*
X118280000Y-74000000D03*
X115740000Y-74000000D03*
X118280000Y-71460000D03*
X115740000Y-71460000D03*
X118280000Y-68920000D03*
X115740000Y-68920000D03*
X118280000Y-66380000D03*
X115740000Y-66380000D03*
X118280000Y-63840000D03*
X115740000Y-63840000D03*
X118280000Y-61300000D03*
G36*
G01*
X114839000Y-62150000D02*
X114839000Y-60450000D01*
G75*
G02*
X114890000Y-60399000I51000J0D01*
G01*
X116590000Y-60399000D01*
G75*
G02*
X116641000Y-60450000I0J-51000D01*
G01*
X116641000Y-62150000D01*
G75*
G02*
X116590000Y-62201000I-51000J0D01*
G01*
X114890000Y-62201000D01*
G75*
G02*
X114839000Y-62150000I0J51000D01*
G01*
G37*
D15*
X117120000Y-84490000D03*
G36*
G01*
X118170000Y-88131000D02*
X116070000Y-88131000D01*
G75*
G02*
X116019000Y-88080000I0J51000D01*
G01*
X116019000Y-85980000D01*
G75*
G02*
X116070000Y-85929000I51000J0D01*
G01*
X118170000Y-85929000D01*
G75*
G02*
X118221000Y-85980000I0J-51000D01*
G01*
X118221000Y-88080000D01*
G75*
G02*
X118170000Y-88131000I-51000J0D01*
G01*
G37*
X68820000Y-87270000D03*
G36*
G01*
X72461000Y-86220000D02*
X72461000Y-88320000D01*
G75*
G02*
X72410000Y-88371000I-51000J0D01*
G01*
X70310000Y-88371000D01*
G75*
G02*
X70259000Y-88320000I0J51000D01*
G01*
X70259000Y-86220000D01*
G75*
G02*
X70310000Y-86169000I51000J0D01*
G01*
X72410000Y-86169000D01*
G75*
G02*
X72461000Y-86220000I0J-51000D01*
G01*
G37*
X118850000Y-93510000D03*
G36*
G01*
X115209000Y-94560000D02*
X115209000Y-92460000D01*
G75*
G02*
X115260000Y-92409000I51000J0D01*
G01*
X117360000Y-92409000D01*
G75*
G02*
X117411000Y-92460000I0J-51000D01*
G01*
X117411000Y-94560000D01*
G75*
G02*
X117360000Y-94611000I-51000J0D01*
G01*
X115260000Y-94611000D01*
G75*
G02*
X115209000Y-94560000I0J51000D01*
G01*
G37*
X111216000Y-93544000D03*
G36*
G01*
X107575000Y-94594000D02*
X107575000Y-92494000D01*
G75*
G02*
X107626000Y-92443000I51000J0D01*
G01*
X109726000Y-92443000D01*
G75*
G02*
X109777000Y-92494000I0J-51000D01*
G01*
X109777000Y-94594000D01*
G75*
G02*
X109726000Y-94645000I-51000J0D01*
G01*
X107626000Y-94645000D01*
G75*
G02*
X107575000Y-94594000I0J51000D01*
G01*
G37*
G36*
G01*
X80081000Y-93080000D02*
X80081000Y-94580000D01*
G75*
G02*
X80030000Y-94631000I-51000J0D01*
G01*
X79030000Y-94631000D01*
G75*
G02*
X78979000Y-94580000I0J51000D01*
G01*
X78979000Y-93080000D01*
G75*
G02*
X79030000Y-93029000I51000J0D01*
G01*
X80030000Y-93029000D01*
G75*
G02*
X80081000Y-93080000I0J-51000D01*
G01*
G37*
D10*
G36*
X78223888Y-94630398D02*
G01*
X78205466Y-94630398D01*
X78200467Y-94630152D01*
X78151636Y-94625342D01*
X78146686Y-94624608D01*
X78098561Y-94615036D01*
X78093705Y-94613820D01*
X78046750Y-94599576D01*
X78042039Y-94597890D01*
X77996706Y-94579113D01*
X77992180Y-94576973D01*
X77948907Y-94553842D01*
X77944616Y-94551269D01*
X77903817Y-94524009D01*
X77899796Y-94521027D01*
X77861867Y-94489899D01*
X77858159Y-94486538D01*
X77823462Y-94451841D01*
X77820101Y-94448133D01*
X77788973Y-94410204D01*
X77785991Y-94406183D01*
X77758731Y-94365384D01*
X77756158Y-94361093D01*
X77733027Y-94317820D01*
X77730887Y-94313294D01*
X77712110Y-94267961D01*
X77710424Y-94263250D01*
X77696180Y-94216295D01*
X77694964Y-94211439D01*
X77685392Y-94163314D01*
X77684658Y-94158364D01*
X77679848Y-94109533D01*
X77679602Y-94104534D01*
X77679602Y-94086112D01*
X77679000Y-94080000D01*
X77679000Y-93580000D01*
X77679602Y-93573888D01*
X77679602Y-93555466D01*
X77679848Y-93550467D01*
X77684658Y-93501636D01*
X77685392Y-93496686D01*
X77694964Y-93448561D01*
X77696180Y-93443705D01*
X77710424Y-93396750D01*
X77712110Y-93392039D01*
X77730887Y-93346706D01*
X77733027Y-93342180D01*
X77756158Y-93298907D01*
X77758731Y-93294616D01*
X77785991Y-93253817D01*
X77788973Y-93249796D01*
X77820101Y-93211867D01*
X77823462Y-93208159D01*
X77858159Y-93173462D01*
X77861867Y-93170101D01*
X77899796Y-93138973D01*
X77903817Y-93135991D01*
X77944616Y-93108731D01*
X77948907Y-93106158D01*
X77992180Y-93083027D01*
X77996706Y-93080887D01*
X78042039Y-93062110D01*
X78046750Y-93060424D01*
X78093705Y-93046180D01*
X78098561Y-93044964D01*
X78146686Y-93035392D01*
X78151636Y-93034658D01*
X78200467Y-93029848D01*
X78205466Y-93029602D01*
X78223888Y-93029602D01*
X78230000Y-93029000D01*
X78780000Y-93029000D01*
X78789950Y-93029980D01*
X78799517Y-93032882D01*
X78808334Y-93037595D01*
X78816062Y-93043938D01*
X78822405Y-93051666D01*
X78827118Y-93060483D01*
X78830020Y-93070050D01*
X78831000Y-93080000D01*
X78831000Y-94580000D01*
X78830020Y-94589950D01*
X78827118Y-94599517D01*
X78822405Y-94608334D01*
X78816062Y-94616062D01*
X78808334Y-94622405D01*
X78799517Y-94627118D01*
X78789950Y-94630020D01*
X78780000Y-94631000D01*
X78230000Y-94631000D01*
X78223888Y-94630398D01*
G37*
G36*
X80270050Y-94630020D02*
G01*
X80260483Y-94627118D01*
X80251666Y-94622405D01*
X80243938Y-94616062D01*
X80237595Y-94608334D01*
X80232882Y-94599517D01*
X80229980Y-94589950D01*
X80229000Y-94580000D01*
X80229000Y-93080000D01*
X80229980Y-93070050D01*
X80232882Y-93060483D01*
X80237595Y-93051666D01*
X80243938Y-93043938D01*
X80251666Y-93037595D01*
X80260483Y-93032882D01*
X80270050Y-93029980D01*
X80280000Y-93029000D01*
X80830000Y-93029000D01*
X80836112Y-93029602D01*
X80854534Y-93029602D01*
X80859533Y-93029848D01*
X80908364Y-93034658D01*
X80913314Y-93035392D01*
X80961439Y-93044964D01*
X80966295Y-93046180D01*
X81013250Y-93060424D01*
X81017961Y-93062110D01*
X81063294Y-93080887D01*
X81067820Y-93083027D01*
X81111093Y-93106158D01*
X81115384Y-93108731D01*
X81156183Y-93135991D01*
X81160204Y-93138973D01*
X81198133Y-93170101D01*
X81201841Y-93173462D01*
X81236538Y-93208159D01*
X81239899Y-93211867D01*
X81271027Y-93249796D01*
X81274009Y-93253817D01*
X81301269Y-93294616D01*
X81303842Y-93298907D01*
X81326973Y-93342180D01*
X81329113Y-93346706D01*
X81347890Y-93392039D01*
X81349576Y-93396750D01*
X81363820Y-93443705D01*
X81365036Y-93448561D01*
X81374608Y-93496686D01*
X81375342Y-93501636D01*
X81380152Y-93550467D01*
X81380398Y-93555466D01*
X81380398Y-93573888D01*
X81381000Y-93580000D01*
X81381000Y-94080000D01*
X81380398Y-94086112D01*
X81380398Y-94104534D01*
X81380152Y-94109533D01*
X81375342Y-94158364D01*
X81374608Y-94163314D01*
X81365036Y-94211439D01*
X81363820Y-94216295D01*
X81349576Y-94263250D01*
X81347890Y-94267961D01*
X81329113Y-94313294D01*
X81326973Y-94317820D01*
X81303842Y-94361093D01*
X81301269Y-94365384D01*
X81274009Y-94406183D01*
X81271027Y-94410204D01*
X81239899Y-94448133D01*
X81236538Y-94451841D01*
X81201841Y-94486538D01*
X81198133Y-94489899D01*
X81160204Y-94521027D01*
X81156183Y-94524009D01*
X81115384Y-94551269D01*
X81111093Y-94553842D01*
X81067820Y-94576973D01*
X81063294Y-94579113D01*
X81017961Y-94597890D01*
X81013250Y-94599576D01*
X80966295Y-94613820D01*
X80961439Y-94615036D01*
X80913314Y-94624608D01*
X80908364Y-94625342D01*
X80859533Y-94630152D01*
X80854534Y-94630398D01*
X80836112Y-94630398D01*
X80830000Y-94631000D01*
X80280000Y-94631000D01*
X80270050Y-94630020D01*
G37*
G36*
G01*
X78979000Y-92030000D02*
X78979000Y-90530000D01*
G75*
G02*
X79030000Y-90479000I51000J0D01*
G01*
X80030000Y-90479000D01*
G75*
G02*
X80081000Y-90530000I0J-51000D01*
G01*
X80081000Y-92030000D01*
G75*
G02*
X80030000Y-92081000I-51000J0D01*
G01*
X79030000Y-92081000D01*
G75*
G02*
X78979000Y-92030000I0J51000D01*
G01*
G37*
G36*
X80836112Y-90479602D02*
G01*
X80854534Y-90479602D01*
X80859533Y-90479848D01*
X80908364Y-90484658D01*
X80913314Y-90485392D01*
X80961439Y-90494964D01*
X80966295Y-90496180D01*
X81013250Y-90510424D01*
X81017961Y-90512110D01*
X81063294Y-90530887D01*
X81067820Y-90533027D01*
X81111093Y-90556158D01*
X81115384Y-90558731D01*
X81156183Y-90585991D01*
X81160204Y-90588973D01*
X81198133Y-90620101D01*
X81201841Y-90623462D01*
X81236538Y-90658159D01*
X81239899Y-90661867D01*
X81271027Y-90699796D01*
X81274009Y-90703817D01*
X81301269Y-90744616D01*
X81303842Y-90748907D01*
X81326973Y-90792180D01*
X81329113Y-90796706D01*
X81347890Y-90842039D01*
X81349576Y-90846750D01*
X81363820Y-90893705D01*
X81365036Y-90898561D01*
X81374608Y-90946686D01*
X81375342Y-90951636D01*
X81380152Y-91000467D01*
X81380398Y-91005466D01*
X81380398Y-91023888D01*
X81381000Y-91030000D01*
X81381000Y-91530000D01*
X81380398Y-91536112D01*
X81380398Y-91554534D01*
X81380152Y-91559533D01*
X81375342Y-91608364D01*
X81374608Y-91613314D01*
X81365036Y-91661439D01*
X81363820Y-91666295D01*
X81349576Y-91713250D01*
X81347890Y-91717961D01*
X81329113Y-91763294D01*
X81326973Y-91767820D01*
X81303842Y-91811093D01*
X81301269Y-91815384D01*
X81274009Y-91856183D01*
X81271027Y-91860204D01*
X81239899Y-91898133D01*
X81236538Y-91901841D01*
X81201841Y-91936538D01*
X81198133Y-91939899D01*
X81160204Y-91971027D01*
X81156183Y-91974009D01*
X81115384Y-92001269D01*
X81111093Y-92003842D01*
X81067820Y-92026973D01*
X81063294Y-92029113D01*
X81017961Y-92047890D01*
X81013250Y-92049576D01*
X80966295Y-92063820D01*
X80961439Y-92065036D01*
X80913314Y-92074608D01*
X80908364Y-92075342D01*
X80859533Y-92080152D01*
X80854534Y-92080398D01*
X80836112Y-92080398D01*
X80830000Y-92081000D01*
X80280000Y-92081000D01*
X80270050Y-92080020D01*
X80260483Y-92077118D01*
X80251666Y-92072405D01*
X80243938Y-92066062D01*
X80237595Y-92058334D01*
X80232882Y-92049517D01*
X80229980Y-92039950D01*
X80229000Y-92030000D01*
X80229000Y-90530000D01*
X80229980Y-90520050D01*
X80232882Y-90510483D01*
X80237595Y-90501666D01*
X80243938Y-90493938D01*
X80251666Y-90487595D01*
X80260483Y-90482882D01*
X80270050Y-90479980D01*
X80280000Y-90479000D01*
X80830000Y-90479000D01*
X80836112Y-90479602D01*
G37*
G36*
X78789950Y-90479980D02*
G01*
X78799517Y-90482882D01*
X78808334Y-90487595D01*
X78816062Y-90493938D01*
X78822405Y-90501666D01*
X78827118Y-90510483D01*
X78830020Y-90520050D01*
X78831000Y-90530000D01*
X78831000Y-92030000D01*
X78830020Y-92039950D01*
X78827118Y-92049517D01*
X78822405Y-92058334D01*
X78816062Y-92066062D01*
X78808334Y-92072405D01*
X78799517Y-92077118D01*
X78789950Y-92080020D01*
X78780000Y-92081000D01*
X78230000Y-92081000D01*
X78223888Y-92080398D01*
X78205466Y-92080398D01*
X78200467Y-92080152D01*
X78151636Y-92075342D01*
X78146686Y-92074608D01*
X78098561Y-92065036D01*
X78093705Y-92063820D01*
X78046750Y-92049576D01*
X78042039Y-92047890D01*
X77996706Y-92029113D01*
X77992180Y-92026973D01*
X77948907Y-92003842D01*
X77944616Y-92001269D01*
X77903817Y-91974009D01*
X77899796Y-91971027D01*
X77861867Y-91939899D01*
X77858159Y-91936538D01*
X77823462Y-91901841D01*
X77820101Y-91898133D01*
X77788973Y-91860204D01*
X77785991Y-91856183D01*
X77758731Y-91815384D01*
X77756158Y-91811093D01*
X77733027Y-91767820D01*
X77730887Y-91763294D01*
X77712110Y-91717961D01*
X77710424Y-91713250D01*
X77696180Y-91666295D01*
X77694964Y-91661439D01*
X77685392Y-91613314D01*
X77684658Y-91608364D01*
X77679848Y-91559533D01*
X77679602Y-91554534D01*
X77679602Y-91536112D01*
X77679000Y-91530000D01*
X77679000Y-91030000D01*
X77679602Y-91023888D01*
X77679602Y-91005466D01*
X77679848Y-91000467D01*
X77684658Y-90951636D01*
X77685392Y-90946686D01*
X77694964Y-90898561D01*
X77696180Y-90893705D01*
X77710424Y-90846750D01*
X77712110Y-90842039D01*
X77730887Y-90796706D01*
X77733027Y-90792180D01*
X77756158Y-90748907D01*
X77758731Y-90744616D01*
X77785991Y-90703817D01*
X77788973Y-90699796D01*
X77820101Y-90661867D01*
X77823462Y-90658159D01*
X77858159Y-90623462D01*
X77861867Y-90620101D01*
X77899796Y-90588973D01*
X77903817Y-90585991D01*
X77944616Y-90558731D01*
X77948907Y-90556158D01*
X77992180Y-90533027D01*
X77996706Y-90530887D01*
X78042039Y-90512110D01*
X78046750Y-90510424D01*
X78093705Y-90496180D01*
X78098561Y-90494964D01*
X78146686Y-90485392D01*
X78151636Y-90484658D01*
X78200467Y-90479848D01*
X78205466Y-90479602D01*
X78223888Y-90479602D01*
X78230000Y-90479000D01*
X78780000Y-90479000D01*
X78789950Y-90479980D01*
G37*
G36*
G01*
X78979000Y-89490000D02*
X78979000Y-87990000D01*
G75*
G02*
X79030000Y-87939000I51000J0D01*
G01*
X80030000Y-87939000D01*
G75*
G02*
X80081000Y-87990000I0J-51000D01*
G01*
X80081000Y-89490000D01*
G75*
G02*
X80030000Y-89541000I-51000J0D01*
G01*
X79030000Y-89541000D01*
G75*
G02*
X78979000Y-89490000I0J51000D01*
G01*
G37*
G36*
X80836112Y-87939602D02*
G01*
X80854534Y-87939602D01*
X80859533Y-87939848D01*
X80908364Y-87944658D01*
X80913314Y-87945392D01*
X80961439Y-87954964D01*
X80966295Y-87956180D01*
X81013250Y-87970424D01*
X81017961Y-87972110D01*
X81063294Y-87990887D01*
X81067820Y-87993027D01*
X81111093Y-88016158D01*
X81115384Y-88018731D01*
X81156183Y-88045991D01*
X81160204Y-88048973D01*
X81198133Y-88080101D01*
X81201841Y-88083462D01*
X81236538Y-88118159D01*
X81239899Y-88121867D01*
X81271027Y-88159796D01*
X81274009Y-88163817D01*
X81301269Y-88204616D01*
X81303842Y-88208907D01*
X81326973Y-88252180D01*
X81329113Y-88256706D01*
X81347890Y-88302039D01*
X81349576Y-88306750D01*
X81363820Y-88353705D01*
X81365036Y-88358561D01*
X81374608Y-88406686D01*
X81375342Y-88411636D01*
X81380152Y-88460467D01*
X81380398Y-88465466D01*
X81380398Y-88483888D01*
X81381000Y-88490000D01*
X81381000Y-88990000D01*
X81380398Y-88996112D01*
X81380398Y-89014534D01*
X81380152Y-89019533D01*
X81375342Y-89068364D01*
X81374608Y-89073314D01*
X81365036Y-89121439D01*
X81363820Y-89126295D01*
X81349576Y-89173250D01*
X81347890Y-89177961D01*
X81329113Y-89223294D01*
X81326973Y-89227820D01*
X81303842Y-89271093D01*
X81301269Y-89275384D01*
X81274009Y-89316183D01*
X81271027Y-89320204D01*
X81239899Y-89358133D01*
X81236538Y-89361841D01*
X81201841Y-89396538D01*
X81198133Y-89399899D01*
X81160204Y-89431027D01*
X81156183Y-89434009D01*
X81115384Y-89461269D01*
X81111093Y-89463842D01*
X81067820Y-89486973D01*
X81063294Y-89489113D01*
X81017961Y-89507890D01*
X81013250Y-89509576D01*
X80966295Y-89523820D01*
X80961439Y-89525036D01*
X80913314Y-89534608D01*
X80908364Y-89535342D01*
X80859533Y-89540152D01*
X80854534Y-89540398D01*
X80836112Y-89540398D01*
X80830000Y-89541000D01*
X80280000Y-89541000D01*
X80270050Y-89540020D01*
X80260483Y-89537118D01*
X80251666Y-89532405D01*
X80243938Y-89526062D01*
X80237595Y-89518334D01*
X80232882Y-89509517D01*
X80229980Y-89499950D01*
X80229000Y-89490000D01*
X80229000Y-87990000D01*
X80229980Y-87980050D01*
X80232882Y-87970483D01*
X80237595Y-87961666D01*
X80243938Y-87953938D01*
X80251666Y-87947595D01*
X80260483Y-87942882D01*
X80270050Y-87939980D01*
X80280000Y-87939000D01*
X80830000Y-87939000D01*
X80836112Y-87939602D01*
G37*
G36*
X78789950Y-87939980D02*
G01*
X78799517Y-87942882D01*
X78808334Y-87947595D01*
X78816062Y-87953938D01*
X78822405Y-87961666D01*
X78827118Y-87970483D01*
X78830020Y-87980050D01*
X78831000Y-87990000D01*
X78831000Y-89490000D01*
X78830020Y-89499950D01*
X78827118Y-89509517D01*
X78822405Y-89518334D01*
X78816062Y-89526062D01*
X78808334Y-89532405D01*
X78799517Y-89537118D01*
X78789950Y-89540020D01*
X78780000Y-89541000D01*
X78230000Y-89541000D01*
X78223888Y-89540398D01*
X78205466Y-89540398D01*
X78200467Y-89540152D01*
X78151636Y-89535342D01*
X78146686Y-89534608D01*
X78098561Y-89525036D01*
X78093705Y-89523820D01*
X78046750Y-89509576D01*
X78042039Y-89507890D01*
X77996706Y-89489113D01*
X77992180Y-89486973D01*
X77948907Y-89463842D01*
X77944616Y-89461269D01*
X77903817Y-89434009D01*
X77899796Y-89431027D01*
X77861867Y-89399899D01*
X77858159Y-89396538D01*
X77823462Y-89361841D01*
X77820101Y-89358133D01*
X77788973Y-89320204D01*
X77785991Y-89316183D01*
X77758731Y-89275384D01*
X77756158Y-89271093D01*
X77733027Y-89227820D01*
X77730887Y-89223294D01*
X77712110Y-89177961D01*
X77710424Y-89173250D01*
X77696180Y-89126295D01*
X77694964Y-89121439D01*
X77685392Y-89073314D01*
X77684658Y-89068364D01*
X77679848Y-89019533D01*
X77679602Y-89014534D01*
X77679602Y-88996112D01*
X77679000Y-88990000D01*
X77679000Y-88490000D01*
X77679602Y-88483888D01*
X77679602Y-88465466D01*
X77679848Y-88460467D01*
X77684658Y-88411636D01*
X77685392Y-88406686D01*
X77694964Y-88358561D01*
X77696180Y-88353705D01*
X77710424Y-88306750D01*
X77712110Y-88302039D01*
X77730887Y-88256706D01*
X77733027Y-88252180D01*
X77756158Y-88208907D01*
X77758731Y-88204616D01*
X77785991Y-88163817D01*
X77788973Y-88159796D01*
X77820101Y-88121867D01*
X77823462Y-88118159D01*
X77858159Y-88083462D01*
X77861867Y-88080101D01*
X77899796Y-88048973D01*
X77903817Y-88045991D01*
X77944616Y-88018731D01*
X77948907Y-88016158D01*
X77992180Y-87993027D01*
X77996706Y-87990887D01*
X78042039Y-87972110D01*
X78046750Y-87970424D01*
X78093705Y-87956180D01*
X78098561Y-87954964D01*
X78146686Y-87945392D01*
X78151636Y-87944658D01*
X78200467Y-87939848D01*
X78205466Y-87939602D01*
X78223888Y-87939602D01*
X78230000Y-87939000D01*
X78780000Y-87939000D01*
X78789950Y-87939980D01*
G37*
G36*
G01*
X78979000Y-86940000D02*
X78979000Y-85440000D01*
G75*
G02*
X79030000Y-85389000I51000J0D01*
G01*
X80030000Y-85389000D01*
G75*
G02*
X80081000Y-85440000I0J-51000D01*
G01*
X80081000Y-86940000D01*
G75*
G02*
X80030000Y-86991000I-51000J0D01*
G01*
X79030000Y-86991000D01*
G75*
G02*
X78979000Y-86940000I0J51000D01*
G01*
G37*
G36*
X80836112Y-85389602D02*
G01*
X80854534Y-85389602D01*
X80859533Y-85389848D01*
X80908364Y-85394658D01*
X80913314Y-85395392D01*
X80961439Y-85404964D01*
X80966295Y-85406180D01*
X81013250Y-85420424D01*
X81017961Y-85422110D01*
X81063294Y-85440887D01*
X81067820Y-85443027D01*
X81111093Y-85466158D01*
X81115384Y-85468731D01*
X81156183Y-85495991D01*
X81160204Y-85498973D01*
X81198133Y-85530101D01*
X81201841Y-85533462D01*
X81236538Y-85568159D01*
X81239899Y-85571867D01*
X81271027Y-85609796D01*
X81274009Y-85613817D01*
X81301269Y-85654616D01*
X81303842Y-85658907D01*
X81326973Y-85702180D01*
X81329113Y-85706706D01*
X81347890Y-85752039D01*
X81349576Y-85756750D01*
X81363820Y-85803705D01*
X81365036Y-85808561D01*
X81374608Y-85856686D01*
X81375342Y-85861636D01*
X81380152Y-85910467D01*
X81380398Y-85915466D01*
X81380398Y-85933888D01*
X81381000Y-85940000D01*
X81381000Y-86440000D01*
X81380398Y-86446112D01*
X81380398Y-86464534D01*
X81380152Y-86469533D01*
X81375342Y-86518364D01*
X81374608Y-86523314D01*
X81365036Y-86571439D01*
X81363820Y-86576295D01*
X81349576Y-86623250D01*
X81347890Y-86627961D01*
X81329113Y-86673294D01*
X81326973Y-86677820D01*
X81303842Y-86721093D01*
X81301269Y-86725384D01*
X81274009Y-86766183D01*
X81271027Y-86770204D01*
X81239899Y-86808133D01*
X81236538Y-86811841D01*
X81201841Y-86846538D01*
X81198133Y-86849899D01*
X81160204Y-86881027D01*
X81156183Y-86884009D01*
X81115384Y-86911269D01*
X81111093Y-86913842D01*
X81067820Y-86936973D01*
X81063294Y-86939113D01*
X81017961Y-86957890D01*
X81013250Y-86959576D01*
X80966295Y-86973820D01*
X80961439Y-86975036D01*
X80913314Y-86984608D01*
X80908364Y-86985342D01*
X80859533Y-86990152D01*
X80854534Y-86990398D01*
X80836112Y-86990398D01*
X80830000Y-86991000D01*
X80280000Y-86991000D01*
X80270050Y-86990020D01*
X80260483Y-86987118D01*
X80251666Y-86982405D01*
X80243938Y-86976062D01*
X80237595Y-86968334D01*
X80232882Y-86959517D01*
X80229980Y-86949950D01*
X80229000Y-86940000D01*
X80229000Y-85440000D01*
X80229980Y-85430050D01*
X80232882Y-85420483D01*
X80237595Y-85411666D01*
X80243938Y-85403938D01*
X80251666Y-85397595D01*
X80260483Y-85392882D01*
X80270050Y-85389980D01*
X80280000Y-85389000D01*
X80830000Y-85389000D01*
X80836112Y-85389602D01*
G37*
G36*
X78789950Y-85389980D02*
G01*
X78799517Y-85392882D01*
X78808334Y-85397595D01*
X78816062Y-85403938D01*
X78822405Y-85411666D01*
X78827118Y-85420483D01*
X78830020Y-85430050D01*
X78831000Y-85440000D01*
X78831000Y-86940000D01*
X78830020Y-86949950D01*
X78827118Y-86959517D01*
X78822405Y-86968334D01*
X78816062Y-86976062D01*
X78808334Y-86982405D01*
X78799517Y-86987118D01*
X78789950Y-86990020D01*
X78780000Y-86991000D01*
X78230000Y-86991000D01*
X78223888Y-86990398D01*
X78205466Y-86990398D01*
X78200467Y-86990152D01*
X78151636Y-86985342D01*
X78146686Y-86984608D01*
X78098561Y-86975036D01*
X78093705Y-86973820D01*
X78046750Y-86959576D01*
X78042039Y-86957890D01*
X77996706Y-86939113D01*
X77992180Y-86936973D01*
X77948907Y-86913842D01*
X77944616Y-86911269D01*
X77903817Y-86884009D01*
X77899796Y-86881027D01*
X77861867Y-86849899D01*
X77858159Y-86846538D01*
X77823462Y-86811841D01*
X77820101Y-86808133D01*
X77788973Y-86770204D01*
X77785991Y-86766183D01*
X77758731Y-86725384D01*
X77756158Y-86721093D01*
X77733027Y-86677820D01*
X77730887Y-86673294D01*
X77712110Y-86627961D01*
X77710424Y-86623250D01*
X77696180Y-86576295D01*
X77694964Y-86571439D01*
X77685392Y-86523314D01*
X77684658Y-86518364D01*
X77679848Y-86469533D01*
X77679602Y-86464534D01*
X77679602Y-86446112D01*
X77679000Y-86440000D01*
X77679000Y-85940000D01*
X77679602Y-85933888D01*
X77679602Y-85915466D01*
X77679848Y-85910467D01*
X77684658Y-85861636D01*
X77685392Y-85856686D01*
X77694964Y-85808561D01*
X77696180Y-85803705D01*
X77710424Y-85756750D01*
X77712110Y-85752039D01*
X77730887Y-85706706D01*
X77733027Y-85702180D01*
X77756158Y-85658907D01*
X77758731Y-85654616D01*
X77785991Y-85613817D01*
X77788973Y-85609796D01*
X77820101Y-85571867D01*
X77823462Y-85568159D01*
X77858159Y-85533462D01*
X77861867Y-85530101D01*
X77899796Y-85498973D01*
X77903817Y-85495991D01*
X77944616Y-85468731D01*
X77948907Y-85466158D01*
X77992180Y-85443027D01*
X77996706Y-85440887D01*
X78042039Y-85422110D01*
X78046750Y-85420424D01*
X78093705Y-85406180D01*
X78098561Y-85404964D01*
X78146686Y-85395392D01*
X78151636Y-85394658D01*
X78200467Y-85389848D01*
X78205466Y-85389602D01*
X78223888Y-85389602D01*
X78230000Y-85389000D01*
X78780000Y-85389000D01*
X78789950Y-85389980D01*
G37*
G36*
X100799950Y-87939980D02*
G01*
X100809517Y-87942882D01*
X100818334Y-87947595D01*
X100826062Y-87953938D01*
X100832435Y-87961710D01*
X101332435Y-88711710D01*
X101337138Y-88720532D01*
X101340030Y-88730103D01*
X101341000Y-88740053D01*
X101340010Y-88750002D01*
X101337097Y-88759566D01*
X101332435Y-88768290D01*
X100832435Y-89518290D01*
X100826100Y-89526025D01*
X100818378Y-89532375D01*
X100809566Y-89537097D01*
X100800002Y-89540010D01*
X100790000Y-89541000D01*
X99790000Y-89541000D01*
X99780050Y-89540020D01*
X99770483Y-89537118D01*
X99761666Y-89532405D01*
X99753938Y-89526062D01*
X99747595Y-89518334D01*
X99742882Y-89509517D01*
X99739980Y-89499950D01*
X99739000Y-89490000D01*
X99739000Y-87990000D01*
X99739980Y-87980050D01*
X99742882Y-87970483D01*
X99747595Y-87961666D01*
X99753938Y-87953938D01*
X99761666Y-87947595D01*
X99770483Y-87942882D01*
X99780050Y-87939980D01*
X99790000Y-87939000D01*
X100790000Y-87939000D01*
X100799950Y-87939980D01*
G37*
G36*
X102249950Y-87939980D02*
G01*
X102259517Y-87942882D01*
X102268334Y-87947595D01*
X102276062Y-87953938D01*
X102282405Y-87961666D01*
X102287118Y-87970483D01*
X102290020Y-87980050D01*
X102291000Y-87990000D01*
X102291000Y-89490000D01*
X102290020Y-89499950D01*
X102287118Y-89509517D01*
X102282405Y-89518334D01*
X102276062Y-89526062D01*
X102268334Y-89532405D01*
X102259517Y-89537118D01*
X102249950Y-89540020D01*
X102240000Y-89541000D01*
X101090000Y-89541000D01*
X101080050Y-89540020D01*
X101070483Y-89537118D01*
X101061666Y-89532405D01*
X101053938Y-89526062D01*
X101047595Y-89518334D01*
X101042882Y-89509517D01*
X101039980Y-89499950D01*
X101039000Y-89490000D01*
X101039980Y-89480050D01*
X101042882Y-89470483D01*
X101047565Y-89461710D01*
X101528705Y-88740000D01*
X101047565Y-88018290D01*
X101042862Y-88009468D01*
X101039970Y-87999897D01*
X101039000Y-87989947D01*
X101039990Y-87979998D01*
X101042903Y-87970434D01*
X101047625Y-87961622D01*
X101053975Y-87953900D01*
X101061710Y-87947565D01*
X101070532Y-87942862D01*
X101080103Y-87939970D01*
X101090000Y-87939000D01*
X102240000Y-87939000D01*
X102249950Y-87939980D01*
G37*
G36*
X88140050Y-86100020D02*
G01*
X88130483Y-86097118D01*
X88121666Y-86092405D01*
X88113938Y-86086062D01*
X88107565Y-86078290D01*
X87607565Y-85328290D01*
X87602862Y-85319468D01*
X87599970Y-85309897D01*
X87599000Y-85299947D01*
X87599990Y-85289998D01*
X87602903Y-85280434D01*
X87607565Y-85271710D01*
X88107565Y-84521710D01*
X88113900Y-84513975D01*
X88121622Y-84507625D01*
X88130434Y-84502903D01*
X88139998Y-84499990D01*
X88150000Y-84499000D01*
X89150000Y-84499000D01*
X89159950Y-84499980D01*
X89169517Y-84502882D01*
X89178334Y-84507595D01*
X89186062Y-84513938D01*
X89192405Y-84521666D01*
X89197118Y-84530483D01*
X89200020Y-84540050D01*
X89201000Y-84550000D01*
X89201000Y-86050000D01*
X89200020Y-86059950D01*
X89197118Y-86069517D01*
X89192405Y-86078334D01*
X89186062Y-86086062D01*
X89178334Y-86092405D01*
X89169517Y-86097118D01*
X89159950Y-86100020D01*
X89150000Y-86101000D01*
X88150000Y-86101000D01*
X88140050Y-86100020D01*
G37*
G36*
X86690050Y-86100020D02*
G01*
X86680483Y-86097118D01*
X86671666Y-86092405D01*
X86663938Y-86086062D01*
X86657595Y-86078334D01*
X86652882Y-86069517D01*
X86649980Y-86059950D01*
X86649000Y-86050000D01*
X86649000Y-84550000D01*
X86649980Y-84540050D01*
X86652882Y-84530483D01*
X86657595Y-84521666D01*
X86663938Y-84513938D01*
X86671666Y-84507595D01*
X86680483Y-84502882D01*
X86690050Y-84499980D01*
X86700000Y-84499000D01*
X87850000Y-84499000D01*
X87859950Y-84499980D01*
X87869517Y-84502882D01*
X87878334Y-84507595D01*
X87886062Y-84513938D01*
X87892405Y-84521666D01*
X87897118Y-84530483D01*
X87900020Y-84540050D01*
X87901000Y-84550000D01*
X87900020Y-84559950D01*
X87897118Y-84569517D01*
X87892435Y-84578290D01*
X87411295Y-85300000D01*
X87892435Y-86021710D01*
X87897138Y-86030532D01*
X87900030Y-86040103D01*
X87901000Y-86050053D01*
X87900010Y-86060002D01*
X87897097Y-86069566D01*
X87892375Y-86078378D01*
X87886025Y-86086100D01*
X87878290Y-86092435D01*
X87869468Y-86097138D01*
X87859897Y-86100030D01*
X87850000Y-86101000D01*
X86700000Y-86101000D01*
X86690050Y-86100020D01*
G37*
G36*
X100914950Y-85399980D02*
G01*
X100924517Y-85402882D01*
X100933334Y-85407595D01*
X100941062Y-85413938D01*
X100947435Y-85421710D01*
X101447435Y-86171710D01*
X101452138Y-86180532D01*
X101455030Y-86190103D01*
X101456000Y-86200053D01*
X101455010Y-86210002D01*
X101452097Y-86219566D01*
X101447435Y-86228290D01*
X100947435Y-86978290D01*
X100941100Y-86986025D01*
X100933378Y-86992375D01*
X100924566Y-86997097D01*
X100915002Y-87000010D01*
X100905000Y-87001000D01*
X99905000Y-87001000D01*
X99895050Y-87000020D01*
X99885483Y-86997118D01*
X99876666Y-86992405D01*
X99868938Y-86986062D01*
X99862595Y-86978334D01*
X99857882Y-86969517D01*
X99854980Y-86959950D01*
X99854000Y-86950000D01*
X99854000Y-85450000D01*
X99854980Y-85440050D01*
X99857882Y-85430483D01*
X99862595Y-85421666D01*
X99868938Y-85413938D01*
X99876666Y-85407595D01*
X99885483Y-85402882D01*
X99895050Y-85399980D01*
X99905000Y-85399000D01*
X100905000Y-85399000D01*
X100914950Y-85399980D01*
G37*
G36*
X102364950Y-85399980D02*
G01*
X102374517Y-85402882D01*
X102383334Y-85407595D01*
X102391062Y-85413938D01*
X102397405Y-85421666D01*
X102402118Y-85430483D01*
X102405020Y-85440050D01*
X102406000Y-85450000D01*
X102406000Y-86950000D01*
X102405020Y-86959950D01*
X102402118Y-86969517D01*
X102397405Y-86978334D01*
X102391062Y-86986062D01*
X102383334Y-86992405D01*
X102374517Y-86997118D01*
X102364950Y-87000020D01*
X102355000Y-87001000D01*
X101205000Y-87001000D01*
X101195050Y-87000020D01*
X101185483Y-86997118D01*
X101176666Y-86992405D01*
X101168938Y-86986062D01*
X101162595Y-86978334D01*
X101157882Y-86969517D01*
X101154980Y-86959950D01*
X101154000Y-86950000D01*
X101154980Y-86940050D01*
X101157882Y-86930483D01*
X101162565Y-86921710D01*
X101643705Y-86200000D01*
X101162565Y-85478290D01*
X101157862Y-85469468D01*
X101154970Y-85459897D01*
X101154000Y-85449947D01*
X101154990Y-85439998D01*
X101157903Y-85430434D01*
X101162625Y-85421622D01*
X101168975Y-85413900D01*
X101176710Y-85407565D01*
X101185532Y-85402862D01*
X101195103Y-85399970D01*
X101205000Y-85399000D01*
X102355000Y-85399000D01*
X102364950Y-85399980D01*
G37*
G36*
X91505050Y-86090020D02*
G01*
X91495483Y-86087118D01*
X91486666Y-86082405D01*
X91478938Y-86076062D01*
X91472565Y-86068290D01*
X90972565Y-85318290D01*
X90967862Y-85309468D01*
X90964970Y-85299897D01*
X90964000Y-85289947D01*
X90964990Y-85279998D01*
X90967903Y-85270434D01*
X90972565Y-85261710D01*
X91472565Y-84511710D01*
X91478900Y-84503975D01*
X91486622Y-84497625D01*
X91495434Y-84492903D01*
X91504998Y-84489990D01*
X91515000Y-84489000D01*
X92515000Y-84489000D01*
X92524950Y-84489980D01*
X92534517Y-84492882D01*
X92543334Y-84497595D01*
X92551062Y-84503938D01*
X92557405Y-84511666D01*
X92562118Y-84520483D01*
X92565020Y-84530050D01*
X92566000Y-84540000D01*
X92566000Y-86040000D01*
X92565020Y-86049950D01*
X92562118Y-86059517D01*
X92557405Y-86068334D01*
X92551062Y-86076062D01*
X92543334Y-86082405D01*
X92534517Y-86087118D01*
X92524950Y-86090020D01*
X92515000Y-86091000D01*
X91515000Y-86091000D01*
X91505050Y-86090020D01*
G37*
G36*
X90055050Y-86090020D02*
G01*
X90045483Y-86087118D01*
X90036666Y-86082405D01*
X90028938Y-86076062D01*
X90022595Y-86068334D01*
X90017882Y-86059517D01*
X90014980Y-86049950D01*
X90014000Y-86040000D01*
X90014000Y-84540000D01*
X90014980Y-84530050D01*
X90017882Y-84520483D01*
X90022595Y-84511666D01*
X90028938Y-84503938D01*
X90036666Y-84497595D01*
X90045483Y-84492882D01*
X90055050Y-84489980D01*
X90065000Y-84489000D01*
X91215000Y-84489000D01*
X91224950Y-84489980D01*
X91234517Y-84492882D01*
X91243334Y-84497595D01*
X91251062Y-84503938D01*
X91257405Y-84511666D01*
X91262118Y-84520483D01*
X91265020Y-84530050D01*
X91266000Y-84540000D01*
X91265020Y-84549950D01*
X91262118Y-84559517D01*
X91257435Y-84568290D01*
X90776295Y-85290000D01*
X91257435Y-86011710D01*
X91262138Y-86020532D01*
X91265030Y-86030103D01*
X91266000Y-86040053D01*
X91265010Y-86050002D01*
X91262097Y-86059566D01*
X91257375Y-86068378D01*
X91251025Y-86076100D01*
X91243290Y-86082435D01*
X91234468Y-86087138D01*
X91224897Y-86090030D01*
X91215000Y-86091000D01*
X90065000Y-86091000D01*
X90055050Y-86090020D01*
G37*
G36*
G01*
X116361000Y-90643875D02*
X116361000Y-91596125D01*
G75*
G02*
X116086125Y-91871000I-274875J0D01*
G01*
X115508875Y-91871000D01*
G75*
G02*
X115234000Y-91596125I0J274875D01*
G01*
X115234000Y-90643875D01*
G75*
G02*
X115508875Y-90369000I274875J0D01*
G01*
X116086125Y-90369000D01*
G75*
G02*
X116361000Y-90643875I0J-274875D01*
G01*
G37*
G36*
G01*
X118186000Y-90643875D02*
X118186000Y-91596125D01*
G75*
G02*
X117911125Y-91871000I-274875J0D01*
G01*
X117333875Y-91871000D01*
G75*
G02*
X117059000Y-91596125I0J274875D01*
G01*
X117059000Y-90643875D01*
G75*
G02*
X117333875Y-90369000I274875J0D01*
G01*
X117911125Y-90369000D01*
G75*
G02*
X118186000Y-90643875I0J-274875D01*
G01*
G37*
D13*
X112702000Y-124910000D03*
X66182000Y-124910000D03*
X66182000Y-122370000D03*
X66182000Y-119830000D03*
X66182000Y-117290000D03*
X66182000Y-114750000D03*
X66182000Y-112210000D03*
X66182000Y-109670000D03*
X66182000Y-107130000D03*
X66182000Y-104590000D03*
X66182000Y-102050000D03*
X68722000Y-124910000D03*
X68722000Y-122370000D03*
X68722000Y-119830000D03*
X68722000Y-117290000D03*
X68722000Y-114750000D03*
X68722000Y-112210000D03*
X68722000Y-109670000D03*
X68722000Y-107130000D03*
X68722000Y-104590000D03*
X68722000Y-102050000D03*
X71262000Y-124910000D03*
X71262000Y-122370000D03*
X71262000Y-119830000D03*
X71262000Y-117290000D03*
X71262000Y-114750000D03*
X71262000Y-112210000D03*
X71262000Y-109670000D03*
X71262000Y-107130000D03*
X71262000Y-104590000D03*
X71262000Y-102050000D03*
X73802000Y-124910000D03*
X73802000Y-122370000D03*
X73802000Y-119830000D03*
X73802000Y-117290000D03*
X73802000Y-114750000D03*
X73802000Y-112210000D03*
X73802000Y-109670000D03*
X73802000Y-107130000D03*
X73802000Y-104590000D03*
X73802000Y-102050000D03*
X76342000Y-124910000D03*
X76342000Y-122370000D03*
X76342000Y-119830000D03*
X76342000Y-117290000D03*
X76342000Y-114750000D03*
X76342000Y-112210000D03*
X76342000Y-109670000D03*
X76342000Y-107130000D03*
X76342000Y-104590000D03*
X76342000Y-102050000D03*
X78882000Y-124910000D03*
X78882000Y-122370000D03*
X78882000Y-119830000D03*
X78882000Y-117290000D03*
X78882000Y-114750000D03*
X78882000Y-112210000D03*
X78882000Y-109670000D03*
X78882000Y-107130000D03*
X78882000Y-104590000D03*
X78882000Y-102050000D03*
X81422000Y-124910000D03*
X81422000Y-122370000D03*
X81422000Y-119830000D03*
X81422000Y-117290000D03*
X81422000Y-114750000D03*
X81422000Y-112210000D03*
X81422000Y-109670000D03*
X81422000Y-107130000D03*
X81422000Y-104590000D03*
X81422000Y-102050000D03*
X83962000Y-124910000D03*
X83962000Y-122370000D03*
X83962000Y-119830000D03*
X83962000Y-117290000D03*
X83962000Y-114750000D03*
X83962000Y-112210000D03*
X83962000Y-109670000D03*
X83962000Y-107130000D03*
X83962000Y-104590000D03*
X83962000Y-102050000D03*
X86502000Y-124910000D03*
X86502000Y-122370000D03*
X86502000Y-119830000D03*
X86502000Y-117290000D03*
X86502000Y-114750000D03*
X86502000Y-112210000D03*
X86502000Y-109670000D03*
X86502000Y-107130000D03*
X86502000Y-104590000D03*
X86502000Y-102050000D03*
X89042000Y-124910000D03*
X89042000Y-122370000D03*
X89042000Y-119830000D03*
X89042000Y-117290000D03*
X89042000Y-114750000D03*
X89042000Y-112210000D03*
X89042000Y-109670000D03*
X89042000Y-107130000D03*
X89042000Y-104590000D03*
X89042000Y-102050000D03*
X91582000Y-124910000D03*
X91582000Y-122370000D03*
X91582000Y-119830000D03*
X91582000Y-117290000D03*
X91582000Y-114750000D03*
X91582000Y-112210000D03*
X91582000Y-109670000D03*
X91582000Y-107130000D03*
X91582000Y-104590000D03*
X91582000Y-102050000D03*
X94122000Y-124910000D03*
X94122000Y-122370000D03*
X94122000Y-119830000D03*
X94122000Y-117290000D03*
X94122000Y-114750000D03*
X94122000Y-112210000D03*
X94122000Y-109670000D03*
X94122000Y-107130000D03*
X94122000Y-104590000D03*
X94122000Y-102050000D03*
X96662000Y-124910000D03*
X96662000Y-122370000D03*
X96662000Y-119830000D03*
X96662000Y-117290000D03*
X96662000Y-114750000D03*
X96662000Y-112210000D03*
X96662000Y-109670000D03*
X96662000Y-107130000D03*
X96662000Y-104590000D03*
X96662000Y-102050000D03*
X99202000Y-124910000D03*
X99202000Y-122370000D03*
X99202000Y-119830000D03*
X99202000Y-117290000D03*
X99202000Y-114750000D03*
X99202000Y-112210000D03*
X99202000Y-109670000D03*
X99202000Y-107130000D03*
X99202000Y-104590000D03*
X99202000Y-102050000D03*
X101742000Y-124910000D03*
X101742000Y-122370000D03*
X101742000Y-119830000D03*
X101742000Y-117290000D03*
X101742000Y-114750000D03*
X101742000Y-112210000D03*
X101742000Y-109670000D03*
X101742000Y-107130000D03*
X101742000Y-104590000D03*
X101742000Y-102050000D03*
X104282000Y-117290000D03*
X104282000Y-114750000D03*
X104282000Y-112210000D03*
X104282000Y-109670000D03*
X106822000Y-117290000D03*
X106822000Y-114750000D03*
X106822000Y-112210000D03*
X106822000Y-109670000D03*
X109362000Y-117290000D03*
X109362000Y-114750000D03*
X109362000Y-112210000D03*
X109362000Y-109670000D03*
X112702000Y-122370000D03*
X112702000Y-119830000D03*
X115242000Y-124910000D03*
X115242000Y-122370000D03*
X115242000Y-119830000D03*
X117782000Y-124910000D03*
X117782000Y-122370000D03*
X117782000Y-119830000D03*
X112672000Y-102170000D03*
X109372000Y-104690000D03*
X109372000Y-107230000D03*
X109372000Y-102150000D03*
X106832000Y-102150000D03*
X106832000Y-104690000D03*
X106832000Y-107230000D03*
X104292000Y-107230000D03*
X104292000Y-102150000D03*
X104292000Y-104690000D03*
X109352000Y-119810000D03*
X109352000Y-124890000D03*
X109352000Y-122350000D03*
X106812000Y-122350000D03*
X106812000Y-119810000D03*
X106812000Y-124890000D03*
X104272000Y-122350000D03*
X104272000Y-119810000D03*
X104272000Y-124890000D03*
X62918000Y-124910000D03*
X60378000Y-119830000D03*
X60378000Y-122370000D03*
X62918000Y-122370000D03*
X60378000Y-124910000D03*
X62918000Y-119830000D03*
X57838000Y-119830000D03*
X57838000Y-122370000D03*
X57808000Y-102170000D03*
X57838000Y-124910000D03*
X115212000Y-102170000D03*
X117752000Y-102170000D03*
X112672000Y-104710000D03*
X115212000Y-104710000D03*
X117752000Y-104710000D03*
X112672000Y-107250000D03*
X115212000Y-107250000D03*
X117752000Y-107250000D03*
X60348000Y-102170000D03*
X62888000Y-102170000D03*
X57808000Y-104710000D03*
X60348000Y-104710000D03*
X62888000Y-104710000D03*
X57808000Y-107250000D03*
X60348000Y-107250000D03*
X62888000Y-107250000D03*
G36*
G01*
X109238500Y-90703875D02*
X109238500Y-91656125D01*
G75*
G02*
X108963625Y-91931000I-274875J0D01*
G01*
X108386375Y-91931000D01*
G75*
G02*
X108111500Y-91656125I0J274875D01*
G01*
X108111500Y-90703875D01*
G75*
G02*
X108386375Y-90429000I274875J0D01*
G01*
X108963625Y-90429000D01*
G75*
G02*
X109238500Y-90703875I0J-274875D01*
G01*
G37*
G36*
G01*
X111063500Y-90703875D02*
X111063500Y-91656125D01*
G75*
G02*
X110788625Y-91931000I-274875J0D01*
G01*
X110211375Y-91931000D01*
G75*
G02*
X109936500Y-91656125I0J274875D01*
G01*
X109936500Y-90703875D01*
G75*
G02*
X110211375Y-90429000I274875J0D01*
G01*
X110788625Y-90429000D01*
G75*
G02*
X111063500Y-90703875I0J-274875D01*
G01*
G37*
G36*
G01*
X97563875Y-46461500D02*
X98516125Y-46461500D01*
G75*
G02*
X98791000Y-46736375I0J-274875D01*
G01*
X98791000Y-47313625D01*
G75*
G02*
X98516125Y-47588500I-274875J0D01*
G01*
X97563875Y-47588500D01*
G75*
G02*
X97289000Y-47313625I0J274875D01*
G01*
X97289000Y-46736375D01*
G75*
G02*
X97563875Y-46461500I274875J0D01*
G01*
G37*
G36*
G01*
X97563875Y-44636500D02*
X98516125Y-44636500D01*
G75*
G02*
X98791000Y-44911375I0J-274875D01*
G01*
X98791000Y-45488625D01*
G75*
G02*
X98516125Y-45763500I-274875J0D01*
G01*
X97563875Y-45763500D01*
G75*
G02*
X97289000Y-45488625I0J274875D01*
G01*
X97289000Y-44911375D01*
G75*
G02*
X97563875Y-44636500I274875J0D01*
G01*
G37*
D14*
X63080000Y-95050000D03*
X60540000Y-95050000D03*
X63080000Y-92510000D03*
X60540000Y-92510000D03*
X63080000Y-89970000D03*
X60540000Y-89970000D03*
X63080000Y-87430000D03*
X60540000Y-87430000D03*
X63080000Y-84890000D03*
X60540000Y-84890000D03*
X63080000Y-82350000D03*
X60540000Y-82350000D03*
X63080000Y-79810000D03*
X60540000Y-79810000D03*
X63080000Y-77270000D03*
X60540000Y-77270000D03*
X63080000Y-74730000D03*
X60540000Y-74730000D03*
X63080000Y-72190000D03*
X60540000Y-72190000D03*
X63080000Y-69650000D03*
X60540000Y-69650000D03*
X63080000Y-67110000D03*
X60540000Y-67110000D03*
X63080000Y-64570000D03*
X60540000Y-64570000D03*
X63080000Y-62030000D03*
X60540000Y-62030000D03*
X63080000Y-59490000D03*
X60540000Y-59490000D03*
X63080000Y-56950000D03*
X60540000Y-56950000D03*
X63080000Y-54410000D03*
X60540000Y-54410000D03*
X63080000Y-51870000D03*
X60540000Y-51870000D03*
X63080000Y-49330000D03*
X60540000Y-49330000D03*
X63080000Y-46790000D03*
G36*
G01*
X59639000Y-47640000D02*
X59639000Y-45940000D01*
G75*
G02*
X59690000Y-45889000I51000J0D01*
G01*
X61390000Y-45889000D01*
G75*
G02*
X61441000Y-45940000I0J-51000D01*
G01*
X61441000Y-47640000D01*
G75*
G02*
X61390000Y-47691000I-51000J0D01*
G01*
X59690000Y-47691000D01*
G75*
G02*
X59639000Y-47640000I0J51000D01*
G01*
G37*
D16*
X109810000Y-86250000D03*
X71570000Y-94560000D03*
D17*
X36890000Y-68480000D03*
D18*
X42840000Y-70430000D03*
D17*
X42890000Y-82680000D03*
X30840000Y-82630000D03*
D18*
X30840000Y-70430000D03*
D14*
X49770000Y-70510000D03*
X49770000Y-67970000D03*
X49770000Y-65430000D03*
G36*
G01*
X48869000Y-63740000D02*
X48869000Y-62040000D01*
G75*
G02*
X48920000Y-61989000I51000J0D01*
G01*
X50620000Y-61989000D01*
G75*
G02*
X50671000Y-62040000I0J-51000D01*
G01*
X50671000Y-63740000D01*
G75*
G02*
X50620000Y-63791000I-51000J0D01*
G01*
X48920000Y-63791000D01*
G75*
G02*
X48869000Y-63740000I0J51000D01*
G01*
G37*
D19*
X31846000Y-40014000D03*
X36926000Y-40014000D03*
G36*
G01*
X43357000Y-38714000D02*
X43357000Y-41314000D01*
G75*
G02*
X43306000Y-41365000I-51000J0D01*
G01*
X40706000Y-41365000D01*
G75*
G02*
X40655000Y-41314000I0J51000D01*
G01*
X40655000Y-38714000D01*
G75*
G02*
X40706000Y-38663000I51000J0D01*
G01*
X43306000Y-38663000D01*
G75*
G02*
X43357000Y-38714000I0J-51000D01*
G01*
G37*
D16*
X59570000Y-114290000D03*
D19*
X160260000Y-76760000D03*
G36*
G01*
X161560000Y-83191000D02*
X158960000Y-83191000D01*
G75*
G02*
X158909000Y-83140000I0J51000D01*
G01*
X158909000Y-80540000D01*
G75*
G02*
X158960000Y-80489000I51000J0D01*
G01*
X161560000Y-80489000D01*
G75*
G02*
X161611000Y-80540000I0J-51000D01*
G01*
X161611000Y-83140000D01*
G75*
G02*
X161560000Y-83191000I-51000J0D01*
G01*
G37*
D16*
X114570000Y-114290000D03*
D20*
X49136000Y-46054000D03*
X50406000Y-46054000D03*
G36*
G01*
X47290000Y-46804000D02*
X47290000Y-45304000D01*
G75*
G02*
X47341000Y-45253000I51000J0D01*
G01*
X48391000Y-45253000D01*
G75*
G02*
X48442000Y-45304000I0J-51000D01*
G01*
X48442000Y-46804000D01*
G75*
G02*
X48391000Y-46855000I-51000J0D01*
G01*
X47341000Y-46855000D01*
G75*
G02*
X47290000Y-46804000I0J51000D01*
G01*
G37*
D16*
X49040000Y-94280000D03*
X49070000Y-39290000D03*
X159570000Y-39290000D03*
X159570000Y-94290000D03*
X59600000Y-39300000D03*
X129570000Y-39290000D03*
G36*
G01*
X51236000Y-86480000D02*
X51236000Y-87980000D01*
G75*
G02*
X51185000Y-88031000I-51000J0D01*
G01*
X50135000Y-88031000D01*
G75*
G02*
X50084000Y-87980000I0J51000D01*
G01*
X50084000Y-86480000D01*
G75*
G02*
X50135000Y-86429000I51000J0D01*
G01*
X51185000Y-86429000D01*
G75*
G02*
X51236000Y-86480000I0J-51000D01*
G01*
G37*
D20*
X48120000Y-87230000D03*
X49390000Y-87230000D03*
G36*
G01*
X148800000Y-46549000D02*
X151800000Y-46549000D01*
G75*
G02*
X151851000Y-46600000I0J-51000D01*
G01*
X151851000Y-49600000D01*
G75*
G02*
X151800000Y-49651000I-51000J0D01*
G01*
X148800000Y-49651000D01*
G75*
G02*
X148749000Y-49600000I0J51000D01*
G01*
X148749000Y-46600000D01*
G75*
G02*
X148800000Y-46549000I51000J0D01*
G01*
G37*
D17*
X137500000Y-93100000D03*
X129500000Y-48100000D03*
X129500000Y-93100000D03*
X36810000Y-64370000D03*
D18*
X30860000Y-62420000D03*
D17*
X30810000Y-50170000D03*
X42860000Y-50220000D03*
D18*
X42860000Y-62420000D03*
D19*
X160350000Y-48120000D03*
G36*
G01*
X161650000Y-54551000D02*
X159050000Y-54551000D01*
G75*
G02*
X158999000Y-54500000I0J51000D01*
G01*
X158999000Y-51900000D01*
G75*
G02*
X159050000Y-51849000I51000J0D01*
G01*
X161650000Y-51849000D01*
G75*
G02*
X161701000Y-51900000I0J-51000D01*
G01*
X161701000Y-54500000D01*
G75*
G02*
X161650000Y-54551000I-51000J0D01*
G01*
G37*
X42084000Y-92796000D03*
X37004000Y-92796000D03*
G36*
G01*
X30573000Y-94096000D02*
X30573000Y-91496000D01*
G75*
G02*
X30624000Y-91445000I51000J0D01*
G01*
X33224000Y-91445000D01*
G75*
G02*
X33275000Y-91496000I0J-51000D01*
G01*
X33275000Y-94096000D01*
G75*
G02*
X33224000Y-94147000I-51000J0D01*
G01*
X30624000Y-94147000D01*
G75*
G02*
X30573000Y-94096000I0J51000D01*
G01*
G37*
D14*
X130805000Y-102962000D03*
X133345000Y-102962000D03*
X135885000Y-102962000D03*
X138425000Y-102962000D03*
X140965000Y-102962000D03*
X143505000Y-102962000D03*
X146045000Y-102962000D03*
X148585000Y-102962000D03*
X151125000Y-102962000D03*
X153665000Y-102962000D03*
X156205000Y-102962000D03*
X158745000Y-102962000D03*
X161285000Y-102962000D03*
G36*
G01*
X162975000Y-102061000D02*
X164675000Y-102061000D01*
G75*
G02*
X164726000Y-102112000I0J-51000D01*
G01*
X164726000Y-103812000D01*
G75*
G02*
X164675000Y-103863000I-51000J0D01*
G01*
X162975000Y-103863000D01*
G75*
G02*
X162924000Y-103812000I0J51000D01*
G01*
X162924000Y-102112000D01*
G75*
G02*
X162975000Y-102061000I51000J0D01*
G01*
G37*
M02*
