M48
; DRILL file {KiCad (5.1.9)-1} date 05/05/21 14:43:58
; FORMAT={-:-/ absolute / metric / decimal}
; #@! TF.CreationDate,2021-05-05T14:43:58+02:00
; #@! TF.GenerationSoftware,Kicad,Pcbnew,(5.1.9)-1
; #@! TF.FileFunction,Plated,1,4,PTH
FMAT,2
METRIC
T1C0.400
T2C0.650
T3C0.750
T4C0.800
T5C1.000
T6C1.016
T7C1.100
T8C1.300
T9C1.500
T10C3.200
%
G90
G05
T1
X48.06Y-78.36
X50.03Y-52.25
X50.05Y-56.24
X57.92Y-46.15
X58.74Y-76.14
X58.95Y-50.81
X64.586Y-78.764
X64.78Y-72.1
X65.42Y-66.37
X65.662Y-78.039
X65.71Y-74.82
X66.97Y-41.28
X66.97Y-42.18
X66.97Y-43.08
X66.97Y-43.98
X67.044Y-45.29
X70.68Y-57.73
X70.68Y-72.62
X72.145Y-85.515
X72.15Y-78.25
X73.04Y-87.7
X73.33Y-78.27
X73.33Y-58.35
X73.94Y-75.56
X73.97Y-67.12
X74.06Y-79.68
X74.22Y-84.4
X74.253Y-90.48
X75.31Y-79.65
X75.625Y-51.88
X75.75Y-80.55
X75.75Y-82.02
X76.487Y-82.57
X76.73Y-47.85
X77.32Y-49.37
X77.94Y-64.13
X78.23Y-93.83
X78.328Y-46.862
X78.626Y-83.003
X79.12Y-83.755
X79.66Y-46.91
X79.92Y-68.8
X80.45Y-70.47
X80.83Y-93.83
X80.84Y-91.31
X81.07Y-86.19
X81.07Y-88.74
X81.16Y-59.57
X81.67Y-76.53
X82.42Y-84.67
X82.73Y-52.83
X82.98Y-81.37
X83.442Y-79.9
X83.633Y-55.67
X84.075Y-75.05
X86.765Y-90.037
X86.765Y-96.56
X86.77Y-87.82
X86.8Y-73.85
X87.04Y-55.58
X87.362Y-94.245
X87.77Y-47.29
X87.79Y-58.32
X87.93Y-62.01
X87.93Y-65.76
X88.41Y-56.41
X88.735Y-87.26
X89.13Y-72.2
X89.14Y-48.77
X89.71Y-63.53
X89.71Y-75.08
X90.03Y-47.31
X90.28Y-87.82
X90.35Y-69.67
X90.375Y-85.33
X90.69Y-48.86
X90.967Y-57.57
X91.29Y-52.91
X91.344Y-45.96
X91.62Y-95.41
X91.64Y-94.03
X91.68Y-53.82
X91.75Y-91.58
X91.86Y-65.65
X91.88Y-71.09
X92.131Y-47.23
X92.14Y-89.06
X92.175Y-87.26
X92.2Y-85.33
X92.28Y-50.82
X92.43Y-90.29
X92.465Y-44.685
X92.69Y-66.26
X92.69Y-74.05
X93.24Y-37.86
X95.78Y-45.97
X95.8Y-68.46
X95.8Y-75.6
X95.859Y-69.522
X96.33Y-66.4
X96.52Y-57.29
X96.93Y-73.17
X96.97Y-65.14
X97.14Y-76.18
X97.31Y-41.2
X97.36Y-49.55
X97.64Y-67.05
X97.98Y-45.35
X98.22Y-68.46
X98.49Y-48.4
X98.82Y-66.43
X99.24Y-63.72
X99.87Y-61.77
X100.167Y-86.13
X100.29Y-88.75
X100.45Y-54.63
X101.295Y-42.6
X101.55Y-64.53
X101.55Y-65.8
X101.55Y-73.42
X101.55Y-75.96
X101.6Y-69.596
X101.63Y-70.74
X101.854Y-93.218
X101.992Y-86.2
X102.07Y-88.74
X102.4Y-96.06
X103.23Y-54.02
X104.05Y-96.04
X104.17Y-77.15
X104.39Y-62.41
X104.61Y-54.62
X104.62Y-64.86
X104.66Y-60.053
X104.86Y-67.42
X105.13Y-41.76
X105.14Y-36.78
X105.24Y-39.19
X105.252Y-88.961
X105.26Y-46.87
X105.43Y-43.833
X106.054Y-52.054
X106.48Y-44.29
X106.74Y-49.01
X107.21Y-79.58
X107.232Y-78.38
X107.3Y-72.49
X107.3Y-75.05
X107.31Y-69.95
X107.37Y-60.05
X107.37Y-62.72
X107.72Y-89.43
X107.73Y-39.21
X107.73Y-41.76
X107.73Y-44.31
X108.02Y-77.93
X108.1Y-57.28
X108.97Y-60.79
X109.025Y-61.973
X109.108Y-59.192
X109.26Y-68.95
X109.28Y-67.69
X110.13Y-74.68
X110.15Y-73.42
X110.19Y-75.95
X110.22Y-46.99
X110.24Y-54.6
X110.27Y-49.43
X110.49Y-91.28
X110.85Y-68.34
X110.91Y-65.61
X110.95Y-64.49
X110.95Y-67.1
X111.86Y-51.95
X112.91Y-61.89
X113.17Y-66.39
X113.182Y-65.474
X117.2Y-62.19
X117.69Y-91.38
T2
X64.69Y-36.87
X64.69Y-38.14
X64.69Y-39.41
X64.69Y-40.68
X65.96Y-36.87
X65.96Y-38.14
X65.96Y-39.41
X65.96Y-40.68
T3
X47.866Y-46.054
X48.12Y-87.23
X49.136Y-46.054
X49.39Y-87.23
X50.406Y-46.054
X50.66Y-87.23
T4
X57.808Y-102.17
X57.808Y-104.71
X57.808Y-107.25
X57.838Y-119.83
X57.838Y-122.37
X57.838Y-124.91
X60.348Y-102.17
X60.348Y-104.71
X60.348Y-107.25
X60.378Y-119.83
X60.378Y-122.37
X60.378Y-124.91
X62.888Y-102.17
X62.888Y-104.71
X62.888Y-107.25
X62.918Y-119.83
X62.918Y-122.37
X62.918Y-124.91
X66.182Y-102.05
X66.182Y-104.59
X66.182Y-107.13
X66.182Y-109.67
X66.182Y-112.21
X66.182Y-114.75
X66.182Y-117.29
X66.182Y-119.83
X66.182Y-122.37
X66.182Y-124.91
X68.722Y-102.05
X68.722Y-104.59
X68.722Y-107.13
X68.722Y-109.67
X68.722Y-112.21
X68.722Y-114.75
X68.722Y-117.29
X68.722Y-119.83
X68.722Y-122.37
X68.722Y-124.91
X71.262Y-102.05
X71.262Y-104.59
X71.262Y-107.13
X71.262Y-109.67
X71.262Y-112.21
X71.262Y-114.75
X71.262Y-117.29
X71.262Y-119.83
X71.262Y-122.37
X71.262Y-124.91
X73.802Y-102.05
X73.802Y-104.59
X73.802Y-107.13
X73.802Y-109.67
X73.802Y-112.21
X73.802Y-114.75
X73.802Y-117.29
X73.802Y-119.83
X73.802Y-122.37
X73.802Y-124.91
X76.342Y-102.05
X76.342Y-104.59
X76.342Y-107.13
X76.342Y-109.67
X76.342Y-112.21
X76.342Y-114.75
X76.342Y-117.29
X76.342Y-119.83
X76.342Y-122.37
X76.342Y-124.91
X78.882Y-102.05
X78.882Y-104.59
X78.882Y-107.13
X78.882Y-109.67
X78.882Y-112.21
X78.882Y-114.75
X78.882Y-117.29
X78.882Y-119.83
X78.882Y-122.37
X78.882Y-124.91
X81.422Y-102.05
X81.422Y-104.59
X81.422Y-107.13
X81.422Y-109.67
X81.422Y-112.21
X81.422Y-114.75
X81.422Y-117.29
X81.422Y-119.83
X81.422Y-122.37
X81.422Y-124.91
X83.962Y-102.05
X83.962Y-104.59
X83.962Y-107.13
X83.962Y-109.67
X83.962Y-112.21
X83.962Y-114.75
X83.962Y-117.29
X83.962Y-119.83
X83.962Y-122.37
X83.962Y-124.91
X86.502Y-102.05
X86.502Y-104.59
X86.502Y-107.13
X86.502Y-109.67
X86.502Y-112.21
X86.502Y-114.75
X86.502Y-117.29
X86.502Y-119.83
X86.502Y-122.37
X86.502Y-124.91
X89.042Y-102.05
X89.042Y-104.59
X89.042Y-107.13
X89.042Y-109.67
X89.042Y-112.21
X89.042Y-114.75
X89.042Y-117.29
X89.042Y-119.83
X89.042Y-122.37
X89.042Y-124.91
X91.582Y-102.05
X91.582Y-104.59
X91.582Y-107.13
X91.582Y-109.67
X91.582Y-112.21
X91.582Y-114.75
X91.582Y-117.29
X91.582Y-119.83
X91.582Y-122.37
X91.582Y-124.91
X94.122Y-102.05
X94.122Y-104.59
X94.122Y-107.13
X94.122Y-109.67
X94.122Y-112.21
X94.122Y-114.75
X94.122Y-117.29
X94.122Y-119.83
X94.122Y-122.37
X94.122Y-124.91
X96.662Y-102.05
X96.662Y-104.59
X96.662Y-107.13
X96.662Y-109.67
X96.662Y-112.21
X96.662Y-114.75
X96.662Y-117.29
X96.662Y-119.83
X96.662Y-122.37
X96.662Y-124.91
X99.202Y-102.05
X99.202Y-104.59
X99.202Y-107.13
X99.202Y-109.67
X99.202Y-112.21
X99.202Y-114.75
X99.202Y-117.29
X99.202Y-119.83
X99.202Y-122.37
X99.202Y-124.91
X101.742Y-102.05
X101.742Y-104.59
X101.742Y-107.13
X101.742Y-109.67
X101.742Y-112.21
X101.742Y-114.75
X101.742Y-117.29
X101.742Y-119.83
X101.742Y-122.37
X101.742Y-124.91
X104.272Y-119.81
X104.272Y-122.35
X104.272Y-124.89
X104.282Y-109.67
X104.282Y-112.21
X104.282Y-114.75
X104.282Y-117.29
X104.292Y-102.15
X104.292Y-104.69
X104.292Y-107.23
X106.812Y-119.81
X106.812Y-122.35
X106.812Y-124.89
X106.822Y-109.67
X106.822Y-112.21
X106.822Y-114.75
X106.822Y-117.29
X106.832Y-102.15
X106.832Y-104.69
X106.832Y-107.23
X109.272Y-80.96
X109.352Y-119.81
X109.352Y-122.35
X109.352Y-124.89
X109.362Y-109.67
X109.362Y-112.21
X109.362Y-114.75
X109.362Y-117.29
X109.372Y-102.15
X109.372Y-104.69
X109.372Y-107.23
X109.9Y-36.67
X111.812Y-80.96
X112.672Y-102.17
X112.672Y-104.71
X112.672Y-107.25
X112.702Y-119.83
X112.702Y-122.37
X112.702Y-124.91
X115.212Y-102.17
X115.212Y-104.71
X115.212Y-107.25
X115.242Y-119.83
X115.242Y-122.37
X115.242Y-124.91
X117.752Y-102.17
X117.752Y-104.71
X117.752Y-107.25
X117.782Y-119.83
X117.782Y-122.37
X117.782Y-124.91
T5
X30.84Y-70.43
X30.86Y-62.42
X42.84Y-70.43
X42.86Y-62.42
X49.77Y-62.89
X49.77Y-65.43
X49.77Y-67.97
X49.77Y-70.51
X60.54Y-46.79
X60.54Y-49.33
X60.54Y-51.87
X60.54Y-54.41
X60.54Y-56.95
X60.54Y-59.49
X60.54Y-62.03
X60.54Y-64.57
X60.54Y-67.11
X60.54Y-69.65
X60.54Y-72.19
X60.54Y-74.73
X60.54Y-77.27
X60.54Y-79.81
X60.54Y-82.35
X60.54Y-84.89
X60.54Y-87.43
X60.54Y-89.97
X60.54Y-92.51
X60.54Y-95.05
X63.08Y-46.79
X63.08Y-49.33
X63.08Y-51.87
X63.08Y-54.41
X63.08Y-56.95
X63.08Y-59.49
X63.08Y-62.03
X63.08Y-64.57
X63.08Y-67.11
X63.08Y-69.65
X63.08Y-72.19
X63.08Y-74.73
X63.08Y-77.27
X63.08Y-79.81
X63.08Y-82.35
X63.08Y-84.89
X63.08Y-87.43
X63.08Y-89.97
X63.08Y-92.51
X63.08Y-95.05
X68.9Y-36.64
X68.9Y-39.18
X68.9Y-41.72
X68.9Y-44.26
X68.9Y-46.8
X68.9Y-49.34
X68.9Y-51.88
X68.9Y-54.42
X68.9Y-56.96
X68.9Y-59.5
X68.9Y-62.04
X68.9Y-64.58
X68.9Y-67.12
X68.9Y-69.66
X68.9Y-72.2
X68.9Y-74.74
X68.9Y-77.28
X68.9Y-79.82
X68.9Y-82.36
X83.02Y-86.2
X83.02Y-88.74
X83.02Y-91.28
X83.02Y-93.82
X94.3Y-36.64
X94.3Y-39.18
X94.3Y-41.72
X94.3Y-44.26
X94.3Y-46.8
X94.3Y-49.34
X94.3Y-51.88
X94.3Y-54.42
X94.3Y-56.96
X94.3Y-59.5
X94.3Y-62.04
X94.3Y-64.58
X94.3Y-67.12
X94.3Y-69.66
X94.3Y-72.2
X94.3Y-74.74
X94.3Y-77.28
X94.3Y-79.82
X94.3Y-82.36
X94.94Y-86.13
X94.94Y-88.67
X94.94Y-91.21
X97.48Y-86.13
X97.48Y-88.67
X97.48Y-91.21
X97.94Y-78.72
X97.94Y-81.26
X100.48Y-78.72
X100.48Y-81.26
X103.02Y-78.72
X103.02Y-81.26
X105.56Y-78.72
X105.56Y-81.26
X115.74Y-61.3
X115.74Y-63.84
X115.74Y-66.38
X115.74Y-68.92
X115.74Y-71.46
X115.74Y-74.0
X115.74Y-76.54
X115.74Y-79.08
X118.28Y-61.3
X118.28Y-63.84
X118.28Y-66.38
X118.28Y-68.92
X118.28Y-71.46
X118.28Y-74.0
X118.28Y-76.54
X118.28Y-79.08
X130.805Y-102.962
X133.345Y-102.962
X135.885Y-102.962
X138.425Y-102.962
X140.965Y-102.962
X143.505Y-102.962
X146.045Y-102.962
X148.585Y-102.962
X151.125Y-102.962
X153.665Y-102.962
X156.205Y-102.962
X158.745Y-102.962
X161.285Y-102.962
X163.825Y-102.962
T6
X100.03Y-40.57
X100.03Y-43.11
X100.03Y-45.65
X100.03Y-48.19
X100.03Y-50.73
X102.57Y-40.57
X102.57Y-43.11
X102.57Y-45.65
X102.57Y-48.19
X102.57Y-50.73
X114.53Y-40.39
X114.53Y-42.93
X114.53Y-45.47
X114.53Y-48.01
X114.53Y-50.55
X114.53Y-53.09
X117.07Y-40.39
X117.07Y-42.93
X117.07Y-45.47
X117.07Y-48.01
X117.07Y-50.55
X117.07Y-53.09
X141.1Y-109.2
X141.1Y-111.74
X143.64Y-109.2
X143.64Y-111.74
X146.18Y-109.2
X146.18Y-111.74
X148.72Y-109.2
X148.72Y-111.74
X151.26Y-109.2
X151.26Y-111.74
X153.8Y-109.2
X153.8Y-111.74
T7
X68.82Y-87.27
X71.36Y-87.27
X108.676Y-93.544
X111.216Y-93.544
X116.31Y-93.51
X117.12Y-84.49
X117.12Y-87.03
X118.85Y-93.51
T8
X30.81Y-50.17
X30.84Y-82.63
X31.846Y-40.014
X31.924Y-92.796
X36.81Y-64.37
X36.89Y-68.48
X36.926Y-40.014
X37.004Y-92.796
X42.006Y-40.014
X42.084Y-92.796
X42.86Y-50.22
X42.89Y-82.68
X160.26Y-76.76
X160.26Y-81.84
X160.35Y-48.12
X160.35Y-53.2
T9
X129.5Y-48.1
X129.5Y-93.1
X137.5Y-93.1
X150.3Y-48.1
T10
X49.04Y-94.28
X49.07Y-39.29
X59.57Y-114.29
X59.6Y-39.3
X71.57Y-94.56
X109.81Y-86.25
X114.57Y-114.29
X129.57Y-39.29
X159.57Y-39.29
X159.57Y-94.29
T0
M30
