%FSLAX45Y45*%
G04 Gerber Fmt 4.5, Leading zero omitted, Abs format (unit mm)*
G04 Created by KiCad (PCBNEW (5.1.9)-1) date 2021-01-19 07:45:16*
%MOMM*%
%LPD*%
G01*
G04 APERTURE LIST*
%TA.AperFunction,Profile*%
%ADD10C,0.050000*%
%TD*%
%ADD11C,0.200000*%
%ADD12C,0.300000*%
G04 APERTURE END LIST*
D10*
X5500000Y-9820000D02*
X5500000Y-13720000D01*
X2490000Y-9820000D02*
X5500000Y-9820000D01*
X5300000Y-9020000D02*
X5300000Y-9610000D01*
X5300000Y-9020000D02*
G75*
G02*
X5500000Y-9020000I100000J0D01*
G01*
X5500000Y-9610000D02*
G75*
G02*
X5300000Y-9610000I-100000J0D01*
G01*
X5500000Y-9020000D02*
X5500000Y-9610000D01*
X5500000Y-6350000D02*
X5500000Y-6940000D01*
X5500000Y-7240000D02*
X5500000Y-7830000D01*
X5300000Y-5460000D02*
X5300000Y-6050000D01*
X5500000Y-6940000D02*
G75*
G02*
X5300000Y-6940000I-100000J0D01*
G01*
X5300000Y-6350000D02*
X5300000Y-6940000D01*
X5300000Y-6350000D02*
G75*
G02*
X5500000Y-6350000I100000J0D01*
G01*
X5500000Y-7830000D02*
G75*
G02*
X5300000Y-7830000I-100000J0D01*
G01*
X5500000Y-8130000D02*
X5500000Y-8720000D01*
X5500000Y-6050000D02*
G75*
G02*
X5300000Y-6050000I-100000J0D01*
G01*
X5300000Y-7240000D02*
X5300000Y-7830000D01*
X5300000Y-7240000D02*
G75*
G02*
X5500000Y-7240000I100000J0D01*
G01*
X5300000Y-5460000D02*
G75*
G02*
X5500000Y-5460000I100000J0D01*
G01*
X5300000Y-4570000D02*
G75*
G02*
X5500000Y-4570000I100000J0D01*
G01*
X5500000Y-4270000D02*
G75*
G02*
X5300000Y-4270000I-100000J0D01*
G01*
X5500000Y-3680000D02*
X5500000Y-4270000D01*
X5500000Y-5160000D02*
G75*
G02*
X5300000Y-5160000I-100000J0D01*
G01*
X5300000Y-4570000D02*
X5300000Y-5160000D01*
X5500000Y-4570000D02*
X5500000Y-5160000D01*
X5300000Y-3680000D02*
G75*
G02*
X5500000Y-3680000I100000J0D01*
G01*
X5500000Y-5460000D02*
X5500000Y-6050000D01*
X5300000Y-3680000D02*
X5300000Y-4270000D01*
X5300000Y-8130000D02*
X5300000Y-8720000D01*
X5500000Y-8720000D02*
G75*
G02*
X5300000Y-8720000I-100000J0D01*
G01*
X5300000Y-8130000D02*
G75*
G02*
X5500000Y-8130000I100000J0D01*
G01*
X2490000Y-3480000D02*
X2490000Y-9820000D01*
X12310000Y-3680000D02*
X12310000Y-4270000D01*
X12310000Y-4570000D02*
X12310000Y-5160000D01*
X12110000Y-4570000D02*
X12110000Y-5160000D01*
X12310000Y-5160000D02*
G75*
G02*
X12110000Y-5160000I-100000J0D01*
G01*
X12110000Y-3680000D02*
G75*
G02*
X12310000Y-3680000I100000J0D01*
G01*
X12310000Y-4270000D02*
G75*
G02*
X12110000Y-4270000I-100000J0D01*
G01*
X12110000Y-4570000D02*
G75*
G02*
X12310000Y-4570000I100000J0D01*
G01*
X12110000Y-3680000D02*
X12110000Y-4270000D01*
X12310000Y-5460000D02*
X12310000Y-6050000D01*
X12110000Y-5460000D02*
G75*
G02*
X12310000Y-5460000I100000J0D01*
G01*
X12110000Y-5460000D02*
X12110000Y-6050000D01*
X12310000Y-6050000D02*
G75*
G02*
X12110000Y-6050000I-100000J0D01*
G01*
X12310000Y-6350000D02*
X12310000Y-6940000D01*
X12110000Y-6350000D02*
X12110000Y-6940000D01*
X12310000Y-6940000D02*
G75*
G02*
X12110000Y-6940000I-100000J0D01*
G01*
X12110000Y-6350000D02*
G75*
G02*
X12310000Y-6350000I100000J0D01*
G01*
X12310000Y-7240000D02*
X12310000Y-7830000D01*
X12110000Y-7240000D02*
G75*
G02*
X12310000Y-7240000I100000J0D01*
G01*
X12110000Y-7240000D02*
X12110000Y-7830000D01*
X12310000Y-7830000D02*
G75*
G02*
X12110000Y-7830000I-100000J0D01*
G01*
X12310000Y-8130000D02*
X12310000Y-8720000D01*
X12110000Y-8130000D02*
G75*
G02*
X12310000Y-8130000I100000J0D01*
G01*
X12110000Y-8130000D02*
X12110000Y-8720000D01*
X12310000Y-8720000D02*
G75*
G02*
X12110000Y-8720000I-100000J0D01*
G01*
X8800000Y-9810000D02*
X8220000Y-9810000D01*
X8800000Y-9810000D02*
G75*
G02*
X8800000Y-10010000I0J-100000D01*
G01*
X8220000Y-10010000D02*
G75*
G02*
X8220000Y-9810000I0J100000D01*
G01*
X8800000Y-10010000D02*
X8220000Y-10010000D01*
X10690000Y-9810000D02*
X12800000Y-9810000D01*
X13475000Y-11610000D02*
X12800000Y-11130000D01*
X10690000Y-9810000D02*
X10690000Y-13720000D01*
X12800000Y-11130000D02*
X12800000Y-9810000D01*
X9010000Y-3780000D02*
X9310000Y-3480000D01*
X7010000Y-3480000D02*
X7310000Y-3780000D01*
X2490000Y-3480000D02*
X7010000Y-3480000D01*
X9010000Y-4250000D02*
X9010000Y-3780000D01*
X7310000Y-4250000D02*
X9010000Y-4250000D01*
X7310000Y-3780000D02*
X7310000Y-4250000D01*
X16665000Y-11130000D02*
X16005000Y-11610000D01*
X13475000Y-11610000D02*
X16005000Y-11610000D01*
X14890000Y-10010000D02*
G75*
G02*
X14890000Y-9810000I0J100000D01*
G01*
X16470000Y-9810000D02*
G75*
G02*
X16470000Y-10010000I0J-100000D01*
G01*
X16470000Y-10010000D02*
X14890000Y-10010000D01*
X16470000Y-9810000D02*
X14890000Y-9810000D01*
X14580000Y-9810000D02*
G75*
G02*
X14580000Y-10010000I0J-100000D01*
G01*
X13000000Y-10010000D02*
G75*
G02*
X13000000Y-9810000I0J100000D01*
G01*
X14580000Y-9810000D02*
X13000000Y-9810000D01*
X14580000Y-10010000D02*
X13000000Y-10010000D01*
X16665000Y-11130000D02*
X16665000Y-10005000D01*
X10690000Y-3480000D02*
X16665000Y-3480000D01*
X16665000Y-3480000D02*
X16665000Y-10005000D01*
X9310000Y-3480000D02*
X10690000Y-3480000D01*
X10690000Y-13720000D02*
X5500000Y-13720000D01*
X6160000Y-9820000D02*
X5700000Y-9820000D01*
X6975000Y-10015000D02*
X6475000Y-10015000D01*
X5700000Y-10020000D02*
G75*
G02*
X5700000Y-9820000I0J100000D01*
G01*
X6160000Y-9820000D02*
G75*
G02*
X6160000Y-10020000I0J-100000D01*
G01*
X6160000Y-10020000D02*
X5700000Y-10020000D01*
X6975000Y-9815000D02*
X6475000Y-9815000D01*
X6975000Y-9815000D02*
G75*
G02*
X6975000Y-10015000I0J-100000D01*
G01*
X6475000Y-10015000D02*
G75*
G02*
X6475000Y-9815000I0J100000D01*
G01*
X7870000Y-9805000D02*
G75*
G02*
X7870000Y-10005000I0J-100000D01*
G01*
X10400000Y-9810000D02*
G75*
G02*
X10400000Y-10010000I0J-100000D01*
G01*
X10400000Y-9810000D02*
X9900000Y-9810000D01*
X9100000Y-10010000D02*
G75*
G02*
X9100000Y-9810000I0J100000D01*
G01*
X7870000Y-9805000D02*
X7300000Y-9805000D01*
X9900000Y-10010000D02*
G75*
G02*
X9900000Y-9810000I0J100000D01*
G01*
X7300000Y-10005000D02*
G75*
G02*
X7300000Y-9805000I0J100000D01*
G01*
X9600000Y-9810000D02*
G75*
G02*
X9600000Y-10010000I0J-100000D01*
G01*
X9600000Y-9810000D02*
X9100000Y-9810000D01*
X7870000Y-10005000D02*
X7300000Y-10005000D01*
X9600000Y-10010000D02*
X9100000Y-10010000D01*
X10400000Y-10010000D02*
X9900000Y-10010000D01*
X12310000Y-9020000D02*
X12310000Y-9610000D01*
X12110000Y-9020000D02*
X12110000Y-9610000D01*
X12310000Y-9610000D02*
G75*
G02*
X12110000Y-9610000I-100000J0D01*
G01*
X12110000Y-9020000D02*
G75*
G02*
X12310000Y-9020000I100000J0D01*
G01*
D11*
D12*
X2773928Y-14188214D02*
X2773928Y-13888214D01*
X2845357Y-13888214D01*
X2888214Y-13902500D01*
X2916786Y-13931071D01*
X2931071Y-13959643D01*
X2945357Y-14016786D01*
X2945357Y-14059643D01*
X2931071Y-14116786D01*
X2916786Y-14145357D01*
X2888214Y-14173929D01*
X2845357Y-14188214D01*
X2773928Y-14188214D01*
X3073928Y-14188214D02*
X3073928Y-13988214D01*
X3073928Y-14045357D02*
X3088214Y-14016786D01*
X3102500Y-14002500D01*
X3131071Y-13988214D01*
X3159643Y-13988214D01*
X3259643Y-14188214D02*
X3259643Y-13988214D01*
X3259643Y-13888214D02*
X3245357Y-13902500D01*
X3259643Y-13916786D01*
X3273928Y-13902500D01*
X3259643Y-13888214D01*
X3259643Y-13916786D01*
X3445357Y-14188214D02*
X3416786Y-14173929D01*
X3402500Y-14145357D01*
X3402500Y-13888214D01*
X3602500Y-14188214D02*
X3573928Y-14173929D01*
X3559643Y-14145357D01*
X3559643Y-13888214D01*
X3945357Y-14188214D02*
X3945357Y-13888214D01*
X4045357Y-14102500D01*
X4145357Y-13888214D01*
X4145357Y-14188214D01*
X4416786Y-14188214D02*
X4416786Y-14031071D01*
X4402500Y-14002500D01*
X4373928Y-13988214D01*
X4316786Y-13988214D01*
X4288214Y-14002500D01*
X4416786Y-14173929D02*
X4388214Y-14188214D01*
X4316786Y-14188214D01*
X4288214Y-14173929D01*
X4273928Y-14145357D01*
X4273928Y-14116786D01*
X4288214Y-14088214D01*
X4316786Y-14073929D01*
X4388214Y-14073929D01*
X4416786Y-14059643D01*
X4559643Y-13988214D02*
X4559643Y-14288214D01*
X4559643Y-14002500D02*
X4588214Y-13988214D01*
X4645357Y-13988214D01*
X4673928Y-14002500D01*
X4688214Y-14016786D01*
X4702500Y-14045357D01*
X4702500Y-14131071D01*
X4688214Y-14159643D01*
X4673928Y-14173929D01*
X4645357Y-14188214D01*
X4588214Y-14188214D01*
X4559643Y-14173929D01*
X4831071Y-14159643D02*
X4845357Y-14173929D01*
X4831071Y-14188214D01*
X4816786Y-14173929D01*
X4831071Y-14159643D01*
X4831071Y-14188214D01*
X4831071Y-14002500D02*
X4845357Y-14016786D01*
X4831071Y-14031071D01*
X4816786Y-14016786D01*
X4831071Y-14002500D01*
X4831071Y-14031071D01*
M02*
