G04 #@! TF.GenerationSoftware,KiCad,Pcbnew,(5.1.9)-1*
G04 #@! TF.CreationDate,2021-05-05T14:43:55+02:00*
G04 #@! TF.ProjectId,MTDevBoard,4d544465-7642-46f6-9172-642e6b696361,rev?*
G04 #@! TF.SameCoordinates,Original*
G04 #@! TF.FileFunction,Copper,L4,Bot*
G04 #@! TF.FilePolarity,Positive*
%FSLAX46Y46*%
G04 Gerber Fmt 4.6, Leading zero omitted, Abs format (unit mm)*
G04 Created by KiCad (PCBNEW (5.1.9)-1) date 2021-05-05 14:43:55*
%MOMM*%
%LPD*%
G01*
G04 APERTURE LIST*
G04 #@! TA.AperFunction,ComponentPad*
%ADD10O,1.727200X1.727200*%
G04 #@! TD*
G04 #@! TA.AperFunction,ComponentPad*
%ADD11R,1.727200X1.727200*%
G04 #@! TD*
G04 #@! TA.AperFunction,ComponentPad*
%ADD12O,1.000000X1.000000*%
G04 #@! TD*
G04 #@! TA.AperFunction,ComponentPad*
%ADD13R,1.000000X1.000000*%
G04 #@! TD*
G04 #@! TA.AperFunction,ComponentPad*
%ADD14C,1.998980*%
G04 #@! TD*
G04 #@! TA.AperFunction,SMDPad,CuDef*
%ADD15R,1.000000X1.500000*%
G04 #@! TD*
G04 #@! TA.AperFunction,SMDPad,CuDef*
%ADD16C,0.100000*%
G04 #@! TD*
G04 #@! TA.AperFunction,ComponentPad*
%ADD17O,1.700000X1.700000*%
G04 #@! TD*
G04 #@! TA.AperFunction,ComponentPad*
%ADD18R,1.700000X1.700000*%
G04 #@! TD*
G04 #@! TA.AperFunction,ComponentPad*
%ADD19C,2.100000*%
G04 #@! TD*
G04 #@! TA.AperFunction,ComponentPad*
%ADD20R,2.100000X2.100000*%
G04 #@! TD*
G04 #@! TA.AperFunction,ComponentPad*
%ADD21C,6.400000*%
G04 #@! TD*
G04 #@! TA.AperFunction,ComponentPad*
%ADD22C,3.000000*%
G04 #@! TD*
G04 #@! TA.AperFunction,ComponentPad*
%ADD23C,2.500000*%
G04 #@! TD*
G04 #@! TA.AperFunction,ComponentPad*
%ADD24C,2.600000*%
G04 #@! TD*
G04 #@! TA.AperFunction,ComponentPad*
%ADD25R,2.600000X2.600000*%
G04 #@! TD*
G04 #@! TA.AperFunction,ComponentPad*
%ADD26O,1.050000X1.500000*%
G04 #@! TD*
G04 #@! TA.AperFunction,ComponentPad*
%ADD27R,1.050000X1.500000*%
G04 #@! TD*
G04 #@! TA.AperFunction,ComponentPad*
%ADD28R,3.000000X3.000000*%
G04 #@! TD*
G04 #@! TA.AperFunction,ViaPad*
%ADD29C,0.800000*%
G04 #@! TD*
G04 #@! TA.AperFunction,Conductor*
%ADD30C,0.200000*%
G04 #@! TD*
G04 #@! TA.AperFunction,Conductor*
%ADD31C,0.300000*%
G04 #@! TD*
G04 #@! TA.AperFunction,Conductor*
%ADD32C,2.000000*%
G04 #@! TD*
G04 APERTURE END LIST*
D10*
X100030000Y-40570000D03*
X102570000Y-40570000D03*
X100030000Y-43110000D03*
X102570000Y-43110000D03*
X100030000Y-45650000D03*
X102570000Y-45650000D03*
X100030000Y-48190000D03*
X102570000Y-48190000D03*
X100030000Y-50730000D03*
D11*
X102570000Y-50730000D03*
D12*
X65960000Y-40680000D03*
X64690000Y-40680000D03*
X65960000Y-39410000D03*
X64690000Y-39410000D03*
X65960000Y-38140000D03*
X64690000Y-38140000D03*
X65960000Y-36870000D03*
D13*
X64690000Y-36870000D03*
D11*
X141100000Y-109200000D03*
D10*
X141100000Y-111740000D03*
X143640000Y-109200000D03*
X143640000Y-111740000D03*
X146180000Y-109200000D03*
X146180000Y-111740000D03*
X148720000Y-109200000D03*
X148720000Y-111740000D03*
X151260000Y-109200000D03*
X151260000Y-111740000D03*
X153800000Y-109200000D03*
X153800000Y-111740000D03*
D14*
X109900000Y-36670000D03*
D11*
X114530000Y-40390000D03*
D10*
X117070000Y-40390000D03*
X114530000Y-42930000D03*
X117070000Y-42930000D03*
X114530000Y-45470000D03*
X117070000Y-45470000D03*
X114530000Y-48010000D03*
X117070000Y-48010000D03*
X114530000Y-50550000D03*
X117070000Y-50550000D03*
X114530000Y-53090000D03*
X117070000Y-53090000D03*
D15*
X108940000Y-54600000D03*
G04 #@! TA.AperFunction,SMDPad,CuDef*
D16*
G36*
X110240000Y-53850602D02*
G01*
X110264534Y-53850602D01*
X110313365Y-53855412D01*
X110361490Y-53864984D01*
X110408445Y-53879228D01*
X110453778Y-53898005D01*
X110497051Y-53921136D01*
X110537850Y-53948396D01*
X110575779Y-53979524D01*
X110610476Y-54014221D01*
X110641604Y-54052150D01*
X110668864Y-54092949D01*
X110691995Y-54136222D01*
X110710772Y-54181555D01*
X110725016Y-54228510D01*
X110734588Y-54276635D01*
X110739398Y-54325466D01*
X110739398Y-54350000D01*
X110740000Y-54350000D01*
X110740000Y-54850000D01*
X110739398Y-54850000D01*
X110739398Y-54874534D01*
X110734588Y-54923365D01*
X110725016Y-54971490D01*
X110710772Y-55018445D01*
X110691995Y-55063778D01*
X110668864Y-55107051D01*
X110641604Y-55147850D01*
X110610476Y-55185779D01*
X110575779Y-55220476D01*
X110537850Y-55251604D01*
X110497051Y-55278864D01*
X110453778Y-55301995D01*
X110408445Y-55320772D01*
X110361490Y-55335016D01*
X110313365Y-55344588D01*
X110264534Y-55349398D01*
X110240000Y-55349398D01*
X110240000Y-55350000D01*
X109690000Y-55350000D01*
X109690000Y-53850000D01*
X110240000Y-53850000D01*
X110240000Y-53850602D01*
G37*
G04 #@! TD.AperFunction*
G04 #@! TA.AperFunction,SMDPad,CuDef*
G36*
X108190000Y-55350000D02*
G01*
X107640000Y-55350000D01*
X107640000Y-55349398D01*
X107615466Y-55349398D01*
X107566635Y-55344588D01*
X107518510Y-55335016D01*
X107471555Y-55320772D01*
X107426222Y-55301995D01*
X107382949Y-55278864D01*
X107342150Y-55251604D01*
X107304221Y-55220476D01*
X107269524Y-55185779D01*
X107238396Y-55147850D01*
X107211136Y-55107051D01*
X107188005Y-55063778D01*
X107169228Y-55018445D01*
X107154984Y-54971490D01*
X107145412Y-54923365D01*
X107140602Y-54874534D01*
X107140602Y-54850000D01*
X107140000Y-54850000D01*
X107140000Y-54350000D01*
X107140602Y-54350000D01*
X107140602Y-54325466D01*
X107145412Y-54276635D01*
X107154984Y-54228510D01*
X107169228Y-54181555D01*
X107188005Y-54136222D01*
X107211136Y-54092949D01*
X107238396Y-54052150D01*
X107269524Y-54014221D01*
X107304221Y-53979524D01*
X107342150Y-53948396D01*
X107382949Y-53921136D01*
X107426222Y-53898005D01*
X107471555Y-53879228D01*
X107518510Y-53864984D01*
X107566635Y-53855412D01*
X107615466Y-53850602D01*
X107640000Y-53850602D01*
X107640000Y-53850000D01*
X108190000Y-53850000D01*
X108190000Y-55350000D01*
G37*
G04 #@! TD.AperFunction*
D15*
X108950000Y-52020000D03*
G04 #@! TA.AperFunction,SMDPad,CuDef*
D16*
G36*
X110250000Y-51270602D02*
G01*
X110274534Y-51270602D01*
X110323365Y-51275412D01*
X110371490Y-51284984D01*
X110418445Y-51299228D01*
X110463778Y-51318005D01*
X110507051Y-51341136D01*
X110547850Y-51368396D01*
X110585779Y-51399524D01*
X110620476Y-51434221D01*
X110651604Y-51472150D01*
X110678864Y-51512949D01*
X110701995Y-51556222D01*
X110720772Y-51601555D01*
X110735016Y-51648510D01*
X110744588Y-51696635D01*
X110749398Y-51745466D01*
X110749398Y-51770000D01*
X110750000Y-51770000D01*
X110750000Y-52270000D01*
X110749398Y-52270000D01*
X110749398Y-52294534D01*
X110744588Y-52343365D01*
X110735016Y-52391490D01*
X110720772Y-52438445D01*
X110701995Y-52483778D01*
X110678864Y-52527051D01*
X110651604Y-52567850D01*
X110620476Y-52605779D01*
X110585779Y-52640476D01*
X110547850Y-52671604D01*
X110507051Y-52698864D01*
X110463778Y-52721995D01*
X110418445Y-52740772D01*
X110371490Y-52755016D01*
X110323365Y-52764588D01*
X110274534Y-52769398D01*
X110250000Y-52769398D01*
X110250000Y-52770000D01*
X109700000Y-52770000D01*
X109700000Y-51270000D01*
X110250000Y-51270000D01*
X110250000Y-51270602D01*
G37*
G04 #@! TD.AperFunction*
G04 #@! TA.AperFunction,SMDPad,CuDef*
G36*
X108200000Y-52770000D02*
G01*
X107650000Y-52770000D01*
X107650000Y-52769398D01*
X107625466Y-52769398D01*
X107576635Y-52764588D01*
X107528510Y-52755016D01*
X107481555Y-52740772D01*
X107436222Y-52721995D01*
X107392949Y-52698864D01*
X107352150Y-52671604D01*
X107314221Y-52640476D01*
X107279524Y-52605779D01*
X107248396Y-52567850D01*
X107221136Y-52527051D01*
X107198005Y-52483778D01*
X107179228Y-52438445D01*
X107164984Y-52391490D01*
X107155412Y-52343365D01*
X107150602Y-52294534D01*
X107150602Y-52270000D01*
X107150000Y-52270000D01*
X107150000Y-51770000D01*
X107150602Y-51770000D01*
X107150602Y-51745466D01*
X107155412Y-51696635D01*
X107164984Y-51648510D01*
X107179228Y-51601555D01*
X107198005Y-51556222D01*
X107221136Y-51512949D01*
X107248396Y-51472150D01*
X107279524Y-51434221D01*
X107314221Y-51399524D01*
X107352150Y-51368396D01*
X107392949Y-51341136D01*
X107436222Y-51318005D01*
X107481555Y-51299228D01*
X107528510Y-51284984D01*
X107576635Y-51275412D01*
X107625466Y-51270602D01*
X107650000Y-51270602D01*
X107650000Y-51270000D01*
X108200000Y-51270000D01*
X108200000Y-52770000D01*
G37*
G04 #@! TD.AperFunction*
D15*
X108970000Y-49430000D03*
G04 #@! TA.AperFunction,SMDPad,CuDef*
D16*
G36*
X110270000Y-48680602D02*
G01*
X110294534Y-48680602D01*
X110343365Y-48685412D01*
X110391490Y-48694984D01*
X110438445Y-48709228D01*
X110483778Y-48728005D01*
X110527051Y-48751136D01*
X110567850Y-48778396D01*
X110605779Y-48809524D01*
X110640476Y-48844221D01*
X110671604Y-48882150D01*
X110698864Y-48922949D01*
X110721995Y-48966222D01*
X110740772Y-49011555D01*
X110755016Y-49058510D01*
X110764588Y-49106635D01*
X110769398Y-49155466D01*
X110769398Y-49180000D01*
X110770000Y-49180000D01*
X110770000Y-49680000D01*
X110769398Y-49680000D01*
X110769398Y-49704534D01*
X110764588Y-49753365D01*
X110755016Y-49801490D01*
X110740772Y-49848445D01*
X110721995Y-49893778D01*
X110698864Y-49937051D01*
X110671604Y-49977850D01*
X110640476Y-50015779D01*
X110605779Y-50050476D01*
X110567850Y-50081604D01*
X110527051Y-50108864D01*
X110483778Y-50131995D01*
X110438445Y-50150772D01*
X110391490Y-50165016D01*
X110343365Y-50174588D01*
X110294534Y-50179398D01*
X110270000Y-50179398D01*
X110270000Y-50180000D01*
X109720000Y-50180000D01*
X109720000Y-48680000D01*
X110270000Y-48680000D01*
X110270000Y-48680602D01*
G37*
G04 #@! TD.AperFunction*
G04 #@! TA.AperFunction,SMDPad,CuDef*
G36*
X108220000Y-50180000D02*
G01*
X107670000Y-50180000D01*
X107670000Y-50179398D01*
X107645466Y-50179398D01*
X107596635Y-50174588D01*
X107548510Y-50165016D01*
X107501555Y-50150772D01*
X107456222Y-50131995D01*
X107412949Y-50108864D01*
X107372150Y-50081604D01*
X107334221Y-50050476D01*
X107299524Y-50015779D01*
X107268396Y-49977850D01*
X107241136Y-49937051D01*
X107218005Y-49893778D01*
X107199228Y-49848445D01*
X107184984Y-49801490D01*
X107175412Y-49753365D01*
X107170602Y-49704534D01*
X107170602Y-49680000D01*
X107170000Y-49680000D01*
X107170000Y-49180000D01*
X107170602Y-49180000D01*
X107170602Y-49155466D01*
X107175412Y-49106635D01*
X107184984Y-49058510D01*
X107199228Y-49011555D01*
X107218005Y-48966222D01*
X107241136Y-48922949D01*
X107268396Y-48882150D01*
X107299524Y-48844221D01*
X107334221Y-48809524D01*
X107372150Y-48778396D01*
X107412949Y-48751136D01*
X107456222Y-48728005D01*
X107501555Y-48709228D01*
X107548510Y-48694984D01*
X107596635Y-48685412D01*
X107645466Y-48680602D01*
X107670000Y-48680602D01*
X107670000Y-48680000D01*
X108220000Y-48680000D01*
X108220000Y-50180000D01*
G37*
G04 #@! TD.AperFunction*
D15*
X108990000Y-46870000D03*
G04 #@! TA.AperFunction,SMDPad,CuDef*
D16*
G36*
X110290000Y-46120602D02*
G01*
X110314534Y-46120602D01*
X110363365Y-46125412D01*
X110411490Y-46134984D01*
X110458445Y-46149228D01*
X110503778Y-46168005D01*
X110547051Y-46191136D01*
X110587850Y-46218396D01*
X110625779Y-46249524D01*
X110660476Y-46284221D01*
X110691604Y-46322150D01*
X110718864Y-46362949D01*
X110741995Y-46406222D01*
X110760772Y-46451555D01*
X110775016Y-46498510D01*
X110784588Y-46546635D01*
X110789398Y-46595466D01*
X110789398Y-46620000D01*
X110790000Y-46620000D01*
X110790000Y-47120000D01*
X110789398Y-47120000D01*
X110789398Y-47144534D01*
X110784588Y-47193365D01*
X110775016Y-47241490D01*
X110760772Y-47288445D01*
X110741995Y-47333778D01*
X110718864Y-47377051D01*
X110691604Y-47417850D01*
X110660476Y-47455779D01*
X110625779Y-47490476D01*
X110587850Y-47521604D01*
X110547051Y-47548864D01*
X110503778Y-47571995D01*
X110458445Y-47590772D01*
X110411490Y-47605016D01*
X110363365Y-47614588D01*
X110314534Y-47619398D01*
X110290000Y-47619398D01*
X110290000Y-47620000D01*
X109740000Y-47620000D01*
X109740000Y-46120000D01*
X110290000Y-46120000D01*
X110290000Y-46120602D01*
G37*
G04 #@! TD.AperFunction*
G04 #@! TA.AperFunction,SMDPad,CuDef*
G36*
X108240000Y-47620000D02*
G01*
X107690000Y-47620000D01*
X107690000Y-47619398D01*
X107665466Y-47619398D01*
X107616635Y-47614588D01*
X107568510Y-47605016D01*
X107521555Y-47590772D01*
X107476222Y-47571995D01*
X107432949Y-47548864D01*
X107392150Y-47521604D01*
X107354221Y-47490476D01*
X107319524Y-47455779D01*
X107288396Y-47417850D01*
X107261136Y-47377051D01*
X107238005Y-47333778D01*
X107219228Y-47288445D01*
X107204984Y-47241490D01*
X107195412Y-47193365D01*
X107190602Y-47144534D01*
X107190602Y-47120000D01*
X107190000Y-47120000D01*
X107190000Y-46620000D01*
X107190602Y-46620000D01*
X107190602Y-46595466D01*
X107195412Y-46546635D01*
X107204984Y-46498510D01*
X107219228Y-46451555D01*
X107238005Y-46406222D01*
X107261136Y-46362949D01*
X107288396Y-46322150D01*
X107319524Y-46284221D01*
X107354221Y-46249524D01*
X107392150Y-46218396D01*
X107432949Y-46191136D01*
X107476222Y-46168005D01*
X107521555Y-46149228D01*
X107568510Y-46134984D01*
X107616635Y-46125412D01*
X107665466Y-46120602D01*
X107690000Y-46120602D01*
X107690000Y-46120000D01*
X108240000Y-46120000D01*
X108240000Y-47620000D01*
G37*
G04 #@! TD.AperFunction*
D15*
X106430000Y-36660000D03*
G04 #@! TA.AperFunction,SMDPad,CuDef*
D16*
G36*
X107730000Y-35910602D02*
G01*
X107754534Y-35910602D01*
X107803365Y-35915412D01*
X107851490Y-35924984D01*
X107898445Y-35939228D01*
X107943778Y-35958005D01*
X107987051Y-35981136D01*
X108027850Y-36008396D01*
X108065779Y-36039524D01*
X108100476Y-36074221D01*
X108131604Y-36112150D01*
X108158864Y-36152949D01*
X108181995Y-36196222D01*
X108200772Y-36241555D01*
X108215016Y-36288510D01*
X108224588Y-36336635D01*
X108229398Y-36385466D01*
X108229398Y-36410000D01*
X108230000Y-36410000D01*
X108230000Y-36910000D01*
X108229398Y-36910000D01*
X108229398Y-36934534D01*
X108224588Y-36983365D01*
X108215016Y-37031490D01*
X108200772Y-37078445D01*
X108181995Y-37123778D01*
X108158864Y-37167051D01*
X108131604Y-37207850D01*
X108100476Y-37245779D01*
X108065779Y-37280476D01*
X108027850Y-37311604D01*
X107987051Y-37338864D01*
X107943778Y-37361995D01*
X107898445Y-37380772D01*
X107851490Y-37395016D01*
X107803365Y-37404588D01*
X107754534Y-37409398D01*
X107730000Y-37409398D01*
X107730000Y-37410000D01*
X107180000Y-37410000D01*
X107180000Y-35910000D01*
X107730000Y-35910000D01*
X107730000Y-35910602D01*
G37*
G04 #@! TD.AperFunction*
G04 #@! TA.AperFunction,SMDPad,CuDef*
G36*
X105680000Y-37410000D02*
G01*
X105130000Y-37410000D01*
X105130000Y-37409398D01*
X105105466Y-37409398D01*
X105056635Y-37404588D01*
X105008510Y-37395016D01*
X104961555Y-37380772D01*
X104916222Y-37361995D01*
X104872949Y-37338864D01*
X104832150Y-37311604D01*
X104794221Y-37280476D01*
X104759524Y-37245779D01*
X104728396Y-37207850D01*
X104701136Y-37167051D01*
X104678005Y-37123778D01*
X104659228Y-37078445D01*
X104644984Y-37031490D01*
X104635412Y-36983365D01*
X104630602Y-36934534D01*
X104630602Y-36910000D01*
X104630000Y-36910000D01*
X104630000Y-36410000D01*
X104630602Y-36410000D01*
X104630602Y-36385466D01*
X104635412Y-36336635D01*
X104644984Y-36288510D01*
X104659228Y-36241555D01*
X104678005Y-36196222D01*
X104701136Y-36152949D01*
X104728396Y-36112150D01*
X104759524Y-36074221D01*
X104794221Y-36039524D01*
X104832150Y-36008396D01*
X104872949Y-35981136D01*
X104916222Y-35958005D01*
X104961555Y-35939228D01*
X105008510Y-35924984D01*
X105056635Y-35915412D01*
X105105466Y-35910602D01*
X105130000Y-35910602D01*
X105130000Y-35910000D01*
X105680000Y-35910000D01*
X105680000Y-37410000D01*
G37*
G04 #@! TD.AperFunction*
D15*
X106430000Y-39210000D03*
G04 #@! TA.AperFunction,SMDPad,CuDef*
D16*
G36*
X107730000Y-38460602D02*
G01*
X107754534Y-38460602D01*
X107803365Y-38465412D01*
X107851490Y-38474984D01*
X107898445Y-38489228D01*
X107943778Y-38508005D01*
X107987051Y-38531136D01*
X108027850Y-38558396D01*
X108065779Y-38589524D01*
X108100476Y-38624221D01*
X108131604Y-38662150D01*
X108158864Y-38702949D01*
X108181995Y-38746222D01*
X108200772Y-38791555D01*
X108215016Y-38838510D01*
X108224588Y-38886635D01*
X108229398Y-38935466D01*
X108229398Y-38960000D01*
X108230000Y-38960000D01*
X108230000Y-39460000D01*
X108229398Y-39460000D01*
X108229398Y-39484534D01*
X108224588Y-39533365D01*
X108215016Y-39581490D01*
X108200772Y-39628445D01*
X108181995Y-39673778D01*
X108158864Y-39717051D01*
X108131604Y-39757850D01*
X108100476Y-39795779D01*
X108065779Y-39830476D01*
X108027850Y-39861604D01*
X107987051Y-39888864D01*
X107943778Y-39911995D01*
X107898445Y-39930772D01*
X107851490Y-39945016D01*
X107803365Y-39954588D01*
X107754534Y-39959398D01*
X107730000Y-39959398D01*
X107730000Y-39960000D01*
X107180000Y-39960000D01*
X107180000Y-38460000D01*
X107730000Y-38460000D01*
X107730000Y-38460602D01*
G37*
G04 #@! TD.AperFunction*
G04 #@! TA.AperFunction,SMDPad,CuDef*
G36*
X105680000Y-39960000D02*
G01*
X105130000Y-39960000D01*
X105130000Y-39959398D01*
X105105466Y-39959398D01*
X105056635Y-39954588D01*
X105008510Y-39945016D01*
X104961555Y-39930772D01*
X104916222Y-39911995D01*
X104872949Y-39888864D01*
X104832150Y-39861604D01*
X104794221Y-39830476D01*
X104759524Y-39795779D01*
X104728396Y-39757850D01*
X104701136Y-39717051D01*
X104678005Y-39673778D01*
X104659228Y-39628445D01*
X104644984Y-39581490D01*
X104635412Y-39533365D01*
X104630602Y-39484534D01*
X104630602Y-39460000D01*
X104630000Y-39460000D01*
X104630000Y-38960000D01*
X104630602Y-38960000D01*
X104630602Y-38935466D01*
X104635412Y-38886635D01*
X104644984Y-38838510D01*
X104659228Y-38791555D01*
X104678005Y-38746222D01*
X104701136Y-38702949D01*
X104728396Y-38662150D01*
X104759524Y-38624221D01*
X104794221Y-38589524D01*
X104832150Y-38558396D01*
X104872949Y-38531136D01*
X104916222Y-38508005D01*
X104961555Y-38489228D01*
X105008510Y-38474984D01*
X105056635Y-38465412D01*
X105105466Y-38460602D01*
X105130000Y-38460602D01*
X105130000Y-38460000D01*
X105680000Y-38460000D01*
X105680000Y-39960000D01*
G37*
G04 #@! TD.AperFunction*
D15*
X106430000Y-41760000D03*
G04 #@! TA.AperFunction,SMDPad,CuDef*
D16*
G36*
X107730000Y-41010602D02*
G01*
X107754534Y-41010602D01*
X107803365Y-41015412D01*
X107851490Y-41024984D01*
X107898445Y-41039228D01*
X107943778Y-41058005D01*
X107987051Y-41081136D01*
X108027850Y-41108396D01*
X108065779Y-41139524D01*
X108100476Y-41174221D01*
X108131604Y-41212150D01*
X108158864Y-41252949D01*
X108181995Y-41296222D01*
X108200772Y-41341555D01*
X108215016Y-41388510D01*
X108224588Y-41436635D01*
X108229398Y-41485466D01*
X108229398Y-41510000D01*
X108230000Y-41510000D01*
X108230000Y-42010000D01*
X108229398Y-42010000D01*
X108229398Y-42034534D01*
X108224588Y-42083365D01*
X108215016Y-42131490D01*
X108200772Y-42178445D01*
X108181995Y-42223778D01*
X108158864Y-42267051D01*
X108131604Y-42307850D01*
X108100476Y-42345779D01*
X108065779Y-42380476D01*
X108027850Y-42411604D01*
X107987051Y-42438864D01*
X107943778Y-42461995D01*
X107898445Y-42480772D01*
X107851490Y-42495016D01*
X107803365Y-42504588D01*
X107754534Y-42509398D01*
X107730000Y-42509398D01*
X107730000Y-42510000D01*
X107180000Y-42510000D01*
X107180000Y-41010000D01*
X107730000Y-41010000D01*
X107730000Y-41010602D01*
G37*
G04 #@! TD.AperFunction*
G04 #@! TA.AperFunction,SMDPad,CuDef*
G36*
X105680000Y-42510000D02*
G01*
X105130000Y-42510000D01*
X105130000Y-42509398D01*
X105105466Y-42509398D01*
X105056635Y-42504588D01*
X105008510Y-42495016D01*
X104961555Y-42480772D01*
X104916222Y-42461995D01*
X104872949Y-42438864D01*
X104832150Y-42411604D01*
X104794221Y-42380476D01*
X104759524Y-42345779D01*
X104728396Y-42307850D01*
X104701136Y-42267051D01*
X104678005Y-42223778D01*
X104659228Y-42178445D01*
X104644984Y-42131490D01*
X104635412Y-42083365D01*
X104630602Y-42034534D01*
X104630602Y-42010000D01*
X104630000Y-42010000D01*
X104630000Y-41510000D01*
X104630602Y-41510000D01*
X104630602Y-41485466D01*
X104635412Y-41436635D01*
X104644984Y-41388510D01*
X104659228Y-41341555D01*
X104678005Y-41296222D01*
X104701136Y-41252949D01*
X104728396Y-41212150D01*
X104759524Y-41174221D01*
X104794221Y-41139524D01*
X104832150Y-41108396D01*
X104872949Y-41081136D01*
X104916222Y-41058005D01*
X104961555Y-41039228D01*
X105008510Y-41024984D01*
X105056635Y-41015412D01*
X105105466Y-41010602D01*
X105130000Y-41010602D01*
X105130000Y-41010000D01*
X105680000Y-41010000D01*
X105680000Y-42510000D01*
G37*
G04 #@! TD.AperFunction*
D15*
X106430000Y-44310000D03*
G04 #@! TA.AperFunction,SMDPad,CuDef*
D16*
G36*
X107730000Y-43560602D02*
G01*
X107754534Y-43560602D01*
X107803365Y-43565412D01*
X107851490Y-43574984D01*
X107898445Y-43589228D01*
X107943778Y-43608005D01*
X107987051Y-43631136D01*
X108027850Y-43658396D01*
X108065779Y-43689524D01*
X108100476Y-43724221D01*
X108131604Y-43762150D01*
X108158864Y-43802949D01*
X108181995Y-43846222D01*
X108200772Y-43891555D01*
X108215016Y-43938510D01*
X108224588Y-43986635D01*
X108229398Y-44035466D01*
X108229398Y-44060000D01*
X108230000Y-44060000D01*
X108230000Y-44560000D01*
X108229398Y-44560000D01*
X108229398Y-44584534D01*
X108224588Y-44633365D01*
X108215016Y-44681490D01*
X108200772Y-44728445D01*
X108181995Y-44773778D01*
X108158864Y-44817051D01*
X108131604Y-44857850D01*
X108100476Y-44895779D01*
X108065779Y-44930476D01*
X108027850Y-44961604D01*
X107987051Y-44988864D01*
X107943778Y-45011995D01*
X107898445Y-45030772D01*
X107851490Y-45045016D01*
X107803365Y-45054588D01*
X107754534Y-45059398D01*
X107730000Y-45059398D01*
X107730000Y-45060000D01*
X107180000Y-45060000D01*
X107180000Y-43560000D01*
X107730000Y-43560000D01*
X107730000Y-43560602D01*
G37*
G04 #@! TD.AperFunction*
G04 #@! TA.AperFunction,SMDPad,CuDef*
G36*
X105680000Y-45060000D02*
G01*
X105130000Y-45060000D01*
X105130000Y-45059398D01*
X105105466Y-45059398D01*
X105056635Y-45054588D01*
X105008510Y-45045016D01*
X104961555Y-45030772D01*
X104916222Y-45011995D01*
X104872949Y-44988864D01*
X104832150Y-44961604D01*
X104794221Y-44930476D01*
X104759524Y-44895779D01*
X104728396Y-44857850D01*
X104701136Y-44817051D01*
X104678005Y-44773778D01*
X104659228Y-44728445D01*
X104644984Y-44681490D01*
X104635412Y-44633365D01*
X104630602Y-44584534D01*
X104630602Y-44560000D01*
X104630000Y-44560000D01*
X104630000Y-44060000D01*
X104630602Y-44060000D01*
X104630602Y-44035466D01*
X104635412Y-43986635D01*
X104644984Y-43938510D01*
X104659228Y-43891555D01*
X104678005Y-43846222D01*
X104701136Y-43802949D01*
X104728396Y-43762150D01*
X104759524Y-43724221D01*
X104794221Y-43689524D01*
X104832150Y-43658396D01*
X104872949Y-43631136D01*
X104916222Y-43608005D01*
X104961555Y-43589228D01*
X105008510Y-43574984D01*
X105056635Y-43565412D01*
X105105466Y-43560602D01*
X105130000Y-43560602D01*
X105130000Y-43560000D01*
X105680000Y-43560000D01*
X105680000Y-45060000D01*
G37*
G04 #@! TD.AperFunction*
D17*
X68900000Y-82360000D03*
X94300000Y-82360000D03*
X68900000Y-79820000D03*
X94300000Y-79820000D03*
X68900000Y-77280000D03*
X94300000Y-77280000D03*
X68900000Y-74740000D03*
X94300000Y-74740000D03*
X68900000Y-72200000D03*
X94300000Y-72200000D03*
X68900000Y-69660000D03*
X94300000Y-69660000D03*
X68900000Y-67120000D03*
X94300000Y-67120000D03*
X68900000Y-64580000D03*
X94300000Y-64580000D03*
X68900000Y-62040000D03*
X94300000Y-62040000D03*
X68900000Y-59500000D03*
X94300000Y-59500000D03*
X68900000Y-56960000D03*
X94300000Y-56960000D03*
X68900000Y-54420000D03*
X94300000Y-54420000D03*
X68900000Y-51880000D03*
X94300000Y-51880000D03*
X68900000Y-49340000D03*
X94300000Y-49340000D03*
X68900000Y-46800000D03*
X94300000Y-46800000D03*
X68900000Y-44260000D03*
X94300000Y-44260000D03*
X68900000Y-41720000D03*
X94300000Y-41720000D03*
X68900000Y-39180000D03*
X94300000Y-39180000D03*
X68900000Y-36640000D03*
X94300000Y-36640000D03*
D14*
X109272000Y-80960000D03*
X111812000Y-80960000D03*
D17*
X83020000Y-93820000D03*
X83020000Y-91280000D03*
X83020000Y-88740000D03*
D18*
X83020000Y-86200000D03*
D17*
X97480000Y-91210000D03*
X94940000Y-91210000D03*
X97480000Y-88670000D03*
X94940000Y-88670000D03*
X97480000Y-86130000D03*
D18*
X94940000Y-86130000D03*
D17*
X97940000Y-81260000D03*
X97940000Y-78720000D03*
X100480000Y-81260000D03*
X100480000Y-78720000D03*
X103020000Y-81260000D03*
X103020000Y-78720000D03*
X105560000Y-81260000D03*
D18*
X105560000Y-78720000D03*
D15*
X106010000Y-75060000D03*
G04 #@! TA.AperFunction,SMDPad,CuDef*
D16*
G36*
X107310000Y-74310602D02*
G01*
X107334534Y-74310602D01*
X107383365Y-74315412D01*
X107431490Y-74324984D01*
X107478445Y-74339228D01*
X107523778Y-74358005D01*
X107567051Y-74381136D01*
X107607850Y-74408396D01*
X107645779Y-74439524D01*
X107680476Y-74474221D01*
X107711604Y-74512150D01*
X107738864Y-74552949D01*
X107761995Y-74596222D01*
X107780772Y-74641555D01*
X107795016Y-74688510D01*
X107804588Y-74736635D01*
X107809398Y-74785466D01*
X107809398Y-74810000D01*
X107810000Y-74810000D01*
X107810000Y-75310000D01*
X107809398Y-75310000D01*
X107809398Y-75334534D01*
X107804588Y-75383365D01*
X107795016Y-75431490D01*
X107780772Y-75478445D01*
X107761995Y-75523778D01*
X107738864Y-75567051D01*
X107711604Y-75607850D01*
X107680476Y-75645779D01*
X107645779Y-75680476D01*
X107607850Y-75711604D01*
X107567051Y-75738864D01*
X107523778Y-75761995D01*
X107478445Y-75780772D01*
X107431490Y-75795016D01*
X107383365Y-75804588D01*
X107334534Y-75809398D01*
X107310000Y-75809398D01*
X107310000Y-75810000D01*
X106760000Y-75810000D01*
X106760000Y-74310000D01*
X107310000Y-74310000D01*
X107310000Y-74310602D01*
G37*
G04 #@! TD.AperFunction*
G04 #@! TA.AperFunction,SMDPad,CuDef*
G36*
X105260000Y-75810000D02*
G01*
X104710000Y-75810000D01*
X104710000Y-75809398D01*
X104685466Y-75809398D01*
X104636635Y-75804588D01*
X104588510Y-75795016D01*
X104541555Y-75780772D01*
X104496222Y-75761995D01*
X104452949Y-75738864D01*
X104412150Y-75711604D01*
X104374221Y-75680476D01*
X104339524Y-75645779D01*
X104308396Y-75607850D01*
X104281136Y-75567051D01*
X104258005Y-75523778D01*
X104239228Y-75478445D01*
X104224984Y-75431490D01*
X104215412Y-75383365D01*
X104210602Y-75334534D01*
X104210602Y-75310000D01*
X104210000Y-75310000D01*
X104210000Y-74810000D01*
X104210602Y-74810000D01*
X104210602Y-74785466D01*
X104215412Y-74736635D01*
X104224984Y-74688510D01*
X104239228Y-74641555D01*
X104258005Y-74596222D01*
X104281136Y-74552949D01*
X104308396Y-74512150D01*
X104339524Y-74474221D01*
X104374221Y-74439524D01*
X104412150Y-74408396D01*
X104452949Y-74381136D01*
X104496222Y-74358005D01*
X104541555Y-74339228D01*
X104588510Y-74324984D01*
X104636635Y-74315412D01*
X104685466Y-74310602D01*
X104710000Y-74310602D01*
X104710000Y-74310000D01*
X105260000Y-74310000D01*
X105260000Y-75810000D01*
G37*
G04 #@! TD.AperFunction*
D15*
X106010000Y-72510000D03*
G04 #@! TA.AperFunction,SMDPad,CuDef*
D16*
G36*
X107310000Y-71760602D02*
G01*
X107334534Y-71760602D01*
X107383365Y-71765412D01*
X107431490Y-71774984D01*
X107478445Y-71789228D01*
X107523778Y-71808005D01*
X107567051Y-71831136D01*
X107607850Y-71858396D01*
X107645779Y-71889524D01*
X107680476Y-71924221D01*
X107711604Y-71962150D01*
X107738864Y-72002949D01*
X107761995Y-72046222D01*
X107780772Y-72091555D01*
X107795016Y-72138510D01*
X107804588Y-72186635D01*
X107809398Y-72235466D01*
X107809398Y-72260000D01*
X107810000Y-72260000D01*
X107810000Y-72760000D01*
X107809398Y-72760000D01*
X107809398Y-72784534D01*
X107804588Y-72833365D01*
X107795016Y-72881490D01*
X107780772Y-72928445D01*
X107761995Y-72973778D01*
X107738864Y-73017051D01*
X107711604Y-73057850D01*
X107680476Y-73095779D01*
X107645779Y-73130476D01*
X107607850Y-73161604D01*
X107567051Y-73188864D01*
X107523778Y-73211995D01*
X107478445Y-73230772D01*
X107431490Y-73245016D01*
X107383365Y-73254588D01*
X107334534Y-73259398D01*
X107310000Y-73259398D01*
X107310000Y-73260000D01*
X106760000Y-73260000D01*
X106760000Y-71760000D01*
X107310000Y-71760000D01*
X107310000Y-71760602D01*
G37*
G04 #@! TD.AperFunction*
G04 #@! TA.AperFunction,SMDPad,CuDef*
G36*
X105260000Y-73260000D02*
G01*
X104710000Y-73260000D01*
X104710000Y-73259398D01*
X104685466Y-73259398D01*
X104636635Y-73254588D01*
X104588510Y-73245016D01*
X104541555Y-73230772D01*
X104496222Y-73211995D01*
X104452949Y-73188864D01*
X104412150Y-73161604D01*
X104374221Y-73130476D01*
X104339524Y-73095779D01*
X104308396Y-73057850D01*
X104281136Y-73017051D01*
X104258005Y-72973778D01*
X104239228Y-72928445D01*
X104224984Y-72881490D01*
X104215412Y-72833365D01*
X104210602Y-72784534D01*
X104210602Y-72760000D01*
X104210000Y-72760000D01*
X104210000Y-72260000D01*
X104210602Y-72260000D01*
X104210602Y-72235466D01*
X104215412Y-72186635D01*
X104224984Y-72138510D01*
X104239228Y-72091555D01*
X104258005Y-72046222D01*
X104281136Y-72002949D01*
X104308396Y-71962150D01*
X104339524Y-71924221D01*
X104374221Y-71889524D01*
X104412150Y-71858396D01*
X104452949Y-71831136D01*
X104496222Y-71808005D01*
X104541555Y-71789228D01*
X104588510Y-71774984D01*
X104636635Y-71765412D01*
X104685466Y-71760602D01*
X104710000Y-71760602D01*
X104710000Y-71760000D01*
X105260000Y-71760000D01*
X105260000Y-73260000D01*
G37*
G04 #@! TD.AperFunction*
D15*
X106010000Y-69960000D03*
G04 #@! TA.AperFunction,SMDPad,CuDef*
D16*
G36*
X107310000Y-69210602D02*
G01*
X107334534Y-69210602D01*
X107383365Y-69215412D01*
X107431490Y-69224984D01*
X107478445Y-69239228D01*
X107523778Y-69258005D01*
X107567051Y-69281136D01*
X107607850Y-69308396D01*
X107645779Y-69339524D01*
X107680476Y-69374221D01*
X107711604Y-69412150D01*
X107738864Y-69452949D01*
X107761995Y-69496222D01*
X107780772Y-69541555D01*
X107795016Y-69588510D01*
X107804588Y-69636635D01*
X107809398Y-69685466D01*
X107809398Y-69710000D01*
X107810000Y-69710000D01*
X107810000Y-70210000D01*
X107809398Y-70210000D01*
X107809398Y-70234534D01*
X107804588Y-70283365D01*
X107795016Y-70331490D01*
X107780772Y-70378445D01*
X107761995Y-70423778D01*
X107738864Y-70467051D01*
X107711604Y-70507850D01*
X107680476Y-70545779D01*
X107645779Y-70580476D01*
X107607850Y-70611604D01*
X107567051Y-70638864D01*
X107523778Y-70661995D01*
X107478445Y-70680772D01*
X107431490Y-70695016D01*
X107383365Y-70704588D01*
X107334534Y-70709398D01*
X107310000Y-70709398D01*
X107310000Y-70710000D01*
X106760000Y-70710000D01*
X106760000Y-69210000D01*
X107310000Y-69210000D01*
X107310000Y-69210602D01*
G37*
G04 #@! TD.AperFunction*
G04 #@! TA.AperFunction,SMDPad,CuDef*
G36*
X105260000Y-70710000D02*
G01*
X104710000Y-70710000D01*
X104710000Y-70709398D01*
X104685466Y-70709398D01*
X104636635Y-70704588D01*
X104588510Y-70695016D01*
X104541555Y-70680772D01*
X104496222Y-70661995D01*
X104452949Y-70638864D01*
X104412150Y-70611604D01*
X104374221Y-70580476D01*
X104339524Y-70545779D01*
X104308396Y-70507850D01*
X104281136Y-70467051D01*
X104258005Y-70423778D01*
X104239228Y-70378445D01*
X104224984Y-70331490D01*
X104215412Y-70283365D01*
X104210602Y-70234534D01*
X104210602Y-70210000D01*
X104210000Y-70210000D01*
X104210000Y-69710000D01*
X104210602Y-69710000D01*
X104210602Y-69685466D01*
X104215412Y-69636635D01*
X104224984Y-69588510D01*
X104239228Y-69541555D01*
X104258005Y-69496222D01*
X104281136Y-69452949D01*
X104308396Y-69412150D01*
X104339524Y-69374221D01*
X104374221Y-69339524D01*
X104412150Y-69308396D01*
X104452949Y-69281136D01*
X104496222Y-69258005D01*
X104541555Y-69239228D01*
X104588510Y-69224984D01*
X104636635Y-69215412D01*
X104685466Y-69210602D01*
X104710000Y-69210602D01*
X104710000Y-69210000D01*
X105260000Y-69210000D01*
X105260000Y-70710000D01*
G37*
G04 #@! TD.AperFunction*
D15*
X106010000Y-67410000D03*
G04 #@! TA.AperFunction,SMDPad,CuDef*
D16*
G36*
X107310000Y-66660602D02*
G01*
X107334534Y-66660602D01*
X107383365Y-66665412D01*
X107431490Y-66674984D01*
X107478445Y-66689228D01*
X107523778Y-66708005D01*
X107567051Y-66731136D01*
X107607850Y-66758396D01*
X107645779Y-66789524D01*
X107680476Y-66824221D01*
X107711604Y-66862150D01*
X107738864Y-66902949D01*
X107761995Y-66946222D01*
X107780772Y-66991555D01*
X107795016Y-67038510D01*
X107804588Y-67086635D01*
X107809398Y-67135466D01*
X107809398Y-67160000D01*
X107810000Y-67160000D01*
X107810000Y-67660000D01*
X107809398Y-67660000D01*
X107809398Y-67684534D01*
X107804588Y-67733365D01*
X107795016Y-67781490D01*
X107780772Y-67828445D01*
X107761995Y-67873778D01*
X107738864Y-67917051D01*
X107711604Y-67957850D01*
X107680476Y-67995779D01*
X107645779Y-68030476D01*
X107607850Y-68061604D01*
X107567051Y-68088864D01*
X107523778Y-68111995D01*
X107478445Y-68130772D01*
X107431490Y-68145016D01*
X107383365Y-68154588D01*
X107334534Y-68159398D01*
X107310000Y-68159398D01*
X107310000Y-68160000D01*
X106760000Y-68160000D01*
X106760000Y-66660000D01*
X107310000Y-66660000D01*
X107310000Y-66660602D01*
G37*
G04 #@! TD.AperFunction*
G04 #@! TA.AperFunction,SMDPad,CuDef*
G36*
X105260000Y-68160000D02*
G01*
X104710000Y-68160000D01*
X104710000Y-68159398D01*
X104685466Y-68159398D01*
X104636635Y-68154588D01*
X104588510Y-68145016D01*
X104541555Y-68130772D01*
X104496222Y-68111995D01*
X104452949Y-68088864D01*
X104412150Y-68061604D01*
X104374221Y-68030476D01*
X104339524Y-67995779D01*
X104308396Y-67957850D01*
X104281136Y-67917051D01*
X104258005Y-67873778D01*
X104239228Y-67828445D01*
X104224984Y-67781490D01*
X104215412Y-67733365D01*
X104210602Y-67684534D01*
X104210602Y-67660000D01*
X104210000Y-67660000D01*
X104210000Y-67160000D01*
X104210602Y-67160000D01*
X104210602Y-67135466D01*
X104215412Y-67086635D01*
X104224984Y-67038510D01*
X104239228Y-66991555D01*
X104258005Y-66946222D01*
X104281136Y-66902949D01*
X104308396Y-66862150D01*
X104339524Y-66824221D01*
X104374221Y-66789524D01*
X104412150Y-66758396D01*
X104452949Y-66731136D01*
X104496222Y-66708005D01*
X104541555Y-66689228D01*
X104588510Y-66674984D01*
X104636635Y-66665412D01*
X104685466Y-66660602D01*
X104710000Y-66660602D01*
X104710000Y-66660000D01*
X105260000Y-66660000D01*
X105260000Y-68160000D01*
G37*
G04 #@! TD.AperFunction*
D15*
X106010000Y-64860000D03*
G04 #@! TA.AperFunction,SMDPad,CuDef*
D16*
G36*
X107310000Y-64110602D02*
G01*
X107334534Y-64110602D01*
X107383365Y-64115412D01*
X107431490Y-64124984D01*
X107478445Y-64139228D01*
X107523778Y-64158005D01*
X107567051Y-64181136D01*
X107607850Y-64208396D01*
X107645779Y-64239524D01*
X107680476Y-64274221D01*
X107711604Y-64312150D01*
X107738864Y-64352949D01*
X107761995Y-64396222D01*
X107780772Y-64441555D01*
X107795016Y-64488510D01*
X107804588Y-64536635D01*
X107809398Y-64585466D01*
X107809398Y-64610000D01*
X107810000Y-64610000D01*
X107810000Y-65110000D01*
X107809398Y-65110000D01*
X107809398Y-65134534D01*
X107804588Y-65183365D01*
X107795016Y-65231490D01*
X107780772Y-65278445D01*
X107761995Y-65323778D01*
X107738864Y-65367051D01*
X107711604Y-65407850D01*
X107680476Y-65445779D01*
X107645779Y-65480476D01*
X107607850Y-65511604D01*
X107567051Y-65538864D01*
X107523778Y-65561995D01*
X107478445Y-65580772D01*
X107431490Y-65595016D01*
X107383365Y-65604588D01*
X107334534Y-65609398D01*
X107310000Y-65609398D01*
X107310000Y-65610000D01*
X106760000Y-65610000D01*
X106760000Y-64110000D01*
X107310000Y-64110000D01*
X107310000Y-64110602D01*
G37*
G04 #@! TD.AperFunction*
G04 #@! TA.AperFunction,SMDPad,CuDef*
G36*
X105260000Y-65610000D02*
G01*
X104710000Y-65610000D01*
X104710000Y-65609398D01*
X104685466Y-65609398D01*
X104636635Y-65604588D01*
X104588510Y-65595016D01*
X104541555Y-65580772D01*
X104496222Y-65561995D01*
X104452949Y-65538864D01*
X104412150Y-65511604D01*
X104374221Y-65480476D01*
X104339524Y-65445779D01*
X104308396Y-65407850D01*
X104281136Y-65367051D01*
X104258005Y-65323778D01*
X104239228Y-65278445D01*
X104224984Y-65231490D01*
X104215412Y-65183365D01*
X104210602Y-65134534D01*
X104210602Y-65110000D01*
X104210000Y-65110000D01*
X104210000Y-64610000D01*
X104210602Y-64610000D01*
X104210602Y-64585466D01*
X104215412Y-64536635D01*
X104224984Y-64488510D01*
X104239228Y-64441555D01*
X104258005Y-64396222D01*
X104281136Y-64352949D01*
X104308396Y-64312150D01*
X104339524Y-64274221D01*
X104374221Y-64239524D01*
X104412150Y-64208396D01*
X104452949Y-64181136D01*
X104496222Y-64158005D01*
X104541555Y-64139228D01*
X104588510Y-64124984D01*
X104636635Y-64115412D01*
X104685466Y-64110602D01*
X104710000Y-64110602D01*
X104710000Y-64110000D01*
X105260000Y-64110000D01*
X105260000Y-65610000D01*
G37*
G04 #@! TD.AperFunction*
D15*
X106010000Y-62310000D03*
G04 #@! TA.AperFunction,SMDPad,CuDef*
D16*
G36*
X107310000Y-61560602D02*
G01*
X107334534Y-61560602D01*
X107383365Y-61565412D01*
X107431490Y-61574984D01*
X107478445Y-61589228D01*
X107523778Y-61608005D01*
X107567051Y-61631136D01*
X107607850Y-61658396D01*
X107645779Y-61689524D01*
X107680476Y-61724221D01*
X107711604Y-61762150D01*
X107738864Y-61802949D01*
X107761995Y-61846222D01*
X107780772Y-61891555D01*
X107795016Y-61938510D01*
X107804588Y-61986635D01*
X107809398Y-62035466D01*
X107809398Y-62060000D01*
X107810000Y-62060000D01*
X107810000Y-62560000D01*
X107809398Y-62560000D01*
X107809398Y-62584534D01*
X107804588Y-62633365D01*
X107795016Y-62681490D01*
X107780772Y-62728445D01*
X107761995Y-62773778D01*
X107738864Y-62817051D01*
X107711604Y-62857850D01*
X107680476Y-62895779D01*
X107645779Y-62930476D01*
X107607850Y-62961604D01*
X107567051Y-62988864D01*
X107523778Y-63011995D01*
X107478445Y-63030772D01*
X107431490Y-63045016D01*
X107383365Y-63054588D01*
X107334534Y-63059398D01*
X107310000Y-63059398D01*
X107310000Y-63060000D01*
X106760000Y-63060000D01*
X106760000Y-61560000D01*
X107310000Y-61560000D01*
X107310000Y-61560602D01*
G37*
G04 #@! TD.AperFunction*
G04 #@! TA.AperFunction,SMDPad,CuDef*
G36*
X105260000Y-63060000D02*
G01*
X104710000Y-63060000D01*
X104710000Y-63059398D01*
X104685466Y-63059398D01*
X104636635Y-63054588D01*
X104588510Y-63045016D01*
X104541555Y-63030772D01*
X104496222Y-63011995D01*
X104452949Y-62988864D01*
X104412150Y-62961604D01*
X104374221Y-62930476D01*
X104339524Y-62895779D01*
X104308396Y-62857850D01*
X104281136Y-62817051D01*
X104258005Y-62773778D01*
X104239228Y-62728445D01*
X104224984Y-62681490D01*
X104215412Y-62633365D01*
X104210602Y-62584534D01*
X104210602Y-62560000D01*
X104210000Y-62560000D01*
X104210000Y-62060000D01*
X104210602Y-62060000D01*
X104210602Y-62035466D01*
X104215412Y-61986635D01*
X104224984Y-61938510D01*
X104239228Y-61891555D01*
X104258005Y-61846222D01*
X104281136Y-61802949D01*
X104308396Y-61762150D01*
X104339524Y-61724221D01*
X104374221Y-61689524D01*
X104412150Y-61658396D01*
X104452949Y-61631136D01*
X104496222Y-61608005D01*
X104541555Y-61589228D01*
X104588510Y-61574984D01*
X104636635Y-61565412D01*
X104685466Y-61560602D01*
X104710000Y-61560602D01*
X104710000Y-61560000D01*
X105260000Y-61560000D01*
X105260000Y-63060000D01*
G37*
G04 #@! TD.AperFunction*
D15*
X106010000Y-59760000D03*
G04 #@! TA.AperFunction,SMDPad,CuDef*
D16*
G36*
X107310000Y-59010602D02*
G01*
X107334534Y-59010602D01*
X107383365Y-59015412D01*
X107431490Y-59024984D01*
X107478445Y-59039228D01*
X107523778Y-59058005D01*
X107567051Y-59081136D01*
X107607850Y-59108396D01*
X107645779Y-59139524D01*
X107680476Y-59174221D01*
X107711604Y-59212150D01*
X107738864Y-59252949D01*
X107761995Y-59296222D01*
X107780772Y-59341555D01*
X107795016Y-59388510D01*
X107804588Y-59436635D01*
X107809398Y-59485466D01*
X107809398Y-59510000D01*
X107810000Y-59510000D01*
X107810000Y-60010000D01*
X107809398Y-60010000D01*
X107809398Y-60034534D01*
X107804588Y-60083365D01*
X107795016Y-60131490D01*
X107780772Y-60178445D01*
X107761995Y-60223778D01*
X107738864Y-60267051D01*
X107711604Y-60307850D01*
X107680476Y-60345779D01*
X107645779Y-60380476D01*
X107607850Y-60411604D01*
X107567051Y-60438864D01*
X107523778Y-60461995D01*
X107478445Y-60480772D01*
X107431490Y-60495016D01*
X107383365Y-60504588D01*
X107334534Y-60509398D01*
X107310000Y-60509398D01*
X107310000Y-60510000D01*
X106760000Y-60510000D01*
X106760000Y-59010000D01*
X107310000Y-59010000D01*
X107310000Y-59010602D01*
G37*
G04 #@! TD.AperFunction*
G04 #@! TA.AperFunction,SMDPad,CuDef*
G36*
X105260000Y-60510000D02*
G01*
X104710000Y-60510000D01*
X104710000Y-60509398D01*
X104685466Y-60509398D01*
X104636635Y-60504588D01*
X104588510Y-60495016D01*
X104541555Y-60480772D01*
X104496222Y-60461995D01*
X104452949Y-60438864D01*
X104412150Y-60411604D01*
X104374221Y-60380476D01*
X104339524Y-60345779D01*
X104308396Y-60307850D01*
X104281136Y-60267051D01*
X104258005Y-60223778D01*
X104239228Y-60178445D01*
X104224984Y-60131490D01*
X104215412Y-60083365D01*
X104210602Y-60034534D01*
X104210602Y-60010000D01*
X104210000Y-60010000D01*
X104210000Y-59510000D01*
X104210602Y-59510000D01*
X104210602Y-59485466D01*
X104215412Y-59436635D01*
X104224984Y-59388510D01*
X104239228Y-59341555D01*
X104258005Y-59296222D01*
X104281136Y-59252949D01*
X104308396Y-59212150D01*
X104339524Y-59174221D01*
X104374221Y-59139524D01*
X104412150Y-59108396D01*
X104452949Y-59081136D01*
X104496222Y-59058005D01*
X104541555Y-59039228D01*
X104588510Y-59024984D01*
X104636635Y-59015412D01*
X104685466Y-59010602D01*
X104710000Y-59010602D01*
X104710000Y-59010000D01*
X105260000Y-59010000D01*
X105260000Y-60510000D01*
G37*
G04 #@! TD.AperFunction*
D17*
X118280000Y-79080000D03*
X115740000Y-79080000D03*
X118280000Y-76540000D03*
X115740000Y-76540000D03*
X118280000Y-74000000D03*
X115740000Y-74000000D03*
X118280000Y-71460000D03*
X115740000Y-71460000D03*
X118280000Y-68920000D03*
X115740000Y-68920000D03*
X118280000Y-66380000D03*
X115740000Y-66380000D03*
X118280000Y-63840000D03*
X115740000Y-63840000D03*
X118280000Y-61300000D03*
D18*
X115740000Y-61300000D03*
D19*
X117120000Y-84490000D03*
D20*
X117120000Y-87030000D03*
D19*
X68820000Y-87270000D03*
D20*
X71360000Y-87270000D03*
D19*
X118850000Y-93510000D03*
D20*
X116310000Y-93510000D03*
D19*
X111216000Y-93544000D03*
D20*
X108676000Y-93544000D03*
D15*
X79530000Y-93830000D03*
G04 #@! TA.AperFunction,SMDPad,CuDef*
D16*
G36*
X78230000Y-94579398D02*
G01*
X78205466Y-94579398D01*
X78156635Y-94574588D01*
X78108510Y-94565016D01*
X78061555Y-94550772D01*
X78016222Y-94531995D01*
X77972949Y-94508864D01*
X77932150Y-94481604D01*
X77894221Y-94450476D01*
X77859524Y-94415779D01*
X77828396Y-94377850D01*
X77801136Y-94337051D01*
X77778005Y-94293778D01*
X77759228Y-94248445D01*
X77744984Y-94201490D01*
X77735412Y-94153365D01*
X77730602Y-94104534D01*
X77730602Y-94080000D01*
X77730000Y-94080000D01*
X77730000Y-93580000D01*
X77730602Y-93580000D01*
X77730602Y-93555466D01*
X77735412Y-93506635D01*
X77744984Y-93458510D01*
X77759228Y-93411555D01*
X77778005Y-93366222D01*
X77801136Y-93322949D01*
X77828396Y-93282150D01*
X77859524Y-93244221D01*
X77894221Y-93209524D01*
X77932150Y-93178396D01*
X77972949Y-93151136D01*
X78016222Y-93128005D01*
X78061555Y-93109228D01*
X78108510Y-93094984D01*
X78156635Y-93085412D01*
X78205466Y-93080602D01*
X78230000Y-93080602D01*
X78230000Y-93080000D01*
X78780000Y-93080000D01*
X78780000Y-94580000D01*
X78230000Y-94580000D01*
X78230000Y-94579398D01*
G37*
G04 #@! TD.AperFunction*
G04 #@! TA.AperFunction,SMDPad,CuDef*
G36*
X80280000Y-93080000D02*
G01*
X80830000Y-93080000D01*
X80830000Y-93080602D01*
X80854534Y-93080602D01*
X80903365Y-93085412D01*
X80951490Y-93094984D01*
X80998445Y-93109228D01*
X81043778Y-93128005D01*
X81087051Y-93151136D01*
X81127850Y-93178396D01*
X81165779Y-93209524D01*
X81200476Y-93244221D01*
X81231604Y-93282150D01*
X81258864Y-93322949D01*
X81281995Y-93366222D01*
X81300772Y-93411555D01*
X81315016Y-93458510D01*
X81324588Y-93506635D01*
X81329398Y-93555466D01*
X81329398Y-93580000D01*
X81330000Y-93580000D01*
X81330000Y-94080000D01*
X81329398Y-94080000D01*
X81329398Y-94104534D01*
X81324588Y-94153365D01*
X81315016Y-94201490D01*
X81300772Y-94248445D01*
X81281995Y-94293778D01*
X81258864Y-94337051D01*
X81231604Y-94377850D01*
X81200476Y-94415779D01*
X81165779Y-94450476D01*
X81127850Y-94481604D01*
X81087051Y-94508864D01*
X81043778Y-94531995D01*
X80998445Y-94550772D01*
X80951490Y-94565016D01*
X80903365Y-94574588D01*
X80854534Y-94579398D01*
X80830000Y-94579398D01*
X80830000Y-94580000D01*
X80280000Y-94580000D01*
X80280000Y-93080000D01*
G37*
G04 #@! TD.AperFunction*
D15*
X79530000Y-91280000D03*
G04 #@! TA.AperFunction,SMDPad,CuDef*
D16*
G36*
X80830000Y-90530602D02*
G01*
X80854534Y-90530602D01*
X80903365Y-90535412D01*
X80951490Y-90544984D01*
X80998445Y-90559228D01*
X81043778Y-90578005D01*
X81087051Y-90601136D01*
X81127850Y-90628396D01*
X81165779Y-90659524D01*
X81200476Y-90694221D01*
X81231604Y-90732150D01*
X81258864Y-90772949D01*
X81281995Y-90816222D01*
X81300772Y-90861555D01*
X81315016Y-90908510D01*
X81324588Y-90956635D01*
X81329398Y-91005466D01*
X81329398Y-91030000D01*
X81330000Y-91030000D01*
X81330000Y-91530000D01*
X81329398Y-91530000D01*
X81329398Y-91554534D01*
X81324588Y-91603365D01*
X81315016Y-91651490D01*
X81300772Y-91698445D01*
X81281995Y-91743778D01*
X81258864Y-91787051D01*
X81231604Y-91827850D01*
X81200476Y-91865779D01*
X81165779Y-91900476D01*
X81127850Y-91931604D01*
X81087051Y-91958864D01*
X81043778Y-91981995D01*
X80998445Y-92000772D01*
X80951490Y-92015016D01*
X80903365Y-92024588D01*
X80854534Y-92029398D01*
X80830000Y-92029398D01*
X80830000Y-92030000D01*
X80280000Y-92030000D01*
X80280000Y-90530000D01*
X80830000Y-90530000D01*
X80830000Y-90530602D01*
G37*
G04 #@! TD.AperFunction*
G04 #@! TA.AperFunction,SMDPad,CuDef*
G36*
X78780000Y-92030000D02*
G01*
X78230000Y-92030000D01*
X78230000Y-92029398D01*
X78205466Y-92029398D01*
X78156635Y-92024588D01*
X78108510Y-92015016D01*
X78061555Y-92000772D01*
X78016222Y-91981995D01*
X77972949Y-91958864D01*
X77932150Y-91931604D01*
X77894221Y-91900476D01*
X77859524Y-91865779D01*
X77828396Y-91827850D01*
X77801136Y-91787051D01*
X77778005Y-91743778D01*
X77759228Y-91698445D01*
X77744984Y-91651490D01*
X77735412Y-91603365D01*
X77730602Y-91554534D01*
X77730602Y-91530000D01*
X77730000Y-91530000D01*
X77730000Y-91030000D01*
X77730602Y-91030000D01*
X77730602Y-91005466D01*
X77735412Y-90956635D01*
X77744984Y-90908510D01*
X77759228Y-90861555D01*
X77778005Y-90816222D01*
X77801136Y-90772949D01*
X77828396Y-90732150D01*
X77859524Y-90694221D01*
X77894221Y-90659524D01*
X77932150Y-90628396D01*
X77972949Y-90601136D01*
X78016222Y-90578005D01*
X78061555Y-90559228D01*
X78108510Y-90544984D01*
X78156635Y-90535412D01*
X78205466Y-90530602D01*
X78230000Y-90530602D01*
X78230000Y-90530000D01*
X78780000Y-90530000D01*
X78780000Y-92030000D01*
G37*
G04 #@! TD.AperFunction*
D15*
X79530000Y-88740000D03*
G04 #@! TA.AperFunction,SMDPad,CuDef*
D16*
G36*
X80830000Y-87990602D02*
G01*
X80854534Y-87990602D01*
X80903365Y-87995412D01*
X80951490Y-88004984D01*
X80998445Y-88019228D01*
X81043778Y-88038005D01*
X81087051Y-88061136D01*
X81127850Y-88088396D01*
X81165779Y-88119524D01*
X81200476Y-88154221D01*
X81231604Y-88192150D01*
X81258864Y-88232949D01*
X81281995Y-88276222D01*
X81300772Y-88321555D01*
X81315016Y-88368510D01*
X81324588Y-88416635D01*
X81329398Y-88465466D01*
X81329398Y-88490000D01*
X81330000Y-88490000D01*
X81330000Y-88990000D01*
X81329398Y-88990000D01*
X81329398Y-89014534D01*
X81324588Y-89063365D01*
X81315016Y-89111490D01*
X81300772Y-89158445D01*
X81281995Y-89203778D01*
X81258864Y-89247051D01*
X81231604Y-89287850D01*
X81200476Y-89325779D01*
X81165779Y-89360476D01*
X81127850Y-89391604D01*
X81087051Y-89418864D01*
X81043778Y-89441995D01*
X80998445Y-89460772D01*
X80951490Y-89475016D01*
X80903365Y-89484588D01*
X80854534Y-89489398D01*
X80830000Y-89489398D01*
X80830000Y-89490000D01*
X80280000Y-89490000D01*
X80280000Y-87990000D01*
X80830000Y-87990000D01*
X80830000Y-87990602D01*
G37*
G04 #@! TD.AperFunction*
G04 #@! TA.AperFunction,SMDPad,CuDef*
G36*
X78780000Y-89490000D02*
G01*
X78230000Y-89490000D01*
X78230000Y-89489398D01*
X78205466Y-89489398D01*
X78156635Y-89484588D01*
X78108510Y-89475016D01*
X78061555Y-89460772D01*
X78016222Y-89441995D01*
X77972949Y-89418864D01*
X77932150Y-89391604D01*
X77894221Y-89360476D01*
X77859524Y-89325779D01*
X77828396Y-89287850D01*
X77801136Y-89247051D01*
X77778005Y-89203778D01*
X77759228Y-89158445D01*
X77744984Y-89111490D01*
X77735412Y-89063365D01*
X77730602Y-89014534D01*
X77730602Y-88990000D01*
X77730000Y-88990000D01*
X77730000Y-88490000D01*
X77730602Y-88490000D01*
X77730602Y-88465466D01*
X77735412Y-88416635D01*
X77744984Y-88368510D01*
X77759228Y-88321555D01*
X77778005Y-88276222D01*
X77801136Y-88232949D01*
X77828396Y-88192150D01*
X77859524Y-88154221D01*
X77894221Y-88119524D01*
X77932150Y-88088396D01*
X77972949Y-88061136D01*
X78016222Y-88038005D01*
X78061555Y-88019228D01*
X78108510Y-88004984D01*
X78156635Y-87995412D01*
X78205466Y-87990602D01*
X78230000Y-87990602D01*
X78230000Y-87990000D01*
X78780000Y-87990000D01*
X78780000Y-89490000D01*
G37*
G04 #@! TD.AperFunction*
D15*
X79530000Y-86190000D03*
G04 #@! TA.AperFunction,SMDPad,CuDef*
D16*
G36*
X80830000Y-85440602D02*
G01*
X80854534Y-85440602D01*
X80903365Y-85445412D01*
X80951490Y-85454984D01*
X80998445Y-85469228D01*
X81043778Y-85488005D01*
X81087051Y-85511136D01*
X81127850Y-85538396D01*
X81165779Y-85569524D01*
X81200476Y-85604221D01*
X81231604Y-85642150D01*
X81258864Y-85682949D01*
X81281995Y-85726222D01*
X81300772Y-85771555D01*
X81315016Y-85818510D01*
X81324588Y-85866635D01*
X81329398Y-85915466D01*
X81329398Y-85940000D01*
X81330000Y-85940000D01*
X81330000Y-86440000D01*
X81329398Y-86440000D01*
X81329398Y-86464534D01*
X81324588Y-86513365D01*
X81315016Y-86561490D01*
X81300772Y-86608445D01*
X81281995Y-86653778D01*
X81258864Y-86697051D01*
X81231604Y-86737850D01*
X81200476Y-86775779D01*
X81165779Y-86810476D01*
X81127850Y-86841604D01*
X81087051Y-86868864D01*
X81043778Y-86891995D01*
X80998445Y-86910772D01*
X80951490Y-86925016D01*
X80903365Y-86934588D01*
X80854534Y-86939398D01*
X80830000Y-86939398D01*
X80830000Y-86940000D01*
X80280000Y-86940000D01*
X80280000Y-85440000D01*
X80830000Y-85440000D01*
X80830000Y-85440602D01*
G37*
G04 #@! TD.AperFunction*
G04 #@! TA.AperFunction,SMDPad,CuDef*
G36*
X78780000Y-86940000D02*
G01*
X78230000Y-86940000D01*
X78230000Y-86939398D01*
X78205466Y-86939398D01*
X78156635Y-86934588D01*
X78108510Y-86925016D01*
X78061555Y-86910772D01*
X78016222Y-86891995D01*
X77972949Y-86868864D01*
X77932150Y-86841604D01*
X77894221Y-86810476D01*
X77859524Y-86775779D01*
X77828396Y-86737850D01*
X77801136Y-86697051D01*
X77778005Y-86653778D01*
X77759228Y-86608445D01*
X77744984Y-86561490D01*
X77735412Y-86513365D01*
X77730602Y-86464534D01*
X77730602Y-86440000D01*
X77730000Y-86440000D01*
X77730000Y-85940000D01*
X77730602Y-85940000D01*
X77730602Y-85915466D01*
X77735412Y-85866635D01*
X77744984Y-85818510D01*
X77759228Y-85771555D01*
X77778005Y-85726222D01*
X77801136Y-85682949D01*
X77828396Y-85642150D01*
X77859524Y-85604221D01*
X77894221Y-85569524D01*
X77932150Y-85538396D01*
X77972949Y-85511136D01*
X78016222Y-85488005D01*
X78061555Y-85469228D01*
X78108510Y-85454984D01*
X78156635Y-85445412D01*
X78205466Y-85440602D01*
X78230000Y-85440602D01*
X78230000Y-85440000D01*
X78780000Y-85440000D01*
X78780000Y-86940000D01*
G37*
G04 #@! TD.AperFunction*
G04 #@! TA.AperFunction,SMDPad,CuDef*
G36*
X101290000Y-88740000D02*
G01*
X100790000Y-89490000D01*
X99790000Y-89490000D01*
X99790000Y-87990000D01*
X100790000Y-87990000D01*
X101290000Y-88740000D01*
G37*
G04 #@! TD.AperFunction*
G04 #@! TA.AperFunction,SMDPad,CuDef*
G36*
X102240000Y-89490000D02*
G01*
X101090000Y-89490000D01*
X101590000Y-88740000D01*
X101090000Y-87990000D01*
X102240000Y-87990000D01*
X102240000Y-89490000D01*
G37*
G04 #@! TD.AperFunction*
G04 #@! TA.AperFunction,SMDPad,CuDef*
G36*
X87650000Y-85300000D02*
G01*
X88150000Y-84550000D01*
X89150000Y-84550000D01*
X89150000Y-86050000D01*
X88150000Y-86050000D01*
X87650000Y-85300000D01*
G37*
G04 #@! TD.AperFunction*
G04 #@! TA.AperFunction,SMDPad,CuDef*
G36*
X86700000Y-84550000D02*
G01*
X87850000Y-84550000D01*
X87350000Y-85300000D01*
X87850000Y-86050000D01*
X86700000Y-86050000D01*
X86700000Y-84550000D01*
G37*
G04 #@! TD.AperFunction*
G04 #@! TA.AperFunction,SMDPad,CuDef*
G36*
X101405000Y-86200000D02*
G01*
X100905000Y-86950000D01*
X99905000Y-86950000D01*
X99905000Y-85450000D01*
X100905000Y-85450000D01*
X101405000Y-86200000D01*
G37*
G04 #@! TD.AperFunction*
G04 #@! TA.AperFunction,SMDPad,CuDef*
G36*
X102355000Y-86950000D02*
G01*
X101205000Y-86950000D01*
X101705000Y-86200000D01*
X101205000Y-85450000D01*
X102355000Y-85450000D01*
X102355000Y-86950000D01*
G37*
G04 #@! TD.AperFunction*
G04 #@! TA.AperFunction,SMDPad,CuDef*
G36*
X91015000Y-85290000D02*
G01*
X91515000Y-84540000D01*
X92515000Y-84540000D01*
X92515000Y-86040000D01*
X91515000Y-86040000D01*
X91015000Y-85290000D01*
G37*
G04 #@! TD.AperFunction*
G04 #@! TA.AperFunction,SMDPad,CuDef*
G36*
X90065000Y-84540000D02*
G01*
X91215000Y-84540000D01*
X90715000Y-85290000D01*
X91215000Y-86040000D01*
X90065000Y-86040000D01*
X90065000Y-84540000D01*
G37*
G04 #@! TD.AperFunction*
G04 #@! TA.AperFunction,SMDPad,CuDef*
G36*
G01*
X116310000Y-90669998D02*
X116310000Y-91570002D01*
G75*
G02*
X116060002Y-91820000I-249998J0D01*
G01*
X115534998Y-91820000D01*
G75*
G02*
X115285000Y-91570002I0J249998D01*
G01*
X115285000Y-90669998D01*
G75*
G02*
X115534998Y-90420000I249998J0D01*
G01*
X116060002Y-90420000D01*
G75*
G02*
X116310000Y-90669998I0J-249998D01*
G01*
G37*
G04 #@! TD.AperFunction*
G04 #@! TA.AperFunction,SMDPad,CuDef*
G36*
G01*
X118135000Y-90669998D02*
X118135000Y-91570002D01*
G75*
G02*
X117885002Y-91820000I-249998J0D01*
G01*
X117359998Y-91820000D01*
G75*
G02*
X117110000Y-91570002I0J249998D01*
G01*
X117110000Y-90669998D01*
G75*
G02*
X117359998Y-90420000I249998J0D01*
G01*
X117885002Y-90420000D01*
G75*
G02*
X118135000Y-90669998I0J-249998D01*
G01*
G37*
G04 #@! TD.AperFunction*
D14*
X112702000Y-124910000D03*
X66182000Y-124910000D03*
X66182000Y-122370000D03*
X66182000Y-119830000D03*
X66182000Y-117290000D03*
X66182000Y-114750000D03*
X66182000Y-112210000D03*
X66182000Y-109670000D03*
X66182000Y-107130000D03*
X66182000Y-104590000D03*
X66182000Y-102050000D03*
X68722000Y-124910000D03*
X68722000Y-122370000D03*
X68722000Y-119830000D03*
X68722000Y-117290000D03*
X68722000Y-114750000D03*
X68722000Y-112210000D03*
X68722000Y-109670000D03*
X68722000Y-107130000D03*
X68722000Y-104590000D03*
X68722000Y-102050000D03*
X71262000Y-124910000D03*
X71262000Y-122370000D03*
X71262000Y-119830000D03*
X71262000Y-117290000D03*
X71262000Y-114750000D03*
X71262000Y-112210000D03*
X71262000Y-109670000D03*
X71262000Y-107130000D03*
X71262000Y-104590000D03*
X71262000Y-102050000D03*
X73802000Y-124910000D03*
X73802000Y-122370000D03*
X73802000Y-119830000D03*
X73802000Y-117290000D03*
X73802000Y-114750000D03*
X73802000Y-112210000D03*
X73802000Y-109670000D03*
X73802000Y-107130000D03*
X73802000Y-104590000D03*
X73802000Y-102050000D03*
X76342000Y-124910000D03*
X76342000Y-122370000D03*
X76342000Y-119830000D03*
X76342000Y-117290000D03*
X76342000Y-114750000D03*
X76342000Y-112210000D03*
X76342000Y-109670000D03*
X76342000Y-107130000D03*
X76342000Y-104590000D03*
X76342000Y-102050000D03*
X78882000Y-124910000D03*
X78882000Y-122370000D03*
X78882000Y-119830000D03*
X78882000Y-117290000D03*
X78882000Y-114750000D03*
X78882000Y-112210000D03*
X78882000Y-109670000D03*
X78882000Y-107130000D03*
X78882000Y-104590000D03*
X78882000Y-102050000D03*
X81422000Y-124910000D03*
X81422000Y-122370000D03*
X81422000Y-119830000D03*
X81422000Y-117290000D03*
X81422000Y-114750000D03*
X81422000Y-112210000D03*
X81422000Y-109670000D03*
X81422000Y-107130000D03*
X81422000Y-104590000D03*
X81422000Y-102050000D03*
X83962000Y-124910000D03*
X83962000Y-122370000D03*
X83962000Y-119830000D03*
X83962000Y-117290000D03*
X83962000Y-114750000D03*
X83962000Y-112210000D03*
X83962000Y-109670000D03*
X83962000Y-107130000D03*
X83962000Y-104590000D03*
X83962000Y-102050000D03*
X86502000Y-124910000D03*
X86502000Y-122370000D03*
X86502000Y-119830000D03*
X86502000Y-117290000D03*
X86502000Y-114750000D03*
X86502000Y-112210000D03*
X86502000Y-109670000D03*
X86502000Y-107130000D03*
X86502000Y-104590000D03*
X86502000Y-102050000D03*
X89042000Y-124910000D03*
X89042000Y-122370000D03*
X89042000Y-119830000D03*
X89042000Y-117290000D03*
X89042000Y-114750000D03*
X89042000Y-112210000D03*
X89042000Y-109670000D03*
X89042000Y-107130000D03*
X89042000Y-104590000D03*
X89042000Y-102050000D03*
X91582000Y-124910000D03*
X91582000Y-122370000D03*
X91582000Y-119830000D03*
X91582000Y-117290000D03*
X91582000Y-114750000D03*
X91582000Y-112210000D03*
X91582000Y-109670000D03*
X91582000Y-107130000D03*
X91582000Y-104590000D03*
X91582000Y-102050000D03*
X94122000Y-124910000D03*
X94122000Y-122370000D03*
X94122000Y-119830000D03*
X94122000Y-117290000D03*
X94122000Y-114750000D03*
X94122000Y-112210000D03*
X94122000Y-109670000D03*
X94122000Y-107130000D03*
X94122000Y-104590000D03*
X94122000Y-102050000D03*
X96662000Y-124910000D03*
X96662000Y-122370000D03*
X96662000Y-119830000D03*
X96662000Y-117290000D03*
X96662000Y-114750000D03*
X96662000Y-112210000D03*
X96662000Y-109670000D03*
X96662000Y-107130000D03*
X96662000Y-104590000D03*
X96662000Y-102050000D03*
X99202000Y-124910000D03*
X99202000Y-122370000D03*
X99202000Y-119830000D03*
X99202000Y-117290000D03*
X99202000Y-114750000D03*
X99202000Y-112210000D03*
X99202000Y-109670000D03*
X99202000Y-107130000D03*
X99202000Y-104590000D03*
X99202000Y-102050000D03*
X101742000Y-124910000D03*
X101742000Y-122370000D03*
X101742000Y-119830000D03*
X101742000Y-117290000D03*
X101742000Y-114750000D03*
X101742000Y-112210000D03*
X101742000Y-109670000D03*
X101742000Y-107130000D03*
X101742000Y-104590000D03*
X101742000Y-102050000D03*
X104282000Y-117290000D03*
X104282000Y-114750000D03*
X104282000Y-112210000D03*
X104282000Y-109670000D03*
X106822000Y-117290000D03*
X106822000Y-114750000D03*
X106822000Y-112210000D03*
X106822000Y-109670000D03*
X109362000Y-117290000D03*
X109362000Y-114750000D03*
X109362000Y-112210000D03*
X109362000Y-109670000D03*
X112702000Y-122370000D03*
X112702000Y-119830000D03*
X115242000Y-124910000D03*
X115242000Y-122370000D03*
X115242000Y-119830000D03*
X117782000Y-124910000D03*
X117782000Y-122370000D03*
X117782000Y-119830000D03*
X112672000Y-102170000D03*
X109372000Y-104690000D03*
X109372000Y-107230000D03*
X109372000Y-102150000D03*
X106832000Y-102150000D03*
X106832000Y-104690000D03*
X106832000Y-107230000D03*
X104292000Y-107230000D03*
X104292000Y-102150000D03*
X104292000Y-104690000D03*
X109352000Y-119810000D03*
X109352000Y-124890000D03*
X109352000Y-122350000D03*
X106812000Y-122350000D03*
X106812000Y-119810000D03*
X106812000Y-124890000D03*
X104272000Y-122350000D03*
X104272000Y-119810000D03*
X104272000Y-124890000D03*
X62918000Y-124910000D03*
X60378000Y-119830000D03*
X60378000Y-122370000D03*
X62918000Y-122370000D03*
X60378000Y-124910000D03*
X62918000Y-119830000D03*
X57838000Y-119830000D03*
X57838000Y-122370000D03*
X57808000Y-102170000D03*
X57838000Y-124910000D03*
X115212000Y-102170000D03*
X117752000Y-102170000D03*
X112672000Y-104710000D03*
X115212000Y-104710000D03*
X117752000Y-104710000D03*
X112672000Y-107250000D03*
X115212000Y-107250000D03*
X117752000Y-107250000D03*
X60348000Y-102170000D03*
X62888000Y-102170000D03*
X57808000Y-104710000D03*
X60348000Y-104710000D03*
X62888000Y-104710000D03*
X57808000Y-107250000D03*
X60348000Y-107250000D03*
X62888000Y-107250000D03*
G04 #@! TA.AperFunction,SMDPad,CuDef*
G36*
G01*
X109187500Y-90729998D02*
X109187500Y-91630002D01*
G75*
G02*
X108937502Y-91880000I-249998J0D01*
G01*
X108412498Y-91880000D01*
G75*
G02*
X108162500Y-91630002I0J249998D01*
G01*
X108162500Y-90729998D01*
G75*
G02*
X108412498Y-90480000I249998J0D01*
G01*
X108937502Y-90480000D01*
G75*
G02*
X109187500Y-90729998I0J-249998D01*
G01*
G37*
G04 #@! TD.AperFunction*
G04 #@! TA.AperFunction,SMDPad,CuDef*
G36*
G01*
X111012500Y-90729998D02*
X111012500Y-91630002D01*
G75*
G02*
X110762502Y-91880000I-249998J0D01*
G01*
X110237498Y-91880000D01*
G75*
G02*
X109987500Y-91630002I0J249998D01*
G01*
X109987500Y-90729998D01*
G75*
G02*
X110237498Y-90480000I249998J0D01*
G01*
X110762502Y-90480000D01*
G75*
G02*
X111012500Y-90729998I0J-249998D01*
G01*
G37*
G04 #@! TD.AperFunction*
G04 #@! TA.AperFunction,SMDPad,CuDef*
G36*
G01*
X97589998Y-46512500D02*
X98490002Y-46512500D01*
G75*
G02*
X98740000Y-46762498I0J-249998D01*
G01*
X98740000Y-47287502D01*
G75*
G02*
X98490002Y-47537500I-249998J0D01*
G01*
X97589998Y-47537500D01*
G75*
G02*
X97340000Y-47287502I0J249998D01*
G01*
X97340000Y-46762498D01*
G75*
G02*
X97589998Y-46512500I249998J0D01*
G01*
G37*
G04 #@! TD.AperFunction*
G04 #@! TA.AperFunction,SMDPad,CuDef*
G36*
G01*
X97589998Y-44687500D02*
X98490002Y-44687500D01*
G75*
G02*
X98740000Y-44937498I0J-249998D01*
G01*
X98740000Y-45462502D01*
G75*
G02*
X98490002Y-45712500I-249998J0D01*
G01*
X97589998Y-45712500D01*
G75*
G02*
X97340000Y-45462502I0J249998D01*
G01*
X97340000Y-44937498D01*
G75*
G02*
X97589998Y-44687500I249998J0D01*
G01*
G37*
G04 #@! TD.AperFunction*
D17*
X63080000Y-95050000D03*
X60540000Y-95050000D03*
X63080000Y-92510000D03*
X60540000Y-92510000D03*
X63080000Y-89970000D03*
X60540000Y-89970000D03*
X63080000Y-87430000D03*
X60540000Y-87430000D03*
X63080000Y-84890000D03*
X60540000Y-84890000D03*
X63080000Y-82350000D03*
X60540000Y-82350000D03*
X63080000Y-79810000D03*
X60540000Y-79810000D03*
X63080000Y-77270000D03*
X60540000Y-77270000D03*
X63080000Y-74730000D03*
X60540000Y-74730000D03*
X63080000Y-72190000D03*
X60540000Y-72190000D03*
X63080000Y-69650000D03*
X60540000Y-69650000D03*
X63080000Y-67110000D03*
X60540000Y-67110000D03*
X63080000Y-64570000D03*
X60540000Y-64570000D03*
X63080000Y-62030000D03*
X60540000Y-62030000D03*
X63080000Y-59490000D03*
X60540000Y-59490000D03*
X63080000Y-56950000D03*
X60540000Y-56950000D03*
X63080000Y-54410000D03*
X60540000Y-54410000D03*
X63080000Y-51870000D03*
X60540000Y-51870000D03*
X63080000Y-49330000D03*
X60540000Y-49330000D03*
X63080000Y-46790000D03*
D18*
X60540000Y-46790000D03*
D21*
X109810000Y-86250000D03*
X71570000Y-94560000D03*
D22*
X36890000Y-68480000D03*
D23*
X42840000Y-70430000D03*
D22*
X42890000Y-82680000D03*
X30840000Y-82630000D03*
D23*
X30840000Y-70430000D03*
D17*
X49770000Y-70510000D03*
X49770000Y-67970000D03*
X49770000Y-65430000D03*
D18*
X49770000Y-62890000D03*
D24*
X31846000Y-40014000D03*
X36926000Y-40014000D03*
D25*
X42006000Y-40014000D03*
D21*
X59570000Y-114290000D03*
D24*
X160260000Y-76760000D03*
D25*
X160260000Y-81840000D03*
D21*
X114570000Y-114290000D03*
D26*
X49136000Y-46054000D03*
X50406000Y-46054000D03*
D27*
X47866000Y-46054000D03*
D21*
X49040000Y-94280000D03*
X49070000Y-39290000D03*
X159570000Y-39290000D03*
X159570000Y-94290000D03*
X59600000Y-39300000D03*
X129570000Y-39290000D03*
D27*
X50660000Y-87230000D03*
D26*
X48120000Y-87230000D03*
X49390000Y-87230000D03*
D28*
X150300000Y-48100000D03*
D22*
X137500000Y-93100000D03*
X129500000Y-48100000D03*
X129500000Y-93100000D03*
X36810000Y-64370000D03*
D23*
X30860000Y-62420000D03*
D22*
X30810000Y-50170000D03*
X42860000Y-50220000D03*
D23*
X42860000Y-62420000D03*
D24*
X160350000Y-48120000D03*
D25*
X160350000Y-53200000D03*
D24*
X42084000Y-92796000D03*
X37004000Y-92796000D03*
D25*
X31924000Y-92796000D03*
D17*
X130805000Y-102962000D03*
X133345000Y-102962000D03*
X135885000Y-102962000D03*
X138425000Y-102962000D03*
X140965000Y-102962000D03*
X143505000Y-102962000D03*
X146045000Y-102962000D03*
X148585000Y-102962000D03*
X151125000Y-102962000D03*
X153665000Y-102962000D03*
X156205000Y-102962000D03*
X158745000Y-102962000D03*
X161285000Y-102962000D03*
D18*
X163825000Y-102962000D03*
D29*
X50030000Y-52250000D03*
X107720000Y-89430000D03*
X50050000Y-56240000D03*
X48060000Y-78360000D03*
X101630000Y-70740010D03*
X74220000Y-84400000D03*
X104050000Y-96040000D03*
X86765000Y-96560010D03*
X74252504Y-90479996D03*
X92280000Y-50820000D03*
X107370000Y-60050000D03*
X93240000Y-37860000D03*
X110240000Y-54600000D03*
X81070010Y-86190000D03*
X81160000Y-59570000D03*
X96520000Y-57290000D03*
X107370000Y-62720000D03*
X95800000Y-68460000D03*
X78230000Y-93830000D03*
X107730000Y-39210000D03*
X110220000Y-46990000D03*
X79920000Y-68800010D03*
X108100000Y-57280000D03*
X97310000Y-41200000D03*
X97140000Y-76180000D03*
X97640000Y-67050000D03*
X111860000Y-51950000D03*
X107730000Y-41760000D03*
X101294670Y-42600053D03*
X81070010Y-88740000D03*
X81670010Y-76530000D03*
X80840000Y-91310000D03*
X110270000Y-49430000D03*
X107730000Y-44310000D03*
X109108267Y-59191733D03*
X103230000Y-54020000D03*
X80450010Y-70470000D03*
X58950000Y-50810000D03*
X100450000Y-54630000D03*
X87040000Y-55580000D03*
X86800001Y-73850011D03*
X96330000Y-66400010D03*
X87929987Y-62010000D03*
X97360000Y-49550000D03*
X87929987Y-65759987D03*
X117690000Y-91380000D03*
X101854000Y-93218000D03*
X101600000Y-69596000D03*
X92140000Y-89060000D03*
X110490000Y-91279821D03*
X107310000Y-69950000D03*
X107300000Y-72490000D03*
X107300000Y-75050000D03*
X97980000Y-45350000D03*
X79660000Y-46910000D03*
X79119990Y-83755413D03*
X78327553Y-46862447D03*
X78626134Y-83002998D03*
X77320032Y-49370032D03*
X76486991Y-82569990D03*
X76730000Y-47850000D03*
X75750021Y-82019990D03*
X72149998Y-78250000D03*
X75624979Y-51880000D03*
X75750021Y-80550000D03*
X65661880Y-78038892D03*
X64586000Y-78763902D03*
X65710000Y-74820000D03*
X105140000Y-36780000D03*
X104660000Y-60053416D03*
X104610000Y-54619998D03*
X89709998Y-63529990D03*
X84075000Y-75050023D03*
X82420000Y-84670000D03*
X89710000Y-75080000D03*
X105240000Y-39190000D03*
X104390000Y-62410000D03*
X80830000Y-93830000D03*
X77940000Y-64129999D03*
X105260010Y-46870000D03*
X72145006Y-85514994D03*
X64780000Y-72100000D03*
X96930000Y-73170000D03*
X96970000Y-65140000D03*
X104619990Y-64860000D03*
X105130000Y-41760000D03*
X106054272Y-52054272D03*
X95800000Y-75600000D03*
X95858818Y-69522069D03*
X104860000Y-67420000D03*
X106740000Y-49010000D03*
X73970000Y-67119990D03*
X73040000Y-87700000D03*
X73939989Y-75560011D03*
X105430000Y-43832899D03*
X73330000Y-58350000D03*
X73329998Y-78270000D03*
X58740000Y-76140000D03*
X57920000Y-46150000D03*
X70680000Y-57730000D03*
X70680000Y-72619977D03*
X88410000Y-56410010D03*
X83441816Y-79899568D03*
X83632737Y-55670000D03*
X82980000Y-81370000D03*
X82730000Y-52830000D03*
X65420000Y-66370000D03*
X89129998Y-72200000D03*
X89140000Y-48770000D03*
X90350000Y-69670000D03*
X90030000Y-47310000D03*
X102400000Y-96060000D03*
X86770000Y-87820000D03*
X91750000Y-91580010D03*
X105252464Y-88961122D03*
X92430000Y-90290000D03*
X92175000Y-87259976D03*
X92200000Y-85330000D03*
X98220000Y-68460000D03*
X101550000Y-75960000D03*
X110850000Y-68340000D03*
X100290000Y-88750000D03*
X100167500Y-86130000D03*
X90375000Y-85330000D03*
X101992500Y-86200000D03*
X86765000Y-90037500D03*
X90280000Y-87820000D03*
X88735000Y-87260000D03*
X102070000Y-88740000D03*
X91640000Y-94030000D03*
X91620000Y-95410000D03*
X99870000Y-61770000D03*
X99240000Y-63720000D03*
X101550000Y-73420000D03*
X98820002Y-66430000D03*
X109260000Y-68950000D03*
X109024980Y-61973417D03*
X112910000Y-61890000D03*
X117200000Y-62189999D03*
X108970000Y-60790000D03*
X109280000Y-67690000D03*
X113182386Y-65473843D03*
X113170002Y-66390000D03*
X110950000Y-64490000D03*
X110910000Y-65610000D03*
X110950000Y-67100000D03*
X110150000Y-73420000D03*
X110130000Y-74680000D03*
X110190000Y-75950000D03*
X101550000Y-65800000D03*
X107232420Y-78379813D03*
X92690000Y-66260000D03*
X92690000Y-74050000D03*
X101550000Y-64530000D03*
X108020000Y-77930000D03*
X91880000Y-71090000D03*
X91860000Y-65650000D03*
X104170000Y-77150000D03*
X74060000Y-79680000D03*
X75310000Y-79650000D03*
X107210011Y-79579835D03*
X87361667Y-94245235D03*
X106480000Y-44290000D03*
X66969990Y-42179963D03*
X95780000Y-45970000D03*
X92464647Y-44684647D03*
X98490000Y-48400000D03*
X91290000Y-52910000D03*
X91344365Y-45960021D03*
X66969990Y-41279950D03*
X91680000Y-53820000D03*
X92130690Y-47230408D03*
X66969990Y-43079976D03*
X90966706Y-57570000D03*
X90690000Y-48860000D03*
X66969990Y-43979989D03*
X87790000Y-58320000D03*
X87770000Y-47290000D03*
X67044457Y-45290011D03*
D30*
X42823500Y-63208500D02*
X42608502Y-63208500D01*
X42860000Y-61530000D02*
X42860000Y-62420000D01*
X50030000Y-54360000D02*
X42860000Y-61530000D01*
X50030000Y-52250000D02*
X50030000Y-54360000D01*
D31*
X42842500Y-70014500D02*
X42842500Y-70020500D01*
X42842500Y-70020500D02*
X42848500Y-70020500D01*
X84137975Y-83489977D02*
X101779977Y-83489977D01*
X68900000Y-82360000D02*
X69939999Y-81320001D01*
X69939999Y-81320001D02*
X81967999Y-81320001D01*
X81967999Y-81320001D02*
X84137975Y-83489977D01*
X101779977Y-83489977D02*
X107720000Y-89430000D01*
X108119999Y-89829999D02*
X107720000Y-89430000D01*
X113890001Y-89829999D02*
X108119999Y-89829999D01*
X119600000Y-89830000D02*
X113221998Y-89830000D01*
X133310000Y-88910000D02*
X120520000Y-88910000D01*
X137500000Y-93100000D02*
X133310000Y-88910000D01*
X120520000Y-88910000D02*
X119600000Y-89830000D01*
X63080000Y-89970000D02*
X61830000Y-88720000D01*
X61830000Y-88680000D02*
X61830000Y-88720000D01*
X63080000Y-87430000D02*
X61830000Y-88680000D01*
X42860000Y-70450000D02*
X42840000Y-70430000D01*
X42860000Y-73160000D02*
X42860000Y-70450000D01*
X51510001Y-86732923D02*
X51510001Y-81810001D01*
X53497078Y-88720000D02*
X51510001Y-86732923D01*
X61830000Y-88720000D02*
X53497078Y-88720000D01*
X48060000Y-78360000D02*
X42860000Y-73160000D01*
X51510001Y-81810001D02*
X48060000Y-78360000D01*
X110526000Y-87214000D02*
X110530000Y-87210000D01*
X110506000Y-87214000D02*
X110526000Y-87214000D01*
X112300000Y-87620000D02*
X112290000Y-87610000D01*
X112305000Y-87620000D02*
X112300000Y-87620000D01*
X110490000Y-87610000D02*
X110480000Y-87620000D01*
X110480000Y-87620000D02*
X110480000Y-88498000D01*
X102580000Y-97510000D02*
X104050000Y-96040000D01*
X86765000Y-96660000D02*
X87615000Y-97510000D01*
X87615000Y-97510000D02*
X102580000Y-97510000D01*
X104710000Y-69960000D02*
X104710000Y-72510000D01*
X104710000Y-72510000D02*
X104710000Y-75060000D01*
X110490000Y-83990000D02*
X110490000Y-87610000D01*
X102410010Y-69960000D02*
X101630000Y-70740010D01*
X104710000Y-69960000D02*
X102410010Y-69960000D01*
D30*
X63080000Y-51870000D02*
X64130000Y-50820000D01*
X64130000Y-50820000D02*
X92280000Y-50820000D01*
X107310000Y-59990000D02*
X107370000Y-60050000D01*
X107310000Y-59760000D02*
X107310000Y-59990000D01*
X107730000Y-35912408D02*
X107730000Y-36660000D01*
X107527582Y-35709990D02*
X107730000Y-35912408D01*
X104843450Y-35709990D02*
X107527582Y-35709990D01*
X102693440Y-37860000D02*
X104843450Y-35709990D01*
X93240000Y-37860000D02*
X102693440Y-37860000D01*
X107107582Y-58809990D02*
X94990010Y-58809990D01*
X107310000Y-59012408D02*
X107107582Y-58809990D01*
X94990010Y-58809990D02*
X94300000Y-59500000D01*
X107310000Y-59760000D02*
X107310000Y-59012408D01*
X94300000Y-59500000D02*
X81230000Y-59500000D01*
X81230000Y-59500000D02*
X81160000Y-59570000D01*
X78220000Y-93820000D02*
X78190000Y-93850000D01*
X94610022Y-57270022D02*
X94300000Y-56960000D01*
X96249978Y-57270022D02*
X94610022Y-57270022D01*
X96249978Y-57270022D02*
X96269956Y-57290000D01*
X96269956Y-57290000D02*
X96520000Y-57290000D01*
X107310000Y-62660000D02*
X107370000Y-62720000D01*
X107310000Y-62310000D02*
X107310000Y-62660000D01*
X60540000Y-69650000D02*
X61640008Y-68549992D01*
X95800000Y-68460000D02*
X95710008Y-68549992D01*
X95710008Y-68549992D02*
X80139992Y-68549992D01*
X61640008Y-68549992D02*
X80139992Y-68549992D01*
X110290000Y-46920000D02*
X110220000Y-46990000D01*
X110290000Y-46870000D02*
X110290000Y-46920000D01*
X79920000Y-68769984D02*
X79920000Y-68800010D01*
X80139992Y-68549992D02*
X79920000Y-68769984D01*
X96520000Y-57290000D02*
X108090000Y-57290000D01*
X108090000Y-57290000D02*
X108100000Y-57280000D01*
X97750000Y-41640000D02*
X97310000Y-41200000D01*
X100714796Y-41640000D02*
X97750000Y-41640000D01*
X103363461Y-41639999D02*
X101259999Y-41639999D01*
X107397592Y-40290000D02*
X104713460Y-40290000D01*
X100724796Y-41630000D02*
X100714796Y-41640000D01*
X104713460Y-40290000D02*
X103363461Y-41639999D01*
X107730000Y-39957592D02*
X107397592Y-40290000D01*
X107730000Y-39210000D02*
X107730000Y-39957592D01*
X101259999Y-41639999D02*
X101250000Y-41630000D01*
X101250000Y-41630000D02*
X100724796Y-41630000D01*
X97099998Y-76220002D02*
X97140000Y-76180000D01*
X107310000Y-64860000D02*
X107310000Y-65607592D01*
X104423450Y-66459990D02*
X103833440Y-67050000D01*
X107310000Y-65607592D02*
X106457602Y-66459990D01*
X106457602Y-66459990D02*
X104423450Y-66459990D01*
X103833440Y-67050000D02*
X97640000Y-67050000D01*
X111790000Y-52020000D02*
X111860000Y-51950000D01*
X110250000Y-52020000D02*
X111790000Y-52020000D01*
X81380002Y-76220002D02*
X97099998Y-76220002D01*
X81380002Y-76239992D02*
X81670010Y-76530000D01*
X81380002Y-76220002D02*
X81380002Y-76239992D01*
X67890002Y-76220002D02*
X81380002Y-76220002D01*
X63594002Y-75770000D02*
X67440000Y-75770000D01*
X67440000Y-75770000D02*
X67890002Y-76220002D01*
X63584001Y-75780001D02*
X63594002Y-75770000D01*
X62575999Y-75780001D02*
X63584001Y-75780001D01*
X62565998Y-75770000D02*
X62575999Y-75780001D01*
X61580000Y-75770000D02*
X62565998Y-75770000D01*
X60540000Y-74730000D02*
X61580000Y-75770000D01*
X80830000Y-91300000D02*
X80840000Y-91310000D01*
X80830000Y-91280000D02*
X80830000Y-91300000D01*
X108010010Y-60289990D02*
X109108267Y-59191733D01*
X108010010Y-66709990D02*
X108010010Y-60289990D01*
X107310000Y-67410000D02*
X108010010Y-66709990D01*
X94700000Y-54020000D02*
X103230000Y-54020000D01*
X94300000Y-54420000D02*
X94700000Y-54020000D01*
X106717582Y-68750010D02*
X99467992Y-68750010D01*
X92148002Y-70470000D02*
X80450010Y-70470000D01*
X92448002Y-70770000D02*
X92148002Y-70470000D01*
X97448002Y-70770000D02*
X92448002Y-70770000D01*
X107310000Y-68157592D02*
X106717582Y-68750010D01*
X63080000Y-69650000D02*
X64159990Y-70729990D01*
X64159990Y-70729990D02*
X80190020Y-70729990D01*
X107310000Y-67410000D02*
X107310000Y-68157592D01*
X99467992Y-68750010D02*
X97448002Y-70770000D01*
X80190020Y-70729990D02*
X80450010Y-70470000D01*
X63568281Y-50819999D02*
X59110001Y-50819999D01*
X69604003Y-50189999D02*
X69274012Y-50519990D01*
X93450001Y-50189999D02*
X69604003Y-50189999D01*
X63868290Y-50519990D02*
X63568281Y-50819999D01*
X69274012Y-50519990D02*
X63868290Y-50519990D01*
X94300000Y-49340000D02*
X93450001Y-50189999D01*
X59100002Y-50810000D02*
X58950000Y-50810000D01*
X59110001Y-50819999D02*
X59100002Y-50810000D01*
X95860000Y-49340000D02*
X94300000Y-49340000D01*
X100030000Y-45650000D02*
X99550000Y-45650000D01*
X99550000Y-45650000D02*
X95860000Y-49340000D01*
X87270000Y-55810000D02*
X87040000Y-55580000D01*
X99270000Y-55810000D02*
X87270000Y-55810000D01*
X100450000Y-54630000D02*
X99270000Y-55810000D01*
X69404001Y-73250001D02*
X70004011Y-73850011D01*
X64140001Y-73250001D02*
X69404001Y-73250001D01*
X70004011Y-73850011D02*
X86800001Y-73850011D01*
X63080000Y-72190000D02*
X64140001Y-73250001D01*
X96330000Y-66965695D02*
X96330000Y-66400010D01*
X95095695Y-68200000D02*
X96330000Y-66965695D01*
X61630000Y-68200000D02*
X95095695Y-68200000D01*
X60540000Y-67110000D02*
X61630000Y-68200000D01*
X94300000Y-62040000D02*
X87959987Y-62040000D01*
X87959987Y-62040000D02*
X87929987Y-62010000D01*
X97370000Y-49540000D02*
X97360000Y-49550000D01*
X101220000Y-49540000D02*
X97370000Y-49540000D01*
X102570000Y-48190000D02*
X101220000Y-49540000D01*
X64430013Y-65759987D02*
X87929987Y-65759987D01*
X63080000Y-67110000D02*
X64430013Y-65759987D01*
D31*
X110500000Y-91180000D02*
X110490000Y-91190000D01*
X110490000Y-91190000D02*
X110490000Y-91279821D01*
X107310000Y-69960000D02*
X107310000Y-69950000D01*
X107310000Y-72500000D02*
X107300000Y-72490000D01*
X107310000Y-72510000D02*
X107310000Y-72500000D01*
X107310000Y-75060000D02*
X107300000Y-75050000D01*
D30*
X70679976Y-46039976D02*
X76656538Y-46039976D01*
X68900000Y-44260000D02*
X70679976Y-46039976D01*
X78081563Y-47465001D02*
X79104999Y-47465001D01*
X79104999Y-47465001D02*
X79660000Y-46910000D01*
X76656538Y-46039976D02*
X78081563Y-47465001D01*
X70724587Y-83755413D02*
X79119990Y-83755413D01*
X63080000Y-84890000D02*
X63500000Y-84470000D01*
X63500000Y-84470000D02*
X70010000Y-84470000D01*
X70010000Y-84470000D02*
X70724587Y-83755413D01*
X70819965Y-45739965D02*
X77205071Y-45739965D01*
X68900000Y-41720000D02*
X69950000Y-42770000D01*
X69950000Y-42770000D02*
X69950000Y-44870000D01*
X77205071Y-45739965D02*
X78327553Y-46862447D01*
X69950000Y-44870000D02*
X70819965Y-45739965D01*
X61715001Y-83714999D02*
X63644001Y-83714999D01*
X60540000Y-84890000D02*
X61715001Y-83714999D01*
X63644001Y-83714999D02*
X64068991Y-84139989D01*
X64068991Y-84139989D02*
X69915733Y-84139989D01*
X69915733Y-84139989D02*
X70885722Y-83170000D01*
X70885722Y-83170000D02*
X78459132Y-83170000D01*
X78459132Y-83170000D02*
X78626134Y-83002998D01*
X108675000Y-93543000D02*
X108676000Y-93544000D01*
X108675000Y-91180000D02*
X108675000Y-93543000D01*
X68900000Y-49340000D02*
X77290000Y-49340000D01*
X77290000Y-49340000D02*
X77320032Y-49370032D01*
X63080000Y-82350000D02*
X64489978Y-83759978D01*
X64489978Y-83759978D02*
X69871465Y-83759978D01*
X69871465Y-83759978D02*
X71011443Y-82620000D01*
X71011443Y-82620000D02*
X76436981Y-82620000D01*
X76436981Y-82620000D02*
X76486991Y-82569990D01*
X81898721Y-82169991D02*
X76886990Y-82169991D01*
X76886990Y-82169991D02*
X76486991Y-82569990D01*
X108675000Y-91180000D02*
X108110000Y-91180000D01*
X101450731Y-84139999D02*
X83868728Y-84139999D01*
X108110000Y-91180000D02*
X106009988Y-89079988D01*
X83868728Y-84139999D02*
X81898721Y-82169991D01*
X106009988Y-88699256D02*
X101450731Y-84139999D01*
X106009988Y-89079988D02*
X106009988Y-88699256D01*
X76529999Y-47649999D02*
X76730000Y-47850000D01*
X69749999Y-47649999D02*
X76529999Y-47649999D01*
X68900000Y-46800000D02*
X69749999Y-47649999D01*
X65819989Y-83449989D02*
X69757175Y-83449989D01*
X71187174Y-82019990D02*
X75750021Y-82019990D01*
X69757175Y-83449989D02*
X71187174Y-82019990D01*
X61715001Y-81174999D02*
X63544999Y-81174999D01*
X63544999Y-81174999D02*
X65819989Y-83449989D01*
X60540000Y-82350000D02*
X61715001Y-81174999D01*
X106309999Y-88574988D02*
X101574999Y-83839988D01*
X83992996Y-83839988D02*
X81832999Y-81679991D01*
X101574999Y-83839988D02*
X83992996Y-83839988D01*
X76090020Y-81679991D02*
X75750021Y-82019990D01*
X106309999Y-88869999D02*
X106309999Y-88574988D01*
X107700001Y-90260001D02*
X106309999Y-88869999D01*
X114950001Y-90260001D02*
X107700001Y-90260001D01*
X81832999Y-81679991D02*
X76090020Y-81679991D01*
X116310000Y-91620000D02*
X114950001Y-90260001D01*
X116310000Y-93510000D02*
X116310000Y-91620000D01*
X64810000Y-79810000D02*
X65970001Y-78649999D01*
X71749999Y-78649999D02*
X72149998Y-78250000D01*
X65970001Y-78649999D02*
X71749999Y-78649999D01*
X63080000Y-79810000D02*
X64810000Y-79810000D01*
X68900000Y-51880000D02*
X75624979Y-51880000D01*
X60540000Y-79810000D02*
X61604999Y-80874999D01*
X61604999Y-80874999D02*
X75425022Y-80874999D01*
X75425022Y-80874999D02*
X75750021Y-80550000D01*
X63080000Y-77270000D02*
X63848892Y-78038892D01*
X63848892Y-78038892D02*
X65661880Y-78038892D01*
X60540000Y-77270000D02*
X61904999Y-78634999D01*
X61904999Y-78634999D02*
X64457097Y-78634999D01*
X64457097Y-78634999D02*
X64586000Y-78763902D01*
X65620000Y-74730000D02*
X65710000Y-74820000D01*
X63080000Y-74730000D02*
X65620000Y-74730000D01*
X105130000Y-36770000D02*
X105140000Y-36780000D01*
X105130000Y-36660000D02*
X105130000Y-36770000D01*
X94020000Y-75020000D02*
X94300000Y-74740000D01*
X89709999Y-63529999D02*
X89870001Y-63690001D01*
X89870001Y-63690001D02*
X89780001Y-63690001D01*
X63080000Y-64570000D02*
X64120001Y-63529999D01*
X89780001Y-63690001D02*
X89780000Y-63690000D01*
X64120001Y-63529999D02*
X89709999Y-63529999D01*
X104710000Y-60003416D02*
X104660000Y-60053416D01*
X104710000Y-59760000D02*
X104710000Y-60003416D01*
X107640000Y-54600000D02*
X104629998Y-54600000D01*
X104629998Y-54600000D02*
X104610000Y-54619998D01*
X89860000Y-75020000D02*
X94020000Y-75020000D01*
X89709998Y-63529998D02*
X89709998Y-63529990D01*
X97560009Y-63129991D02*
X90109997Y-63129991D01*
X90109997Y-63129991D02*
X89709998Y-63529990D01*
X100930000Y-59760000D02*
X97560009Y-63129991D01*
X104710000Y-59760000D02*
X100930000Y-59760000D01*
X89870001Y-63690001D02*
X89709998Y-63529998D01*
X84105023Y-75020000D02*
X84075000Y-75050023D01*
X89860000Y-75020000D02*
X84105023Y-75020000D01*
X79002408Y-84670000D02*
X82420000Y-84670000D01*
X78230000Y-86190000D02*
X78230000Y-85442408D01*
X78230000Y-85442408D02*
X79002408Y-84670000D01*
X89860000Y-75020000D02*
X89800000Y-75080000D01*
X80840000Y-93830000D02*
X80855000Y-93815000D01*
X61640000Y-65670000D02*
X64095721Y-65670000D01*
X65185721Y-64580000D02*
X68900000Y-64580000D01*
X60540000Y-64570000D02*
X61640000Y-65670000D01*
X64095721Y-65670000D02*
X65185721Y-64580000D01*
X105220000Y-39210000D02*
X105240000Y-39190000D01*
X105130000Y-39210000D02*
X105220000Y-39210000D01*
X104710000Y-62310000D02*
X104610000Y-62410000D01*
X104610000Y-62410000D02*
X104390000Y-62410000D01*
X80830000Y-93830000D02*
X80840000Y-93830000D01*
X107690000Y-46870000D02*
X105260010Y-46870000D01*
X77374315Y-64129999D02*
X77940000Y-64129999D01*
X69350001Y-64129999D02*
X77374315Y-64129999D01*
X68900000Y-64580000D02*
X69350001Y-64129999D01*
X104400000Y-62620000D02*
X104710000Y-62310000D01*
X98060001Y-63529999D02*
X98970000Y-62620000D01*
X90740001Y-63529999D02*
X98060001Y-63529999D01*
X98970000Y-62620000D02*
X104400000Y-62620000D01*
X90140000Y-64130000D02*
X90740001Y-63529999D01*
X77940001Y-64130000D02*
X90140000Y-64130000D01*
X77940000Y-64129999D02*
X77940001Y-64130000D01*
X68800000Y-72100000D02*
X68900000Y-72200000D01*
X64780000Y-72100000D02*
X68800000Y-72100000D01*
X96970000Y-65140000D02*
X104339990Y-65140000D01*
X104339990Y-65140000D02*
X104619990Y-64860000D01*
X107650000Y-52020000D02*
X106088544Y-52020000D01*
X106088544Y-52020000D02*
X106054272Y-52054272D01*
X78260000Y-88219999D02*
X78230000Y-88189999D01*
X78260000Y-88860000D02*
X78260000Y-88219999D01*
X78180000Y-88780000D02*
X78260000Y-88860000D01*
X75410012Y-88780000D02*
X78180000Y-88780000D01*
X72145006Y-85514994D02*
X75410012Y-88780000D01*
X96849999Y-73250001D02*
X96930000Y-73170000D01*
X69950001Y-73250001D02*
X96849999Y-73250001D01*
X68900000Y-72200000D02*
X69950001Y-73250001D01*
X104710000Y-67410000D02*
X98325685Y-67410000D01*
X98325685Y-67410000D02*
X96213616Y-69522069D01*
X96213616Y-69522069D02*
X95858818Y-69522069D01*
X104850000Y-67410000D02*
X104860000Y-67420000D01*
X104710000Y-67410000D02*
X104850000Y-67410000D01*
X107670000Y-49430000D02*
X107160000Y-49430000D01*
X107160000Y-49430000D02*
X106740000Y-49010000D01*
X68900000Y-67120000D02*
X73969990Y-67120000D01*
X73969990Y-67120000D02*
X73970000Y-67119990D01*
X73040000Y-87760000D02*
X73040000Y-87700000D01*
X76560000Y-91280000D02*
X73040000Y-87760000D01*
X78230000Y-91280000D02*
X76560000Y-91280000D01*
X75020011Y-75560011D02*
X73939989Y-75560011D01*
X83380011Y-75560011D02*
X75020011Y-75560011D01*
X83620000Y-75800000D02*
X83380011Y-75560011D01*
X95600000Y-75800000D02*
X83620000Y-75800000D01*
X95800000Y-75600000D02*
X95600000Y-75800000D01*
X148670000Y-107957000D02*
X153665000Y-102962000D01*
X148670000Y-109200000D02*
X148670000Y-107957000D01*
X155029999Y-101786999D02*
X156205000Y-102962000D01*
X152489999Y-102397999D02*
X153100999Y-101786999D01*
X152489999Y-103336003D02*
X152489999Y-102397999D01*
X153100999Y-101786999D02*
X155029999Y-101786999D01*
X146626002Y-109200000D02*
X152489999Y-103336003D01*
X146130000Y-109200000D02*
X146626002Y-109200000D01*
X159659989Y-101336989D02*
X161285000Y-102962000D01*
X149949999Y-103526001D02*
X149949999Y-102397999D01*
X145464601Y-108011399D02*
X149949999Y-103526001D01*
X149949999Y-102397999D02*
X151011009Y-101336989D01*
X144778601Y-108011399D02*
X145464601Y-108011399D01*
X151011009Y-101336989D02*
X159659989Y-101336989D01*
X143590000Y-109200000D02*
X144778601Y-108011399D01*
X156337000Y-110450000D02*
X163825000Y-102962000D01*
X142300000Y-110450000D02*
X156337000Y-110450000D01*
X141050000Y-109200000D02*
X142300000Y-110450000D01*
D32*
X31630000Y-49350000D02*
X30810000Y-50170000D01*
X31630000Y-40520500D02*
X31630000Y-49350000D01*
X36710000Y-64270000D02*
X36810000Y-64370000D01*
X36710000Y-40520500D02*
X36710000Y-64270000D01*
X41790000Y-49150000D02*
X42860000Y-50220000D01*
X41790000Y-40520500D02*
X41790000Y-49150000D01*
X42074000Y-83996000D02*
X42890000Y-83180000D01*
X42074000Y-93089500D02*
X42074000Y-83996000D01*
X37004000Y-69094000D02*
X36890000Y-68980000D01*
X37004000Y-93296000D02*
X37004000Y-69094000D01*
X31924000Y-84214000D02*
X30840000Y-83130000D01*
X31924000Y-93079500D02*
X31924000Y-84214000D01*
X31914000Y-93089500D02*
X31924000Y-93079500D01*
D30*
X63080000Y-59490000D02*
X67170998Y-59490000D01*
X67170998Y-59490000D02*
X68310998Y-58350000D01*
X68310998Y-58350000D02*
X73330000Y-58350000D01*
X68900000Y-79820000D02*
X71779998Y-79820000D01*
X71779998Y-79820000D02*
X73329998Y-78270000D01*
X67385722Y-76140000D02*
X68525722Y-77280000D01*
X58740000Y-76140000D02*
X67385722Y-76140000D01*
X68525722Y-77280000D02*
X68900000Y-77280000D01*
X67570000Y-44518002D02*
X67508003Y-44579999D01*
X67570000Y-40510000D02*
X67570000Y-44518002D01*
X58319999Y-45750001D02*
X57920000Y-46150000D01*
X67508003Y-44579999D02*
X59490001Y-44579999D01*
X68900000Y-39180000D02*
X67570000Y-40510000D01*
X59490001Y-44579999D02*
X58319999Y-45750001D01*
X63080000Y-56950000D02*
X64140001Y-58010001D01*
X64140001Y-58010001D02*
X70399999Y-58010001D01*
X70399999Y-58010001D02*
X70680000Y-57730000D01*
X61590001Y-55899999D02*
X69394001Y-55899999D01*
X60540000Y-56950000D02*
X61590001Y-55899999D01*
X69904012Y-56410010D02*
X88410000Y-56410010D01*
X69394001Y-55899999D02*
X69904012Y-56410010D01*
X94300000Y-79820000D02*
X83521384Y-79820000D01*
X83521384Y-79820000D02*
X83441816Y-79899568D01*
X83432738Y-55470001D02*
X83632737Y-55670000D01*
X63080000Y-54410000D02*
X64140001Y-55470001D01*
X64140001Y-55470001D02*
X83432738Y-55470001D01*
X94300000Y-82360000D02*
X83970000Y-82360000D01*
X83970000Y-82360000D02*
X82980000Y-81370000D01*
X61875021Y-53074979D02*
X82485021Y-53074979D01*
X82485021Y-53074979D02*
X82730000Y-52830000D01*
X60540000Y-54410000D02*
X61875021Y-53074979D01*
X65729999Y-66060001D02*
X65420000Y-66370000D01*
X73788015Y-66060001D02*
X65729999Y-66060001D01*
X74848014Y-67120000D02*
X73788015Y-66060001D01*
X94300000Y-67120000D02*
X74848014Y-67120000D01*
X90644716Y-47900002D02*
X93199998Y-47900002D01*
X64429998Y-47980002D02*
X75774370Y-47980002D01*
X88249989Y-48470011D02*
X88781641Y-47938359D01*
X88781641Y-47938359D02*
X90606359Y-47938359D01*
X76264379Y-48470011D02*
X88249989Y-48470011D01*
X75774370Y-47980002D02*
X76264379Y-48470011D01*
X90606359Y-47938359D02*
X90644716Y-47900002D01*
X63080000Y-49330000D02*
X64429998Y-47980002D01*
X93199998Y-47900002D02*
X93450001Y-47649999D01*
X93450001Y-47649999D02*
X94300000Y-46800000D01*
X94300000Y-72200000D02*
X89129998Y-72200000D01*
X89139978Y-48770022D02*
X89140000Y-48770000D01*
X76140111Y-48770022D02*
X89139978Y-48770022D01*
X60540000Y-49330000D02*
X61590001Y-50380001D01*
X61590001Y-50380001D02*
X63584001Y-50380001D01*
X75660088Y-48289999D02*
X76140111Y-48770022D01*
X63584001Y-50380001D02*
X65674003Y-48289999D01*
X65674003Y-48289999D02*
X75660088Y-48289999D01*
X69528269Y-45449988D02*
X68271731Y-45449988D01*
X66931719Y-46790000D02*
X64282081Y-46790000D01*
X70920550Y-46842269D02*
X69528269Y-45449988D01*
X77034552Y-46842269D02*
X70920550Y-46842269D01*
X77957295Y-47765012D02*
X77034552Y-46842269D01*
X64282081Y-46790000D02*
X63080000Y-46790000D01*
X79672990Y-47765012D02*
X77957295Y-47765012D01*
X80778003Y-46659999D02*
X79672990Y-47765012D01*
X91900001Y-46659999D02*
X80778003Y-46659999D01*
X68271731Y-45449988D02*
X66931719Y-46790000D01*
X94300000Y-44260000D02*
X91900001Y-46659999D01*
X94300000Y-69660000D02*
X90360000Y-69660000D01*
X90360000Y-69660000D02*
X90350000Y-69670000D01*
X68424280Y-45749999D02*
X69404001Y-45749999D01*
X70870540Y-47216538D02*
X76984542Y-47216538D01*
X64134277Y-47840001D02*
X64884267Y-47090011D01*
X64884267Y-47090011D02*
X67084268Y-47090011D01*
X76984542Y-47216538D02*
X77938004Y-48170000D01*
X77938004Y-48170000D02*
X88125722Y-48170000D01*
X67084268Y-47090011D02*
X68424280Y-45749999D01*
X60540000Y-46790000D02*
X61590001Y-47840001D01*
X88125722Y-48170000D02*
X88985722Y-47310000D01*
X61590001Y-47840001D02*
X64134277Y-47840001D01*
X69404001Y-45749999D02*
X70870540Y-47216538D01*
X88985722Y-47310000D02*
X90030000Y-47310000D01*
X93350000Y-91210000D02*
X94940000Y-91210000D01*
X92430000Y-90290000D02*
X93350000Y-91210000D01*
X94940000Y-88670000D02*
X93585024Y-88670000D01*
X93585024Y-88670000D02*
X92175000Y-87259976D01*
X88650000Y-85301998D02*
X88650000Y-85300000D01*
X90607978Y-87259976D02*
X88650000Y-85301998D01*
X92175000Y-87259976D02*
X90607978Y-87259976D01*
X92170000Y-85360000D02*
X92200000Y-85330000D01*
X92015000Y-85360000D02*
X92170000Y-85360000D01*
X94920000Y-86110000D02*
X94940000Y-86130000D01*
X81770000Y-87450000D02*
X83020000Y-86200000D01*
X79840000Y-87450000D02*
X81770000Y-87450000D01*
X79530000Y-87140000D02*
X79840000Y-87450000D01*
X79530000Y-86190000D02*
X79530000Y-87140000D01*
X106010000Y-68360000D02*
X105920000Y-68450000D01*
X106010000Y-67410000D02*
X106010000Y-68360000D01*
X98230000Y-68450000D02*
X98220000Y-68460000D01*
X105920000Y-68450000D02*
X98230000Y-68450000D01*
X105560000Y-77651998D02*
X105560000Y-78720000D01*
X103868002Y-75960000D02*
X105560000Y-77651998D01*
X101550000Y-75960000D02*
X103868002Y-75960000D01*
X97560000Y-88750000D02*
X97480000Y-88670000D01*
X100290000Y-88750000D02*
X97560000Y-88750000D01*
X90405000Y-85360000D02*
X90375000Y-85330000D01*
X90565000Y-85360000D02*
X90405000Y-85360000D01*
X101855000Y-86200000D02*
X101992500Y-86200000D01*
X90300000Y-87840000D02*
X90280000Y-87820000D01*
X90405000Y-87840000D02*
X90300000Y-87840000D01*
X87200000Y-85725000D02*
X88735000Y-87260000D01*
X87200000Y-85300000D02*
X87200000Y-85725000D01*
X101740000Y-88740000D02*
X102070000Y-88740000D01*
X80180000Y-92680000D02*
X81880000Y-92680000D01*
X79530000Y-93330000D02*
X80180000Y-92680000D01*
X81880000Y-92680000D02*
X83020000Y-93820000D01*
X79530000Y-93830000D02*
X79530000Y-93330000D01*
X79530010Y-90329990D02*
X79530000Y-90330000D01*
X82069990Y-90329990D02*
X79530010Y-90329990D01*
X79530000Y-90330000D02*
X79530000Y-91280000D01*
X83020000Y-91280000D02*
X82069990Y-90329990D01*
X84384315Y-88740000D02*
X83020000Y-88740000D01*
X91054315Y-95410000D02*
X84384315Y-88740000D01*
X91620000Y-95410000D02*
X91054315Y-95410000D01*
X81860000Y-89930000D02*
X83050000Y-88740000D01*
X80260364Y-89930000D02*
X81860000Y-89930000D01*
X79530000Y-89199636D02*
X80260364Y-89930000D01*
X79530000Y-88740000D02*
X79530000Y-89199636D01*
X100929990Y-60710010D02*
X99870000Y-61770000D01*
X106009990Y-60710010D02*
X100929990Y-60710010D01*
X106010000Y-60710000D02*
X106009990Y-60710010D01*
X106010000Y-59760000D02*
X106010000Y-60710000D01*
X105550000Y-63720000D02*
X99240000Y-63720000D01*
X106010000Y-63260000D02*
X105550000Y-63720000D01*
X106010000Y-62310000D02*
X106010000Y-63260000D01*
X100949999Y-78250001D02*
X100480000Y-78720000D01*
X100949999Y-74020001D02*
X100949999Y-78250001D01*
X101550000Y-73420000D02*
X100949999Y-74020001D01*
X103803460Y-66430000D02*
X98820002Y-66430000D01*
X106010000Y-64860000D02*
X106010000Y-65810000D01*
X104423450Y-65810010D02*
X103803460Y-66430000D01*
X106010000Y-65810000D02*
X106009990Y-65810010D01*
X106009990Y-65810010D02*
X104423450Y-65810010D01*
X109280000Y-68950000D02*
X109260000Y-68950000D01*
X113279999Y-72949999D02*
X109280000Y-68950000D01*
X117229999Y-72949999D02*
X113279999Y-72949999D01*
X118280000Y-74000000D02*
X117229999Y-72949999D01*
X112826583Y-61973417D02*
X112910000Y-61890000D01*
X109024980Y-61973417D02*
X112826583Y-61973417D01*
X113169998Y-60790000D02*
X108970000Y-60790000D01*
X117200000Y-62189999D02*
X117039998Y-62350001D01*
X114729999Y-62350001D02*
X113169998Y-60790000D01*
X117039998Y-62350001D02*
X114729999Y-62350001D01*
X113050000Y-71460000D02*
X115740000Y-71460000D01*
X109280000Y-67690000D02*
X113050000Y-71460000D01*
X113346219Y-65310010D02*
X113182386Y-65473843D01*
X117210010Y-65310010D02*
X113346219Y-65310010D01*
X118280000Y-66380000D02*
X117210010Y-65310010D01*
X115740000Y-66380000D02*
X113180002Y-66380000D01*
X113180002Y-66380000D02*
X113170002Y-66390000D01*
X117229999Y-62789999D02*
X118280000Y-63840000D01*
X112650001Y-62789999D02*
X117229999Y-62789999D01*
X110950000Y-64490000D02*
X112650001Y-62789999D01*
X110910000Y-65610000D02*
X112680000Y-63840000D01*
X112680000Y-63840000D02*
X115740000Y-63840000D01*
X110950000Y-66534315D02*
X112610473Y-64873842D01*
X110950000Y-67100000D02*
X110950000Y-66534315D01*
X113470387Y-64873842D02*
X113486546Y-64890001D01*
X113486546Y-64890001D02*
X118784001Y-64890001D01*
X119330001Y-64344001D02*
X119330001Y-62350001D01*
X118784001Y-64890001D02*
X119330001Y-64344001D01*
X112610473Y-64873842D02*
X113470387Y-64873842D01*
X119330001Y-62350001D02*
X118280000Y-61300000D01*
X106010000Y-70242860D02*
X106010000Y-69960000D01*
X107127140Y-71360000D02*
X106010000Y-70242860D01*
X108090000Y-71360000D02*
X107127140Y-71360000D01*
X110150000Y-73420000D02*
X108090000Y-71360000D01*
X106010000Y-73460000D02*
X106010000Y-72510000D01*
X106310000Y-73760000D02*
X106010000Y-73460000D01*
X109210000Y-73760000D02*
X106310000Y-73760000D01*
X110130000Y-74680000D02*
X109210000Y-73760000D01*
X106010000Y-75342860D02*
X106010000Y-75060000D01*
X107017139Y-76349999D02*
X106010000Y-75342860D01*
X109790001Y-76349999D02*
X107017139Y-76349999D01*
X110190000Y-75950000D02*
X109790001Y-76349999D01*
X95880000Y-65800000D02*
X95650000Y-66030000D01*
X101550000Y-65800000D02*
X95880000Y-65800000D01*
X118280000Y-76540000D02*
X117229999Y-77590001D01*
X117229999Y-77590001D02*
X115114278Y-77590001D01*
X107442609Y-78590002D02*
X107232420Y-78379813D01*
X115114278Y-77590001D02*
X114114277Y-78590002D01*
X114114277Y-78590002D02*
X107442609Y-78590002D01*
X92640000Y-66210000D02*
X92690000Y-66260000D01*
X92640000Y-66030000D02*
X92640000Y-66210000D01*
X95650000Y-66030000D02*
X92640000Y-66030000D01*
X61780000Y-71490000D02*
X61429999Y-71139999D01*
X61780000Y-72930000D02*
X61780000Y-71490000D01*
X62400011Y-73550011D02*
X61780000Y-72930000D01*
X70164015Y-74450013D02*
X69264014Y-73550012D01*
X87088003Y-74450013D02*
X70164015Y-74450013D01*
X61429999Y-71139999D02*
X50399999Y-71139999D01*
X87488016Y-74050000D02*
X87088003Y-74450013D01*
X50399999Y-71139999D02*
X49770000Y-70510000D01*
X69264014Y-73550012D02*
X62400011Y-73550011D01*
X92690000Y-74050000D02*
X87488016Y-74050000D01*
X114350000Y-77930000D02*
X108020000Y-77930000D01*
X115740000Y-76540000D02*
X114350000Y-77930000D01*
X50619999Y-68819999D02*
X49770000Y-67970000D01*
X52560000Y-70760000D02*
X50619999Y-68819999D01*
X61510000Y-70760000D02*
X52560000Y-70760000D01*
X61840000Y-71090000D02*
X61510000Y-70760000D01*
X91880000Y-71090000D02*
X61840000Y-71090000D01*
X101550000Y-64530000D02*
X96691996Y-64530000D01*
X96691996Y-64530000D02*
X95571996Y-65650000D01*
X95571996Y-65650000D02*
X91860000Y-65650000D01*
X104549999Y-79770001D02*
X104170000Y-79390002D01*
X104170000Y-79390002D02*
X104170000Y-77150000D01*
X75109989Y-78630011D02*
X74060000Y-79680000D01*
X96296009Y-78630011D02*
X75109989Y-78630011D01*
X104549999Y-79770001D02*
X97435999Y-79770001D01*
X97435999Y-79770001D02*
X96296009Y-78630011D01*
X106570001Y-79770001D02*
X104549999Y-79770001D01*
X106610001Y-79730001D02*
X106570001Y-79770001D01*
X106610001Y-79261646D02*
X106610001Y-79730001D01*
X106891822Y-78979825D02*
X106610001Y-79261646D01*
X107467826Y-78979825D02*
X106891822Y-78979825D01*
X117229999Y-78029999D02*
X115098558Y-78029999D01*
X107497855Y-79009854D02*
X107467826Y-78979825D01*
X118280000Y-79080000D02*
X117229999Y-78029999D01*
X114148555Y-78980002D02*
X107527707Y-78980002D01*
X115098558Y-78029999D02*
X114148555Y-78980002D01*
X107527707Y-78980002D02*
X107497855Y-79009854D01*
X96520001Y-82310001D02*
X107100000Y-82310001D01*
X107210011Y-82199990D02*
X107210011Y-79579835D01*
X82095685Y-79650000D02*
X83315686Y-80870001D01*
X95080001Y-80870001D02*
X96520001Y-82310001D01*
X83315686Y-80870001D02*
X95080001Y-80870001D01*
X75310000Y-79650000D02*
X82095685Y-79650000D01*
X107217476Y-79587300D02*
X107210011Y-79579835D01*
X115740000Y-79080000D02*
X114537919Y-79080000D01*
X107100000Y-82310001D02*
X107210011Y-82199990D01*
X114030619Y-79587300D02*
X107217476Y-79587300D01*
X114537919Y-79080000D02*
X114030619Y-79587300D01*
X102870010Y-40694268D02*
X102782139Y-40782139D01*
X102870010Y-39289990D02*
X102870010Y-40694268D01*
X105762850Y-38259990D02*
X103900010Y-38259990D01*
X106430000Y-38927140D02*
X105762850Y-38259990D01*
X103900010Y-38259990D02*
X102870010Y-39289990D01*
X106430000Y-39210000D02*
X106430000Y-38927140D01*
X101517879Y-44173601D02*
X100454278Y-43110000D01*
X100454278Y-43110000D02*
X100030000Y-43110000D01*
X103080529Y-44173601D02*
X101517879Y-44173601D01*
X105662860Y-42810000D02*
X104444130Y-42810000D01*
X104444130Y-42810000D02*
X103080529Y-44173601D01*
X106430000Y-42042860D02*
X105662860Y-42810000D01*
X106430000Y-41760000D02*
X106430000Y-42042860D01*
X106460000Y-44310000D02*
X106480000Y-44290000D01*
X106430000Y-44310000D02*
X106460000Y-44310000D01*
X108990010Y-47820010D02*
X112179990Y-47820010D01*
X112179990Y-47820010D02*
X114530000Y-45470000D01*
X108990000Y-47820000D02*
X108990010Y-47820010D01*
X108990000Y-46870000D02*
X108990000Y-47820000D01*
X114080000Y-48460000D02*
X114530000Y-48010000D01*
X108970000Y-49147140D02*
X109657140Y-48460000D01*
X109657140Y-48460000D02*
X114080000Y-48460000D01*
X108970000Y-49430000D02*
X108970000Y-49147140D01*
X114080000Y-51000000D02*
X114530000Y-50550000D01*
X109020000Y-51000000D02*
X114080000Y-51000000D01*
X108950000Y-51070000D02*
X109020000Y-51000000D01*
X108950000Y-52020000D02*
X108950000Y-51070000D01*
X106430000Y-36660000D02*
X106430000Y-37610000D01*
X106430000Y-37610000D02*
X106429990Y-37610010D01*
X106429990Y-37610010D02*
X103667994Y-37610010D01*
X103667994Y-37610010D02*
X100708004Y-40570000D01*
X100708004Y-40570000D02*
X100030000Y-40570000D01*
X106430000Y-37610000D02*
X106430010Y-37610010D01*
X106430010Y-37610010D02*
X108959990Y-37610010D01*
X108959990Y-37610010D02*
X109900000Y-36670000D01*
X66290000Y-37810000D02*
X65960000Y-38140000D01*
X69670000Y-37810000D02*
X66290000Y-37810000D01*
X70590000Y-38730000D02*
X69670000Y-37810000D01*
X117070000Y-40390000D02*
X116006399Y-41453601D01*
X116006399Y-41453601D02*
X113506399Y-41453601D01*
X113506399Y-41453601D02*
X112642809Y-40590011D01*
X112642809Y-40590011D02*
X104837728Y-40590011D01*
X70590000Y-43691520D02*
X70590000Y-38730000D01*
X104837728Y-40590011D02*
X103487729Y-41940010D01*
X103487729Y-41940010D02*
X96639990Y-41940010D01*
X96639990Y-41940010D02*
X96610000Y-41970000D01*
X96610000Y-41970000D02*
X96508000Y-41970000D01*
X96508000Y-41970000D02*
X95707999Y-42770001D01*
X71948480Y-45050000D02*
X70590000Y-43691520D01*
X95707999Y-42770001D02*
X93530765Y-42770001D01*
X91250765Y-45050000D02*
X71948480Y-45050000D01*
X93530765Y-42770001D02*
X91250765Y-45050000D01*
X63689989Y-39140011D02*
X63689989Y-41135711D01*
X64690000Y-38140000D02*
X63689989Y-39140011D01*
X63689989Y-41135711D02*
X64734241Y-42179963D01*
X64734241Y-42179963D02*
X66969990Y-42179963D01*
X114019471Y-43993601D02*
X113135880Y-43110010D01*
X104568398Y-43110010D02*
X103198408Y-44480000D01*
X97270000Y-44480000D02*
X95780000Y-45970000D01*
X116006399Y-43993601D02*
X114019471Y-43993601D01*
X113135880Y-43110010D02*
X104568398Y-43110010D01*
X117070000Y-42930000D02*
X116006399Y-43993601D01*
X103198408Y-44480000D02*
X97270000Y-44480000D01*
X67240001Y-38129999D02*
X65960000Y-39410000D01*
X70250010Y-38976008D02*
X69404001Y-38129999D01*
X70250010Y-43775808D02*
X70250010Y-38976008D01*
X69404001Y-38129999D02*
X67240001Y-38129999D01*
X71824211Y-45350009D02*
X70250010Y-43775808D01*
X91799284Y-45350010D02*
X71824211Y-45350009D01*
X92464647Y-44684647D02*
X91799284Y-45350010D01*
X116006399Y-44406399D02*
X114019471Y-44406399D01*
X114019471Y-44406399D02*
X112955870Y-45470000D01*
X117070000Y-45470000D02*
X116006399Y-44406399D01*
X112955870Y-45470000D02*
X104324130Y-45470000D01*
X98490000Y-48155870D02*
X98490000Y-48400000D01*
X99519471Y-47126399D02*
X98490000Y-48155870D01*
X102667731Y-47126399D02*
X99519471Y-47126399D01*
X104324130Y-45470000D02*
X102667731Y-47126399D01*
X91310001Y-52930001D02*
X91290000Y-52910000D01*
X103481459Y-52930001D02*
X91310001Y-52930001D01*
X105711470Y-50699990D02*
X103481459Y-52930001D01*
X111753601Y-49486399D02*
X110540010Y-50699990D01*
X115593601Y-49486399D02*
X111753601Y-49486399D01*
X110540010Y-50699990D02*
X105711470Y-50699990D01*
X117070000Y-48010000D02*
X115593601Y-49486399D01*
X63990000Y-41011444D02*
X64658505Y-41679949D01*
X64690000Y-39410000D02*
X63990000Y-40110000D01*
X63990000Y-40110000D02*
X63990000Y-41011444D01*
X64658505Y-41679949D02*
X66569991Y-41679949D01*
X66569991Y-41679949D02*
X66969990Y-41279950D01*
X92269989Y-53230011D02*
X91680000Y-53820000D01*
X111449989Y-53230011D02*
X92269989Y-53230011D01*
X113066399Y-51613601D02*
X111449989Y-53230011D01*
X116006399Y-51613601D02*
X113066399Y-51613601D01*
X117070000Y-50550000D02*
X116006399Y-51613601D01*
X65209976Y-43079976D02*
X66969990Y-43079976D01*
X64690000Y-36870000D02*
X63380000Y-38180000D01*
X63380000Y-38180000D02*
X63380000Y-41250000D01*
X63380000Y-41250000D02*
X65209976Y-43079976D01*
X113990000Y-53630000D02*
X114530000Y-53090000D01*
X108960000Y-53630000D02*
X113990000Y-53630000D01*
X108940000Y-53650000D02*
X108960000Y-53630000D01*
X108940000Y-54600000D02*
X108940000Y-53650000D01*
X108940000Y-54600000D02*
X108940000Y-57638004D01*
X108438002Y-58140002D02*
X91536708Y-58140002D01*
X108940000Y-57638004D02*
X108438002Y-58140002D01*
X91536708Y-58140002D02*
X90966706Y-57570000D01*
X88475698Y-58440013D02*
X88355685Y-58320000D01*
X117070000Y-53090000D02*
X111719987Y-58440013D01*
X111719987Y-58440013D02*
X88475698Y-58440013D01*
X88355685Y-58320000D02*
X87790000Y-58320000D01*
M02*
