%FSLAX45Y45*%
G04 Gerber Fmt 4.5, Leading zero omitted, Abs format (unit mm)*
G04 Created by KiCad (PCBNEW (5.1.9)-1) date 2021-01-19 07:45:16*
%MOMM*%
%LPD*%
G01*
G04 APERTURE LIST*
%TA.AperFunction,Profile*%
%ADD10C,0.050000*%
%TD*%
%ADD11C,0.200000*%
%ADD12C,0.300000*%
G04 APERTURE END LIST*
D10*
X5500000Y-9820000D02*
X5500000Y-13720000D01*
X2490000Y-9820000D02*
X5500000Y-9820000D01*
X5300000Y-9020000D02*
X5300000Y-9610000D01*
X5300000Y-9020000D02*
G75*
G02*
X5500000Y-9020000I100000J0D01*
G01*
X5500000Y-9610000D02*
G75*
G02*
X5300000Y-9610000I-100000J0D01*
G01*
X5500000Y-9020000D02*
X5500000Y-9610000D01*
X5500000Y-6350000D02*
X5500000Y-6940000D01*
X5500000Y-7240000D02*
X5500000Y-7830000D01*
X5300000Y-5460000D02*
X5300000Y-6050000D01*
X5500000Y-6940000D02*
G75*
G02*
X5300000Y-6940000I-100000J0D01*
G01*
X5300000Y-6350000D02*
X5300000Y-6940000D01*
X5300000Y-6350000D02*
G75*
G02*
X5500000Y-6350000I100000J0D01*
G01*
X5500000Y-7830000D02*
G75*
G02*
X5300000Y-7830000I-100000J0D01*
G01*
X5500000Y-8130000D02*
X5500000Y-8720000D01*
X5500000Y-6050000D02*
G75*
G02*
X5300000Y-6050000I-100000J0D01*
G01*
X5300000Y-7240000D02*
X5300000Y-7830000D01*
X5300000Y-7240000D02*
G75*
G02*
X5500000Y-7240000I100000J0D01*
G01*
X5300000Y-5460000D02*
G75*
G02*
X5500000Y-5460000I100000J0D01*
G01*
X5300000Y-4570000D02*
G75*
G02*
X5500000Y-4570000I100000J0D01*
G01*
X5500000Y-4270000D02*
G75*
G02*
X5300000Y-4270000I-100000J0D01*
G01*
X5500000Y-3680000D02*
X5500000Y-4270000D01*
X5500000Y-5160000D02*
G75*
G02*
X5300000Y-5160000I-100000J0D01*
G01*
X5300000Y-4570000D02*
X5300000Y-5160000D01*
X5500000Y-4570000D02*
X5500000Y-5160000D01*
X5300000Y-3680000D02*
G75*
G02*
X5500000Y-3680000I100000J0D01*
G01*
X5500000Y-5460000D02*
X5500000Y-6050000D01*
X5300000Y-3680000D02*
X5300000Y-4270000D01*
X5300000Y-8130000D02*
X5300000Y-8720000D01*
X5500000Y-8720000D02*
G75*
G02*
X5300000Y-8720000I-100000J0D01*
G01*
X5300000Y-8130000D02*
G75*
G02*
X5500000Y-8130000I100000J0D01*
G01*
X2490000Y-3480000D02*
X2490000Y-9820000D01*
X12310000Y-3680000D02*
X12310000Y-4270000D01*
X12310000Y-4570000D02*
X12310000Y-5160000D01*
X12110000Y-4570000D02*
X12110000Y-5160000D01*
X12310000Y-5160000D02*
G75*
G02*
X12110000Y-5160000I-100000J0D01*
G01*
X12110000Y-3680000D02*
G75*
G02*
X12310000Y-3680000I100000J0D01*
G01*
X12310000Y-4270000D02*
G75*
G02*
X12110000Y-4270000I-100000J0D01*
G01*
X12110000Y-4570000D02*
G75*
G02*
X12310000Y-4570000I100000J0D01*
G01*
X12110000Y-3680000D02*
X12110000Y-4270000D01*
X12310000Y-5460000D02*
X12310000Y-6050000D01*
X12110000Y-5460000D02*
G75*
G02*
X12310000Y-5460000I100000J0D01*
G01*
X12110000Y-5460000D02*
X12110000Y-6050000D01*
X12310000Y-6050000D02*
G75*
G02*
X12110000Y-6050000I-100000J0D01*
G01*
X12310000Y-6350000D02*
X12310000Y-6940000D01*
X12110000Y-6350000D02*
X12110000Y-6940000D01*
X12310000Y-6940000D02*
G75*
G02*
X12110000Y-6940000I-100000J0D01*
G01*
X12110000Y-6350000D02*
G75*
G02*
X12310000Y-6350000I100000J0D01*
G01*
X12310000Y-7240000D02*
X12310000Y-7830000D01*
X12110000Y-7240000D02*
G75*
G02*
X12310000Y-7240000I100000J0D01*
G01*
X12110000Y-7240000D02*
X12110000Y-7830000D01*
X12310000Y-7830000D02*
G75*
G02*
X12110000Y-7830000I-100000J0D01*
G01*
X12310000Y-8130000D02*
X12310000Y-8720000D01*
X12110000Y-8130000D02*
G75*
G02*
X12310000Y-8130000I100000J0D01*
G01*
X12110000Y-8130000D02*
X12110000Y-8720000D01*
X12310000Y-8720000D02*
G75*
G02*
X12110000Y-8720000I-100000J0D01*
G01*
X8800000Y-9810000D02*
X8220000Y-9810000D01*
X8800000Y-9810000D02*
G75*
G02*
X8800000Y-10010000I0J-100000D01*
G01*
X8220000Y-10010000D02*
G75*
G02*
X8220000Y-9810000I0J100000D01*
G01*
X8800000Y-10010000D02*
X8220000Y-10010000D01*
X10690000Y-9810000D02*
X12800000Y-9810000D01*
X13475000Y-11610000D02*
X12800000Y-11130000D01*
X10690000Y-9810000D02*
X10690000Y-13720000D01*
X12800000Y-11130000D02*
X12800000Y-9810000D01*
X9010000Y-3780000D02*
X9310000Y-3480000D01*
X7010000Y-3480000D02*
X7310000Y-3780000D01*
X2490000Y-3480000D02*
X7010000Y-3480000D01*
X9010000Y-4250000D02*
X9010000Y-3780000D01*
X7310000Y-4250000D02*
X9010000Y-4250000D01*
X7310000Y-3780000D02*
X7310000Y-4250000D01*
X16665000Y-11130000D02*
X16005000Y-11610000D01*
X13475000Y-11610000D02*
X16005000Y-11610000D01*
X14890000Y-10010000D02*
G75*
G02*
X14890000Y-9810000I0J100000D01*
G01*
X16470000Y-9810000D02*
G75*
G02*
X16470000Y-10010000I0J-100000D01*
G01*
X16470000Y-10010000D02*
X14890000Y-10010000D01*
X16470000Y-9810000D02*
X14890000Y-9810000D01*
X14580000Y-9810000D02*
G75*
G02*
X14580000Y-10010000I0J-100000D01*
G01*
X13000000Y-10010000D02*
G75*
G02*
X13000000Y-9810000I0J100000D01*
G01*
X14580000Y-9810000D02*
X13000000Y-9810000D01*
X14580000Y-10010000D02*
X13000000Y-10010000D01*
X16665000Y-11130000D02*
X16665000Y-10005000D01*
X10690000Y-3480000D02*
X16665000Y-3480000D01*
X16665000Y-3480000D02*
X16665000Y-10005000D01*
X9310000Y-3480000D02*
X10690000Y-3480000D01*
X10690000Y-13720000D02*
X5500000Y-13720000D01*
X6160000Y-9820000D02*
X5700000Y-9820000D01*
X6975000Y-10015000D02*
X6475000Y-10015000D01*
X5700000Y-10020000D02*
G75*
G02*
X5700000Y-9820000I0J100000D01*
G01*
X6160000Y-9820000D02*
G75*
G02*
X6160000Y-10020000I0J-100000D01*
G01*
X6160000Y-10020000D02*
X5700000Y-10020000D01*
X6975000Y-9815000D02*
X6475000Y-9815000D01*
X6975000Y-9815000D02*
G75*
G02*
X6975000Y-10015000I0J-100000D01*
G01*
X6475000Y-10015000D02*
G75*
G02*
X6475000Y-9815000I0J100000D01*
G01*
X7870000Y-9805000D02*
G75*
G02*
X7870000Y-10005000I0J-100000D01*
G01*
X10400000Y-9810000D02*
G75*
G02*
X10400000Y-10010000I0J-100000D01*
G01*
X10400000Y-9810000D02*
X9900000Y-9810000D01*
X9100000Y-10010000D02*
G75*
G02*
X9100000Y-9810000I0J100000D01*
G01*
X7870000Y-9805000D02*
X7300000Y-9805000D01*
X9900000Y-10010000D02*
G75*
G02*
X9900000Y-9810000I0J100000D01*
G01*
X7300000Y-10005000D02*
G75*
G02*
X7300000Y-9805000I0J100000D01*
G01*
X9600000Y-9810000D02*
G75*
G02*
X9600000Y-10010000I0J-100000D01*
G01*
X9600000Y-9810000D02*
X9100000Y-9810000D01*
X7870000Y-10005000D02*
X7300000Y-10005000D01*
X9600000Y-10010000D02*
X9100000Y-10010000D01*
X10400000Y-10010000D02*
X9900000Y-10010000D01*
X12310000Y-9020000D02*
X12310000Y-9610000D01*
X12110000Y-9020000D02*
X12110000Y-9610000D01*
X12310000Y-9610000D02*
G75*
G02*
X12110000Y-9610000I-100000J0D01*
G01*
X12110000Y-9020000D02*
G75*
G02*
X12310000Y-9020000I100000J0D01*
G01*
D11*
X6460000Y-4410000D02*
X6500000Y-4450000D01*
X6500000Y-4410000D02*
X6460000Y-4450000D01*
X6499000Y-4528000D02*
X6539000Y-4568000D01*
X6539000Y-4528000D02*
X6499000Y-4568000D01*
X6616000Y-6635000D02*
X6656000Y-6675000D01*
X6656000Y-6635000D02*
X6616000Y-6675000D01*
X6643000Y-5883000D02*
X6683000Y-5923000D01*
X6683000Y-5883000D02*
X6643000Y-5923000D01*
X6670000Y-4759000D02*
X6710000Y-4799000D01*
X6710000Y-4759000D02*
X6670000Y-4799000D01*
X6689000Y-7390000D02*
X6729000Y-7430000D01*
X6729000Y-7390000D02*
X6689000Y-7430000D01*
X6690000Y-9570000D02*
X6730000Y-9610000D01*
X6730000Y-9570000D02*
X6690000Y-9610000D01*
X6696000Y-6909000D02*
X6736000Y-6949000D01*
X6736000Y-6909000D02*
X6696000Y-6949000D01*
X6706000Y-7155000D02*
X6746000Y-7195000D01*
X6746000Y-7155000D02*
X6706000Y-7195000D01*
X6720086Y-4649086D02*
X6760086Y-4689086D01*
X6760086Y-4649086D02*
X6720086Y-4689086D01*
X6721000Y-5960000D02*
X6761000Y-6000000D01*
X6761000Y-5960000D02*
X6721000Y-6000000D01*
X7048000Y-7396000D02*
X7088000Y-7436000D01*
X7088000Y-7396000D02*
X7048000Y-7436000D01*
X7068000Y-6625000D02*
X7108000Y-6665000D01*
X7108000Y-6625000D02*
X7068000Y-6665000D01*
X7110000Y-7158000D02*
X7150000Y-7198000D01*
X7150000Y-7158000D02*
X7110000Y-7198000D01*
X7154000Y-6308000D02*
X7194000Y-6348000D01*
X7194000Y-6308000D02*
X7154000Y-6348000D01*
X7210000Y-7700000D02*
X7250000Y-7740000D01*
X7250000Y-7700000D02*
X7210000Y-7740000D01*
X7211000Y-6059000D02*
X7251000Y-6099000D01*
X7251000Y-6059000D02*
X7211000Y-6099000D01*
X7220000Y-5680000D02*
X7260000Y-5720000D01*
X7260000Y-5680000D02*
X7220000Y-5720000D01*
X7430000Y-5770000D02*
X7470000Y-5810000D01*
X7470000Y-5770000D02*
X7430000Y-5810000D01*
X7668000Y-6308000D02*
X7708000Y-6348000D01*
X7708000Y-6308000D02*
X7668000Y-6348000D01*
X7809000Y-6187000D02*
X7849000Y-6227000D01*
X7849000Y-6187000D02*
X7809000Y-6227000D01*
X7931000Y-7953000D02*
X7971000Y-7993000D01*
X7971000Y-7953000D02*
X7931000Y-7993000D01*
X7980001Y-9660000D02*
X8020001Y-9700000D01*
X8020001Y-9660000D02*
X7980001Y-9700000D01*
X8052000Y-6439000D02*
X8092000Y-6479000D01*
X8092000Y-6439000D02*
X8052000Y-6479000D01*
X8180000Y-5930000D02*
X8220000Y-5970000D01*
X8220000Y-5930000D02*
X8180000Y-5970000D01*
X8950000Y-6815000D02*
X8990000Y-6855000D01*
X8990000Y-6815000D02*
X8950000Y-6855000D01*
X8950000Y-8800000D02*
X8990000Y-8840000D01*
X8990000Y-8800000D02*
X8950000Y-8840000D01*
X9023051Y-7094051D02*
X9063051Y-7134051D01*
X9063051Y-7094051D02*
X9023051Y-7134051D01*
X9110156Y-7143172D02*
X9150156Y-7183172D01*
X9150156Y-7143172D02*
X9110156Y-7183172D01*
X9680501Y-7200000D02*
X9720501Y-7240000D01*
X9720501Y-7200000D02*
X9680501Y-7240000D01*
X9730000Y-6180000D02*
X9770000Y-6220000D01*
X9770000Y-6180000D02*
X9730000Y-6220000D01*
X10237502Y-6720000D02*
X10277502Y-6760000D01*
X10277502Y-6720000D02*
X10237502Y-6760000D01*
X10270000Y-5430000D02*
X10310000Y-5470000D01*
X10310000Y-5430000D02*
X10270000Y-5470000D01*
X11390000Y-7780000D02*
X11430000Y-7820000D01*
X11430000Y-7780000D02*
X11390000Y-7820000D01*
X6205000Y-11395000D02*
G75*
G03*
X6205000Y-11395000I-35000J0D01*
G01*
X6205000Y-11903000D02*
G75*
G03*
X6205000Y-11903000I-35000J0D01*
G01*
X7733000Y-8570000D02*
G75*
G03*
X7733000Y-8570000I-35000J0D01*
G01*
X8495000Y-8570000D02*
G75*
G03*
X8495000Y-8570000I-35000J0D01*
G01*
X9885000Y-6875000D02*
G75*
G03*
X9885000Y-6875000I-35000J0D01*
G01*
X9885000Y-7383000D02*
G75*
G03*
X9885000Y-7383000I-35000J0D01*
G01*
X9890000Y-5880000D02*
G75*
G03*
X9890000Y-5880000I-35000J0D01*
G01*
X9890000Y-6388000D02*
G75*
G03*
X9890000Y-6388000I-35000J0D01*
G01*
X9945000Y-11410000D02*
G75*
G03*
X9945000Y-11410000I-35000J0D01*
G01*
X9945000Y-11918000D02*
G75*
G03*
X9945000Y-11918000I-35000J0D01*
G01*
X11965000Y-5882000D02*
G75*
G03*
X11965000Y-5882000I-35000J0D01*
G01*
X11965000Y-6390000D02*
G75*
G03*
X11965000Y-6390000I-35000J0D01*
G01*
X11965000Y-6890000D02*
G75*
G03*
X11965000Y-6890000I-35000J0D01*
G01*
X11965000Y-7398000D02*
G75*
G03*
X11965000Y-7398000I-35000J0D01*
G01*
X5876000Y-12507500D02*
X5876000Y-12582500D01*
X5838500Y-12545000D02*
X5913500Y-12545000D01*
X6003000Y-12507500D02*
X6003000Y-12582500D01*
X5965500Y-12545000D02*
X6040500Y-12545000D01*
X6130000Y-12507500D02*
X6130000Y-12582500D01*
X6092500Y-12545000D02*
X6167500Y-12545000D01*
X9976000Y-12542500D02*
X9976000Y-12617500D01*
X9938500Y-12580000D02*
X10013500Y-12580000D01*
X10103000Y-12542500D02*
X10103000Y-12617500D01*
X10065500Y-12580000D02*
X10140500Y-12580000D01*
X10230000Y-12542500D02*
X10230000Y-12617500D01*
X10192500Y-12580000D02*
X10267500Y-12580000D01*
X2777288Y-4538288D02*
X2777288Y-4481712D01*
X2720712Y-4481712D01*
X2720712Y-4538288D01*
X2777288Y-4538288D01*
X2777288Y-4792288D02*
X2777288Y-4735712D01*
X2720712Y-4735712D01*
X2720712Y-4792288D01*
X2777288Y-4792288D01*
X2777288Y-5046288D02*
X2777288Y-4989712D01*
X2720712Y-4989712D01*
X2720712Y-5046288D01*
X2777288Y-5046288D01*
X2777288Y-5300288D02*
X2777288Y-5243712D01*
X2720712Y-5243712D01*
X2720712Y-5300288D01*
X2777288Y-5300288D01*
X2777288Y-5554288D02*
X2777288Y-5497712D01*
X2720712Y-5497712D01*
X2720712Y-5554288D01*
X2777288Y-5554288D01*
X2777288Y-5808288D02*
X2777288Y-5751712D01*
X2720712Y-5751712D01*
X2720712Y-5808288D01*
X2777288Y-5808288D01*
X2777288Y-6062288D02*
X2777288Y-6005712D01*
X2720712Y-6005712D01*
X2720712Y-6062288D01*
X2777288Y-6062288D01*
X2777288Y-6316288D02*
X2777288Y-6259712D01*
X2720712Y-6259712D01*
X2720712Y-6316288D01*
X2777288Y-6316288D01*
X2777288Y-6570288D02*
X2777288Y-6513712D01*
X2720712Y-6513712D01*
X2720712Y-6570288D01*
X2777288Y-6570288D01*
X2777288Y-6824288D02*
X2777288Y-6767712D01*
X2720712Y-6767712D01*
X2720712Y-6824288D01*
X2777288Y-6824288D01*
X2777288Y-7078288D02*
X2777288Y-7021712D01*
X2720712Y-7021712D01*
X2720712Y-7078288D01*
X2777288Y-7078288D01*
X2777288Y-7332288D02*
X2777288Y-7275712D01*
X2720712Y-7275712D01*
X2720712Y-7332288D01*
X2777288Y-7332288D01*
X2777288Y-7586288D02*
X2777288Y-7529712D01*
X2720712Y-7529712D01*
X2720712Y-7586288D01*
X2777288Y-7586288D01*
X2777288Y-7840288D02*
X2777288Y-7783712D01*
X2720712Y-7783712D01*
X2720712Y-7840288D01*
X2777288Y-7840288D01*
X2777288Y-8094288D02*
X2777288Y-8037712D01*
X2720712Y-8037712D01*
X2720712Y-8094288D01*
X2777288Y-8094288D01*
X2777288Y-8348288D02*
X2777288Y-8291712D01*
X2720712Y-8291712D01*
X2720712Y-8348288D01*
X2777288Y-8348288D01*
X2777288Y-8602288D02*
X2777288Y-8545712D01*
X2720712Y-8545712D01*
X2720712Y-8602288D01*
X2777288Y-8602288D01*
X2777288Y-8856288D02*
X2777288Y-8799712D01*
X2720712Y-8799712D01*
X2720712Y-8856288D01*
X2777288Y-8856288D01*
X3031288Y-4538288D02*
X3031288Y-4481712D01*
X2974712Y-4481712D01*
X2974712Y-4538288D01*
X3031288Y-4538288D01*
X3031288Y-4792288D02*
X3031288Y-4735712D01*
X2974712Y-4735712D01*
X2974712Y-4792288D01*
X3031288Y-4792288D01*
X3031288Y-5046288D02*
X3031288Y-4989712D01*
X2974712Y-4989712D01*
X2974712Y-5046288D01*
X3031288Y-5046288D01*
X3031288Y-5300288D02*
X3031288Y-5243712D01*
X2974712Y-5243712D01*
X2974712Y-5300288D01*
X3031288Y-5300288D01*
X3031288Y-5554288D02*
X3031288Y-5497712D01*
X2974712Y-5497712D01*
X2974712Y-5554288D01*
X3031288Y-5554288D01*
X3031288Y-5808288D02*
X3031288Y-5751712D01*
X2974712Y-5751712D01*
X2974712Y-5808288D01*
X3031288Y-5808288D01*
X3031288Y-6062288D02*
X3031288Y-6005712D01*
X2974712Y-6005712D01*
X2974712Y-6062288D01*
X3031288Y-6062288D01*
X3031288Y-6316288D02*
X3031288Y-6259712D01*
X2974712Y-6259712D01*
X2974712Y-6316288D01*
X3031288Y-6316288D01*
X3031288Y-6570288D02*
X3031288Y-6513712D01*
X2974712Y-6513712D01*
X2974712Y-6570288D01*
X3031288Y-6570288D01*
X3031288Y-6824288D02*
X3031288Y-6767712D01*
X2974712Y-6767712D01*
X2974712Y-6824288D01*
X3031288Y-6824288D01*
X3031288Y-7078288D02*
X3031288Y-7021712D01*
X2974712Y-7021712D01*
X2974712Y-7078288D01*
X3031288Y-7078288D01*
X3031288Y-7332288D02*
X3031288Y-7275712D01*
X2974712Y-7275712D01*
X2974712Y-7332288D01*
X3031288Y-7332288D01*
X3031288Y-7586288D02*
X3031288Y-7529712D01*
X2974712Y-7529712D01*
X2974712Y-7586288D01*
X3031288Y-7586288D01*
X3031288Y-7840288D02*
X3031288Y-7783712D01*
X2974712Y-7783712D01*
X2974712Y-7840288D01*
X3031288Y-7840288D01*
X3031288Y-8094288D02*
X3031288Y-8037712D01*
X2974712Y-8037712D01*
X2974712Y-8094288D01*
X3031288Y-8094288D01*
X3031288Y-8348288D02*
X3031288Y-8291712D01*
X2974712Y-8291712D01*
X2974712Y-8348288D01*
X3031288Y-8348288D01*
X3031288Y-8602288D02*
X3031288Y-8545712D01*
X2974712Y-8545712D01*
X2974712Y-8602288D01*
X3031288Y-8602288D01*
X3031288Y-8856288D02*
X3031288Y-8799712D01*
X2974712Y-8799712D01*
X2974712Y-8856288D01*
X3031288Y-8856288D01*
X3285288Y-4538288D02*
X3285288Y-4481712D01*
X3228712Y-4481712D01*
X3228712Y-4538288D01*
X3285288Y-4538288D01*
X3285288Y-4792288D02*
X3285288Y-4735712D01*
X3228712Y-4735712D01*
X3228712Y-4792288D01*
X3285288Y-4792288D01*
X3285288Y-5046288D02*
X3285288Y-4989712D01*
X3228712Y-4989712D01*
X3228712Y-5046288D01*
X3285288Y-5046288D01*
X3285288Y-5300288D02*
X3285288Y-5243712D01*
X3228712Y-5243712D01*
X3228712Y-5300288D01*
X3285288Y-5300288D01*
X3285288Y-5554288D02*
X3285288Y-5497712D01*
X3228712Y-5497712D01*
X3228712Y-5554288D01*
X3285288Y-5554288D01*
X3285288Y-5808288D02*
X3285288Y-5751712D01*
X3228712Y-5751712D01*
X3228712Y-5808288D01*
X3285288Y-5808288D01*
X3285288Y-6062288D02*
X3285288Y-6005712D01*
X3228712Y-6005712D01*
X3228712Y-6062288D01*
X3285288Y-6062288D01*
X3285288Y-6316288D02*
X3285288Y-6259712D01*
X3228712Y-6259712D01*
X3228712Y-6316288D01*
X3285288Y-6316288D01*
X3285288Y-6570288D02*
X3285288Y-6513712D01*
X3228712Y-6513712D01*
X3228712Y-6570288D01*
X3285288Y-6570288D01*
X3285288Y-6824288D02*
X3285288Y-6767712D01*
X3228712Y-6767712D01*
X3228712Y-6824288D01*
X3285288Y-6824288D01*
X3285288Y-7078288D02*
X3285288Y-7021712D01*
X3228712Y-7021712D01*
X3228712Y-7078288D01*
X3285288Y-7078288D01*
X3285288Y-7332288D02*
X3285288Y-7275712D01*
X3228712Y-7275712D01*
X3228712Y-7332288D01*
X3285288Y-7332288D01*
X3285288Y-7586288D02*
X3285288Y-7529712D01*
X3228712Y-7529712D01*
X3228712Y-7586288D01*
X3285288Y-7586288D01*
X3285288Y-7840288D02*
X3285288Y-7783712D01*
X3228712Y-7783712D01*
X3228712Y-7840288D01*
X3285288Y-7840288D01*
X3285288Y-8094288D02*
X3285288Y-8037712D01*
X3228712Y-8037712D01*
X3228712Y-8094288D01*
X3285288Y-8094288D01*
X3285288Y-8348288D02*
X3285288Y-8291712D01*
X3228712Y-8291712D01*
X3228712Y-8348288D01*
X3285288Y-8348288D01*
X3285288Y-8602288D02*
X3285288Y-8545712D01*
X3228712Y-8545712D01*
X3228712Y-8602288D01*
X3285288Y-8602288D01*
X3285288Y-8856288D02*
X3285288Y-8799712D01*
X3228712Y-8799712D01*
X3228712Y-8856288D01*
X3285288Y-8856288D01*
X3539288Y-3733288D02*
X3539288Y-3676712D01*
X3482712Y-3676712D01*
X3482712Y-3733288D01*
X3539288Y-3733288D01*
X3539288Y-3987288D02*
X3539288Y-3930712D01*
X3482712Y-3930712D01*
X3482712Y-3987288D01*
X3539288Y-3987288D01*
X3539288Y-4241288D02*
X3539288Y-4184712D01*
X3482712Y-4184712D01*
X3482712Y-4241288D01*
X3539288Y-4241288D01*
X3539288Y-4538288D02*
X3539288Y-4481712D01*
X3482712Y-4481712D01*
X3482712Y-4538288D01*
X3539288Y-4538288D01*
X3539288Y-4792288D02*
X3539288Y-4735712D01*
X3482712Y-4735712D01*
X3482712Y-4792288D01*
X3539288Y-4792288D01*
X3539288Y-5046288D02*
X3539288Y-4989712D01*
X3482712Y-4989712D01*
X3482712Y-5046288D01*
X3539288Y-5046288D01*
X3539288Y-5300288D02*
X3539288Y-5243712D01*
X3482712Y-5243712D01*
X3482712Y-5300288D01*
X3539288Y-5300288D01*
X3539288Y-5554288D02*
X3539288Y-5497712D01*
X3482712Y-5497712D01*
X3482712Y-5554288D01*
X3539288Y-5554288D01*
X3539288Y-5808288D02*
X3539288Y-5751712D01*
X3482712Y-5751712D01*
X3482712Y-5808288D01*
X3539288Y-5808288D01*
X3539288Y-6062288D02*
X3539288Y-6005712D01*
X3482712Y-6005712D01*
X3482712Y-6062288D01*
X3539288Y-6062288D01*
X3539288Y-6316288D02*
X3539288Y-6259712D01*
X3482712Y-6259712D01*
X3482712Y-6316288D01*
X3539288Y-6316288D01*
X3539288Y-6570288D02*
X3539288Y-6513712D01*
X3482712Y-6513712D01*
X3482712Y-6570288D01*
X3539288Y-6570288D01*
X3539288Y-6824288D02*
X3539288Y-6767712D01*
X3482712Y-6767712D01*
X3482712Y-6824288D01*
X3539288Y-6824288D01*
X3539288Y-7078288D02*
X3539288Y-7021712D01*
X3482712Y-7021712D01*
X3482712Y-7078288D01*
X3539288Y-7078288D01*
X3539288Y-7332288D02*
X3539288Y-7275712D01*
X3482712Y-7275712D01*
X3482712Y-7332288D01*
X3539288Y-7332288D01*
X3539288Y-7586288D02*
X3539288Y-7529712D01*
X3482712Y-7529712D01*
X3482712Y-7586288D01*
X3539288Y-7586288D01*
X3539288Y-7840288D02*
X3539288Y-7783712D01*
X3482712Y-7783712D01*
X3482712Y-7840288D01*
X3539288Y-7840288D01*
X3539288Y-8094288D02*
X3539288Y-8037712D01*
X3482712Y-8037712D01*
X3482712Y-8094288D01*
X3539288Y-8094288D01*
X3539288Y-8348288D02*
X3539288Y-8291712D01*
X3482712Y-8291712D01*
X3482712Y-8348288D01*
X3539288Y-8348288D01*
X3539288Y-8602288D02*
X3539288Y-8545712D01*
X3482712Y-8545712D01*
X3482712Y-8602288D01*
X3539288Y-8602288D01*
X3539288Y-8856288D02*
X3539288Y-8799712D01*
X3482712Y-8799712D01*
X3482712Y-8856288D01*
X3539288Y-8856288D01*
X3539288Y-9190288D02*
X3539288Y-9133712D01*
X3482712Y-9133712D01*
X3482712Y-9190288D01*
X3539288Y-9190288D01*
X3539288Y-9444288D02*
X3539288Y-9387712D01*
X3482712Y-9387712D01*
X3482712Y-9444288D01*
X3539288Y-9444288D01*
X3539288Y-9698288D02*
X3539288Y-9641712D01*
X3482712Y-9641712D01*
X3482712Y-9698288D01*
X3539288Y-9698288D01*
X3793288Y-3733288D02*
X3793288Y-3676712D01*
X3736712Y-3676712D01*
X3736712Y-3733288D01*
X3793288Y-3733288D01*
X3793288Y-3987288D02*
X3793288Y-3930712D01*
X3736712Y-3930712D01*
X3736712Y-3987288D01*
X3793288Y-3987288D01*
X3793288Y-4241288D02*
X3793288Y-4184712D01*
X3736712Y-4184712D01*
X3736712Y-4241288D01*
X3793288Y-4241288D01*
X3793288Y-4538288D02*
X3793288Y-4481712D01*
X3736712Y-4481712D01*
X3736712Y-4538288D01*
X3793288Y-4538288D01*
X3793288Y-4792288D02*
X3793288Y-4735712D01*
X3736712Y-4735712D01*
X3736712Y-4792288D01*
X3793288Y-4792288D01*
X3793288Y-5046288D02*
X3793288Y-4989712D01*
X3736712Y-4989712D01*
X3736712Y-5046288D01*
X3793288Y-5046288D01*
X3793288Y-5300288D02*
X3793288Y-5243712D01*
X3736712Y-5243712D01*
X3736712Y-5300288D01*
X3793288Y-5300288D01*
X3793288Y-5554288D02*
X3793288Y-5497712D01*
X3736712Y-5497712D01*
X3736712Y-5554288D01*
X3793288Y-5554288D01*
X3793288Y-5808288D02*
X3793288Y-5751712D01*
X3736712Y-5751712D01*
X3736712Y-5808288D01*
X3793288Y-5808288D01*
X3793288Y-6062288D02*
X3793288Y-6005712D01*
X3736712Y-6005712D01*
X3736712Y-6062288D01*
X3793288Y-6062288D01*
X3793288Y-6316288D02*
X3793288Y-6259712D01*
X3736712Y-6259712D01*
X3736712Y-6316288D01*
X3793288Y-6316288D01*
X3793288Y-6570288D02*
X3793288Y-6513712D01*
X3736712Y-6513712D01*
X3736712Y-6570288D01*
X3793288Y-6570288D01*
X3793288Y-6824288D02*
X3793288Y-6767712D01*
X3736712Y-6767712D01*
X3736712Y-6824288D01*
X3793288Y-6824288D01*
X3793288Y-7078288D02*
X3793288Y-7021712D01*
X3736712Y-7021712D01*
X3736712Y-7078288D01*
X3793288Y-7078288D01*
X3793288Y-7332288D02*
X3793288Y-7275712D01*
X3736712Y-7275712D01*
X3736712Y-7332288D01*
X3793288Y-7332288D01*
X3793288Y-7586288D02*
X3793288Y-7529712D01*
X3736712Y-7529712D01*
X3736712Y-7586288D01*
X3793288Y-7586288D01*
X3793288Y-7840288D02*
X3793288Y-7783712D01*
X3736712Y-7783712D01*
X3736712Y-7840288D01*
X3793288Y-7840288D01*
X3793288Y-8094288D02*
X3793288Y-8037712D01*
X3736712Y-8037712D01*
X3736712Y-8094288D01*
X3793288Y-8094288D01*
X3793288Y-8348288D02*
X3793288Y-8291712D01*
X3736712Y-8291712D01*
X3736712Y-8348288D01*
X3793288Y-8348288D01*
X3793288Y-8602288D02*
X3793288Y-8545712D01*
X3736712Y-8545712D01*
X3736712Y-8602288D01*
X3793288Y-8602288D01*
X3793288Y-8856288D02*
X3793288Y-8799712D01*
X3736712Y-8799712D01*
X3736712Y-8856288D01*
X3793288Y-8856288D01*
X3793288Y-9190288D02*
X3793288Y-9133712D01*
X3736712Y-9133712D01*
X3736712Y-9190288D01*
X3793288Y-9190288D01*
X3793288Y-9444288D02*
X3793288Y-9387712D01*
X3736712Y-9387712D01*
X3736712Y-9444288D01*
X3793288Y-9444288D01*
X3793288Y-9698288D02*
X3793288Y-9641712D01*
X3736712Y-9641712D01*
X3736712Y-9698288D01*
X3793288Y-9698288D01*
X4047288Y-3733288D02*
X4047288Y-3676712D01*
X3990712Y-3676712D01*
X3990712Y-3733288D01*
X4047288Y-3733288D01*
X4047288Y-3987288D02*
X4047288Y-3930712D01*
X3990712Y-3930712D01*
X3990712Y-3987288D01*
X4047288Y-3987288D01*
X4047288Y-4241288D02*
X4047288Y-4184712D01*
X3990712Y-4184712D01*
X3990712Y-4241288D01*
X4047288Y-4241288D01*
X4047288Y-4538288D02*
X4047288Y-4481712D01*
X3990712Y-4481712D01*
X3990712Y-4538288D01*
X4047288Y-4538288D01*
X4047288Y-4792288D02*
X4047288Y-4735712D01*
X3990712Y-4735712D01*
X3990712Y-4792288D01*
X4047288Y-4792288D01*
X4047288Y-5046288D02*
X4047288Y-4989712D01*
X3990712Y-4989712D01*
X3990712Y-5046288D01*
X4047288Y-5046288D01*
X4047288Y-5300288D02*
X4047288Y-5243712D01*
X3990712Y-5243712D01*
X3990712Y-5300288D01*
X4047288Y-5300288D01*
X4047288Y-5554288D02*
X4047288Y-5497712D01*
X3990712Y-5497712D01*
X3990712Y-5554288D01*
X4047288Y-5554288D01*
X4047288Y-5808288D02*
X4047288Y-5751712D01*
X3990712Y-5751712D01*
X3990712Y-5808288D01*
X4047288Y-5808288D01*
X4047288Y-6062288D02*
X4047288Y-6005712D01*
X3990712Y-6005712D01*
X3990712Y-6062288D01*
X4047288Y-6062288D01*
X4047288Y-6316288D02*
X4047288Y-6259712D01*
X3990712Y-6259712D01*
X3990712Y-6316288D01*
X4047288Y-6316288D01*
X4047288Y-6570288D02*
X4047288Y-6513712D01*
X3990712Y-6513712D01*
X3990712Y-6570288D01*
X4047288Y-6570288D01*
X4047288Y-6824288D02*
X4047288Y-6767712D01*
X3990712Y-6767712D01*
X3990712Y-6824288D01*
X4047288Y-6824288D01*
X4047288Y-7078288D02*
X4047288Y-7021712D01*
X3990712Y-7021712D01*
X3990712Y-7078288D01*
X4047288Y-7078288D01*
X4047288Y-7332288D02*
X4047288Y-7275712D01*
X3990712Y-7275712D01*
X3990712Y-7332288D01*
X4047288Y-7332288D01*
X4047288Y-7586288D02*
X4047288Y-7529712D01*
X3990712Y-7529712D01*
X3990712Y-7586288D01*
X4047288Y-7586288D01*
X4047288Y-7840288D02*
X4047288Y-7783712D01*
X3990712Y-7783712D01*
X3990712Y-7840288D01*
X4047288Y-7840288D01*
X4047288Y-8094288D02*
X4047288Y-8037712D01*
X3990712Y-8037712D01*
X3990712Y-8094288D01*
X4047288Y-8094288D01*
X4047288Y-8348288D02*
X4047288Y-8291712D01*
X3990712Y-8291712D01*
X3990712Y-8348288D01*
X4047288Y-8348288D01*
X4047288Y-8602288D02*
X4047288Y-8545712D01*
X3990712Y-8545712D01*
X3990712Y-8602288D01*
X4047288Y-8602288D01*
X4047288Y-8856288D02*
X4047288Y-8799712D01*
X3990712Y-8799712D01*
X3990712Y-8856288D01*
X4047288Y-8856288D01*
X4047288Y-9190288D02*
X4047288Y-9133712D01*
X3990712Y-9133712D01*
X3990712Y-9190288D01*
X4047288Y-9190288D01*
X4047288Y-9444288D02*
X4047288Y-9387712D01*
X3990712Y-9387712D01*
X3990712Y-9444288D01*
X4047288Y-9444288D01*
X4047288Y-9698288D02*
X4047288Y-9641712D01*
X3990712Y-9641712D01*
X3990712Y-9698288D01*
X4047288Y-9698288D01*
X4301288Y-3733288D02*
X4301288Y-3676712D01*
X4244712Y-3676712D01*
X4244712Y-3733288D01*
X4301288Y-3733288D01*
X4301288Y-3987288D02*
X4301288Y-3930712D01*
X4244712Y-3930712D01*
X4244712Y-3987288D01*
X4301288Y-3987288D01*
X4301288Y-4241288D02*
X4301288Y-4184712D01*
X4244712Y-4184712D01*
X4244712Y-4241288D01*
X4301288Y-4241288D01*
X4301288Y-4538288D02*
X4301288Y-4481712D01*
X4244712Y-4481712D01*
X4244712Y-4538288D01*
X4301288Y-4538288D01*
X4301288Y-4792288D02*
X4301288Y-4735712D01*
X4244712Y-4735712D01*
X4244712Y-4792288D01*
X4301288Y-4792288D01*
X4301288Y-5046288D02*
X4301288Y-4989712D01*
X4244712Y-4989712D01*
X4244712Y-5046288D01*
X4301288Y-5046288D01*
X4301288Y-5300288D02*
X4301288Y-5243712D01*
X4244712Y-5243712D01*
X4244712Y-5300288D01*
X4301288Y-5300288D01*
X4301288Y-5554288D02*
X4301288Y-5497712D01*
X4244712Y-5497712D01*
X4244712Y-5554288D01*
X4301288Y-5554288D01*
X4301288Y-5808288D02*
X4301288Y-5751712D01*
X4244712Y-5751712D01*
X4244712Y-5808288D01*
X4301288Y-5808288D01*
X4301288Y-6062288D02*
X4301288Y-6005712D01*
X4244712Y-6005712D01*
X4244712Y-6062288D01*
X4301288Y-6062288D01*
X4301288Y-6316288D02*
X4301288Y-6259712D01*
X4244712Y-6259712D01*
X4244712Y-6316288D01*
X4301288Y-6316288D01*
X4301288Y-6570288D02*
X4301288Y-6513712D01*
X4244712Y-6513712D01*
X4244712Y-6570288D01*
X4301288Y-6570288D01*
X4301288Y-6824288D02*
X4301288Y-6767712D01*
X4244712Y-6767712D01*
X4244712Y-6824288D01*
X4301288Y-6824288D01*
X4301288Y-7078288D02*
X4301288Y-7021712D01*
X4244712Y-7021712D01*
X4244712Y-7078288D01*
X4301288Y-7078288D01*
X4301288Y-7332288D02*
X4301288Y-7275712D01*
X4244712Y-7275712D01*
X4244712Y-7332288D01*
X4301288Y-7332288D01*
X4301288Y-7586288D02*
X4301288Y-7529712D01*
X4244712Y-7529712D01*
X4244712Y-7586288D01*
X4301288Y-7586288D01*
X4301288Y-7840288D02*
X4301288Y-7783712D01*
X4244712Y-7783712D01*
X4244712Y-7840288D01*
X4301288Y-7840288D01*
X4301288Y-8094288D02*
X4301288Y-8037712D01*
X4244712Y-8037712D01*
X4244712Y-8094288D01*
X4301288Y-8094288D01*
X4301288Y-8348288D02*
X4301288Y-8291712D01*
X4244712Y-8291712D01*
X4244712Y-8348288D01*
X4301288Y-8348288D01*
X4301288Y-8602288D02*
X4301288Y-8545712D01*
X4244712Y-8545712D01*
X4244712Y-8602288D01*
X4301288Y-8602288D01*
X4301288Y-8856288D02*
X4301288Y-8799712D01*
X4244712Y-8799712D01*
X4244712Y-8856288D01*
X4301288Y-8856288D01*
X4301288Y-9190288D02*
X4301288Y-9133712D01*
X4244712Y-9133712D01*
X4244712Y-9190288D01*
X4301288Y-9190288D01*
X4301288Y-9444288D02*
X4301288Y-9387712D01*
X4244712Y-9387712D01*
X4244712Y-9444288D01*
X4301288Y-9444288D01*
X4301288Y-9698288D02*
X4301288Y-9641712D01*
X4244712Y-9641712D01*
X4244712Y-9698288D01*
X4301288Y-9698288D01*
X4555288Y-4538288D02*
X4555288Y-4481712D01*
X4498712Y-4481712D01*
X4498712Y-4538288D01*
X4555288Y-4538288D01*
X4555288Y-4792288D02*
X4555288Y-4735712D01*
X4498712Y-4735712D01*
X4498712Y-4792288D01*
X4555288Y-4792288D01*
X4555288Y-5046288D02*
X4555288Y-4989712D01*
X4498712Y-4989712D01*
X4498712Y-5046288D01*
X4555288Y-5046288D01*
X4555288Y-5300288D02*
X4555288Y-5243712D01*
X4498712Y-5243712D01*
X4498712Y-5300288D01*
X4555288Y-5300288D01*
X4555288Y-5554288D02*
X4555288Y-5497712D01*
X4498712Y-5497712D01*
X4498712Y-5554288D01*
X4555288Y-5554288D01*
X4555288Y-5808288D02*
X4555288Y-5751712D01*
X4498712Y-5751712D01*
X4498712Y-5808288D01*
X4555288Y-5808288D01*
X4555288Y-6062288D02*
X4555288Y-6005712D01*
X4498712Y-6005712D01*
X4498712Y-6062288D01*
X4555288Y-6062288D01*
X4555288Y-6316288D02*
X4555288Y-6259712D01*
X4498712Y-6259712D01*
X4498712Y-6316288D01*
X4555288Y-6316288D01*
X4555288Y-6570288D02*
X4555288Y-6513712D01*
X4498712Y-6513712D01*
X4498712Y-6570288D01*
X4555288Y-6570288D01*
X4555288Y-6824288D02*
X4555288Y-6767712D01*
X4498712Y-6767712D01*
X4498712Y-6824288D01*
X4555288Y-6824288D01*
X4555288Y-7078288D02*
X4555288Y-7021712D01*
X4498712Y-7021712D01*
X4498712Y-7078288D01*
X4555288Y-7078288D01*
X4555288Y-7332288D02*
X4555288Y-7275712D01*
X4498712Y-7275712D01*
X4498712Y-7332288D01*
X4555288Y-7332288D01*
X4555288Y-7586288D02*
X4555288Y-7529712D01*
X4498712Y-7529712D01*
X4498712Y-7586288D01*
X4555288Y-7586288D01*
X4555288Y-7840288D02*
X4555288Y-7783712D01*
X4498712Y-7783712D01*
X4498712Y-7840288D01*
X4555288Y-7840288D01*
X4555288Y-8094288D02*
X4555288Y-8037712D01*
X4498712Y-8037712D01*
X4498712Y-8094288D01*
X4555288Y-8094288D01*
X4555288Y-8348288D02*
X4555288Y-8291712D01*
X4498712Y-8291712D01*
X4498712Y-8348288D01*
X4555288Y-8348288D01*
X4555288Y-8602288D02*
X4555288Y-8545712D01*
X4498712Y-8545712D01*
X4498712Y-8602288D01*
X4555288Y-8602288D01*
X4555288Y-8856288D02*
X4555288Y-8799712D01*
X4498712Y-8799712D01*
X4498712Y-8856288D01*
X4555288Y-8856288D01*
X4809288Y-4538288D02*
X4809288Y-4481712D01*
X4752712Y-4481712D01*
X4752712Y-4538288D01*
X4809288Y-4538288D01*
X4809288Y-4792288D02*
X4809288Y-4735712D01*
X4752712Y-4735712D01*
X4752712Y-4792288D01*
X4809288Y-4792288D01*
X4809288Y-5046288D02*
X4809288Y-4989712D01*
X4752712Y-4989712D01*
X4752712Y-5046288D01*
X4809288Y-5046288D01*
X4809288Y-5300288D02*
X4809288Y-5243712D01*
X4752712Y-5243712D01*
X4752712Y-5300288D01*
X4809288Y-5300288D01*
X4809288Y-5554288D02*
X4809288Y-5497712D01*
X4752712Y-5497712D01*
X4752712Y-5554288D01*
X4809288Y-5554288D01*
X4809288Y-5808288D02*
X4809288Y-5751712D01*
X4752712Y-5751712D01*
X4752712Y-5808288D01*
X4809288Y-5808288D01*
X4809288Y-6062288D02*
X4809288Y-6005712D01*
X4752712Y-6005712D01*
X4752712Y-6062288D01*
X4809288Y-6062288D01*
X4809288Y-6316288D02*
X4809288Y-6259712D01*
X4752712Y-6259712D01*
X4752712Y-6316288D01*
X4809288Y-6316288D01*
X4809288Y-6570288D02*
X4809288Y-6513712D01*
X4752712Y-6513712D01*
X4752712Y-6570288D01*
X4809288Y-6570288D01*
X4809288Y-6824288D02*
X4809288Y-6767712D01*
X4752712Y-6767712D01*
X4752712Y-6824288D01*
X4809288Y-6824288D01*
X4809288Y-7078288D02*
X4809288Y-7021712D01*
X4752712Y-7021712D01*
X4752712Y-7078288D01*
X4809288Y-7078288D01*
X4809288Y-7332288D02*
X4809288Y-7275712D01*
X4752712Y-7275712D01*
X4752712Y-7332288D01*
X4809288Y-7332288D01*
X4809288Y-7586288D02*
X4809288Y-7529712D01*
X4752712Y-7529712D01*
X4752712Y-7586288D01*
X4809288Y-7586288D01*
X4809288Y-7840288D02*
X4809288Y-7783712D01*
X4752712Y-7783712D01*
X4752712Y-7840288D01*
X4809288Y-7840288D01*
X4809288Y-8094288D02*
X4809288Y-8037712D01*
X4752712Y-8037712D01*
X4752712Y-8094288D01*
X4809288Y-8094288D01*
X4809288Y-8348288D02*
X4809288Y-8291712D01*
X4752712Y-8291712D01*
X4752712Y-8348288D01*
X4809288Y-8348288D01*
X4809288Y-8602288D02*
X4809288Y-8545712D01*
X4752712Y-8545712D01*
X4752712Y-8602288D01*
X4809288Y-8602288D01*
X4809288Y-8856288D02*
X4809288Y-8799712D01*
X4752712Y-8799712D01*
X4752712Y-8856288D01*
X4809288Y-8856288D01*
X5063288Y-4538288D02*
X5063288Y-4481712D01*
X5006712Y-4481712D01*
X5006712Y-4538288D01*
X5063288Y-4538288D01*
X5063288Y-4792288D02*
X5063288Y-4735712D01*
X5006712Y-4735712D01*
X5006712Y-4792288D01*
X5063288Y-4792288D01*
X5063288Y-5046288D02*
X5063288Y-4989712D01*
X5006712Y-4989712D01*
X5006712Y-5046288D01*
X5063288Y-5046288D01*
X5063288Y-5300288D02*
X5063288Y-5243712D01*
X5006712Y-5243712D01*
X5006712Y-5300288D01*
X5063288Y-5300288D01*
X5063288Y-5554288D02*
X5063288Y-5497712D01*
X5006712Y-5497712D01*
X5006712Y-5554288D01*
X5063288Y-5554288D01*
X5063288Y-5808288D02*
X5063288Y-5751712D01*
X5006712Y-5751712D01*
X5006712Y-5808288D01*
X5063288Y-5808288D01*
X5063288Y-6062288D02*
X5063288Y-6005712D01*
X5006712Y-6005712D01*
X5006712Y-6062288D01*
X5063288Y-6062288D01*
X5063288Y-6316288D02*
X5063288Y-6259712D01*
X5006712Y-6259712D01*
X5006712Y-6316288D01*
X5063288Y-6316288D01*
X5063288Y-6570288D02*
X5063288Y-6513712D01*
X5006712Y-6513712D01*
X5006712Y-6570288D01*
X5063288Y-6570288D01*
X5063288Y-6824288D02*
X5063288Y-6767712D01*
X5006712Y-6767712D01*
X5006712Y-6824288D01*
X5063288Y-6824288D01*
X5063288Y-7078288D02*
X5063288Y-7021712D01*
X5006712Y-7021712D01*
X5006712Y-7078288D01*
X5063288Y-7078288D01*
X5063288Y-7332288D02*
X5063288Y-7275712D01*
X5006712Y-7275712D01*
X5006712Y-7332288D01*
X5063288Y-7332288D01*
X5063288Y-7586288D02*
X5063288Y-7529712D01*
X5006712Y-7529712D01*
X5006712Y-7586288D01*
X5063288Y-7586288D01*
X5063288Y-7840288D02*
X5063288Y-7783712D01*
X5006712Y-7783712D01*
X5006712Y-7840288D01*
X5063288Y-7840288D01*
X5063288Y-8094288D02*
X5063288Y-8037712D01*
X5006712Y-8037712D01*
X5006712Y-8094288D01*
X5063288Y-8094288D01*
X5063288Y-8348288D02*
X5063288Y-8291712D01*
X5006712Y-8291712D01*
X5006712Y-8348288D01*
X5063288Y-8348288D01*
X5063288Y-8602288D02*
X5063288Y-8545712D01*
X5006712Y-8545712D01*
X5006712Y-8602288D01*
X5063288Y-8602288D01*
X5063288Y-8856288D02*
X5063288Y-8799712D01*
X5006712Y-8799712D01*
X5006712Y-8856288D01*
X5063288Y-8856288D01*
X5810000Y-11460000D02*
X5855000Y-11415000D01*
X5810000Y-11370000D01*
X5765000Y-11415000D01*
X5810000Y-11460000D01*
X5810000Y-12222000D02*
X5855000Y-12177000D01*
X5810000Y-12132000D01*
X5765000Y-12177000D01*
X5810000Y-12222000D01*
X10220000Y-11473000D02*
X10265000Y-11428000D01*
X10220000Y-11383000D01*
X10175000Y-11428000D01*
X10220000Y-11473000D01*
X10220000Y-12235000D02*
X10265000Y-12190000D01*
X10220000Y-12145000D01*
X10175000Y-12190000D01*
X10220000Y-12235000D01*
X6005000Y-4630000D02*
X6105000Y-4730000D01*
X6105000Y-4630000D02*
X6005000Y-4730000D01*
X6105000Y-4680000D02*
G75*
G03*
X6105000Y-4680000I-50000J0D01*
G01*
X6005000Y-4884000D02*
X6105000Y-4984000D01*
X6105000Y-4884000D02*
X6005000Y-4984000D01*
X6105000Y-4934000D02*
G75*
G03*
X6105000Y-4934000I-50000J0D01*
G01*
X6005000Y-5138000D02*
X6105000Y-5238000D01*
X6105000Y-5138000D02*
X6005000Y-5238000D01*
X6105000Y-5188000D02*
G75*
G03*
X6105000Y-5188000I-50000J0D01*
G01*
X6005000Y-5392000D02*
X6105000Y-5492000D01*
X6105000Y-5392000D02*
X6005000Y-5492000D01*
X6105000Y-5442000D02*
G75*
G03*
X6105000Y-5442000I-50000J0D01*
G01*
X6005000Y-5646000D02*
X6105000Y-5746000D01*
X6105000Y-5646000D02*
X6005000Y-5746000D01*
X6105000Y-5696000D02*
G75*
G03*
X6105000Y-5696000I-50000J0D01*
G01*
X6005000Y-5900000D02*
X6105000Y-6000000D01*
X6105000Y-5900000D02*
X6005000Y-6000000D01*
X6105000Y-5950000D02*
G75*
G03*
X6105000Y-5950000I-50000J0D01*
G01*
X6005000Y-6154000D02*
X6105000Y-6254000D01*
X6105000Y-6154000D02*
X6005000Y-6254000D01*
X6105000Y-6204000D02*
G75*
G03*
X6105000Y-6204000I-50000J0D01*
G01*
X6005000Y-6408000D02*
X6105000Y-6508000D01*
X6105000Y-6408000D02*
X6005000Y-6508000D01*
X6105000Y-6458000D02*
G75*
G03*
X6105000Y-6458000I-50000J0D01*
G01*
X6005000Y-6662000D02*
X6105000Y-6762000D01*
X6105000Y-6662000D02*
X6005000Y-6762000D01*
X6105000Y-6712000D02*
G75*
G03*
X6105000Y-6712000I-50000J0D01*
G01*
X6005000Y-6916000D02*
X6105000Y-7016000D01*
X6105000Y-6916000D02*
X6005000Y-7016000D01*
X6105000Y-6966000D02*
G75*
G03*
X6105000Y-6966000I-50000J0D01*
G01*
X6005000Y-7170000D02*
X6105000Y-7270000D01*
X6105000Y-7170000D02*
X6005000Y-7270000D01*
X6105000Y-7220000D02*
G75*
G03*
X6105000Y-7220000I-50000J0D01*
G01*
X6005000Y-7424000D02*
X6105000Y-7524000D01*
X6105000Y-7424000D02*
X6005000Y-7524000D01*
X6105000Y-7474000D02*
G75*
G03*
X6105000Y-7474000I-50000J0D01*
G01*
X6005000Y-7678000D02*
X6105000Y-7778000D01*
X6105000Y-7678000D02*
X6005000Y-7778000D01*
X6105000Y-7728000D02*
G75*
G03*
X6105000Y-7728000I-50000J0D01*
G01*
X6005000Y-7932000D02*
X6105000Y-8032000D01*
X6105000Y-7932000D02*
X6005000Y-8032000D01*
X6105000Y-7982000D02*
G75*
G03*
X6105000Y-7982000I-50000J0D01*
G01*
X6005000Y-8186000D02*
X6105000Y-8286000D01*
X6105000Y-8186000D02*
X6005000Y-8286000D01*
X6105000Y-8236000D02*
G75*
G03*
X6105000Y-8236000I-50000J0D01*
G01*
X6005000Y-8440000D02*
X6105000Y-8540000D01*
X6105000Y-8440000D02*
X6005000Y-8540000D01*
X6105000Y-8490000D02*
G75*
G03*
X6105000Y-8490000I-50000J0D01*
G01*
X6259000Y-4630000D02*
X6359000Y-4730000D01*
X6359000Y-4630000D02*
X6259000Y-4730000D01*
X6359000Y-4680000D02*
G75*
G03*
X6359000Y-4680000I-50000J0D01*
G01*
X6259000Y-4884000D02*
X6359000Y-4984000D01*
X6359000Y-4884000D02*
X6259000Y-4984000D01*
X6359000Y-4934000D02*
G75*
G03*
X6359000Y-4934000I-50000J0D01*
G01*
X6259000Y-5138000D02*
X6359000Y-5238000D01*
X6359000Y-5138000D02*
X6259000Y-5238000D01*
X6359000Y-5188000D02*
G75*
G03*
X6359000Y-5188000I-50000J0D01*
G01*
X6259000Y-5392000D02*
X6359000Y-5492000D01*
X6359000Y-5392000D02*
X6259000Y-5492000D01*
X6359000Y-5442000D02*
G75*
G03*
X6359000Y-5442000I-50000J0D01*
G01*
X6259000Y-5646000D02*
X6359000Y-5746000D01*
X6359000Y-5646000D02*
X6259000Y-5746000D01*
X6359000Y-5696000D02*
G75*
G03*
X6359000Y-5696000I-50000J0D01*
G01*
X6259000Y-5900000D02*
X6359000Y-6000000D01*
X6359000Y-5900000D02*
X6259000Y-6000000D01*
X6359000Y-5950000D02*
G75*
G03*
X6359000Y-5950000I-50000J0D01*
G01*
X6259000Y-6154000D02*
X6359000Y-6254000D01*
X6359000Y-6154000D02*
X6259000Y-6254000D01*
X6359000Y-6204000D02*
G75*
G03*
X6359000Y-6204000I-50000J0D01*
G01*
X6259000Y-6408000D02*
X6359000Y-6508000D01*
X6359000Y-6408000D02*
X6259000Y-6508000D01*
X6359000Y-6458000D02*
G75*
G03*
X6359000Y-6458000I-50000J0D01*
G01*
X6259000Y-6662000D02*
X6359000Y-6762000D01*
X6359000Y-6662000D02*
X6259000Y-6762000D01*
X6359000Y-6712000D02*
G75*
G03*
X6359000Y-6712000I-50000J0D01*
G01*
X6259000Y-6916000D02*
X6359000Y-7016000D01*
X6359000Y-6916000D02*
X6259000Y-7016000D01*
X6359000Y-6966000D02*
G75*
G03*
X6359000Y-6966000I-50000J0D01*
G01*
X6259000Y-7170000D02*
X6359000Y-7270000D01*
X6359000Y-7170000D02*
X6259000Y-7270000D01*
X6359000Y-7220000D02*
G75*
G03*
X6359000Y-7220000I-50000J0D01*
G01*
X6259000Y-7424000D02*
X6359000Y-7524000D01*
X6359000Y-7424000D02*
X6259000Y-7524000D01*
X6359000Y-7474000D02*
G75*
G03*
X6359000Y-7474000I-50000J0D01*
G01*
X6259000Y-7678000D02*
X6359000Y-7778000D01*
X6359000Y-7678000D02*
X6259000Y-7778000D01*
X6359000Y-7728000D02*
G75*
G03*
X6359000Y-7728000I-50000J0D01*
G01*
X6259000Y-7932000D02*
X6359000Y-8032000D01*
X6359000Y-7932000D02*
X6259000Y-8032000D01*
X6359000Y-7982000D02*
G75*
G03*
X6359000Y-7982000I-50000J0D01*
G01*
X6259000Y-8186000D02*
X6359000Y-8286000D01*
X6359000Y-8186000D02*
X6259000Y-8286000D01*
X6359000Y-8236000D02*
G75*
G03*
X6359000Y-8236000I-50000J0D01*
G01*
X6259000Y-8440000D02*
X6359000Y-8540000D01*
X6359000Y-8440000D02*
X6259000Y-8540000D01*
X6359000Y-8490000D02*
G75*
G03*
X6359000Y-8490000I-50000J0D01*
G01*
X6553250Y-10740550D02*
X6653250Y-10840550D01*
X6653250Y-10740550D02*
X6553250Y-10840550D01*
X6653250Y-10790550D02*
G75*
G03*
X6653250Y-10790550I-50000J0D01*
G01*
X6840000Y-3614000D02*
X6940000Y-3714000D01*
X6940000Y-3614000D02*
X6840000Y-3714000D01*
X6940000Y-3664000D02*
G75*
G03*
X6940000Y-3664000I-50000J0D01*
G01*
X6840000Y-3868000D02*
X6940000Y-3968000D01*
X6940000Y-3868000D02*
X6840000Y-3968000D01*
X6940000Y-3918000D02*
G75*
G03*
X6940000Y-3918000I-50000J0D01*
G01*
X6840000Y-4122000D02*
X6940000Y-4222000D01*
X6940000Y-4122000D02*
X6840000Y-4222000D01*
X6940000Y-4172000D02*
G75*
G03*
X6940000Y-4172000I-50000J0D01*
G01*
X6840000Y-4376000D02*
X6940000Y-4476000D01*
X6940000Y-4376000D02*
X6840000Y-4476000D01*
X6940000Y-4426000D02*
G75*
G03*
X6940000Y-4426000I-50000J0D01*
G01*
X6840000Y-4630000D02*
X6940000Y-4730000D01*
X6940000Y-4630000D02*
X6840000Y-4730000D01*
X6940000Y-4680000D02*
G75*
G03*
X6940000Y-4680000I-50000J0D01*
G01*
X6840000Y-4884000D02*
X6940000Y-4984000D01*
X6940000Y-4884000D02*
X6840000Y-4984000D01*
X6940000Y-4934000D02*
G75*
G03*
X6940000Y-4934000I-50000J0D01*
G01*
X6840000Y-5138000D02*
X6940000Y-5238000D01*
X6940000Y-5138000D02*
X6840000Y-5238000D01*
X6940000Y-5188000D02*
G75*
G03*
X6940000Y-5188000I-50000J0D01*
G01*
X6840000Y-5392000D02*
X6940000Y-5492000D01*
X6940000Y-5392000D02*
X6840000Y-5492000D01*
X6940000Y-5442000D02*
G75*
G03*
X6940000Y-5442000I-50000J0D01*
G01*
X6840000Y-5646000D02*
X6940000Y-5746000D01*
X6940000Y-5646000D02*
X6840000Y-5746000D01*
X6940000Y-5696000D02*
G75*
G03*
X6940000Y-5696000I-50000J0D01*
G01*
X6840000Y-5900000D02*
X6940000Y-6000000D01*
X6940000Y-5900000D02*
X6840000Y-6000000D01*
X6940000Y-5950000D02*
G75*
G03*
X6940000Y-5950000I-50000J0D01*
G01*
X6840000Y-6154000D02*
X6940000Y-6254000D01*
X6940000Y-6154000D02*
X6840000Y-6254000D01*
X6940000Y-6204000D02*
G75*
G03*
X6940000Y-6204000I-50000J0D01*
G01*
X6840000Y-6408000D02*
X6940000Y-6508000D01*
X6940000Y-6408000D02*
X6840000Y-6508000D01*
X6940000Y-6458000D02*
G75*
G03*
X6940000Y-6458000I-50000J0D01*
G01*
X6840000Y-6662000D02*
X6940000Y-6762000D01*
X6940000Y-6662000D02*
X6840000Y-6762000D01*
X6940000Y-6712000D02*
G75*
G03*
X6940000Y-6712000I-50000J0D01*
G01*
X6840000Y-6916000D02*
X6940000Y-7016000D01*
X6940000Y-6916000D02*
X6840000Y-7016000D01*
X6940000Y-6966000D02*
G75*
G03*
X6940000Y-6966000I-50000J0D01*
G01*
X6840000Y-7170000D02*
X6940000Y-7270000D01*
X6940000Y-7170000D02*
X6840000Y-7270000D01*
X6940000Y-7220000D02*
G75*
G03*
X6940000Y-7220000I-50000J0D01*
G01*
X6840000Y-7424000D02*
X6940000Y-7524000D01*
X6940000Y-7424000D02*
X6840000Y-7524000D01*
X6940000Y-7474000D02*
G75*
G03*
X6940000Y-7474000I-50000J0D01*
G01*
X6840000Y-7678000D02*
X6940000Y-7778000D01*
X6940000Y-7678000D02*
X6840000Y-7778000D01*
X6940000Y-7728000D02*
G75*
G03*
X6940000Y-7728000I-50000J0D01*
G01*
X6840000Y-7932000D02*
X6940000Y-8032000D01*
X6940000Y-7932000D02*
X6840000Y-8032000D01*
X6940000Y-7982000D02*
G75*
G03*
X6940000Y-7982000I-50000J0D01*
G01*
X6840000Y-8186000D02*
X6940000Y-8286000D01*
X6940000Y-8186000D02*
X6840000Y-8286000D01*
X6940000Y-8236000D02*
G75*
G03*
X6940000Y-8236000I-50000J0D01*
G01*
X7625000Y-10185000D02*
X7725000Y-10285000D01*
X7725000Y-10185000D02*
X7625000Y-10285000D01*
X7725000Y-10235000D02*
G75*
G03*
X7725000Y-10235000I-50000J0D01*
G01*
X7753250Y-10740550D02*
X7853250Y-10840550D01*
X7853250Y-10740550D02*
X7753250Y-10840550D01*
X7853250Y-10790550D02*
G75*
G03*
X7853250Y-10790550I-50000J0D01*
G01*
X7879000Y-10185000D02*
X7979000Y-10285000D01*
X7979000Y-10185000D02*
X7879000Y-10285000D01*
X7979000Y-10235000D02*
G75*
G03*
X7979000Y-10235000I-50000J0D01*
G01*
X8133000Y-10185000D02*
X8233000Y-10285000D01*
X8233000Y-10185000D02*
X8133000Y-10285000D01*
X8233000Y-10235000D02*
G75*
G03*
X8233000Y-10235000I-50000J0D01*
G01*
X8256850Y-10737450D02*
X8356850Y-10837450D01*
X8356850Y-10737450D02*
X8256850Y-10837450D01*
X8356850Y-10787450D02*
G75*
G03*
X8356850Y-10787450I-50000J0D01*
G01*
X8387000Y-10185000D02*
X8487000Y-10285000D01*
X8487000Y-10185000D02*
X8387000Y-10285000D01*
X8487000Y-10235000D02*
G75*
G03*
X8487000Y-10235000I-50000J0D01*
G01*
X9380000Y-3614000D02*
X9480000Y-3714000D01*
X9480000Y-3614000D02*
X9380000Y-3714000D01*
X9480000Y-3664000D02*
G75*
G03*
X9480000Y-3664000I-50000J0D01*
G01*
X9380000Y-3868000D02*
X9480000Y-3968000D01*
X9480000Y-3868000D02*
X9380000Y-3968000D01*
X9480000Y-3918000D02*
G75*
G03*
X9480000Y-3918000I-50000J0D01*
G01*
X9380000Y-4122000D02*
X9480000Y-4222000D01*
X9480000Y-4122000D02*
X9380000Y-4222000D01*
X9480000Y-4172000D02*
G75*
G03*
X9480000Y-4172000I-50000J0D01*
G01*
X9380000Y-4376000D02*
X9480000Y-4476000D01*
X9480000Y-4376000D02*
X9380000Y-4476000D01*
X9480000Y-4426000D02*
G75*
G03*
X9480000Y-4426000I-50000J0D01*
G01*
X9380000Y-4630000D02*
X9480000Y-4730000D01*
X9480000Y-4630000D02*
X9380000Y-4730000D01*
X9480000Y-4680000D02*
G75*
G03*
X9480000Y-4680000I-50000J0D01*
G01*
X9380000Y-4884000D02*
X9480000Y-4984000D01*
X9480000Y-4884000D02*
X9380000Y-4984000D01*
X9480000Y-4934000D02*
G75*
G03*
X9480000Y-4934000I-50000J0D01*
G01*
X9380000Y-5138000D02*
X9480000Y-5238000D01*
X9480000Y-5138000D02*
X9380000Y-5238000D01*
X9480000Y-5188000D02*
G75*
G03*
X9480000Y-5188000I-50000J0D01*
G01*
X9380000Y-5392000D02*
X9480000Y-5492000D01*
X9480000Y-5392000D02*
X9380000Y-5492000D01*
X9480000Y-5442000D02*
G75*
G03*
X9480000Y-5442000I-50000J0D01*
G01*
X9380000Y-5646000D02*
X9480000Y-5746000D01*
X9480000Y-5646000D02*
X9380000Y-5746000D01*
X9480000Y-5696000D02*
G75*
G03*
X9480000Y-5696000I-50000J0D01*
G01*
X9380000Y-5900000D02*
X9480000Y-6000000D01*
X9480000Y-5900000D02*
X9380000Y-6000000D01*
X9480000Y-5950000D02*
G75*
G03*
X9480000Y-5950000I-50000J0D01*
G01*
X9380000Y-6154000D02*
X9480000Y-6254000D01*
X9480000Y-6154000D02*
X9380000Y-6254000D01*
X9480000Y-6204000D02*
G75*
G03*
X9480000Y-6204000I-50000J0D01*
G01*
X9380000Y-6408000D02*
X9480000Y-6508000D01*
X9480000Y-6408000D02*
X9380000Y-6508000D01*
X9480000Y-6458000D02*
G75*
G03*
X9480000Y-6458000I-50000J0D01*
G01*
X9380000Y-6662000D02*
X9480000Y-6762000D01*
X9480000Y-6662000D02*
X9380000Y-6762000D01*
X9480000Y-6712000D02*
G75*
G03*
X9480000Y-6712000I-50000J0D01*
G01*
X9380000Y-6916000D02*
X9480000Y-7016000D01*
X9480000Y-6916000D02*
X9380000Y-7016000D01*
X9480000Y-6966000D02*
G75*
G03*
X9480000Y-6966000I-50000J0D01*
G01*
X9380000Y-7170000D02*
X9480000Y-7270000D01*
X9480000Y-7170000D02*
X9380000Y-7270000D01*
X9480000Y-7220000D02*
G75*
G03*
X9480000Y-7220000I-50000J0D01*
G01*
X9380000Y-7424000D02*
X9480000Y-7524000D01*
X9480000Y-7424000D02*
X9380000Y-7524000D01*
X9480000Y-7474000D02*
G75*
G03*
X9480000Y-7474000I-50000J0D01*
G01*
X9380000Y-7678000D02*
X9480000Y-7778000D01*
X9480000Y-7678000D02*
X9380000Y-7778000D01*
X9480000Y-7728000D02*
G75*
G03*
X9480000Y-7728000I-50000J0D01*
G01*
X9380000Y-7932000D02*
X9480000Y-8032000D01*
X9480000Y-7932000D02*
X9380000Y-8032000D01*
X9480000Y-7982000D02*
G75*
G03*
X9480000Y-7982000I-50000J0D01*
G01*
X9380000Y-8186000D02*
X9480000Y-8286000D01*
X9480000Y-8186000D02*
X9380000Y-8286000D01*
X9480000Y-8236000D02*
G75*
G03*
X9480000Y-8236000I-50000J0D01*
G01*
X9456850Y-10737450D02*
X9556850Y-10837450D01*
X9556850Y-10737450D02*
X9456850Y-10837450D01*
X9556850Y-10787450D02*
G75*
G03*
X9556850Y-10787450I-50000J0D01*
G01*
X13030500Y-10246200D02*
X13130500Y-10346200D01*
X13130500Y-10246200D02*
X13030500Y-10346200D01*
X13130500Y-10296200D02*
G75*
G03*
X13130500Y-10296200I-50000J0D01*
G01*
X13284500Y-10246200D02*
X13384500Y-10346200D01*
X13384500Y-10246200D02*
X13284500Y-10346200D01*
X13384500Y-10296200D02*
G75*
G03*
X13384500Y-10296200I-50000J0D01*
G01*
X13538500Y-10246200D02*
X13638500Y-10346200D01*
X13638500Y-10246200D02*
X13538500Y-10346200D01*
X13638500Y-10296200D02*
G75*
G03*
X13638500Y-10296200I-50000J0D01*
G01*
X13792500Y-10246200D02*
X13892500Y-10346200D01*
X13892500Y-10246200D02*
X13792500Y-10346200D01*
X13892500Y-10296200D02*
G75*
G03*
X13892500Y-10296200I-50000J0D01*
G01*
X14046500Y-10246200D02*
X14146500Y-10346200D01*
X14146500Y-10246200D02*
X14046500Y-10346200D01*
X14146500Y-10296200D02*
G75*
G03*
X14146500Y-10296200I-50000J0D01*
G01*
X14300500Y-10246200D02*
X14400500Y-10346200D01*
X14400500Y-10246200D02*
X14300500Y-10346200D01*
X14400500Y-10296200D02*
G75*
G03*
X14400500Y-10296200I-50000J0D01*
G01*
X14554500Y-10246200D02*
X14654500Y-10346200D01*
X14654500Y-10246200D02*
X14554500Y-10346200D01*
X14654500Y-10296200D02*
G75*
G03*
X14654500Y-10296200I-50000J0D01*
G01*
X14808500Y-10246200D02*
X14908500Y-10346200D01*
X14908500Y-10246200D02*
X14808500Y-10346200D01*
X14908500Y-10296200D02*
G75*
G03*
X14908500Y-10296200I-50000J0D01*
G01*
X15062500Y-10246200D02*
X15162500Y-10346200D01*
X15162500Y-10246200D02*
X15062500Y-10346200D01*
X15162500Y-10296200D02*
G75*
G03*
X15162500Y-10296200I-50000J0D01*
G01*
X15316500Y-10246200D02*
X15416500Y-10346200D01*
X15416500Y-10246200D02*
X15316500Y-10346200D01*
X15416500Y-10296200D02*
G75*
G03*
X15416500Y-10296200I-50000J0D01*
G01*
X15570500Y-10246200D02*
X15670500Y-10346200D01*
X15670500Y-10246200D02*
X15570500Y-10346200D01*
X15670500Y-10296200D02*
G75*
G03*
X15670500Y-10296200I-50000J0D01*
G01*
X15824500Y-10246200D02*
X15924500Y-10346200D01*
X15924500Y-10246200D02*
X15824500Y-10346200D01*
X15924500Y-10296200D02*
G75*
G03*
X15924500Y-10296200I-50000J0D01*
G01*
X16078500Y-10246200D02*
X16178500Y-10346200D01*
X16178500Y-10246200D02*
X16078500Y-10346200D01*
X16178500Y-10296200D02*
G75*
G03*
X16178500Y-10296200I-50000J0D01*
G01*
X16332500Y-10246200D02*
X16432500Y-10346200D01*
X16432500Y-10246200D02*
X16332500Y-10346200D01*
X16432500Y-10296200D02*
G75*
G03*
X16432500Y-10296200I-50000J0D01*
G01*
X7139200Y-8985200D02*
X7240800Y-9086800D01*
X7240800Y-8985200D02*
X7139200Y-9086800D01*
X7190000Y-8985200D02*
X7190000Y-9086800D01*
X7139200Y-9036000D02*
X7240800Y-9036000D01*
X7139200Y-9239200D02*
X7240800Y-9340800D01*
X7240800Y-9239200D02*
X7139200Y-9340800D01*
X7190000Y-9239200D02*
X7190000Y-9340800D01*
X7139200Y-9290000D02*
X7240800Y-9290000D01*
X7393200Y-8985200D02*
X7494800Y-9086800D01*
X7494800Y-8985200D02*
X7393200Y-9086800D01*
X7444000Y-8985200D02*
X7444000Y-9086800D01*
X7393200Y-9036000D02*
X7494800Y-9036000D01*
X7393200Y-9239200D02*
X7494800Y-9340800D01*
X7494800Y-9239200D02*
X7393200Y-9340800D01*
X7444000Y-9239200D02*
X7444000Y-9340800D01*
X7393200Y-9290000D02*
X7494800Y-9290000D01*
X7647200Y-8985200D02*
X7748800Y-9086800D01*
X7748800Y-8985200D02*
X7647200Y-9086800D01*
X7698000Y-8985200D02*
X7698000Y-9086800D01*
X7647200Y-9036000D02*
X7748800Y-9036000D01*
X7647200Y-9239200D02*
X7748800Y-9340800D01*
X7748800Y-9239200D02*
X7647200Y-9340800D01*
X7698000Y-9239200D02*
X7698000Y-9340800D01*
X7647200Y-9290000D02*
X7748800Y-9290000D01*
X7901200Y-8985200D02*
X8002800Y-9086800D01*
X8002800Y-8985200D02*
X7901200Y-9086800D01*
X7952000Y-8985200D02*
X7952000Y-9086800D01*
X7901200Y-9036000D02*
X8002800Y-9036000D01*
X7901200Y-9239200D02*
X8002800Y-9340800D01*
X8002800Y-9239200D02*
X7901200Y-9340800D01*
X7952000Y-9239200D02*
X7952000Y-9340800D01*
X7901200Y-9290000D02*
X8002800Y-9290000D01*
X8155200Y-8985200D02*
X8256800Y-9086800D01*
X8256800Y-8985200D02*
X8155200Y-9086800D01*
X8206000Y-8985200D02*
X8206000Y-9086800D01*
X8155200Y-9036000D02*
X8256800Y-9036000D01*
X8155200Y-9239200D02*
X8256800Y-9340800D01*
X8256800Y-9239200D02*
X8155200Y-9340800D01*
X8206000Y-9239200D02*
X8206000Y-9340800D01*
X8155200Y-9290000D02*
X8256800Y-9290000D01*
X9419200Y-8975200D02*
X9520800Y-9076800D01*
X9520800Y-8975200D02*
X9419200Y-9076800D01*
X9470000Y-8975200D02*
X9470000Y-9076800D01*
X9419200Y-9026000D02*
X9520800Y-9026000D01*
X9419200Y-9229200D02*
X9520800Y-9330800D01*
X9520800Y-9229200D02*
X9419200Y-9330800D01*
X9470000Y-9229200D02*
X9470000Y-9330800D01*
X9419200Y-9280000D02*
X9520800Y-9280000D01*
X9673200Y-8975200D02*
X9774800Y-9076800D01*
X9774800Y-8975200D02*
X9673200Y-9076800D01*
X9724000Y-8975200D02*
X9724000Y-9076800D01*
X9673200Y-9026000D02*
X9774800Y-9026000D01*
X9673200Y-9229200D02*
X9774800Y-9330800D01*
X9774800Y-9229200D02*
X9673200Y-9330800D01*
X9724000Y-9229200D02*
X9724000Y-9330800D01*
X9673200Y-9280000D02*
X9774800Y-9280000D01*
X9927200Y-8975200D02*
X10028800Y-9076800D01*
X10028800Y-8975200D02*
X9927200Y-9076800D01*
X9978000Y-8975200D02*
X9978000Y-9076800D01*
X9927200Y-9026000D02*
X10028800Y-9026000D01*
X9927200Y-9229200D02*
X10028800Y-9330800D01*
X10028800Y-9229200D02*
X9927200Y-9330800D01*
X9978000Y-9229200D02*
X9978000Y-9330800D01*
X9927200Y-9280000D02*
X10028800Y-9280000D01*
X10181200Y-8975200D02*
X10282800Y-9076800D01*
X10282800Y-8975200D02*
X10181200Y-9076800D01*
X10232000Y-8975200D02*
X10232000Y-9076800D01*
X10181200Y-9026000D02*
X10282800Y-9026000D01*
X10181200Y-9229200D02*
X10282800Y-9330800D01*
X10282800Y-9229200D02*
X10181200Y-9330800D01*
X10232000Y-9229200D02*
X10232000Y-9330800D01*
X10181200Y-9280000D02*
X10282800Y-9280000D01*
X10435200Y-8975200D02*
X10536800Y-9076800D01*
X10536800Y-8975200D02*
X10435200Y-9076800D01*
X10486000Y-8975200D02*
X10486000Y-9076800D01*
X10435200Y-9026000D02*
X10536800Y-9026000D01*
X10435200Y-9229200D02*
X10536800Y-9330800D01*
X10536800Y-9229200D02*
X10435200Y-9330800D01*
X10486000Y-9229200D02*
X10486000Y-9330800D01*
X10435200Y-9280000D02*
X10536800Y-9280000D01*
X10689200Y-8975200D02*
X10790800Y-9076800D01*
X10790800Y-8975200D02*
X10689200Y-9076800D01*
X10740000Y-8975200D02*
X10740000Y-9076800D01*
X10689200Y-9026000D02*
X10790800Y-9026000D01*
X10689200Y-9229200D02*
X10790800Y-9330800D01*
X10790800Y-9229200D02*
X10689200Y-9330800D01*
X10740000Y-9229200D02*
X10740000Y-9330800D01*
X10689200Y-9280000D02*
X10790800Y-9280000D01*
X14059200Y-10869200D02*
X14160800Y-10970800D01*
X14160800Y-10869200D02*
X14059200Y-10970800D01*
X14110000Y-10869200D02*
X14110000Y-10970800D01*
X14059200Y-10920000D02*
X14160800Y-10920000D01*
X14059200Y-11123200D02*
X14160800Y-11224800D01*
X14160800Y-11123200D02*
X14059200Y-11224800D01*
X14110000Y-11123200D02*
X14110000Y-11224800D01*
X14059200Y-11174000D02*
X14160800Y-11174000D01*
X14313200Y-10869200D02*
X14414800Y-10970800D01*
X14414800Y-10869200D02*
X14313200Y-10970800D01*
X14364000Y-10869200D02*
X14364000Y-10970800D01*
X14313200Y-10920000D02*
X14414800Y-10920000D01*
X14313200Y-11123200D02*
X14414800Y-11224800D01*
X14414800Y-11123200D02*
X14313200Y-11224800D01*
X14364000Y-11123200D02*
X14364000Y-11224800D01*
X14313200Y-11174000D02*
X14414800Y-11174000D01*
X14567200Y-10869200D02*
X14668800Y-10970800D01*
X14668800Y-10869200D02*
X14567200Y-10970800D01*
X14618000Y-10869200D02*
X14618000Y-10970800D01*
X14567200Y-10920000D02*
X14668800Y-10920000D01*
X14567200Y-11123200D02*
X14668800Y-11224800D01*
X14668800Y-11123200D02*
X14567200Y-11224800D01*
X14618000Y-11123200D02*
X14618000Y-11224800D01*
X14567200Y-11174000D02*
X14668800Y-11174000D01*
X14821200Y-10869200D02*
X14922800Y-10970800D01*
X14922800Y-10869200D02*
X14821200Y-10970800D01*
X14872000Y-10869200D02*
X14872000Y-10970800D01*
X14821200Y-10920000D02*
X14922800Y-10920000D01*
X14821200Y-11123200D02*
X14922800Y-11224800D01*
X14922800Y-11123200D02*
X14821200Y-11224800D01*
X14872000Y-11123200D02*
X14872000Y-11224800D01*
X14821200Y-11174000D02*
X14922800Y-11174000D01*
X15075200Y-10869200D02*
X15176800Y-10970800D01*
X15176800Y-10869200D02*
X15075200Y-10970800D01*
X15126000Y-10869200D02*
X15126000Y-10970800D01*
X15075200Y-10920000D02*
X15176800Y-10920000D01*
X15075200Y-11123200D02*
X15176800Y-11224800D01*
X15176800Y-11123200D02*
X15075200Y-11224800D01*
X15126000Y-11123200D02*
X15126000Y-11224800D01*
X15075200Y-11174000D02*
X15176800Y-11174000D01*
X15329200Y-10869200D02*
X15430800Y-10970800D01*
X15430800Y-10869200D02*
X15329200Y-10970800D01*
X15380000Y-10869200D02*
X15380000Y-10970800D01*
X15329200Y-10920000D02*
X15430800Y-10920000D01*
X15329200Y-11123200D02*
X15430800Y-11224800D01*
X15430800Y-11123200D02*
X15329200Y-11224800D01*
X15380000Y-11123200D02*
X15380000Y-11224800D01*
X15329200Y-11174000D02*
X15430800Y-11174000D01*
X6538250Y-11945550D02*
X6668250Y-12075550D01*
X6668250Y-11945550D02*
X6538250Y-12075550D01*
X6649212Y-12056512D02*
X6649212Y-11964588D01*
X6557288Y-11964588D01*
X6557288Y-12056512D01*
X6649212Y-12056512D01*
X6620000Y-13045000D02*
X6750000Y-13175000D01*
X6750000Y-13045000D02*
X6620000Y-13175000D01*
X6730962Y-13155962D02*
X6730962Y-13064038D01*
X6639038Y-13064038D01*
X6639038Y-13155962D01*
X6730962Y-13155962D01*
X7128000Y-13045000D02*
X7258000Y-13175000D01*
X7258000Y-13045000D02*
X7128000Y-13175000D01*
X7238962Y-13155962D02*
X7238962Y-13064038D01*
X7147038Y-13064038D01*
X7147038Y-13155962D01*
X7238962Y-13155962D01*
X7143250Y-10530550D02*
X7273250Y-10660550D01*
X7273250Y-10530550D02*
X7143250Y-10660550D01*
X7254212Y-10641512D02*
X7254212Y-10549588D01*
X7162288Y-10549588D01*
X7162288Y-10641512D01*
X7254212Y-10641512D01*
X7636000Y-13045000D02*
X7766000Y-13175000D01*
X7766000Y-13045000D02*
X7636000Y-13175000D01*
X7746962Y-13155962D02*
X7746962Y-13064038D01*
X7655038Y-13064038D01*
X7655038Y-13155962D01*
X7746962Y-13155962D01*
X7743250Y-11950550D02*
X7873250Y-12080550D01*
X7873250Y-11950550D02*
X7743250Y-12080550D01*
X7854212Y-12061512D02*
X7854212Y-11969588D01*
X7762288Y-11969588D01*
X7762288Y-12061512D01*
X7854212Y-12061512D01*
X8241850Y-11942450D02*
X8371850Y-12072450D01*
X8371850Y-11942450D02*
X8241850Y-12072450D01*
X8352812Y-12053412D02*
X8352812Y-11961488D01*
X8260888Y-11961488D01*
X8260888Y-12053412D01*
X8352812Y-12053412D01*
X8350000Y-13050000D02*
X8480000Y-13180000D01*
X8480000Y-13050000D02*
X8350000Y-13180000D01*
X8460962Y-13160962D02*
X8460962Y-13069038D01*
X8369038Y-13069038D01*
X8369038Y-13160962D01*
X8460962Y-13160962D01*
X8846850Y-10527450D02*
X8976850Y-10657450D01*
X8976850Y-10527450D02*
X8846850Y-10657450D01*
X8957812Y-10638412D02*
X8957812Y-10546488D01*
X8865888Y-10546488D01*
X8865888Y-10638412D01*
X8957812Y-10638412D01*
X8858000Y-13050000D02*
X8988000Y-13180000D01*
X8988000Y-13050000D02*
X8858000Y-13180000D01*
X8968962Y-13160962D02*
X8968962Y-13069038D01*
X8877038Y-13069038D01*
X8877038Y-13160962D01*
X8968962Y-13160962D01*
X9366000Y-13050000D02*
X9496000Y-13180000D01*
X9496000Y-13050000D02*
X9366000Y-13180000D01*
X9476962Y-13160962D02*
X9476962Y-13069038D01*
X9385038Y-13069038D01*
X9385038Y-13160962D01*
X9476962Y-13160962D01*
X9446850Y-11947450D02*
X9576850Y-12077450D01*
X9576850Y-11947450D02*
X9446850Y-12077450D01*
X9557812Y-12058412D02*
X9557812Y-11966488D01*
X9465888Y-11966488D01*
X9465888Y-12058412D01*
X9557812Y-12058412D01*
X9987000Y-7995000D02*
X10117000Y-8125000D01*
X10117000Y-7995000D02*
X9987000Y-8125000D01*
X10097962Y-8105962D02*
X10097962Y-8014038D01*
X10006038Y-8014038D01*
X10006038Y-8105962D01*
X10097962Y-8105962D01*
X9990000Y-5195000D02*
X10120000Y-5325000D01*
X10120000Y-5195000D02*
X9990000Y-5325000D01*
X10100962Y-5305962D02*
X10100962Y-5214038D01*
X10009038Y-5214038D01*
X10009038Y-5305962D01*
X10100962Y-5305962D01*
X9992000Y-4035000D02*
X10122000Y-4165000D01*
X10122000Y-4035000D02*
X9992000Y-4165000D01*
X10102962Y-4145962D02*
X10102962Y-4054038D01*
X10011038Y-4054038D01*
X10011038Y-4145962D01*
X10102962Y-4145962D01*
X10495000Y-7995000D02*
X10625000Y-8125000D01*
X10625000Y-7995000D02*
X10495000Y-8125000D01*
X10605962Y-8105962D02*
X10605962Y-8014038D01*
X10514038Y-8014038D01*
X10514038Y-8105962D01*
X10605962Y-8105962D01*
X10498000Y-5195000D02*
X10628000Y-5325000D01*
X10628000Y-5195000D02*
X10498000Y-5325000D01*
X10608962Y-5305962D02*
X10608962Y-5214038D01*
X10517038Y-5214038D01*
X10517038Y-5305962D01*
X10608962Y-5305962D01*
X10500000Y-4035000D02*
X10630000Y-4165000D01*
X10630000Y-4035000D02*
X10500000Y-4165000D01*
X10610962Y-4145962D02*
X10610962Y-4054038D01*
X10519038Y-4054038D01*
X10519038Y-4145962D01*
X10610962Y-4145962D01*
X11152000Y-7995000D02*
X11282000Y-8125000D01*
X11282000Y-7995000D02*
X11152000Y-8125000D01*
X11262962Y-8105962D02*
X11262962Y-8014038D01*
X11171038Y-8014038D01*
X11171038Y-8105962D01*
X11262962Y-8105962D01*
X11160000Y-5195000D02*
X11290000Y-5325000D01*
X11290000Y-5195000D02*
X11160000Y-5325000D01*
X11270962Y-5305962D02*
X11270962Y-5214038D01*
X11179038Y-5214038D01*
X11179038Y-5305962D01*
X11270962Y-5305962D01*
X11162000Y-4035000D02*
X11292000Y-4165000D01*
X11292000Y-4035000D02*
X11162000Y-4165000D01*
X11272962Y-4145962D02*
X11272962Y-4054038D01*
X11181038Y-4054038D01*
X11181038Y-4145962D01*
X11272962Y-4145962D01*
X11660000Y-7995000D02*
X11790000Y-8125000D01*
X11790000Y-7995000D02*
X11660000Y-8125000D01*
X11770962Y-8105962D02*
X11770962Y-8014038D01*
X11679038Y-8014038D01*
X11679038Y-8105962D01*
X11770962Y-8105962D01*
X11668000Y-5195000D02*
X11798000Y-5325000D01*
X11798000Y-5195000D02*
X11668000Y-5325000D01*
X11778962Y-5305962D02*
X11778962Y-5214038D01*
X11687038Y-5214038D01*
X11687038Y-5305962D01*
X11778962Y-5305962D01*
X11670000Y-4035000D02*
X11800000Y-4165000D01*
X11800000Y-4035000D02*
X11670000Y-4165000D01*
X11780962Y-4145962D02*
X11780962Y-4054038D01*
X11689038Y-4054038D01*
X11689038Y-4145962D01*
X11780962Y-4145962D01*
X15970000Y-4747000D02*
X16100000Y-4877000D01*
X16100000Y-4747000D02*
X15970000Y-4877000D01*
X16080962Y-4857962D02*
X16080962Y-4766038D01*
X15989038Y-4766038D01*
X15989038Y-4857962D01*
X16080962Y-4857962D01*
X15970000Y-5255000D02*
X16100000Y-5385000D01*
X16100000Y-5255000D02*
X15970000Y-5385000D01*
X16080962Y-5365962D02*
X16080962Y-5274038D01*
X15989038Y-5274038D01*
X15989038Y-5365962D01*
X16080962Y-5365962D01*
X15970000Y-7897000D02*
X16100000Y-8027000D01*
X16100000Y-7897000D02*
X15970000Y-8027000D01*
X16080962Y-8007962D02*
X16080962Y-7916038D01*
X15989038Y-7916038D01*
X15989038Y-8007962D01*
X16080962Y-8007962D01*
X15970000Y-8405000D02*
X16100000Y-8535000D01*
X16100000Y-8405000D02*
X15970000Y-8535000D01*
X16080962Y-8515962D02*
X16080962Y-8424038D01*
X15989038Y-8424038D01*
X15989038Y-8515962D01*
X16080962Y-8515962D01*
X12875000Y-4735000D02*
X13025000Y-4885000D01*
X13025000Y-4735000D02*
X12875000Y-4885000D01*
X12950000Y-4885000D02*
X13025000Y-4810000D01*
X12950000Y-4735000D01*
X12875000Y-4810000D01*
X12950000Y-4885000D01*
X12875000Y-9235000D02*
X13025000Y-9385000D01*
X13025000Y-9235000D02*
X12875000Y-9385000D01*
X12950000Y-9385000D02*
X13025000Y-9310000D01*
X12950000Y-9235000D01*
X12875000Y-9310000D01*
X12950000Y-9385000D01*
X13675000Y-9235000D02*
X13825000Y-9385000D01*
X13825000Y-9235000D02*
X13675000Y-9385000D01*
X13750000Y-9385000D02*
X13825000Y-9310000D01*
X13750000Y-9235000D01*
X13675000Y-9310000D01*
X13750000Y-9385000D01*
X14955000Y-4735000D02*
X15105000Y-4885000D01*
X15105000Y-4735000D02*
X14955000Y-4885000D01*
X15030000Y-4885000D02*
X15105000Y-4810000D01*
X15030000Y-4735000D01*
X14955000Y-4810000D01*
X15030000Y-4885000D01*
X2950000Y-9210000D02*
X2950000Y-9530000D01*
X2790000Y-9370000D02*
X3110000Y-9370000D01*
X3110000Y-9370000D02*
G75*
G03*
X3110000Y-9370000I-160000J0D01*
G01*
X2960000Y-3770000D02*
X2960000Y-4090000D01*
X2800000Y-3930000D02*
X3120000Y-3930000D01*
X3120000Y-3930000D02*
G75*
G03*
X3120000Y-3930000I-160000J0D01*
G01*
X4850000Y-9210000D02*
X4850000Y-9530000D01*
X4690000Y-9370000D02*
X5010000Y-9370000D01*
X5010000Y-9370000D02*
G75*
G03*
X5010000Y-9370000I-160000J0D01*
G01*
X4860000Y-3770000D02*
X4860000Y-4090000D01*
X4700000Y-3930000D02*
X5020000Y-3930000D01*
X5020000Y-3930000D02*
G75*
G03*
X5020000Y-3930000I-160000J0D01*
G01*
X5950000Y-9210000D02*
X5950000Y-9530000D01*
X5790000Y-9370000D02*
X6110000Y-9370000D01*
X6110000Y-9370000D02*
G75*
G03*
X6110000Y-9370000I-160000J0D01*
G01*
X5950000Y-10615000D02*
X5950000Y-10935000D01*
X5790000Y-10775000D02*
X6110000Y-10775000D01*
X6110000Y-10775000D02*
G75*
G03*
X6110000Y-10775000I-160000J0D01*
G01*
X5950000Y-13115000D02*
X5950000Y-13435000D01*
X5790000Y-13275000D02*
X6110000Y-13275000D01*
X6110000Y-13275000D02*
G75*
G03*
X6110000Y-13275000I-160000J0D01*
G01*
X5960000Y-3770000D02*
X5960000Y-4090000D01*
X5800000Y-3930000D02*
X6120000Y-3930000D01*
X6120000Y-3930000D02*
G75*
G03*
X6120000Y-3930000I-160000J0D01*
G01*
X10150000Y-10625000D02*
X10150000Y-10945000D01*
X9990000Y-10785000D02*
X10310000Y-10785000D01*
X10310000Y-10785000D02*
G75*
G03*
X10310000Y-10785000I-160000J0D01*
G01*
X10150000Y-13130000D02*
X10150000Y-13450000D01*
X9990000Y-13290000D02*
X10310000Y-13290000D01*
X10310000Y-13290000D02*
G75*
G03*
X10310000Y-13290000I-160000J0D01*
G01*
X11650000Y-9210000D02*
X11650000Y-9530000D01*
X11490000Y-9370000D02*
X11810000Y-9370000D01*
X11810000Y-9370000D02*
G75*
G03*
X11810000Y-9370000I-160000J0D01*
G01*
X12910000Y-3760000D02*
X12910000Y-4080000D01*
X12750000Y-3920000D02*
X13070000Y-3920000D01*
X13070000Y-3920000D02*
G75*
G03*
X13070000Y-3920000I-160000J0D01*
G01*
X15910000Y-3760000D02*
X15910000Y-4080000D01*
X15750000Y-3920000D02*
X16070000Y-3920000D01*
X16070000Y-3920000D02*
G75*
G03*
X16070000Y-3920000I-160000J0D01*
G01*
X15910000Y-9210000D02*
X15910000Y-9530000D01*
X15750000Y-9370000D02*
X16070000Y-9370000D01*
X16070000Y-9370000D02*
G75*
G03*
X16070000Y-9370000I-160000J0D01*
G01*
D12*
X2773928Y-14188214D02*
X2773928Y-13888214D01*
X2845357Y-13888214D01*
X2888214Y-13902500D01*
X2916786Y-13931071D01*
X2931071Y-13959643D01*
X2945357Y-14016786D01*
X2945357Y-14059643D01*
X2931071Y-14116786D01*
X2916786Y-14145357D01*
X2888214Y-14173929D01*
X2845357Y-14188214D01*
X2773928Y-14188214D01*
X3073928Y-14188214D02*
X3073928Y-13988214D01*
X3073928Y-14045357D02*
X3088214Y-14016786D01*
X3102500Y-14002500D01*
X3131071Y-13988214D01*
X3159643Y-13988214D01*
X3259643Y-14188214D02*
X3259643Y-13988214D01*
X3259643Y-13888214D02*
X3245357Y-13902500D01*
X3259643Y-13916786D01*
X3273928Y-13902500D01*
X3259643Y-13888214D01*
X3259643Y-13916786D01*
X3445357Y-14188214D02*
X3416786Y-14173929D01*
X3402500Y-14145357D01*
X3402500Y-13888214D01*
X3602500Y-14188214D02*
X3573928Y-14173929D01*
X3559643Y-14145357D01*
X3559643Y-13888214D01*
X3945357Y-14188214D02*
X3945357Y-13888214D01*
X4045357Y-14102500D01*
X4145357Y-13888214D01*
X4145357Y-14188214D01*
X4416786Y-14188214D02*
X4416786Y-14031071D01*
X4402500Y-14002500D01*
X4373928Y-13988214D01*
X4316786Y-13988214D01*
X4288214Y-14002500D01*
X4416786Y-14173929D02*
X4388214Y-14188214D01*
X4316786Y-14188214D01*
X4288214Y-14173929D01*
X4273928Y-14145357D01*
X4273928Y-14116786D01*
X4288214Y-14088214D01*
X4316786Y-14073929D01*
X4388214Y-14073929D01*
X4416786Y-14059643D01*
X4559643Y-13988214D02*
X4559643Y-14288214D01*
X4559643Y-14002500D02*
X4588214Y-13988214D01*
X4645357Y-13988214D01*
X4673928Y-14002500D01*
X4688214Y-14016786D01*
X4702500Y-14045357D01*
X4702500Y-14131071D01*
X4688214Y-14159643D01*
X4673928Y-14173929D01*
X4645357Y-14188214D01*
X4588214Y-14188214D01*
X4559643Y-14173929D01*
X4831071Y-14159643D02*
X4845357Y-14173929D01*
X4831071Y-14188214D01*
X4816786Y-14173929D01*
X4831071Y-14159643D01*
X4831071Y-14188214D01*
X4831071Y-14002500D02*
X4845357Y-14016786D01*
X4831071Y-14031071D01*
X4816786Y-14016786D01*
X4831071Y-14002500D01*
X4831071Y-14031071D01*
X2447500Y-14662500D02*
X2487500Y-14702500D01*
X2487500Y-14662500D02*
X2447500Y-14702500D01*
X2831071Y-14518214D02*
X2859643Y-14518214D01*
X2888214Y-14532500D01*
X2902500Y-14546786D01*
X2916786Y-14575357D01*
X2931071Y-14632500D01*
X2931071Y-14703929D01*
X2916786Y-14761071D01*
X2902500Y-14789643D01*
X2888214Y-14803929D01*
X2859643Y-14818214D01*
X2831071Y-14818214D01*
X2802500Y-14803929D01*
X2788214Y-14789643D01*
X2773928Y-14761071D01*
X2759643Y-14703929D01*
X2759643Y-14632500D01*
X2773928Y-14575357D01*
X2788214Y-14546786D01*
X2802500Y-14532500D01*
X2831071Y-14518214D01*
X3059643Y-14789643D02*
X3073928Y-14803929D01*
X3059643Y-14818214D01*
X3045357Y-14803929D01*
X3059643Y-14789643D01*
X3059643Y-14818214D01*
X3331071Y-14618214D02*
X3331071Y-14818214D01*
X3259643Y-14503929D02*
X3188214Y-14718214D01*
X3373928Y-14718214D01*
X3545357Y-14518214D02*
X3573928Y-14518214D01*
X3602500Y-14532500D01*
X3616786Y-14546786D01*
X3631071Y-14575357D01*
X3645357Y-14632500D01*
X3645357Y-14703929D01*
X3631071Y-14761071D01*
X3616786Y-14789643D01*
X3602500Y-14803929D01*
X3573928Y-14818214D01*
X3545357Y-14818214D01*
X3516786Y-14803929D01*
X3502500Y-14789643D01*
X3488214Y-14761071D01*
X3473928Y-14703929D01*
X3473928Y-14632500D01*
X3488214Y-14575357D01*
X3502500Y-14546786D01*
X3516786Y-14532500D01*
X3545357Y-14518214D01*
X3773928Y-14818214D02*
X3773928Y-14618214D01*
X3773928Y-14646786D02*
X3788214Y-14632500D01*
X3816786Y-14618214D01*
X3859643Y-14618214D01*
X3888214Y-14632500D01*
X3902500Y-14661071D01*
X3902500Y-14818214D01*
X3902500Y-14661071D02*
X3916786Y-14632500D01*
X3945357Y-14618214D01*
X3988214Y-14618214D01*
X4016786Y-14632500D01*
X4031071Y-14661071D01*
X4031071Y-14818214D01*
X4173928Y-14818214D02*
X4173928Y-14618214D01*
X4173928Y-14646786D02*
X4188214Y-14632500D01*
X4216786Y-14618214D01*
X4259643Y-14618214D01*
X4288214Y-14632500D01*
X4302500Y-14661071D01*
X4302500Y-14818214D01*
X4302500Y-14661071D02*
X4316786Y-14632500D01*
X4345357Y-14618214D01*
X4388214Y-14618214D01*
X4416786Y-14632500D01*
X4431071Y-14661071D01*
X4431071Y-14818214D01*
X5016786Y-14503929D02*
X4759643Y-14889643D01*
X5402500Y-14518214D02*
X5431071Y-14518214D01*
X5459643Y-14532500D01*
X5473928Y-14546786D01*
X5488214Y-14575357D01*
X5502500Y-14632500D01*
X5502500Y-14703929D01*
X5488214Y-14761071D01*
X5473928Y-14789643D01*
X5459643Y-14803929D01*
X5431071Y-14818214D01*
X5402500Y-14818214D01*
X5373928Y-14803929D01*
X5359643Y-14789643D01*
X5345357Y-14761071D01*
X5331071Y-14703929D01*
X5331071Y-14632500D01*
X5345357Y-14575357D01*
X5359643Y-14546786D01*
X5373928Y-14532500D01*
X5402500Y-14518214D01*
X5631071Y-14789643D02*
X5645357Y-14803929D01*
X5631071Y-14818214D01*
X5616786Y-14803929D01*
X5631071Y-14789643D01*
X5631071Y-14818214D01*
X5831071Y-14518214D02*
X5859643Y-14518214D01*
X5888214Y-14532500D01*
X5902500Y-14546786D01*
X5916786Y-14575357D01*
X5931071Y-14632500D01*
X5931071Y-14703929D01*
X5916786Y-14761071D01*
X5902500Y-14789643D01*
X5888214Y-14803929D01*
X5859643Y-14818214D01*
X5831071Y-14818214D01*
X5802500Y-14803929D01*
X5788214Y-14789643D01*
X5773928Y-14761071D01*
X5759643Y-14703929D01*
X5759643Y-14632500D01*
X5773928Y-14575357D01*
X5788214Y-14546786D01*
X5802500Y-14532500D01*
X5831071Y-14518214D01*
X6216786Y-14818214D02*
X6045357Y-14818214D01*
X6131071Y-14818214D02*
X6131071Y-14518214D01*
X6102500Y-14561071D01*
X6073928Y-14589643D01*
X6045357Y-14603929D01*
X6473928Y-14518214D02*
X6416786Y-14518214D01*
X6388214Y-14532500D01*
X6373928Y-14546786D01*
X6345357Y-14589643D01*
X6331071Y-14646786D01*
X6331071Y-14761071D01*
X6345357Y-14789643D01*
X6359643Y-14803929D01*
X6388214Y-14818214D01*
X6445357Y-14818214D01*
X6473928Y-14803929D01*
X6488214Y-14789643D01*
X6502500Y-14761071D01*
X6502500Y-14689643D01*
X6488214Y-14661071D01*
X6473928Y-14646786D01*
X6445357Y-14632500D01*
X6388214Y-14632500D01*
X6359643Y-14646786D01*
X6345357Y-14661071D01*
X6331071Y-14689643D01*
X6616786Y-14518214D02*
X6616786Y-14575357D01*
X6731071Y-14518214D02*
X6731071Y-14575357D01*
X7173928Y-14932500D02*
X7159643Y-14918214D01*
X7131071Y-14875357D01*
X7116786Y-14846786D01*
X7102500Y-14803929D01*
X7088214Y-14732500D01*
X7088214Y-14675357D01*
X7102500Y-14603929D01*
X7116786Y-14561071D01*
X7131071Y-14532500D01*
X7159643Y-14489643D01*
X7173928Y-14475357D01*
X7259643Y-14518214D02*
X7445357Y-14518214D01*
X7345357Y-14632500D01*
X7388214Y-14632500D01*
X7416786Y-14646786D01*
X7431071Y-14661071D01*
X7445357Y-14689643D01*
X7445357Y-14761071D01*
X7431071Y-14789643D01*
X7416786Y-14803929D01*
X7388214Y-14818214D01*
X7302500Y-14818214D01*
X7273928Y-14803929D01*
X7259643Y-14789643D01*
X7702500Y-14618214D02*
X7702500Y-14818214D01*
X7631071Y-14503929D02*
X7559643Y-14718214D01*
X7745357Y-14718214D01*
X8088214Y-14818214D02*
X8088214Y-14518214D01*
X8216786Y-14818214D02*
X8216786Y-14661071D01*
X8202500Y-14632500D01*
X8173928Y-14618214D01*
X8131071Y-14618214D01*
X8102500Y-14632500D01*
X8088214Y-14646786D01*
X8402500Y-14818214D02*
X8373928Y-14803929D01*
X8359643Y-14789643D01*
X8345357Y-14761071D01*
X8345357Y-14675357D01*
X8359643Y-14646786D01*
X8373928Y-14632500D01*
X8402500Y-14618214D01*
X8445357Y-14618214D01*
X8473928Y-14632500D01*
X8488214Y-14646786D01*
X8502500Y-14675357D01*
X8502500Y-14761071D01*
X8488214Y-14789643D01*
X8473928Y-14803929D01*
X8445357Y-14818214D01*
X8402500Y-14818214D01*
X8673928Y-14818214D02*
X8645357Y-14803929D01*
X8631071Y-14775357D01*
X8631071Y-14518214D01*
X8902500Y-14803929D02*
X8873928Y-14818214D01*
X8816786Y-14818214D01*
X8788214Y-14803929D01*
X8773928Y-14775357D01*
X8773928Y-14661071D01*
X8788214Y-14632500D01*
X8816786Y-14618214D01*
X8873928Y-14618214D01*
X8902500Y-14632500D01*
X8916786Y-14661071D01*
X8916786Y-14689643D01*
X8773928Y-14718214D01*
X9031071Y-14803929D02*
X9059643Y-14818214D01*
X9116786Y-14818214D01*
X9145357Y-14803929D01*
X9159643Y-14775357D01*
X9159643Y-14761071D01*
X9145357Y-14732500D01*
X9116786Y-14718214D01*
X9073928Y-14718214D01*
X9045357Y-14703929D01*
X9031071Y-14675357D01*
X9031071Y-14661071D01*
X9045357Y-14632500D01*
X9073928Y-14618214D01*
X9116786Y-14618214D01*
X9145357Y-14632500D01*
X9259643Y-14932500D02*
X9273928Y-14918214D01*
X9302500Y-14875357D01*
X9316786Y-14846786D01*
X9331071Y-14803929D01*
X9345357Y-14732500D01*
X9345357Y-14675357D01*
X9331071Y-14603929D01*
X9316786Y-14561071D01*
X9302500Y-14532500D01*
X9273928Y-14489643D01*
X9259643Y-14475357D01*
X2487500Y-15078500D02*
G75*
G03*
X2487500Y-15078500I-35000J0D01*
G01*
X2831071Y-14914214D02*
X2859643Y-14914214D01*
X2888214Y-14928500D01*
X2902500Y-14942786D01*
X2916786Y-14971357D01*
X2931071Y-15028500D01*
X2931071Y-15099929D01*
X2916786Y-15157071D01*
X2902500Y-15185643D01*
X2888214Y-15199929D01*
X2859643Y-15214214D01*
X2831071Y-15214214D01*
X2802500Y-15199929D01*
X2788214Y-15185643D01*
X2773928Y-15157071D01*
X2759643Y-15099929D01*
X2759643Y-15028500D01*
X2773928Y-14971357D01*
X2788214Y-14942786D01*
X2802500Y-14928500D01*
X2831071Y-14914214D01*
X3059643Y-15185643D02*
X3073928Y-15199929D01*
X3059643Y-15214214D01*
X3045357Y-15199929D01*
X3059643Y-15185643D01*
X3059643Y-15214214D01*
X3173928Y-14914214D02*
X3373928Y-14914214D01*
X3245357Y-15214214D01*
X3545357Y-14914214D02*
X3573928Y-14914214D01*
X3602500Y-14928500D01*
X3616786Y-14942786D01*
X3631071Y-14971357D01*
X3645357Y-15028500D01*
X3645357Y-15099929D01*
X3631071Y-15157071D01*
X3616786Y-15185643D01*
X3602500Y-15199929D01*
X3573928Y-15214214D01*
X3545357Y-15214214D01*
X3516786Y-15199929D01*
X3502500Y-15185643D01*
X3488214Y-15157071D01*
X3473928Y-15099929D01*
X3473928Y-15028500D01*
X3488214Y-14971357D01*
X3502500Y-14942786D01*
X3516786Y-14928500D01*
X3545357Y-14914214D01*
X3773928Y-15214214D02*
X3773928Y-15014214D01*
X3773928Y-15042786D02*
X3788214Y-15028500D01*
X3816786Y-15014214D01*
X3859643Y-15014214D01*
X3888214Y-15028500D01*
X3902500Y-15057071D01*
X3902500Y-15214214D01*
X3902500Y-15057071D02*
X3916786Y-15028500D01*
X3945357Y-15014214D01*
X3988214Y-15014214D01*
X4016786Y-15028500D01*
X4031071Y-15057071D01*
X4031071Y-15214214D01*
X4173928Y-15214214D02*
X4173928Y-15014214D01*
X4173928Y-15042786D02*
X4188214Y-15028500D01*
X4216786Y-15014214D01*
X4259643Y-15014214D01*
X4288214Y-15028500D01*
X4302500Y-15057071D01*
X4302500Y-15214214D01*
X4302500Y-15057071D02*
X4316786Y-15028500D01*
X4345357Y-15014214D01*
X4388214Y-15014214D01*
X4416786Y-15028500D01*
X4431071Y-15057071D01*
X4431071Y-15214214D01*
X5016786Y-14899929D02*
X4759643Y-15285643D01*
X5402500Y-14914214D02*
X5431071Y-14914214D01*
X5459643Y-14928500D01*
X5473928Y-14942786D01*
X5488214Y-14971357D01*
X5502500Y-15028500D01*
X5502500Y-15099929D01*
X5488214Y-15157071D01*
X5473928Y-15185643D01*
X5459643Y-15199929D01*
X5431071Y-15214214D01*
X5402500Y-15214214D01*
X5373928Y-15199929D01*
X5359643Y-15185643D01*
X5345357Y-15157071D01*
X5331071Y-15099929D01*
X5331071Y-15028500D01*
X5345357Y-14971357D01*
X5359643Y-14942786D01*
X5373928Y-14928500D01*
X5402500Y-14914214D01*
X5631071Y-15185643D02*
X5645357Y-15199929D01*
X5631071Y-15214214D01*
X5616786Y-15199929D01*
X5631071Y-15185643D01*
X5631071Y-15214214D01*
X5831071Y-14914214D02*
X5859643Y-14914214D01*
X5888214Y-14928500D01*
X5902500Y-14942786D01*
X5916786Y-14971357D01*
X5931071Y-15028500D01*
X5931071Y-15099929D01*
X5916786Y-15157071D01*
X5902500Y-15185643D01*
X5888214Y-15199929D01*
X5859643Y-15214214D01*
X5831071Y-15214214D01*
X5802500Y-15199929D01*
X5788214Y-15185643D01*
X5773928Y-15157071D01*
X5759643Y-15099929D01*
X5759643Y-15028500D01*
X5773928Y-14971357D01*
X5788214Y-14942786D01*
X5802500Y-14928500D01*
X5831071Y-14914214D01*
X6045357Y-14942786D02*
X6059643Y-14928500D01*
X6088214Y-14914214D01*
X6159643Y-14914214D01*
X6188214Y-14928500D01*
X6202500Y-14942786D01*
X6216786Y-14971357D01*
X6216786Y-14999929D01*
X6202500Y-15042786D01*
X6031071Y-15214214D01*
X6216786Y-15214214D01*
X6388214Y-15042786D02*
X6359643Y-15028500D01*
X6345357Y-15014214D01*
X6331071Y-14985643D01*
X6331071Y-14971357D01*
X6345357Y-14942786D01*
X6359643Y-14928500D01*
X6388214Y-14914214D01*
X6445357Y-14914214D01*
X6473928Y-14928500D01*
X6488214Y-14942786D01*
X6502500Y-14971357D01*
X6502500Y-14985643D01*
X6488214Y-15014214D01*
X6473928Y-15028500D01*
X6445357Y-15042786D01*
X6388214Y-15042786D01*
X6359643Y-15057071D01*
X6345357Y-15071357D01*
X6331071Y-15099929D01*
X6331071Y-15157071D01*
X6345357Y-15185643D01*
X6359643Y-15199929D01*
X6388214Y-15214214D01*
X6445357Y-15214214D01*
X6473928Y-15199929D01*
X6488214Y-15185643D01*
X6502500Y-15157071D01*
X6502500Y-15099929D01*
X6488214Y-15071357D01*
X6473928Y-15057071D01*
X6445357Y-15042786D01*
X6616786Y-14914214D02*
X6616786Y-14971357D01*
X6731071Y-14914214D02*
X6731071Y-14971357D01*
X7173928Y-15328500D02*
X7159643Y-15314214D01*
X7131071Y-15271357D01*
X7116786Y-15242786D01*
X7102500Y-15199929D01*
X7088214Y-15128500D01*
X7088214Y-15071357D01*
X7102500Y-14999929D01*
X7116786Y-14957071D01*
X7131071Y-14928500D01*
X7159643Y-14885643D01*
X7173928Y-14871357D01*
X7445357Y-15214214D02*
X7273928Y-15214214D01*
X7359643Y-15214214D02*
X7359643Y-14914214D01*
X7331071Y-14957071D01*
X7302500Y-14985643D01*
X7273928Y-14999929D01*
X7702500Y-15014214D02*
X7702500Y-15214214D01*
X7631071Y-14899929D02*
X7559643Y-15114214D01*
X7745357Y-15114214D01*
X8088214Y-15214214D02*
X8088214Y-14914214D01*
X8216786Y-15214214D02*
X8216786Y-15057071D01*
X8202500Y-15028500D01*
X8173928Y-15014214D01*
X8131071Y-15014214D01*
X8102500Y-15028500D01*
X8088214Y-15042786D01*
X8402500Y-15214214D02*
X8373928Y-15199929D01*
X8359643Y-15185643D01*
X8345357Y-15157071D01*
X8345357Y-15071357D01*
X8359643Y-15042786D01*
X8373928Y-15028500D01*
X8402500Y-15014214D01*
X8445357Y-15014214D01*
X8473928Y-15028500D01*
X8488214Y-15042786D01*
X8502500Y-15071357D01*
X8502500Y-15157071D01*
X8488214Y-15185643D01*
X8473928Y-15199929D01*
X8445357Y-15214214D01*
X8402500Y-15214214D01*
X8673928Y-15214214D02*
X8645357Y-15199929D01*
X8631071Y-15171357D01*
X8631071Y-14914214D01*
X8902500Y-15199929D02*
X8873928Y-15214214D01*
X8816786Y-15214214D01*
X8788214Y-15199929D01*
X8773928Y-15171357D01*
X8773928Y-15057071D01*
X8788214Y-15028500D01*
X8816786Y-15014214D01*
X8873928Y-15014214D01*
X8902500Y-15028500D01*
X8916786Y-15057071D01*
X8916786Y-15085643D01*
X8773928Y-15114214D01*
X9031071Y-15199929D02*
X9059643Y-15214214D01*
X9116786Y-15214214D01*
X9145357Y-15199929D01*
X9159643Y-15171357D01*
X9159643Y-15157071D01*
X9145357Y-15128500D01*
X9116786Y-15114214D01*
X9073928Y-15114214D01*
X9045357Y-15099929D01*
X9031071Y-15071357D01*
X9031071Y-15057071D01*
X9045357Y-15028500D01*
X9073928Y-15014214D01*
X9116786Y-15014214D01*
X9145357Y-15028500D01*
X9259643Y-15328500D02*
X9273928Y-15314214D01*
X9302500Y-15271357D01*
X9316786Y-15242786D01*
X9331071Y-15199929D01*
X9345357Y-15128500D01*
X9345357Y-15071357D01*
X9331071Y-14999929D01*
X9316786Y-14957071D01*
X9302500Y-14928500D01*
X9273928Y-14885643D01*
X9259643Y-14871357D01*
X2450000Y-15437000D02*
X2450000Y-15512000D01*
X2412500Y-15474500D02*
X2487500Y-15474500D01*
X2831071Y-15310214D02*
X2859643Y-15310214D01*
X2888214Y-15324500D01*
X2902500Y-15338786D01*
X2916786Y-15367357D01*
X2931071Y-15424500D01*
X2931071Y-15495929D01*
X2916786Y-15553071D01*
X2902500Y-15581643D01*
X2888214Y-15595929D01*
X2859643Y-15610214D01*
X2831071Y-15610214D01*
X2802500Y-15595929D01*
X2788214Y-15581643D01*
X2773928Y-15553071D01*
X2759643Y-15495929D01*
X2759643Y-15424500D01*
X2773928Y-15367357D01*
X2788214Y-15338786D01*
X2802500Y-15324500D01*
X2831071Y-15310214D01*
X3059643Y-15581643D02*
X3073928Y-15595929D01*
X3059643Y-15610214D01*
X3045357Y-15595929D01*
X3059643Y-15581643D01*
X3059643Y-15610214D01*
X3173928Y-15310214D02*
X3373928Y-15310214D01*
X3245357Y-15610214D01*
X3631071Y-15310214D02*
X3488214Y-15310214D01*
X3473928Y-15453071D01*
X3488214Y-15438786D01*
X3516786Y-15424500D01*
X3588214Y-15424500D01*
X3616786Y-15438786D01*
X3631071Y-15453071D01*
X3645357Y-15481643D01*
X3645357Y-15553071D01*
X3631071Y-15581643D01*
X3616786Y-15595929D01*
X3588214Y-15610214D01*
X3516786Y-15610214D01*
X3488214Y-15595929D01*
X3473928Y-15581643D01*
X3773928Y-15610214D02*
X3773928Y-15410214D01*
X3773928Y-15438786D02*
X3788214Y-15424500D01*
X3816786Y-15410214D01*
X3859643Y-15410214D01*
X3888214Y-15424500D01*
X3902500Y-15453071D01*
X3902500Y-15610214D01*
X3902500Y-15453071D02*
X3916786Y-15424500D01*
X3945357Y-15410214D01*
X3988214Y-15410214D01*
X4016786Y-15424500D01*
X4031071Y-15453071D01*
X4031071Y-15610214D01*
X4173928Y-15610214D02*
X4173928Y-15410214D01*
X4173928Y-15438786D02*
X4188214Y-15424500D01*
X4216786Y-15410214D01*
X4259643Y-15410214D01*
X4288214Y-15424500D01*
X4302500Y-15453071D01*
X4302500Y-15610214D01*
X4302500Y-15453071D02*
X4316786Y-15424500D01*
X4345357Y-15410214D01*
X4388214Y-15410214D01*
X4416786Y-15424500D01*
X4431071Y-15453071D01*
X4431071Y-15610214D01*
X5016786Y-15295929D02*
X4759643Y-15681643D01*
X5402500Y-15310214D02*
X5431071Y-15310214D01*
X5459643Y-15324500D01*
X5473928Y-15338786D01*
X5488214Y-15367357D01*
X5502500Y-15424500D01*
X5502500Y-15495929D01*
X5488214Y-15553071D01*
X5473928Y-15581643D01*
X5459643Y-15595929D01*
X5431071Y-15610214D01*
X5402500Y-15610214D01*
X5373928Y-15595929D01*
X5359643Y-15581643D01*
X5345357Y-15553071D01*
X5331071Y-15495929D01*
X5331071Y-15424500D01*
X5345357Y-15367357D01*
X5359643Y-15338786D01*
X5373928Y-15324500D01*
X5402500Y-15310214D01*
X5631071Y-15581643D02*
X5645357Y-15595929D01*
X5631071Y-15610214D01*
X5616786Y-15595929D01*
X5631071Y-15581643D01*
X5631071Y-15610214D01*
X5831071Y-15310214D02*
X5859643Y-15310214D01*
X5888214Y-15324500D01*
X5902500Y-15338786D01*
X5916786Y-15367357D01*
X5931071Y-15424500D01*
X5931071Y-15495929D01*
X5916786Y-15553071D01*
X5902500Y-15581643D01*
X5888214Y-15595929D01*
X5859643Y-15610214D01*
X5831071Y-15610214D01*
X5802500Y-15595929D01*
X5788214Y-15581643D01*
X5773928Y-15553071D01*
X5759643Y-15495929D01*
X5759643Y-15424500D01*
X5773928Y-15367357D01*
X5788214Y-15338786D01*
X5802500Y-15324500D01*
X5831071Y-15310214D01*
X6031071Y-15310214D02*
X6216786Y-15310214D01*
X6116786Y-15424500D01*
X6159643Y-15424500D01*
X6188214Y-15438786D01*
X6202500Y-15453071D01*
X6216786Y-15481643D01*
X6216786Y-15553071D01*
X6202500Y-15581643D01*
X6188214Y-15595929D01*
X6159643Y-15610214D01*
X6073928Y-15610214D01*
X6045357Y-15595929D01*
X6031071Y-15581643D01*
X6402500Y-15310214D02*
X6431071Y-15310214D01*
X6459643Y-15324500D01*
X6473928Y-15338786D01*
X6488214Y-15367357D01*
X6502500Y-15424500D01*
X6502500Y-15495929D01*
X6488214Y-15553071D01*
X6473928Y-15581643D01*
X6459643Y-15595929D01*
X6431071Y-15610214D01*
X6402500Y-15610214D01*
X6373928Y-15595929D01*
X6359643Y-15581643D01*
X6345357Y-15553071D01*
X6331071Y-15495929D01*
X6331071Y-15424500D01*
X6345357Y-15367357D01*
X6359643Y-15338786D01*
X6373928Y-15324500D01*
X6402500Y-15310214D01*
X6616786Y-15310214D02*
X6616786Y-15367357D01*
X6731071Y-15310214D02*
X6731071Y-15367357D01*
X7173928Y-15724500D02*
X7159643Y-15710214D01*
X7131071Y-15667357D01*
X7116786Y-15638786D01*
X7102500Y-15595929D01*
X7088214Y-15524500D01*
X7088214Y-15467357D01*
X7102500Y-15395929D01*
X7116786Y-15353071D01*
X7131071Y-15324500D01*
X7159643Y-15281643D01*
X7173928Y-15267357D01*
X7416786Y-15310214D02*
X7359643Y-15310214D01*
X7331071Y-15324500D01*
X7316786Y-15338786D01*
X7288214Y-15381643D01*
X7273928Y-15438786D01*
X7273928Y-15553071D01*
X7288214Y-15581643D01*
X7302500Y-15595929D01*
X7331071Y-15610214D01*
X7388214Y-15610214D01*
X7416786Y-15595929D01*
X7431071Y-15581643D01*
X7445357Y-15553071D01*
X7445357Y-15481643D01*
X7431071Y-15453071D01*
X7416786Y-15438786D01*
X7388214Y-15424500D01*
X7331071Y-15424500D01*
X7302500Y-15438786D01*
X7288214Y-15453071D01*
X7273928Y-15481643D01*
X7802500Y-15610214D02*
X7802500Y-15310214D01*
X7931071Y-15610214D02*
X7931071Y-15453071D01*
X7916786Y-15424500D01*
X7888214Y-15410214D01*
X7845357Y-15410214D01*
X7816786Y-15424500D01*
X7802500Y-15438786D01*
X8116786Y-15610214D02*
X8088214Y-15595929D01*
X8073928Y-15581643D01*
X8059643Y-15553071D01*
X8059643Y-15467357D01*
X8073928Y-15438786D01*
X8088214Y-15424500D01*
X8116786Y-15410214D01*
X8159643Y-15410214D01*
X8188214Y-15424500D01*
X8202500Y-15438786D01*
X8216786Y-15467357D01*
X8216786Y-15553071D01*
X8202500Y-15581643D01*
X8188214Y-15595929D01*
X8159643Y-15610214D01*
X8116786Y-15610214D01*
X8388214Y-15610214D02*
X8359643Y-15595929D01*
X8345357Y-15567357D01*
X8345357Y-15310214D01*
X8616786Y-15595929D02*
X8588214Y-15610214D01*
X8531071Y-15610214D01*
X8502500Y-15595929D01*
X8488214Y-15567357D01*
X8488214Y-15453071D01*
X8502500Y-15424500D01*
X8531071Y-15410214D01*
X8588214Y-15410214D01*
X8616786Y-15424500D01*
X8631071Y-15453071D01*
X8631071Y-15481643D01*
X8488214Y-15510214D01*
X8745357Y-15595929D02*
X8773928Y-15610214D01*
X8831071Y-15610214D01*
X8859643Y-15595929D01*
X8873928Y-15567357D01*
X8873928Y-15553071D01*
X8859643Y-15524500D01*
X8831071Y-15510214D01*
X8788214Y-15510214D01*
X8759643Y-15495929D01*
X8745357Y-15467357D01*
X8745357Y-15453071D01*
X8759643Y-15424500D01*
X8788214Y-15410214D01*
X8831071Y-15410214D01*
X8859643Y-15424500D01*
X8973928Y-15724500D02*
X8988214Y-15710214D01*
X9016786Y-15667357D01*
X9031071Y-15638786D01*
X9045357Y-15595929D01*
X9059643Y-15524500D01*
X9059643Y-15467357D01*
X9045357Y-15395929D01*
X9031071Y-15353071D01*
X9016786Y-15324500D01*
X8988214Y-15281643D01*
X8973928Y-15267357D01*
X2475783Y-15898788D02*
X2475783Y-15842212D01*
X2419207Y-15842212D01*
X2419207Y-15898788D01*
X2475783Y-15898788D01*
X2831071Y-15706214D02*
X2859643Y-15706214D01*
X2888214Y-15720500D01*
X2902500Y-15734786D01*
X2916786Y-15763357D01*
X2931071Y-15820500D01*
X2931071Y-15891929D01*
X2916786Y-15949071D01*
X2902500Y-15977643D01*
X2888214Y-15991929D01*
X2859643Y-16006214D01*
X2831071Y-16006214D01*
X2802500Y-15991929D01*
X2788214Y-15977643D01*
X2773928Y-15949071D01*
X2759643Y-15891929D01*
X2759643Y-15820500D01*
X2773928Y-15763357D01*
X2788214Y-15734786D01*
X2802500Y-15720500D01*
X2831071Y-15706214D01*
X3059643Y-15977643D02*
X3073928Y-15991929D01*
X3059643Y-16006214D01*
X3045357Y-15991929D01*
X3059643Y-15977643D01*
X3059643Y-16006214D01*
X3245357Y-15834786D02*
X3216786Y-15820500D01*
X3202500Y-15806214D01*
X3188214Y-15777643D01*
X3188214Y-15763357D01*
X3202500Y-15734786D01*
X3216786Y-15720500D01*
X3245357Y-15706214D01*
X3302500Y-15706214D01*
X3331071Y-15720500D01*
X3345357Y-15734786D01*
X3359643Y-15763357D01*
X3359643Y-15777643D01*
X3345357Y-15806214D01*
X3331071Y-15820500D01*
X3302500Y-15834786D01*
X3245357Y-15834786D01*
X3216786Y-15849071D01*
X3202500Y-15863357D01*
X3188214Y-15891929D01*
X3188214Y-15949071D01*
X3202500Y-15977643D01*
X3216786Y-15991929D01*
X3245357Y-16006214D01*
X3302500Y-16006214D01*
X3331071Y-15991929D01*
X3345357Y-15977643D01*
X3359643Y-15949071D01*
X3359643Y-15891929D01*
X3345357Y-15863357D01*
X3331071Y-15849071D01*
X3302500Y-15834786D01*
X3545357Y-15706214D02*
X3573928Y-15706214D01*
X3602500Y-15720500D01*
X3616786Y-15734786D01*
X3631071Y-15763357D01*
X3645357Y-15820500D01*
X3645357Y-15891929D01*
X3631071Y-15949071D01*
X3616786Y-15977643D01*
X3602500Y-15991929D01*
X3573928Y-16006214D01*
X3545357Y-16006214D01*
X3516786Y-15991929D01*
X3502500Y-15977643D01*
X3488214Y-15949071D01*
X3473928Y-15891929D01*
X3473928Y-15820500D01*
X3488214Y-15763357D01*
X3502500Y-15734786D01*
X3516786Y-15720500D01*
X3545357Y-15706214D01*
X3773928Y-16006214D02*
X3773928Y-15806214D01*
X3773928Y-15834786D02*
X3788214Y-15820500D01*
X3816786Y-15806214D01*
X3859643Y-15806214D01*
X3888214Y-15820500D01*
X3902500Y-15849071D01*
X3902500Y-16006214D01*
X3902500Y-15849071D02*
X3916786Y-15820500D01*
X3945357Y-15806214D01*
X3988214Y-15806214D01*
X4016786Y-15820500D01*
X4031071Y-15849071D01*
X4031071Y-16006214D01*
X4173928Y-16006214D02*
X4173928Y-15806214D01*
X4173928Y-15834786D02*
X4188214Y-15820500D01*
X4216786Y-15806214D01*
X4259643Y-15806214D01*
X4288214Y-15820500D01*
X4302500Y-15849071D01*
X4302500Y-16006214D01*
X4302500Y-15849071D02*
X4316786Y-15820500D01*
X4345357Y-15806214D01*
X4388214Y-15806214D01*
X4416786Y-15820500D01*
X4431071Y-15849071D01*
X4431071Y-16006214D01*
X5016786Y-15691929D02*
X4759643Y-16077643D01*
X5402500Y-15706214D02*
X5431071Y-15706214D01*
X5459643Y-15720500D01*
X5473928Y-15734786D01*
X5488214Y-15763357D01*
X5502500Y-15820500D01*
X5502500Y-15891929D01*
X5488214Y-15949071D01*
X5473928Y-15977643D01*
X5459643Y-15991929D01*
X5431071Y-16006214D01*
X5402500Y-16006214D01*
X5373928Y-15991929D01*
X5359643Y-15977643D01*
X5345357Y-15949071D01*
X5331071Y-15891929D01*
X5331071Y-15820500D01*
X5345357Y-15763357D01*
X5359643Y-15734786D01*
X5373928Y-15720500D01*
X5402500Y-15706214D01*
X5631071Y-15977643D02*
X5645357Y-15991929D01*
X5631071Y-16006214D01*
X5616786Y-15991929D01*
X5631071Y-15977643D01*
X5631071Y-16006214D01*
X5831071Y-15706214D02*
X5859643Y-15706214D01*
X5888214Y-15720500D01*
X5902500Y-15734786D01*
X5916786Y-15763357D01*
X5931071Y-15820500D01*
X5931071Y-15891929D01*
X5916786Y-15949071D01*
X5902500Y-15977643D01*
X5888214Y-15991929D01*
X5859643Y-16006214D01*
X5831071Y-16006214D01*
X5802500Y-15991929D01*
X5788214Y-15977643D01*
X5773928Y-15949071D01*
X5759643Y-15891929D01*
X5759643Y-15820500D01*
X5773928Y-15763357D01*
X5788214Y-15734786D01*
X5802500Y-15720500D01*
X5831071Y-15706214D01*
X6031071Y-15706214D02*
X6216786Y-15706214D01*
X6116786Y-15820500D01*
X6159643Y-15820500D01*
X6188214Y-15834786D01*
X6202500Y-15849071D01*
X6216786Y-15877643D01*
X6216786Y-15949071D01*
X6202500Y-15977643D01*
X6188214Y-15991929D01*
X6159643Y-16006214D01*
X6073928Y-16006214D01*
X6045357Y-15991929D01*
X6031071Y-15977643D01*
X6331071Y-15734786D02*
X6345357Y-15720500D01*
X6373928Y-15706214D01*
X6445357Y-15706214D01*
X6473928Y-15720500D01*
X6488214Y-15734786D01*
X6502500Y-15763357D01*
X6502500Y-15791929D01*
X6488214Y-15834786D01*
X6316786Y-16006214D01*
X6502500Y-16006214D01*
X6616786Y-15706214D02*
X6616786Y-15763357D01*
X6731071Y-15706214D02*
X6731071Y-15763357D01*
X7173928Y-16120500D02*
X7159643Y-16106214D01*
X7131071Y-16063357D01*
X7116786Y-16034786D01*
X7102500Y-15991929D01*
X7088214Y-15920500D01*
X7088214Y-15863357D01*
X7102500Y-15791929D01*
X7116786Y-15749071D01*
X7131071Y-15720500D01*
X7159643Y-15677643D01*
X7173928Y-15663357D01*
X7273928Y-15734786D02*
X7288214Y-15720500D01*
X7316786Y-15706214D01*
X7388214Y-15706214D01*
X7416786Y-15720500D01*
X7431071Y-15734786D01*
X7445357Y-15763357D01*
X7445357Y-15791929D01*
X7431071Y-15834786D01*
X7259643Y-16006214D01*
X7445357Y-16006214D01*
X7631071Y-15706214D02*
X7659643Y-15706214D01*
X7688214Y-15720500D01*
X7702500Y-15734786D01*
X7716786Y-15763357D01*
X7731071Y-15820500D01*
X7731071Y-15891929D01*
X7716786Y-15949071D01*
X7702500Y-15977643D01*
X7688214Y-15991929D01*
X7659643Y-16006214D01*
X7631071Y-16006214D01*
X7602500Y-15991929D01*
X7588214Y-15977643D01*
X7573928Y-15949071D01*
X7559643Y-15891929D01*
X7559643Y-15820500D01*
X7573928Y-15763357D01*
X7588214Y-15734786D01*
X7602500Y-15720500D01*
X7631071Y-15706214D01*
X7988214Y-15806214D02*
X7988214Y-16006214D01*
X7916786Y-15691929D02*
X7845357Y-15906214D01*
X8031071Y-15906214D01*
X8373928Y-16006214D02*
X8373928Y-15706214D01*
X8502500Y-16006214D02*
X8502500Y-15849071D01*
X8488214Y-15820500D01*
X8459643Y-15806214D01*
X8416786Y-15806214D01*
X8388214Y-15820500D01*
X8373928Y-15834786D01*
X8688214Y-16006214D02*
X8659643Y-15991929D01*
X8645357Y-15977643D01*
X8631071Y-15949071D01*
X8631071Y-15863357D01*
X8645357Y-15834786D01*
X8659643Y-15820500D01*
X8688214Y-15806214D01*
X8731071Y-15806214D01*
X8759643Y-15820500D01*
X8773928Y-15834786D01*
X8788214Y-15863357D01*
X8788214Y-15949071D01*
X8773928Y-15977643D01*
X8759643Y-15991929D01*
X8731071Y-16006214D01*
X8688214Y-16006214D01*
X8959643Y-16006214D02*
X8931071Y-15991929D01*
X8916786Y-15963357D01*
X8916786Y-15706214D01*
X9188214Y-15991929D02*
X9159643Y-16006214D01*
X9102500Y-16006214D01*
X9073928Y-15991929D01*
X9059643Y-15963357D01*
X9059643Y-15849071D01*
X9073928Y-15820500D01*
X9102500Y-15806214D01*
X9159643Y-15806214D01*
X9188214Y-15820500D01*
X9202500Y-15849071D01*
X9202500Y-15877643D01*
X9059643Y-15906214D01*
X9316786Y-15991929D02*
X9345357Y-16006214D01*
X9402500Y-16006214D01*
X9431071Y-15991929D01*
X9445357Y-15963357D01*
X9445357Y-15949071D01*
X9431071Y-15920500D01*
X9402500Y-15906214D01*
X9359643Y-15906214D01*
X9331071Y-15891929D01*
X9316786Y-15863357D01*
X9316786Y-15849071D01*
X9331071Y-15820500D01*
X9359643Y-15806214D01*
X9402500Y-15806214D01*
X9431071Y-15820500D01*
X9545357Y-16120500D02*
X9559643Y-16106214D01*
X9588214Y-16063357D01*
X9602500Y-16034786D01*
X9616786Y-15991929D01*
X9631071Y-15920500D01*
X9631071Y-15863357D01*
X9616786Y-15791929D01*
X9602500Y-15749071D01*
X9588214Y-15720500D01*
X9559643Y-15677643D01*
X9545357Y-15663357D01*
X2442500Y-16311500D02*
X2487500Y-16266500D01*
X2442500Y-16221500D01*
X2397500Y-16266500D01*
X2442500Y-16311500D01*
X2831071Y-16102214D02*
X2859643Y-16102214D01*
X2888214Y-16116500D01*
X2902500Y-16130786D01*
X2916786Y-16159357D01*
X2931071Y-16216500D01*
X2931071Y-16287929D01*
X2916786Y-16345071D01*
X2902500Y-16373643D01*
X2888214Y-16387929D01*
X2859643Y-16402214D01*
X2831071Y-16402214D01*
X2802500Y-16387929D01*
X2788214Y-16373643D01*
X2773928Y-16345071D01*
X2759643Y-16287929D01*
X2759643Y-16216500D01*
X2773928Y-16159357D01*
X2788214Y-16130786D01*
X2802500Y-16116500D01*
X2831071Y-16102214D01*
X3059643Y-16373643D02*
X3073928Y-16387929D01*
X3059643Y-16402214D01*
X3045357Y-16387929D01*
X3059643Y-16373643D01*
X3059643Y-16402214D01*
X3216786Y-16402214D02*
X3273928Y-16402214D01*
X3302500Y-16387929D01*
X3316786Y-16373643D01*
X3345357Y-16330786D01*
X3359643Y-16273643D01*
X3359643Y-16159357D01*
X3345357Y-16130786D01*
X3331071Y-16116500D01*
X3302500Y-16102214D01*
X3245357Y-16102214D01*
X3216786Y-16116500D01*
X3202500Y-16130786D01*
X3188214Y-16159357D01*
X3188214Y-16230786D01*
X3202500Y-16259357D01*
X3216786Y-16273643D01*
X3245357Y-16287929D01*
X3302500Y-16287929D01*
X3331071Y-16273643D01*
X3345357Y-16259357D01*
X3359643Y-16230786D01*
X3545357Y-16102214D02*
X3573928Y-16102214D01*
X3602500Y-16116500D01*
X3616786Y-16130786D01*
X3631071Y-16159357D01*
X3645357Y-16216500D01*
X3645357Y-16287929D01*
X3631071Y-16345071D01*
X3616786Y-16373643D01*
X3602500Y-16387929D01*
X3573928Y-16402214D01*
X3545357Y-16402214D01*
X3516786Y-16387929D01*
X3502500Y-16373643D01*
X3488214Y-16345071D01*
X3473928Y-16287929D01*
X3473928Y-16216500D01*
X3488214Y-16159357D01*
X3502500Y-16130786D01*
X3516786Y-16116500D01*
X3545357Y-16102214D01*
X3773928Y-16402214D02*
X3773928Y-16202214D01*
X3773928Y-16230786D02*
X3788214Y-16216500D01*
X3816786Y-16202214D01*
X3859643Y-16202214D01*
X3888214Y-16216500D01*
X3902500Y-16245071D01*
X3902500Y-16402214D01*
X3902500Y-16245071D02*
X3916786Y-16216500D01*
X3945357Y-16202214D01*
X3988214Y-16202214D01*
X4016786Y-16216500D01*
X4031071Y-16245071D01*
X4031071Y-16402214D01*
X4173928Y-16402214D02*
X4173928Y-16202214D01*
X4173928Y-16230786D02*
X4188214Y-16216500D01*
X4216786Y-16202214D01*
X4259643Y-16202214D01*
X4288214Y-16216500D01*
X4302500Y-16245071D01*
X4302500Y-16402214D01*
X4302500Y-16245071D02*
X4316786Y-16216500D01*
X4345357Y-16202214D01*
X4388214Y-16202214D01*
X4416786Y-16216500D01*
X4431071Y-16245071D01*
X4431071Y-16402214D01*
X5016786Y-16087929D02*
X4759643Y-16473643D01*
X5402500Y-16102214D02*
X5431071Y-16102214D01*
X5459643Y-16116500D01*
X5473928Y-16130786D01*
X5488214Y-16159357D01*
X5502500Y-16216500D01*
X5502500Y-16287929D01*
X5488214Y-16345071D01*
X5473928Y-16373643D01*
X5459643Y-16387929D01*
X5431071Y-16402214D01*
X5402500Y-16402214D01*
X5373928Y-16387929D01*
X5359643Y-16373643D01*
X5345357Y-16345071D01*
X5331071Y-16287929D01*
X5331071Y-16216500D01*
X5345357Y-16159357D01*
X5359643Y-16130786D01*
X5373928Y-16116500D01*
X5402500Y-16102214D01*
X5631071Y-16373643D02*
X5645357Y-16387929D01*
X5631071Y-16402214D01*
X5616786Y-16387929D01*
X5631071Y-16373643D01*
X5631071Y-16402214D01*
X5831071Y-16102214D02*
X5859643Y-16102214D01*
X5888214Y-16116500D01*
X5902500Y-16130786D01*
X5916786Y-16159357D01*
X5931071Y-16216500D01*
X5931071Y-16287929D01*
X5916786Y-16345071D01*
X5902500Y-16373643D01*
X5888214Y-16387929D01*
X5859643Y-16402214D01*
X5831071Y-16402214D01*
X5802500Y-16387929D01*
X5788214Y-16373643D01*
X5773928Y-16345071D01*
X5759643Y-16287929D01*
X5759643Y-16216500D01*
X5773928Y-16159357D01*
X5788214Y-16130786D01*
X5802500Y-16116500D01*
X5831071Y-16102214D01*
X6031071Y-16102214D02*
X6216786Y-16102214D01*
X6116786Y-16216500D01*
X6159643Y-16216500D01*
X6188214Y-16230786D01*
X6202500Y-16245071D01*
X6216786Y-16273643D01*
X6216786Y-16345071D01*
X6202500Y-16373643D01*
X6188214Y-16387929D01*
X6159643Y-16402214D01*
X6073928Y-16402214D01*
X6045357Y-16387929D01*
X6031071Y-16373643D01*
X6488214Y-16102214D02*
X6345357Y-16102214D01*
X6331071Y-16245071D01*
X6345357Y-16230786D01*
X6373928Y-16216500D01*
X6445357Y-16216500D01*
X6473928Y-16230786D01*
X6488214Y-16245071D01*
X6502500Y-16273643D01*
X6502500Y-16345071D01*
X6488214Y-16373643D01*
X6473928Y-16387929D01*
X6445357Y-16402214D01*
X6373928Y-16402214D01*
X6345357Y-16387929D01*
X6331071Y-16373643D01*
X6616786Y-16102214D02*
X6616786Y-16159357D01*
X6731071Y-16102214D02*
X6731071Y-16159357D01*
X7173928Y-16516500D02*
X7159643Y-16502214D01*
X7131071Y-16459357D01*
X7116786Y-16430786D01*
X7102500Y-16387929D01*
X7088214Y-16316500D01*
X7088214Y-16259357D01*
X7102500Y-16187929D01*
X7116786Y-16145071D01*
X7131071Y-16116500D01*
X7159643Y-16073643D01*
X7173928Y-16059357D01*
X7416786Y-16202214D02*
X7416786Y-16402214D01*
X7345357Y-16087929D02*
X7273928Y-16302214D01*
X7459643Y-16302214D01*
X7802500Y-16402214D02*
X7802500Y-16102214D01*
X7931071Y-16402214D02*
X7931071Y-16245071D01*
X7916786Y-16216500D01*
X7888214Y-16202214D01*
X7845357Y-16202214D01*
X7816786Y-16216500D01*
X7802500Y-16230786D01*
X8116786Y-16402214D02*
X8088214Y-16387929D01*
X8073928Y-16373643D01*
X8059643Y-16345071D01*
X8059643Y-16259357D01*
X8073928Y-16230786D01*
X8088214Y-16216500D01*
X8116786Y-16202214D01*
X8159643Y-16202214D01*
X8188214Y-16216500D01*
X8202500Y-16230786D01*
X8216786Y-16259357D01*
X8216786Y-16345071D01*
X8202500Y-16373643D01*
X8188214Y-16387929D01*
X8159643Y-16402214D01*
X8116786Y-16402214D01*
X8388214Y-16402214D02*
X8359643Y-16387929D01*
X8345357Y-16359357D01*
X8345357Y-16102214D01*
X8616786Y-16387929D02*
X8588214Y-16402214D01*
X8531071Y-16402214D01*
X8502500Y-16387929D01*
X8488214Y-16359357D01*
X8488214Y-16245071D01*
X8502500Y-16216500D01*
X8531071Y-16202214D01*
X8588214Y-16202214D01*
X8616786Y-16216500D01*
X8631071Y-16245071D01*
X8631071Y-16273643D01*
X8488214Y-16302214D01*
X8745357Y-16387929D02*
X8773928Y-16402214D01*
X8831071Y-16402214D01*
X8859643Y-16387929D01*
X8873928Y-16359357D01*
X8873928Y-16345071D01*
X8859643Y-16316500D01*
X8831071Y-16302214D01*
X8788214Y-16302214D01*
X8759643Y-16287929D01*
X8745357Y-16259357D01*
X8745357Y-16245071D01*
X8759643Y-16216500D01*
X8788214Y-16202214D01*
X8831071Y-16202214D01*
X8859643Y-16216500D01*
X8973928Y-16516500D02*
X8988214Y-16502214D01*
X9016786Y-16459357D01*
X9031071Y-16430786D01*
X9045357Y-16387929D01*
X9059643Y-16316500D01*
X9059643Y-16259357D01*
X9045357Y-16187929D01*
X9031071Y-16145071D01*
X9016786Y-16116500D01*
X8988214Y-16073643D01*
X8973928Y-16059357D01*
X2387500Y-16612500D02*
X2487500Y-16712500D01*
X2487500Y-16612500D02*
X2387500Y-16712500D01*
X2487500Y-16662500D02*
G75*
G03*
X2487500Y-16662500I-50000J0D01*
G01*
X2931071Y-16798214D02*
X2759643Y-16798214D01*
X2845357Y-16798214D02*
X2845357Y-16498214D01*
X2816786Y-16541071D01*
X2788214Y-16569643D01*
X2759643Y-16583929D01*
X3059643Y-16769643D02*
X3073928Y-16783929D01*
X3059643Y-16798214D01*
X3045357Y-16783929D01*
X3059643Y-16769643D01*
X3059643Y-16798214D01*
X3259643Y-16498214D02*
X3288214Y-16498214D01*
X3316786Y-16512500D01*
X3331071Y-16526786D01*
X3345357Y-16555357D01*
X3359643Y-16612500D01*
X3359643Y-16683929D01*
X3345357Y-16741071D01*
X3331071Y-16769643D01*
X3316786Y-16783929D01*
X3288214Y-16798214D01*
X3259643Y-16798214D01*
X3231071Y-16783929D01*
X3216786Y-16769643D01*
X3202500Y-16741071D01*
X3188214Y-16683929D01*
X3188214Y-16612500D01*
X3202500Y-16555357D01*
X3216786Y-16526786D01*
X3231071Y-16512500D01*
X3259643Y-16498214D01*
X3545357Y-16498214D02*
X3573928Y-16498214D01*
X3602500Y-16512500D01*
X3616786Y-16526786D01*
X3631071Y-16555357D01*
X3645357Y-16612500D01*
X3645357Y-16683929D01*
X3631071Y-16741071D01*
X3616786Y-16769643D01*
X3602500Y-16783929D01*
X3573928Y-16798214D01*
X3545357Y-16798214D01*
X3516786Y-16783929D01*
X3502500Y-16769643D01*
X3488214Y-16741071D01*
X3473928Y-16683929D01*
X3473928Y-16612500D01*
X3488214Y-16555357D01*
X3502500Y-16526786D01*
X3516786Y-16512500D01*
X3545357Y-16498214D01*
X3773928Y-16798214D02*
X3773928Y-16598214D01*
X3773928Y-16626786D02*
X3788214Y-16612500D01*
X3816786Y-16598214D01*
X3859643Y-16598214D01*
X3888214Y-16612500D01*
X3902500Y-16641071D01*
X3902500Y-16798214D01*
X3902500Y-16641071D02*
X3916786Y-16612500D01*
X3945357Y-16598214D01*
X3988214Y-16598214D01*
X4016786Y-16612500D01*
X4031071Y-16641071D01*
X4031071Y-16798214D01*
X4173928Y-16798214D02*
X4173928Y-16598214D01*
X4173928Y-16626786D02*
X4188214Y-16612500D01*
X4216786Y-16598214D01*
X4259643Y-16598214D01*
X4288214Y-16612500D01*
X4302500Y-16641071D01*
X4302500Y-16798214D01*
X4302500Y-16641071D02*
X4316786Y-16612500D01*
X4345357Y-16598214D01*
X4388214Y-16598214D01*
X4416786Y-16612500D01*
X4431071Y-16641071D01*
X4431071Y-16798214D01*
X5016786Y-16483929D02*
X4759643Y-16869643D01*
X5402500Y-16498214D02*
X5431071Y-16498214D01*
X5459643Y-16512500D01*
X5473928Y-16526786D01*
X5488214Y-16555357D01*
X5502500Y-16612500D01*
X5502500Y-16683929D01*
X5488214Y-16741071D01*
X5473928Y-16769643D01*
X5459643Y-16783929D01*
X5431071Y-16798214D01*
X5402500Y-16798214D01*
X5373928Y-16783929D01*
X5359643Y-16769643D01*
X5345357Y-16741071D01*
X5331071Y-16683929D01*
X5331071Y-16612500D01*
X5345357Y-16555357D01*
X5359643Y-16526786D01*
X5373928Y-16512500D01*
X5402500Y-16498214D01*
X5631071Y-16769643D02*
X5645357Y-16783929D01*
X5631071Y-16798214D01*
X5616786Y-16783929D01*
X5631071Y-16769643D01*
X5631071Y-16798214D01*
X5831071Y-16498214D02*
X5859643Y-16498214D01*
X5888214Y-16512500D01*
X5902500Y-16526786D01*
X5916786Y-16555357D01*
X5931071Y-16612500D01*
X5931071Y-16683929D01*
X5916786Y-16741071D01*
X5902500Y-16769643D01*
X5888214Y-16783929D01*
X5859643Y-16798214D01*
X5831071Y-16798214D01*
X5802500Y-16783929D01*
X5788214Y-16769643D01*
X5773928Y-16741071D01*
X5759643Y-16683929D01*
X5759643Y-16612500D01*
X5773928Y-16555357D01*
X5788214Y-16526786D01*
X5802500Y-16512500D01*
X5831071Y-16498214D01*
X6031071Y-16498214D02*
X6216786Y-16498214D01*
X6116786Y-16612500D01*
X6159643Y-16612500D01*
X6188214Y-16626786D01*
X6202500Y-16641071D01*
X6216786Y-16669643D01*
X6216786Y-16741071D01*
X6202500Y-16769643D01*
X6188214Y-16783929D01*
X6159643Y-16798214D01*
X6073928Y-16798214D01*
X6045357Y-16783929D01*
X6031071Y-16769643D01*
X6359643Y-16798214D02*
X6416786Y-16798214D01*
X6445357Y-16783929D01*
X6459643Y-16769643D01*
X6488214Y-16726786D01*
X6502500Y-16669643D01*
X6502500Y-16555357D01*
X6488214Y-16526786D01*
X6473928Y-16512500D01*
X6445357Y-16498214D01*
X6388214Y-16498214D01*
X6359643Y-16512500D01*
X6345357Y-16526786D01*
X6331071Y-16555357D01*
X6331071Y-16626786D01*
X6345357Y-16655357D01*
X6359643Y-16669643D01*
X6388214Y-16683929D01*
X6445357Y-16683929D01*
X6473928Y-16669643D01*
X6488214Y-16655357D01*
X6502500Y-16626786D01*
X6616786Y-16498214D02*
X6616786Y-16555357D01*
X6731071Y-16498214D02*
X6731071Y-16555357D01*
X7173928Y-16912500D02*
X7159643Y-16898214D01*
X7131071Y-16855357D01*
X7116786Y-16826786D01*
X7102500Y-16783929D01*
X7088214Y-16712500D01*
X7088214Y-16655357D01*
X7102500Y-16583929D01*
X7116786Y-16541071D01*
X7131071Y-16512500D01*
X7159643Y-16469643D01*
X7173928Y-16455357D01*
X7302500Y-16798214D02*
X7359643Y-16798214D01*
X7388214Y-16783929D01*
X7402500Y-16769643D01*
X7431071Y-16726786D01*
X7445357Y-16669643D01*
X7445357Y-16555357D01*
X7431071Y-16526786D01*
X7416786Y-16512500D01*
X7388214Y-16498214D01*
X7331071Y-16498214D01*
X7302500Y-16512500D01*
X7288214Y-16526786D01*
X7273928Y-16555357D01*
X7273928Y-16626786D01*
X7288214Y-16655357D01*
X7302500Y-16669643D01*
X7331071Y-16683929D01*
X7388214Y-16683929D01*
X7416786Y-16669643D01*
X7431071Y-16655357D01*
X7445357Y-16626786D01*
X7559643Y-16526786D02*
X7573928Y-16512500D01*
X7602500Y-16498214D01*
X7673928Y-16498214D01*
X7702500Y-16512500D01*
X7716786Y-16526786D01*
X7731071Y-16555357D01*
X7731071Y-16583929D01*
X7716786Y-16626786D01*
X7545357Y-16798214D01*
X7731071Y-16798214D01*
X8088214Y-16798214D02*
X8088214Y-16498214D01*
X8216786Y-16798214D02*
X8216786Y-16641071D01*
X8202500Y-16612500D01*
X8173928Y-16598214D01*
X8131071Y-16598214D01*
X8102500Y-16612500D01*
X8088214Y-16626786D01*
X8402500Y-16798214D02*
X8373928Y-16783929D01*
X8359643Y-16769643D01*
X8345357Y-16741071D01*
X8345357Y-16655357D01*
X8359643Y-16626786D01*
X8373928Y-16612500D01*
X8402500Y-16598214D01*
X8445357Y-16598214D01*
X8473928Y-16612500D01*
X8488214Y-16626786D01*
X8502500Y-16655357D01*
X8502500Y-16741071D01*
X8488214Y-16769643D01*
X8473928Y-16783929D01*
X8445357Y-16798214D01*
X8402500Y-16798214D01*
X8673928Y-16798214D02*
X8645357Y-16783929D01*
X8631071Y-16755357D01*
X8631071Y-16498214D01*
X8902500Y-16783929D02*
X8873928Y-16798214D01*
X8816786Y-16798214D01*
X8788214Y-16783929D01*
X8773928Y-16755357D01*
X8773928Y-16641071D01*
X8788214Y-16612500D01*
X8816786Y-16598214D01*
X8873928Y-16598214D01*
X8902500Y-16612500D01*
X8916786Y-16641071D01*
X8916786Y-16669643D01*
X8773928Y-16698214D01*
X9031071Y-16783929D02*
X9059643Y-16798214D01*
X9116786Y-16798214D01*
X9145357Y-16783929D01*
X9159643Y-16755357D01*
X9159643Y-16741071D01*
X9145357Y-16712500D01*
X9116786Y-16698214D01*
X9073928Y-16698214D01*
X9045357Y-16683929D01*
X9031071Y-16655357D01*
X9031071Y-16641071D01*
X9045357Y-16612500D01*
X9073928Y-16598214D01*
X9116786Y-16598214D01*
X9145357Y-16612500D01*
X9259643Y-16912500D02*
X9273928Y-16898214D01*
X9302500Y-16855357D01*
X9316786Y-16826786D01*
X9331071Y-16783929D01*
X9345357Y-16712500D01*
X9345357Y-16655357D01*
X9331071Y-16583929D01*
X9316786Y-16541071D01*
X9302500Y-16512500D01*
X9273928Y-16469643D01*
X9259643Y-16455357D01*
X2385900Y-17007700D02*
X2487500Y-17109300D01*
X2487500Y-17007700D02*
X2385900Y-17109300D01*
X2436700Y-17007700D02*
X2436700Y-17109300D01*
X2385900Y-17058500D02*
X2487500Y-17058500D01*
X2931071Y-17194214D02*
X2759643Y-17194214D01*
X2845357Y-17194214D02*
X2845357Y-16894214D01*
X2816786Y-16937072D01*
X2788214Y-16965643D01*
X2759643Y-16979929D01*
X3059643Y-17165643D02*
X3073928Y-17179929D01*
X3059643Y-17194214D01*
X3045357Y-17179929D01*
X3059643Y-17165643D01*
X3059643Y-17194214D01*
X3259643Y-16894214D02*
X3288214Y-16894214D01*
X3316786Y-16908500D01*
X3331071Y-16922786D01*
X3345357Y-16951357D01*
X3359643Y-17008500D01*
X3359643Y-17079929D01*
X3345357Y-17137072D01*
X3331071Y-17165643D01*
X3316786Y-17179929D01*
X3288214Y-17194214D01*
X3259643Y-17194214D01*
X3231071Y-17179929D01*
X3216786Y-17165643D01*
X3202500Y-17137072D01*
X3188214Y-17079929D01*
X3188214Y-17008500D01*
X3202500Y-16951357D01*
X3216786Y-16922786D01*
X3231071Y-16908500D01*
X3259643Y-16894214D01*
X3473928Y-16922786D02*
X3488214Y-16908500D01*
X3516786Y-16894214D01*
X3588214Y-16894214D01*
X3616786Y-16908500D01*
X3631071Y-16922786D01*
X3645357Y-16951357D01*
X3645357Y-16979929D01*
X3631071Y-17022786D01*
X3459643Y-17194214D01*
X3645357Y-17194214D01*
X3773928Y-17194214D02*
X3773928Y-16994214D01*
X3773928Y-17022786D02*
X3788214Y-17008500D01*
X3816786Y-16994214D01*
X3859643Y-16994214D01*
X3888214Y-17008500D01*
X3902500Y-17037072D01*
X3902500Y-17194214D01*
X3902500Y-17037072D02*
X3916786Y-17008500D01*
X3945357Y-16994214D01*
X3988214Y-16994214D01*
X4016786Y-17008500D01*
X4031071Y-17037072D01*
X4031071Y-17194214D01*
X4173928Y-17194214D02*
X4173928Y-16994214D01*
X4173928Y-17022786D02*
X4188214Y-17008500D01*
X4216786Y-16994214D01*
X4259643Y-16994214D01*
X4288214Y-17008500D01*
X4302500Y-17037072D01*
X4302500Y-17194214D01*
X4302500Y-17037072D02*
X4316786Y-17008500D01*
X4345357Y-16994214D01*
X4388214Y-16994214D01*
X4416786Y-17008500D01*
X4431071Y-17037072D01*
X4431071Y-17194214D01*
X5016786Y-16879929D02*
X4759643Y-17265643D01*
X5402500Y-16894214D02*
X5431071Y-16894214D01*
X5459643Y-16908500D01*
X5473928Y-16922786D01*
X5488214Y-16951357D01*
X5502500Y-17008500D01*
X5502500Y-17079929D01*
X5488214Y-17137072D01*
X5473928Y-17165643D01*
X5459643Y-17179929D01*
X5431071Y-17194214D01*
X5402500Y-17194214D01*
X5373928Y-17179929D01*
X5359643Y-17165643D01*
X5345357Y-17137072D01*
X5331071Y-17079929D01*
X5331071Y-17008500D01*
X5345357Y-16951357D01*
X5359643Y-16922786D01*
X5373928Y-16908500D01*
X5402500Y-16894214D01*
X5631071Y-17165643D02*
X5645357Y-17179929D01*
X5631071Y-17194214D01*
X5616786Y-17179929D01*
X5631071Y-17165643D01*
X5631071Y-17194214D01*
X5831071Y-16894214D02*
X5859643Y-16894214D01*
X5888214Y-16908500D01*
X5902500Y-16922786D01*
X5916786Y-16951357D01*
X5931071Y-17008500D01*
X5931071Y-17079929D01*
X5916786Y-17137072D01*
X5902500Y-17165643D01*
X5888214Y-17179929D01*
X5859643Y-17194214D01*
X5831071Y-17194214D01*
X5802500Y-17179929D01*
X5788214Y-17165643D01*
X5773928Y-17137072D01*
X5759643Y-17079929D01*
X5759643Y-17008500D01*
X5773928Y-16951357D01*
X5788214Y-16922786D01*
X5802500Y-16908500D01*
X5831071Y-16894214D01*
X6188214Y-16994214D02*
X6188214Y-17194214D01*
X6116786Y-16879929D02*
X6045357Y-17094214D01*
X6231071Y-17094214D01*
X6402500Y-16894214D02*
X6431071Y-16894214D01*
X6459643Y-16908500D01*
X6473928Y-16922786D01*
X6488214Y-16951357D01*
X6502500Y-17008500D01*
X6502500Y-17079929D01*
X6488214Y-17137072D01*
X6473928Y-17165643D01*
X6459643Y-17179929D01*
X6431071Y-17194214D01*
X6402500Y-17194214D01*
X6373928Y-17179929D01*
X6359643Y-17165643D01*
X6345357Y-17137072D01*
X6331071Y-17079929D01*
X6331071Y-17008500D01*
X6345357Y-16951357D01*
X6359643Y-16922786D01*
X6373928Y-16908500D01*
X6402500Y-16894214D01*
X6616786Y-16894214D02*
X6616786Y-16951357D01*
X6731071Y-16894214D02*
X6731071Y-16951357D01*
X7173928Y-17308500D02*
X7159643Y-17294214D01*
X7131071Y-17251357D01*
X7116786Y-17222786D01*
X7102500Y-17179929D01*
X7088214Y-17108500D01*
X7088214Y-17051357D01*
X7102500Y-16979929D01*
X7116786Y-16937072D01*
X7131071Y-16908500D01*
X7159643Y-16865643D01*
X7173928Y-16851357D01*
X7259643Y-16894214D02*
X7445357Y-16894214D01*
X7345357Y-17008500D01*
X7388214Y-17008500D01*
X7416786Y-17022786D01*
X7431071Y-17037072D01*
X7445357Y-17065643D01*
X7445357Y-17137072D01*
X7431071Y-17165643D01*
X7416786Y-17179929D01*
X7388214Y-17194214D01*
X7302500Y-17194214D01*
X7273928Y-17179929D01*
X7259643Y-17165643D01*
X7702500Y-16994214D02*
X7702500Y-17194214D01*
X7631071Y-16879929D02*
X7559643Y-17094214D01*
X7745357Y-17094214D01*
X8088214Y-17194214D02*
X8088214Y-16894214D01*
X8216786Y-17194214D02*
X8216786Y-17037072D01*
X8202500Y-17008500D01*
X8173928Y-16994214D01*
X8131071Y-16994214D01*
X8102500Y-17008500D01*
X8088214Y-17022786D01*
X8402500Y-17194214D02*
X8373928Y-17179929D01*
X8359643Y-17165643D01*
X8345357Y-17137072D01*
X8345357Y-17051357D01*
X8359643Y-17022786D01*
X8373928Y-17008500D01*
X8402500Y-16994214D01*
X8445357Y-16994214D01*
X8473928Y-17008500D01*
X8488214Y-17022786D01*
X8502500Y-17051357D01*
X8502500Y-17137072D01*
X8488214Y-17165643D01*
X8473928Y-17179929D01*
X8445357Y-17194214D01*
X8402500Y-17194214D01*
X8673928Y-17194214D02*
X8645357Y-17179929D01*
X8631071Y-17151357D01*
X8631071Y-16894214D01*
X8902500Y-17179929D02*
X8873928Y-17194214D01*
X8816786Y-17194214D01*
X8788214Y-17179929D01*
X8773928Y-17151357D01*
X8773928Y-17037072D01*
X8788214Y-17008500D01*
X8816786Y-16994214D01*
X8873928Y-16994214D01*
X8902500Y-17008500D01*
X8916786Y-17037072D01*
X8916786Y-17065643D01*
X8773928Y-17094214D01*
X9031071Y-17179929D02*
X9059643Y-17194214D01*
X9116786Y-17194214D01*
X9145357Y-17179929D01*
X9159643Y-17151357D01*
X9159643Y-17137072D01*
X9145357Y-17108500D01*
X9116786Y-17094214D01*
X9073928Y-17094214D01*
X9045357Y-17079929D01*
X9031071Y-17051357D01*
X9031071Y-17037072D01*
X9045357Y-17008500D01*
X9073928Y-16994214D01*
X9116786Y-16994214D01*
X9145357Y-17008500D01*
X9259643Y-17308500D02*
X9273928Y-17294214D01*
X9302500Y-17251357D01*
X9316786Y-17222786D01*
X9331071Y-17179929D01*
X9345357Y-17108500D01*
X9345357Y-17051357D01*
X9331071Y-16979929D01*
X9316786Y-16937072D01*
X9302500Y-16908500D01*
X9273928Y-16865643D01*
X9259643Y-16851357D01*
X2357500Y-17389500D02*
X2487500Y-17519500D01*
X2487500Y-17389500D02*
X2357500Y-17519500D01*
X2468462Y-17500463D02*
X2468462Y-17408538D01*
X2376538Y-17408538D01*
X2376538Y-17500463D01*
X2468462Y-17500463D01*
X2931071Y-17590214D02*
X2759643Y-17590214D01*
X2845357Y-17590214D02*
X2845357Y-17290214D01*
X2816786Y-17333072D01*
X2788214Y-17361643D01*
X2759643Y-17375929D01*
X3059643Y-17561643D02*
X3073928Y-17575929D01*
X3059643Y-17590214D01*
X3045357Y-17575929D01*
X3059643Y-17561643D01*
X3059643Y-17590214D01*
X3173928Y-17290214D02*
X3359643Y-17290214D01*
X3259643Y-17404500D01*
X3302500Y-17404500D01*
X3331071Y-17418786D01*
X3345357Y-17433072D01*
X3359643Y-17461643D01*
X3359643Y-17533072D01*
X3345357Y-17561643D01*
X3331071Y-17575929D01*
X3302500Y-17590214D01*
X3216786Y-17590214D01*
X3188214Y-17575929D01*
X3173928Y-17561643D01*
X3545357Y-17290214D02*
X3573928Y-17290214D01*
X3602500Y-17304500D01*
X3616786Y-17318786D01*
X3631071Y-17347357D01*
X3645357Y-17404500D01*
X3645357Y-17475929D01*
X3631071Y-17533072D01*
X3616786Y-17561643D01*
X3602500Y-17575929D01*
X3573928Y-17590214D01*
X3545357Y-17590214D01*
X3516786Y-17575929D01*
X3502500Y-17561643D01*
X3488214Y-17533072D01*
X3473928Y-17475929D01*
X3473928Y-17404500D01*
X3488214Y-17347357D01*
X3502500Y-17318786D01*
X3516786Y-17304500D01*
X3545357Y-17290214D01*
X3773928Y-17590214D02*
X3773928Y-17390214D01*
X3773928Y-17418786D02*
X3788214Y-17404500D01*
X3816786Y-17390214D01*
X3859643Y-17390214D01*
X3888214Y-17404500D01*
X3902500Y-17433072D01*
X3902500Y-17590214D01*
X3902500Y-17433072D02*
X3916786Y-17404500D01*
X3945357Y-17390214D01*
X3988214Y-17390214D01*
X4016786Y-17404500D01*
X4031071Y-17433072D01*
X4031071Y-17590214D01*
X4173928Y-17590214D02*
X4173928Y-17390214D01*
X4173928Y-17418786D02*
X4188214Y-17404500D01*
X4216786Y-17390214D01*
X4259643Y-17390214D01*
X4288214Y-17404500D01*
X4302500Y-17433072D01*
X4302500Y-17590214D01*
X4302500Y-17433072D02*
X4316786Y-17404500D01*
X4345357Y-17390214D01*
X4388214Y-17390214D01*
X4416786Y-17404500D01*
X4431071Y-17433072D01*
X4431071Y-17590214D01*
X5016786Y-17275929D02*
X4759643Y-17661643D01*
X5402500Y-17290214D02*
X5431071Y-17290214D01*
X5459643Y-17304500D01*
X5473928Y-17318786D01*
X5488214Y-17347357D01*
X5502500Y-17404500D01*
X5502500Y-17475929D01*
X5488214Y-17533072D01*
X5473928Y-17561643D01*
X5459643Y-17575929D01*
X5431071Y-17590214D01*
X5402500Y-17590214D01*
X5373928Y-17575929D01*
X5359643Y-17561643D01*
X5345357Y-17533072D01*
X5331071Y-17475929D01*
X5331071Y-17404500D01*
X5345357Y-17347357D01*
X5359643Y-17318786D01*
X5373928Y-17304500D01*
X5402500Y-17290214D01*
X5631071Y-17561643D02*
X5645357Y-17575929D01*
X5631071Y-17590214D01*
X5616786Y-17575929D01*
X5631071Y-17561643D01*
X5631071Y-17590214D01*
X5831071Y-17290214D02*
X5859643Y-17290214D01*
X5888214Y-17304500D01*
X5902500Y-17318786D01*
X5916786Y-17347357D01*
X5931071Y-17404500D01*
X5931071Y-17475929D01*
X5916786Y-17533072D01*
X5902500Y-17561643D01*
X5888214Y-17575929D01*
X5859643Y-17590214D01*
X5831071Y-17590214D01*
X5802500Y-17575929D01*
X5788214Y-17561643D01*
X5773928Y-17533072D01*
X5759643Y-17475929D01*
X5759643Y-17404500D01*
X5773928Y-17347357D01*
X5788214Y-17318786D01*
X5802500Y-17304500D01*
X5831071Y-17290214D01*
X6202500Y-17290214D02*
X6059643Y-17290214D01*
X6045357Y-17433072D01*
X6059643Y-17418786D01*
X6088214Y-17404500D01*
X6159643Y-17404500D01*
X6188214Y-17418786D01*
X6202500Y-17433072D01*
X6216786Y-17461643D01*
X6216786Y-17533072D01*
X6202500Y-17561643D01*
X6188214Y-17575929D01*
X6159643Y-17590214D01*
X6088214Y-17590214D01*
X6059643Y-17575929D01*
X6045357Y-17561643D01*
X6502500Y-17590214D02*
X6331071Y-17590214D01*
X6416786Y-17590214D02*
X6416786Y-17290214D01*
X6388214Y-17333072D01*
X6359643Y-17361643D01*
X6331071Y-17375929D01*
X6616786Y-17290214D02*
X6616786Y-17347357D01*
X6731071Y-17290214D02*
X6731071Y-17347357D01*
X7173928Y-17704500D02*
X7159643Y-17690214D01*
X7131071Y-17647357D01*
X7116786Y-17618786D01*
X7102500Y-17575929D01*
X7088214Y-17504500D01*
X7088214Y-17447357D01*
X7102500Y-17375929D01*
X7116786Y-17333072D01*
X7131071Y-17304500D01*
X7159643Y-17261643D01*
X7173928Y-17247357D01*
X7273928Y-17318786D02*
X7288214Y-17304500D01*
X7316786Y-17290214D01*
X7388214Y-17290214D01*
X7416786Y-17304500D01*
X7431071Y-17318786D01*
X7445357Y-17347357D01*
X7445357Y-17375929D01*
X7431071Y-17418786D01*
X7259643Y-17590214D01*
X7445357Y-17590214D01*
X7616786Y-17418786D02*
X7588214Y-17404500D01*
X7573928Y-17390214D01*
X7559643Y-17361643D01*
X7559643Y-17347357D01*
X7573928Y-17318786D01*
X7588214Y-17304500D01*
X7616786Y-17290214D01*
X7673928Y-17290214D01*
X7702500Y-17304500D01*
X7716786Y-17318786D01*
X7731071Y-17347357D01*
X7731071Y-17361643D01*
X7716786Y-17390214D01*
X7702500Y-17404500D01*
X7673928Y-17418786D01*
X7616786Y-17418786D01*
X7588214Y-17433072D01*
X7573928Y-17447357D01*
X7559643Y-17475929D01*
X7559643Y-17533072D01*
X7573928Y-17561643D01*
X7588214Y-17575929D01*
X7616786Y-17590214D01*
X7673928Y-17590214D01*
X7702500Y-17575929D01*
X7716786Y-17561643D01*
X7731071Y-17533072D01*
X7731071Y-17475929D01*
X7716786Y-17447357D01*
X7702500Y-17433072D01*
X7673928Y-17418786D01*
X8088214Y-17590214D02*
X8088214Y-17290214D01*
X8216786Y-17590214D02*
X8216786Y-17433072D01*
X8202500Y-17404500D01*
X8173928Y-17390214D01*
X8131071Y-17390214D01*
X8102500Y-17404500D01*
X8088214Y-17418786D01*
X8402500Y-17590214D02*
X8373928Y-17575929D01*
X8359643Y-17561643D01*
X8345357Y-17533072D01*
X8345357Y-17447357D01*
X8359643Y-17418786D01*
X8373928Y-17404500D01*
X8402500Y-17390214D01*
X8445357Y-17390214D01*
X8473928Y-17404500D01*
X8488214Y-17418786D01*
X8502500Y-17447357D01*
X8502500Y-17533072D01*
X8488214Y-17561643D01*
X8473928Y-17575929D01*
X8445357Y-17590214D01*
X8402500Y-17590214D01*
X8673928Y-17590214D02*
X8645357Y-17575929D01*
X8631071Y-17547357D01*
X8631071Y-17290214D01*
X8902500Y-17575929D02*
X8873928Y-17590214D01*
X8816786Y-17590214D01*
X8788214Y-17575929D01*
X8773928Y-17547357D01*
X8773928Y-17433072D01*
X8788214Y-17404500D01*
X8816786Y-17390214D01*
X8873928Y-17390214D01*
X8902500Y-17404500D01*
X8916786Y-17433072D01*
X8916786Y-17461643D01*
X8773928Y-17490214D01*
X9031071Y-17575929D02*
X9059643Y-17590214D01*
X9116786Y-17590214D01*
X9145357Y-17575929D01*
X9159643Y-17547357D01*
X9159643Y-17533072D01*
X9145357Y-17504500D01*
X9116786Y-17490214D01*
X9073928Y-17490214D01*
X9045357Y-17475929D01*
X9031071Y-17447357D01*
X9031071Y-17433072D01*
X9045357Y-17404500D01*
X9073928Y-17390214D01*
X9116786Y-17390214D01*
X9145357Y-17404500D01*
X9259643Y-17704500D02*
X9273928Y-17690214D01*
X9302500Y-17647357D01*
X9316786Y-17618786D01*
X9331071Y-17575929D01*
X9345357Y-17504500D01*
X9345357Y-17447357D01*
X9331071Y-17375929D01*
X9316786Y-17333072D01*
X9302500Y-17304500D01*
X9273928Y-17261643D01*
X9259643Y-17247357D01*
X2337500Y-17775500D02*
X2487500Y-17925500D01*
X2487500Y-17775500D02*
X2337500Y-17925500D01*
X2412500Y-17925500D02*
X2487500Y-17850500D01*
X2412500Y-17775500D01*
X2337500Y-17850500D01*
X2412500Y-17925500D01*
X2931071Y-17986214D02*
X2759643Y-17986214D01*
X2845357Y-17986214D02*
X2845357Y-17686214D01*
X2816786Y-17729072D01*
X2788214Y-17757643D01*
X2759643Y-17771929D01*
X3059643Y-17957643D02*
X3073928Y-17971929D01*
X3059643Y-17986214D01*
X3045357Y-17971929D01*
X3059643Y-17957643D01*
X3059643Y-17986214D01*
X3345357Y-17686214D02*
X3202500Y-17686214D01*
X3188214Y-17829072D01*
X3202500Y-17814786D01*
X3231071Y-17800500D01*
X3302500Y-17800500D01*
X3331071Y-17814786D01*
X3345357Y-17829072D01*
X3359643Y-17857643D01*
X3359643Y-17929072D01*
X3345357Y-17957643D01*
X3331071Y-17971929D01*
X3302500Y-17986214D01*
X3231071Y-17986214D01*
X3202500Y-17971929D01*
X3188214Y-17957643D01*
X3545357Y-17686214D02*
X3573928Y-17686214D01*
X3602500Y-17700500D01*
X3616786Y-17714786D01*
X3631071Y-17743357D01*
X3645357Y-17800500D01*
X3645357Y-17871929D01*
X3631071Y-17929072D01*
X3616786Y-17957643D01*
X3602500Y-17971929D01*
X3573928Y-17986214D01*
X3545357Y-17986214D01*
X3516786Y-17971929D01*
X3502500Y-17957643D01*
X3488214Y-17929072D01*
X3473928Y-17871929D01*
X3473928Y-17800500D01*
X3488214Y-17743357D01*
X3502500Y-17714786D01*
X3516786Y-17700500D01*
X3545357Y-17686214D01*
X3773928Y-17986214D02*
X3773928Y-17786214D01*
X3773928Y-17814786D02*
X3788214Y-17800500D01*
X3816786Y-17786214D01*
X3859643Y-17786214D01*
X3888214Y-17800500D01*
X3902500Y-17829072D01*
X3902500Y-17986214D01*
X3902500Y-17829072D02*
X3916786Y-17800500D01*
X3945357Y-17786214D01*
X3988214Y-17786214D01*
X4016786Y-17800500D01*
X4031071Y-17829072D01*
X4031071Y-17986214D01*
X4173928Y-17986214D02*
X4173928Y-17786214D01*
X4173928Y-17814786D02*
X4188214Y-17800500D01*
X4216786Y-17786214D01*
X4259643Y-17786214D01*
X4288214Y-17800500D01*
X4302500Y-17829072D01*
X4302500Y-17986214D01*
X4302500Y-17829072D02*
X4316786Y-17800500D01*
X4345357Y-17786214D01*
X4388214Y-17786214D01*
X4416786Y-17800500D01*
X4431071Y-17829072D01*
X4431071Y-17986214D01*
X5016786Y-17671929D02*
X4759643Y-18057643D01*
X5402500Y-17686214D02*
X5431071Y-17686214D01*
X5459643Y-17700500D01*
X5473928Y-17714786D01*
X5488214Y-17743357D01*
X5502500Y-17800500D01*
X5502500Y-17871929D01*
X5488214Y-17929072D01*
X5473928Y-17957643D01*
X5459643Y-17971929D01*
X5431071Y-17986214D01*
X5402500Y-17986214D01*
X5373928Y-17971929D01*
X5359643Y-17957643D01*
X5345357Y-17929072D01*
X5331071Y-17871929D01*
X5331071Y-17800500D01*
X5345357Y-17743357D01*
X5359643Y-17714786D01*
X5373928Y-17700500D01*
X5402500Y-17686214D01*
X5631071Y-17957643D02*
X5645357Y-17971929D01*
X5631071Y-17986214D01*
X5616786Y-17971929D01*
X5631071Y-17957643D01*
X5631071Y-17986214D01*
X5831071Y-17686214D02*
X5859643Y-17686214D01*
X5888214Y-17700500D01*
X5902500Y-17714786D01*
X5916786Y-17743357D01*
X5931071Y-17800500D01*
X5931071Y-17871929D01*
X5916786Y-17929072D01*
X5902500Y-17957643D01*
X5888214Y-17971929D01*
X5859643Y-17986214D01*
X5831071Y-17986214D01*
X5802500Y-17971929D01*
X5788214Y-17957643D01*
X5773928Y-17929072D01*
X5759643Y-17871929D01*
X5759643Y-17800500D01*
X5773928Y-17743357D01*
X5788214Y-17714786D01*
X5802500Y-17700500D01*
X5831071Y-17686214D01*
X6202500Y-17686214D02*
X6059643Y-17686214D01*
X6045357Y-17829072D01*
X6059643Y-17814786D01*
X6088214Y-17800500D01*
X6159643Y-17800500D01*
X6188214Y-17814786D01*
X6202500Y-17829072D01*
X6216786Y-17857643D01*
X6216786Y-17929072D01*
X6202500Y-17957643D01*
X6188214Y-17971929D01*
X6159643Y-17986214D01*
X6088214Y-17986214D01*
X6059643Y-17971929D01*
X6045357Y-17957643D01*
X6359643Y-17986214D02*
X6416786Y-17986214D01*
X6445357Y-17971929D01*
X6459643Y-17957643D01*
X6488214Y-17914786D01*
X6502500Y-17857643D01*
X6502500Y-17743357D01*
X6488214Y-17714786D01*
X6473928Y-17700500D01*
X6445357Y-17686214D01*
X6388214Y-17686214D01*
X6359643Y-17700500D01*
X6345357Y-17714786D01*
X6331071Y-17743357D01*
X6331071Y-17814786D01*
X6345357Y-17843357D01*
X6359643Y-17857643D01*
X6388214Y-17871929D01*
X6445357Y-17871929D01*
X6473928Y-17857643D01*
X6488214Y-17843357D01*
X6502500Y-17814786D01*
X6616786Y-17686214D02*
X6616786Y-17743357D01*
X6731071Y-17686214D02*
X6731071Y-17743357D01*
X7173928Y-18100500D02*
X7159643Y-18086214D01*
X7131071Y-18043357D01*
X7116786Y-18014786D01*
X7102500Y-17971929D01*
X7088214Y-17900500D01*
X7088214Y-17843357D01*
X7102500Y-17771929D01*
X7116786Y-17729072D01*
X7131071Y-17700500D01*
X7159643Y-17657643D01*
X7173928Y-17643357D01*
X7416786Y-17786214D02*
X7416786Y-17986214D01*
X7345357Y-17671929D02*
X7273928Y-17886214D01*
X7459643Y-17886214D01*
X7802500Y-17986214D02*
X7802500Y-17686214D01*
X7931071Y-17986214D02*
X7931071Y-17829072D01*
X7916786Y-17800500D01*
X7888214Y-17786214D01*
X7845357Y-17786214D01*
X7816786Y-17800500D01*
X7802500Y-17814786D01*
X8116786Y-17986214D02*
X8088214Y-17971929D01*
X8073928Y-17957643D01*
X8059643Y-17929072D01*
X8059643Y-17843357D01*
X8073928Y-17814786D01*
X8088214Y-17800500D01*
X8116786Y-17786214D01*
X8159643Y-17786214D01*
X8188214Y-17800500D01*
X8202500Y-17814786D01*
X8216786Y-17843357D01*
X8216786Y-17929072D01*
X8202500Y-17957643D01*
X8188214Y-17971929D01*
X8159643Y-17986214D01*
X8116786Y-17986214D01*
X8388214Y-17986214D02*
X8359643Y-17971929D01*
X8345357Y-17943357D01*
X8345357Y-17686214D01*
X8616786Y-17971929D02*
X8588214Y-17986214D01*
X8531071Y-17986214D01*
X8502500Y-17971929D01*
X8488214Y-17943357D01*
X8488214Y-17829072D01*
X8502500Y-17800500D01*
X8531071Y-17786214D01*
X8588214Y-17786214D01*
X8616786Y-17800500D01*
X8631071Y-17829072D01*
X8631071Y-17857643D01*
X8488214Y-17886214D01*
X8745357Y-17971929D02*
X8773928Y-17986214D01*
X8831071Y-17986214D01*
X8859643Y-17971929D01*
X8873928Y-17943357D01*
X8873928Y-17929072D01*
X8859643Y-17900500D01*
X8831071Y-17886214D01*
X8788214Y-17886214D01*
X8759643Y-17871929D01*
X8745357Y-17843357D01*
X8745357Y-17829072D01*
X8759643Y-17800500D01*
X8788214Y-17786214D01*
X8831071Y-17786214D01*
X8859643Y-17800500D01*
X8973928Y-18100500D02*
X8988214Y-18086214D01*
X9016786Y-18043357D01*
X9031071Y-18014786D01*
X9045357Y-17971929D01*
X9059643Y-17900500D01*
X9059643Y-17843357D01*
X9045357Y-17771929D01*
X9031071Y-17729072D01*
X9016786Y-17700500D01*
X8988214Y-17657643D01*
X8973928Y-17643357D01*
X2327500Y-18086500D02*
X2327500Y-18406500D01*
X2167500Y-18246500D02*
X2487500Y-18246500D01*
X2487500Y-18246500D02*
G75*
G03*
X2487500Y-18246500I-160000J0D01*
G01*
X2745357Y-18082214D02*
X2931071Y-18082214D01*
X2831071Y-18196500D01*
X2873928Y-18196500D01*
X2902500Y-18210786D01*
X2916786Y-18225072D01*
X2931071Y-18253643D01*
X2931071Y-18325072D01*
X2916786Y-18353643D01*
X2902500Y-18367929D01*
X2873928Y-18382214D01*
X2788214Y-18382214D01*
X2759643Y-18367929D01*
X2745357Y-18353643D01*
X3059643Y-18353643D02*
X3073928Y-18367929D01*
X3059643Y-18382214D01*
X3045357Y-18367929D01*
X3059643Y-18353643D01*
X3059643Y-18382214D01*
X3188214Y-18110786D02*
X3202500Y-18096500D01*
X3231071Y-18082214D01*
X3302500Y-18082214D01*
X3331071Y-18096500D01*
X3345357Y-18110786D01*
X3359643Y-18139357D01*
X3359643Y-18167929D01*
X3345357Y-18210786D01*
X3173928Y-18382214D01*
X3359643Y-18382214D01*
X3545357Y-18082214D02*
X3573928Y-18082214D01*
X3602500Y-18096500D01*
X3616786Y-18110786D01*
X3631071Y-18139357D01*
X3645357Y-18196500D01*
X3645357Y-18267929D01*
X3631071Y-18325072D01*
X3616786Y-18353643D01*
X3602500Y-18367929D01*
X3573928Y-18382214D01*
X3545357Y-18382214D01*
X3516786Y-18367929D01*
X3502500Y-18353643D01*
X3488214Y-18325072D01*
X3473928Y-18267929D01*
X3473928Y-18196500D01*
X3488214Y-18139357D01*
X3502500Y-18110786D01*
X3516786Y-18096500D01*
X3545357Y-18082214D01*
X3773928Y-18382214D02*
X3773928Y-18182214D01*
X3773928Y-18210786D02*
X3788214Y-18196500D01*
X3816786Y-18182214D01*
X3859643Y-18182214D01*
X3888214Y-18196500D01*
X3902500Y-18225072D01*
X3902500Y-18382214D01*
X3902500Y-18225072D02*
X3916786Y-18196500D01*
X3945357Y-18182214D01*
X3988214Y-18182214D01*
X4016786Y-18196500D01*
X4031071Y-18225072D01*
X4031071Y-18382214D01*
X4173928Y-18382214D02*
X4173928Y-18182214D01*
X4173928Y-18210786D02*
X4188214Y-18196500D01*
X4216786Y-18182214D01*
X4259643Y-18182214D01*
X4288214Y-18196500D01*
X4302500Y-18225072D01*
X4302500Y-18382214D01*
X4302500Y-18225072D02*
X4316786Y-18196500D01*
X4345357Y-18182214D01*
X4388214Y-18182214D01*
X4416786Y-18196500D01*
X4431071Y-18225072D01*
X4431071Y-18382214D01*
X5016786Y-18067929D02*
X4759643Y-18453643D01*
X5402500Y-18082214D02*
X5431071Y-18082214D01*
X5459643Y-18096500D01*
X5473928Y-18110786D01*
X5488214Y-18139357D01*
X5502500Y-18196500D01*
X5502500Y-18267929D01*
X5488214Y-18325072D01*
X5473928Y-18353643D01*
X5459643Y-18367929D01*
X5431071Y-18382214D01*
X5402500Y-18382214D01*
X5373928Y-18367929D01*
X5359643Y-18353643D01*
X5345357Y-18325072D01*
X5331071Y-18267929D01*
X5331071Y-18196500D01*
X5345357Y-18139357D01*
X5359643Y-18110786D01*
X5373928Y-18096500D01*
X5402500Y-18082214D01*
X5631071Y-18353643D02*
X5645357Y-18367929D01*
X5631071Y-18382214D01*
X5616786Y-18367929D01*
X5631071Y-18353643D01*
X5631071Y-18382214D01*
X5931071Y-18382214D02*
X5759643Y-18382214D01*
X5845357Y-18382214D02*
X5845357Y-18082214D01*
X5816786Y-18125072D01*
X5788214Y-18153643D01*
X5759643Y-18167929D01*
X6045357Y-18110786D02*
X6059643Y-18096500D01*
X6088214Y-18082214D01*
X6159643Y-18082214D01*
X6188214Y-18096500D01*
X6202500Y-18110786D01*
X6216786Y-18139357D01*
X6216786Y-18167929D01*
X6202500Y-18210786D01*
X6031071Y-18382214D01*
X6216786Y-18382214D01*
X6473928Y-18082214D02*
X6416786Y-18082214D01*
X6388214Y-18096500D01*
X6373928Y-18110786D01*
X6345357Y-18153643D01*
X6331071Y-18210786D01*
X6331071Y-18325072D01*
X6345357Y-18353643D01*
X6359643Y-18367929D01*
X6388214Y-18382214D01*
X6445357Y-18382214D01*
X6473928Y-18367929D01*
X6488214Y-18353643D01*
X6502500Y-18325072D01*
X6502500Y-18253643D01*
X6488214Y-18225072D01*
X6473928Y-18210786D01*
X6445357Y-18196500D01*
X6388214Y-18196500D01*
X6359643Y-18210786D01*
X6345357Y-18225072D01*
X6331071Y-18253643D01*
X6616786Y-18082214D02*
X6616786Y-18139357D01*
X6731071Y-18082214D02*
X6731071Y-18139357D01*
X7173928Y-18496500D02*
X7159643Y-18482214D01*
X7131071Y-18439357D01*
X7116786Y-18410786D01*
X7102500Y-18367929D01*
X7088214Y-18296500D01*
X7088214Y-18239357D01*
X7102500Y-18167929D01*
X7116786Y-18125072D01*
X7131071Y-18096500D01*
X7159643Y-18053643D01*
X7173928Y-18039357D01*
X7445357Y-18382214D02*
X7273928Y-18382214D01*
X7359643Y-18382214D02*
X7359643Y-18082214D01*
X7331071Y-18125072D01*
X7302500Y-18153643D01*
X7273928Y-18167929D01*
X7702500Y-18182214D02*
X7702500Y-18382214D01*
X7631071Y-18067929D02*
X7559643Y-18282214D01*
X7745357Y-18282214D01*
X8088214Y-18382214D02*
X8088214Y-18082214D01*
X8216786Y-18382214D02*
X8216786Y-18225072D01*
X8202500Y-18196500D01*
X8173928Y-18182214D01*
X8131071Y-18182214D01*
X8102500Y-18196500D01*
X8088214Y-18210786D01*
X8402500Y-18382214D02*
X8373928Y-18367929D01*
X8359643Y-18353643D01*
X8345357Y-18325072D01*
X8345357Y-18239357D01*
X8359643Y-18210786D01*
X8373928Y-18196500D01*
X8402500Y-18182214D01*
X8445357Y-18182214D01*
X8473928Y-18196500D01*
X8488214Y-18210786D01*
X8502500Y-18239357D01*
X8502500Y-18325072D01*
X8488214Y-18353643D01*
X8473928Y-18367929D01*
X8445357Y-18382214D01*
X8402500Y-18382214D01*
X8673928Y-18382214D02*
X8645357Y-18367929D01*
X8631071Y-18339357D01*
X8631071Y-18082214D01*
X8902500Y-18367929D02*
X8873928Y-18382214D01*
X8816786Y-18382214D01*
X8788214Y-18367929D01*
X8773928Y-18339357D01*
X8773928Y-18225072D01*
X8788214Y-18196500D01*
X8816786Y-18182214D01*
X8873928Y-18182214D01*
X8902500Y-18196500D01*
X8916786Y-18225072D01*
X8916786Y-18253643D01*
X8773928Y-18282214D01*
X9031071Y-18367929D02*
X9059643Y-18382214D01*
X9116786Y-18382214D01*
X9145357Y-18367929D01*
X9159643Y-18339357D01*
X9159643Y-18325072D01*
X9145357Y-18296500D01*
X9116786Y-18282214D01*
X9073928Y-18282214D01*
X9045357Y-18267929D01*
X9031071Y-18239357D01*
X9031071Y-18225072D01*
X9045357Y-18196500D01*
X9073928Y-18182214D01*
X9116786Y-18182214D01*
X9145357Y-18196500D01*
X9259643Y-18496500D02*
X9273928Y-18482214D01*
X9302500Y-18439357D01*
X9316786Y-18410786D01*
X9331071Y-18367929D01*
X9345357Y-18296500D01*
X9345357Y-18239357D01*
X9331071Y-18167929D01*
X9316786Y-18125072D01*
X9302500Y-18096500D01*
X9273928Y-18053643D01*
X9259643Y-18039357D01*
M02*
