G04 #@! TF.GenerationSoftware,KiCad,Pcbnew,(5.1.9)-1*
G04 #@! TF.CreationDate,2021-05-05T14:43:55+02:00*
G04 #@! TF.ProjectId,MTDevBoard,4d544465-7642-46f6-9172-642e6b696361,rev?*
G04 #@! TF.SameCoordinates,Original*
G04 #@! TF.FileFunction,Soldermask,Top*
G04 #@! TF.FilePolarity,Negative*
%FSLAX46Y46*%
G04 Gerber Fmt 4.6, Leading zero omitted, Abs format (unit mm)*
G04 Created by KiCad (PCBNEW (5.1.9)-1) date 2021-05-05 14:43:55*
%MOMM*%
%LPD*%
G01*
G04 APERTURE LIST*
%ADD10O,1.829200X1.829200*%
%ADD11O,1.102000X1.102000*%
%ADD12C,2.100980*%
%ADD13O,1.802000X1.802000*%
%ADD14C,0.100000*%
%ADD15C,2.202000*%
%ADD16C,6.502000*%
%ADD17C,3.102000*%
%ADD18C,2.602000*%
%ADD19C,2.702000*%
%ADD20O,1.152000X1.602000*%
G04 APERTURE END LIST*
D10*
X100030000Y-40570000D03*
X102570000Y-40570000D03*
X100030000Y-43110000D03*
X102570000Y-43110000D03*
X100030000Y-45650000D03*
X102570000Y-45650000D03*
X100030000Y-48190000D03*
X102570000Y-48190000D03*
X100030000Y-50730000D03*
G36*
G01*
X103484600Y-49866400D02*
X103484600Y-51593600D01*
G75*
G02*
X103433600Y-51644600I-51000J0D01*
G01*
X101706400Y-51644600D01*
G75*
G02*
X101655400Y-51593600I0J51000D01*
G01*
X101655400Y-49866400D01*
G75*
G02*
X101706400Y-49815400I51000J0D01*
G01*
X103433600Y-49815400D01*
G75*
G02*
X103484600Y-49866400I0J-51000D01*
G01*
G37*
G36*
G01*
X50950000Y-53541000D02*
X49150000Y-53541000D01*
G75*
G02*
X49099000Y-53490000I0J51000D01*
G01*
X49099000Y-50990000D01*
G75*
G02*
X49150000Y-50939000I51000J0D01*
G01*
X50950000Y-50939000D01*
G75*
G02*
X51001000Y-50990000I0J-51000D01*
G01*
X51001000Y-53490000D01*
G75*
G02*
X50950000Y-53541000I-51000J0D01*
G01*
G37*
G36*
G01*
X50950000Y-57541000D02*
X49150000Y-57541000D01*
G75*
G02*
X49099000Y-57490000I0J51000D01*
G01*
X49099000Y-54990000D01*
G75*
G02*
X49150000Y-54939000I51000J0D01*
G01*
X50950000Y-54939000D01*
G75*
G02*
X51001000Y-54990000I0J-51000D01*
G01*
X51001000Y-57490000D01*
G75*
G02*
X50950000Y-57541000I-51000J0D01*
G01*
G37*
G36*
G01*
X47140000Y-81039000D02*
X48940000Y-81039000D01*
G75*
G02*
X48991000Y-81090000I0J-51000D01*
G01*
X48991000Y-83590000D01*
G75*
G02*
X48940000Y-83641000I-51000J0D01*
G01*
X47140000Y-83641000D01*
G75*
G02*
X47089000Y-83590000I0J51000D01*
G01*
X47089000Y-81090000D01*
G75*
G02*
X47140000Y-81039000I51000J0D01*
G01*
G37*
G36*
G01*
X47140000Y-77039000D02*
X48940000Y-77039000D01*
G75*
G02*
X48991000Y-77090000I0J-51000D01*
G01*
X48991000Y-79590000D01*
G75*
G02*
X48940000Y-79641000I-51000J0D01*
G01*
X47140000Y-79641000D01*
G75*
G02*
X47089000Y-79590000I0J51000D01*
G01*
X47089000Y-77090000D01*
G75*
G02*
X47140000Y-77039000I51000J0D01*
G01*
G37*
D11*
X65960000Y-40680000D03*
X64690000Y-40680000D03*
X65960000Y-39410000D03*
X64690000Y-39410000D03*
X65960000Y-38140000D03*
X64690000Y-38140000D03*
X65960000Y-36870000D03*
G36*
G01*
X64139000Y-37370000D02*
X64139000Y-36370000D01*
G75*
G02*
X64190000Y-36319000I51000J0D01*
G01*
X65190000Y-36319000D01*
G75*
G02*
X65241000Y-36370000I0J-51000D01*
G01*
X65241000Y-37370000D01*
G75*
G02*
X65190000Y-37421000I-51000J0D01*
G01*
X64190000Y-37421000D01*
G75*
G02*
X64139000Y-37370000I0J51000D01*
G01*
G37*
G36*
G01*
X140236400Y-108285400D02*
X141963600Y-108285400D01*
G75*
G02*
X142014600Y-108336400I0J-51000D01*
G01*
X142014600Y-110063600D01*
G75*
G02*
X141963600Y-110114600I-51000J0D01*
G01*
X140236400Y-110114600D01*
G75*
G02*
X140185400Y-110063600I0J51000D01*
G01*
X140185400Y-108336400D01*
G75*
G02*
X140236400Y-108285400I51000J0D01*
G01*
G37*
D10*
X141100000Y-111740000D03*
X143640000Y-109200000D03*
X143640000Y-111740000D03*
X146180000Y-109200000D03*
X146180000Y-111740000D03*
X148720000Y-109200000D03*
X148720000Y-111740000D03*
X151260000Y-109200000D03*
X151260000Y-111740000D03*
X153800000Y-109200000D03*
X153800000Y-111740000D03*
D12*
X109900000Y-36670000D03*
G36*
G01*
X113615400Y-41253600D02*
X113615400Y-39526400D01*
G75*
G02*
X113666400Y-39475400I51000J0D01*
G01*
X115393600Y-39475400D01*
G75*
G02*
X115444600Y-39526400I0J-51000D01*
G01*
X115444600Y-41253600D01*
G75*
G02*
X115393600Y-41304600I-51000J0D01*
G01*
X113666400Y-41304600D01*
G75*
G02*
X113615400Y-41253600I0J51000D01*
G01*
G37*
D10*
X117070000Y-40390000D03*
X114530000Y-42930000D03*
X117070000Y-42930000D03*
X114530000Y-45470000D03*
X117070000Y-45470000D03*
X114530000Y-48010000D03*
X117070000Y-48010000D03*
X114530000Y-50550000D03*
X117070000Y-50550000D03*
X114530000Y-53090000D03*
X117070000Y-53090000D03*
D13*
X68900000Y-82360000D03*
X94300000Y-82360000D03*
X68900000Y-79820000D03*
X94300000Y-79820000D03*
X68900000Y-77280000D03*
X94300000Y-77280000D03*
X68900000Y-74740000D03*
X94300000Y-74740000D03*
X68900000Y-72200000D03*
X94300000Y-72200000D03*
X68900000Y-69660000D03*
X94300000Y-69660000D03*
X68900000Y-67120000D03*
X94300000Y-67120000D03*
X68900000Y-64580000D03*
X94300000Y-64580000D03*
X68900000Y-62040000D03*
X94300000Y-62040000D03*
X68900000Y-59500000D03*
X94300000Y-59500000D03*
X68900000Y-56960000D03*
X94300000Y-56960000D03*
X68900000Y-54420000D03*
X94300000Y-54420000D03*
X68900000Y-51880000D03*
X94300000Y-51880000D03*
X68900000Y-49340000D03*
X94300000Y-49340000D03*
X68900000Y-46800000D03*
X94300000Y-46800000D03*
X68900000Y-44260000D03*
X94300000Y-44260000D03*
X68900000Y-41720000D03*
X94300000Y-41720000D03*
X68900000Y-39180000D03*
X94300000Y-39180000D03*
X68900000Y-36640000D03*
X94300000Y-36640000D03*
D12*
X109272000Y-80960000D03*
X111812000Y-80960000D03*
G36*
G01*
X102573000Y-94080000D02*
X102573000Y-92580000D01*
G75*
G02*
X102624000Y-92529000I51000J0D01*
G01*
X103624000Y-92529000D01*
G75*
G02*
X103675000Y-92580000I0J-51000D01*
G01*
X103675000Y-94080000D01*
G75*
G02*
X103624000Y-94131000I-51000J0D01*
G01*
X102624000Y-94131000D01*
G75*
G02*
X102573000Y-94080000I0J51000D01*
G01*
G37*
D14*
G36*
X104430112Y-92529602D02*
G01*
X104448534Y-92529602D01*
X104453533Y-92529848D01*
X104502364Y-92534658D01*
X104507314Y-92535392D01*
X104555439Y-92544964D01*
X104560295Y-92546180D01*
X104607250Y-92560424D01*
X104611961Y-92562110D01*
X104657294Y-92580887D01*
X104661820Y-92583027D01*
X104705093Y-92606158D01*
X104709384Y-92608731D01*
X104750183Y-92635991D01*
X104754204Y-92638973D01*
X104792133Y-92670101D01*
X104795841Y-92673462D01*
X104830538Y-92708159D01*
X104833899Y-92711867D01*
X104865027Y-92749796D01*
X104868009Y-92753817D01*
X104895269Y-92794616D01*
X104897842Y-92798907D01*
X104920973Y-92842180D01*
X104923113Y-92846706D01*
X104941890Y-92892039D01*
X104943576Y-92896750D01*
X104957820Y-92943705D01*
X104959036Y-92948561D01*
X104968608Y-92996686D01*
X104969342Y-93001636D01*
X104974152Y-93050467D01*
X104974398Y-93055466D01*
X104974398Y-93073888D01*
X104975000Y-93080000D01*
X104975000Y-93580000D01*
X104974398Y-93586112D01*
X104974398Y-93604534D01*
X104974152Y-93609533D01*
X104969342Y-93658364D01*
X104968608Y-93663314D01*
X104959036Y-93711439D01*
X104957820Y-93716295D01*
X104943576Y-93763250D01*
X104941890Y-93767961D01*
X104923113Y-93813294D01*
X104920973Y-93817820D01*
X104897842Y-93861093D01*
X104895269Y-93865384D01*
X104868009Y-93906183D01*
X104865027Y-93910204D01*
X104833899Y-93948133D01*
X104830538Y-93951841D01*
X104795841Y-93986538D01*
X104792133Y-93989899D01*
X104754204Y-94021027D01*
X104750183Y-94024009D01*
X104709384Y-94051269D01*
X104705093Y-94053842D01*
X104661820Y-94076973D01*
X104657294Y-94079113D01*
X104611961Y-94097890D01*
X104607250Y-94099576D01*
X104560295Y-94113820D01*
X104555439Y-94115036D01*
X104507314Y-94124608D01*
X104502364Y-94125342D01*
X104453533Y-94130152D01*
X104448534Y-94130398D01*
X104430112Y-94130398D01*
X104424000Y-94131000D01*
X103874000Y-94131000D01*
X103864050Y-94130020D01*
X103854483Y-94127118D01*
X103845666Y-94122405D01*
X103837938Y-94116062D01*
X103831595Y-94108334D01*
X103826882Y-94099517D01*
X103823980Y-94089950D01*
X103823000Y-94080000D01*
X103823000Y-92580000D01*
X103823980Y-92570050D01*
X103826882Y-92560483D01*
X103831595Y-92551666D01*
X103837938Y-92543938D01*
X103845666Y-92537595D01*
X103854483Y-92532882D01*
X103864050Y-92529980D01*
X103874000Y-92529000D01*
X104424000Y-92529000D01*
X104430112Y-92529602D01*
G37*
G36*
X102383950Y-92529980D02*
G01*
X102393517Y-92532882D01*
X102402334Y-92537595D01*
X102410062Y-92543938D01*
X102416405Y-92551666D01*
X102421118Y-92560483D01*
X102424020Y-92570050D01*
X102425000Y-92580000D01*
X102425000Y-94080000D01*
X102424020Y-94089950D01*
X102421118Y-94099517D01*
X102416405Y-94108334D01*
X102410062Y-94116062D01*
X102402334Y-94122405D01*
X102393517Y-94127118D01*
X102383950Y-94130020D01*
X102374000Y-94131000D01*
X101824000Y-94131000D01*
X101817888Y-94130398D01*
X101799466Y-94130398D01*
X101794467Y-94130152D01*
X101745636Y-94125342D01*
X101740686Y-94124608D01*
X101692561Y-94115036D01*
X101687705Y-94113820D01*
X101640750Y-94099576D01*
X101636039Y-94097890D01*
X101590706Y-94079113D01*
X101586180Y-94076973D01*
X101542907Y-94053842D01*
X101538616Y-94051269D01*
X101497817Y-94024009D01*
X101493796Y-94021027D01*
X101455867Y-93989899D01*
X101452159Y-93986538D01*
X101417462Y-93951841D01*
X101414101Y-93948133D01*
X101382973Y-93910204D01*
X101379991Y-93906183D01*
X101352731Y-93865384D01*
X101350158Y-93861093D01*
X101327027Y-93817820D01*
X101324887Y-93813294D01*
X101306110Y-93767961D01*
X101304424Y-93763250D01*
X101290180Y-93716295D01*
X101288964Y-93711439D01*
X101279392Y-93663314D01*
X101278658Y-93658364D01*
X101273848Y-93609533D01*
X101273602Y-93604534D01*
X101273602Y-93586112D01*
X101273000Y-93580000D01*
X101273000Y-93080000D01*
X101273602Y-93073888D01*
X101273602Y-93055466D01*
X101273848Y-93050467D01*
X101278658Y-93001636D01*
X101279392Y-92996686D01*
X101288964Y-92948561D01*
X101290180Y-92943705D01*
X101304424Y-92896750D01*
X101306110Y-92892039D01*
X101324887Y-92846706D01*
X101327027Y-92842180D01*
X101350158Y-92798907D01*
X101352731Y-92794616D01*
X101379991Y-92753817D01*
X101382973Y-92749796D01*
X101414101Y-92711867D01*
X101417462Y-92708159D01*
X101452159Y-92673462D01*
X101455867Y-92670101D01*
X101493796Y-92638973D01*
X101497817Y-92635991D01*
X101538616Y-92608731D01*
X101542907Y-92606158D01*
X101586180Y-92583027D01*
X101590706Y-92580887D01*
X101636039Y-92562110D01*
X101640750Y-92560424D01*
X101687705Y-92546180D01*
X101692561Y-92544964D01*
X101740686Y-92535392D01*
X101745636Y-92534658D01*
X101794467Y-92529848D01*
X101799466Y-92529602D01*
X101817888Y-92529602D01*
X101824000Y-92529000D01*
X102374000Y-92529000D01*
X102383950Y-92529980D01*
G37*
D13*
X83020000Y-93820000D03*
X83020000Y-91280000D03*
X83020000Y-88740000D03*
G36*
G01*
X82119000Y-87050000D02*
X82119000Y-85350000D01*
G75*
G02*
X82170000Y-85299000I51000J0D01*
G01*
X83870000Y-85299000D01*
G75*
G02*
X83921000Y-85350000I0J-51000D01*
G01*
X83921000Y-87050000D01*
G75*
G02*
X83870000Y-87101000I-51000J0D01*
G01*
X82170000Y-87101000D01*
G75*
G02*
X82119000Y-87050000I0J51000D01*
G01*
G37*
X97480000Y-91210000D03*
X94940000Y-91210000D03*
X97480000Y-88670000D03*
X94940000Y-88670000D03*
X97480000Y-86130000D03*
G36*
G01*
X94039000Y-86980000D02*
X94039000Y-85280000D01*
G75*
G02*
X94090000Y-85229000I51000J0D01*
G01*
X95790000Y-85229000D01*
G75*
G02*
X95841000Y-85280000I0J-51000D01*
G01*
X95841000Y-86980000D01*
G75*
G02*
X95790000Y-87031000I-51000J0D01*
G01*
X94090000Y-87031000D01*
G75*
G02*
X94039000Y-86980000I0J51000D01*
G01*
G37*
G36*
G01*
X90689000Y-89215500D02*
X90689000Y-88864500D01*
G75*
G02*
X90864500Y-88689000I175500J0D01*
G01*
X92565500Y-88689000D01*
G75*
G02*
X92741000Y-88864500I0J-175500D01*
G01*
X92741000Y-89215500D01*
G75*
G02*
X92565500Y-89391000I-175500J0D01*
G01*
X90864500Y-89391000D01*
G75*
G02*
X90689000Y-89215500I0J175500D01*
G01*
G37*
G36*
G01*
X90689000Y-90485500D02*
X90689000Y-90134500D01*
G75*
G02*
X90864500Y-89959000I175500J0D01*
G01*
X92565500Y-89959000D01*
G75*
G02*
X92741000Y-90134500I0J-175500D01*
G01*
X92741000Y-90485500D01*
G75*
G02*
X92565500Y-90661000I-175500J0D01*
G01*
X90864500Y-90661000D01*
G75*
G02*
X90689000Y-90485500I0J175500D01*
G01*
G37*
G36*
G01*
X90689000Y-91755500D02*
X90689000Y-91404500D01*
G75*
G02*
X90864500Y-91229000I175500J0D01*
G01*
X92565500Y-91229000D01*
G75*
G02*
X92741000Y-91404500I0J-175500D01*
G01*
X92741000Y-91755500D01*
G75*
G02*
X92565500Y-91931000I-175500J0D01*
G01*
X90864500Y-91931000D01*
G75*
G02*
X90689000Y-91755500I0J175500D01*
G01*
G37*
G36*
G01*
X90689000Y-93025500D02*
X90689000Y-92674500D01*
G75*
G02*
X90864500Y-92499000I175500J0D01*
G01*
X92565500Y-92499000D01*
G75*
G02*
X92741000Y-92674500I0J-175500D01*
G01*
X92741000Y-93025500D01*
G75*
G02*
X92565500Y-93201000I-175500J0D01*
G01*
X90864500Y-93201000D01*
G75*
G02*
X90689000Y-93025500I0J175500D01*
G01*
G37*
G36*
G01*
X90689000Y-94295500D02*
X90689000Y-93944500D01*
G75*
G02*
X90864500Y-93769000I175500J0D01*
G01*
X92565500Y-93769000D01*
G75*
G02*
X92741000Y-93944500I0J-175500D01*
G01*
X92741000Y-94295500D01*
G75*
G02*
X92565500Y-94471000I-175500J0D01*
G01*
X90864500Y-94471000D01*
G75*
G02*
X90689000Y-94295500I0J175500D01*
G01*
G37*
G36*
G01*
X90689000Y-95565500D02*
X90689000Y-95214500D01*
G75*
G02*
X90864500Y-95039000I175500J0D01*
G01*
X92565500Y-95039000D01*
G75*
G02*
X92741000Y-95214500I0J-175500D01*
G01*
X92741000Y-95565500D01*
G75*
G02*
X92565500Y-95741000I-175500J0D01*
G01*
X90864500Y-95741000D01*
G75*
G02*
X90689000Y-95565500I0J175500D01*
G01*
G37*
G36*
G01*
X90689000Y-96835500D02*
X90689000Y-96484500D01*
G75*
G02*
X90864500Y-96309000I175500J0D01*
G01*
X92565500Y-96309000D01*
G75*
G02*
X92741000Y-96484500I0J-175500D01*
G01*
X92741000Y-96835500D01*
G75*
G02*
X92565500Y-97011000I-175500J0D01*
G01*
X90864500Y-97011000D01*
G75*
G02*
X90689000Y-96835500I0J175500D01*
G01*
G37*
G36*
G01*
X85739000Y-96835500D02*
X85739000Y-96484500D01*
G75*
G02*
X85914500Y-96309000I175500J0D01*
G01*
X87615500Y-96309000D01*
G75*
G02*
X87791000Y-96484500I0J-175500D01*
G01*
X87791000Y-96835500D01*
G75*
G02*
X87615500Y-97011000I-175500J0D01*
G01*
X85914500Y-97011000D01*
G75*
G02*
X85739000Y-96835500I0J175500D01*
G01*
G37*
G36*
G01*
X85739000Y-95565500D02*
X85739000Y-95214500D01*
G75*
G02*
X85914500Y-95039000I175500J0D01*
G01*
X87615500Y-95039000D01*
G75*
G02*
X87791000Y-95214500I0J-175500D01*
G01*
X87791000Y-95565500D01*
G75*
G02*
X87615500Y-95741000I-175500J0D01*
G01*
X85914500Y-95741000D01*
G75*
G02*
X85739000Y-95565500I0J175500D01*
G01*
G37*
G36*
G01*
X85739000Y-94295500D02*
X85739000Y-93944500D01*
G75*
G02*
X85914500Y-93769000I175500J0D01*
G01*
X87615500Y-93769000D01*
G75*
G02*
X87791000Y-93944500I0J-175500D01*
G01*
X87791000Y-94295500D01*
G75*
G02*
X87615500Y-94471000I-175500J0D01*
G01*
X85914500Y-94471000D01*
G75*
G02*
X85739000Y-94295500I0J175500D01*
G01*
G37*
G36*
G01*
X85739000Y-93025500D02*
X85739000Y-92674500D01*
G75*
G02*
X85914500Y-92499000I175500J0D01*
G01*
X87615500Y-92499000D01*
G75*
G02*
X87791000Y-92674500I0J-175500D01*
G01*
X87791000Y-93025500D01*
G75*
G02*
X87615500Y-93201000I-175500J0D01*
G01*
X85914500Y-93201000D01*
G75*
G02*
X85739000Y-93025500I0J175500D01*
G01*
G37*
G36*
G01*
X85739000Y-91755500D02*
X85739000Y-91404500D01*
G75*
G02*
X85914500Y-91229000I175500J0D01*
G01*
X87615500Y-91229000D01*
G75*
G02*
X87791000Y-91404500I0J-175500D01*
G01*
X87791000Y-91755500D01*
G75*
G02*
X87615500Y-91931000I-175500J0D01*
G01*
X85914500Y-91931000D01*
G75*
G02*
X85739000Y-91755500I0J175500D01*
G01*
G37*
G36*
G01*
X85739000Y-90485500D02*
X85739000Y-90134500D01*
G75*
G02*
X85914500Y-89959000I175500J0D01*
G01*
X87615500Y-89959000D01*
G75*
G02*
X87791000Y-90134500I0J-175500D01*
G01*
X87791000Y-90485500D01*
G75*
G02*
X87615500Y-90661000I-175500J0D01*
G01*
X85914500Y-90661000D01*
G75*
G02*
X85739000Y-90485500I0J175500D01*
G01*
G37*
G36*
G01*
X85739000Y-89215500D02*
X85739000Y-88864500D01*
G75*
G02*
X85914500Y-88689000I175500J0D01*
G01*
X87615500Y-88689000D01*
G75*
G02*
X87791000Y-88864500I0J-175500D01*
G01*
X87791000Y-89215500D01*
G75*
G02*
X87615500Y-89391000I-175500J0D01*
G01*
X85914500Y-89391000D01*
G75*
G02*
X85739000Y-89215500I0J175500D01*
G01*
G37*
X97940000Y-81260000D03*
X97940000Y-78720000D03*
X100480000Y-81260000D03*
X100480000Y-78720000D03*
X103020000Y-81260000D03*
X103020000Y-78720000D03*
X105560000Y-81260000D03*
G36*
G01*
X104710000Y-77819000D02*
X106410000Y-77819000D01*
G75*
G02*
X106461000Y-77870000I0J-51000D01*
G01*
X106461000Y-79570000D01*
G75*
G02*
X106410000Y-79621000I-51000J0D01*
G01*
X104710000Y-79621000D01*
G75*
G02*
X104659000Y-79570000I0J51000D01*
G01*
X104659000Y-77870000D01*
G75*
G02*
X104710000Y-77819000I51000J0D01*
G01*
G37*
G36*
G01*
X109774000Y-59625500D02*
X109774000Y-59274500D01*
G75*
G02*
X109949500Y-59099000I175500J0D01*
G01*
X111750500Y-59099000D01*
G75*
G02*
X111926000Y-59274500I0J-175500D01*
G01*
X111926000Y-59625500D01*
G75*
G02*
X111750500Y-59801000I-175500J0D01*
G01*
X109949500Y-59801000D01*
G75*
G02*
X109774000Y-59625500I0J175500D01*
G01*
G37*
G36*
G01*
X109774000Y-60895500D02*
X109774000Y-60544500D01*
G75*
G02*
X109949500Y-60369000I175500J0D01*
G01*
X111750500Y-60369000D01*
G75*
G02*
X111926000Y-60544500I0J-175500D01*
G01*
X111926000Y-60895500D01*
G75*
G02*
X111750500Y-61071000I-175500J0D01*
G01*
X109949500Y-61071000D01*
G75*
G02*
X109774000Y-60895500I0J175500D01*
G01*
G37*
G36*
G01*
X109774000Y-62165500D02*
X109774000Y-61814500D01*
G75*
G02*
X109949500Y-61639000I175500J0D01*
G01*
X111750500Y-61639000D01*
G75*
G02*
X111926000Y-61814500I0J-175500D01*
G01*
X111926000Y-62165500D01*
G75*
G02*
X111750500Y-62341000I-175500J0D01*
G01*
X109949500Y-62341000D01*
G75*
G02*
X109774000Y-62165500I0J175500D01*
G01*
G37*
G36*
G01*
X109774000Y-63435500D02*
X109774000Y-63084500D01*
G75*
G02*
X109949500Y-62909000I175500J0D01*
G01*
X111750500Y-62909000D01*
G75*
G02*
X111926000Y-63084500I0J-175500D01*
G01*
X111926000Y-63435500D01*
G75*
G02*
X111750500Y-63611000I-175500J0D01*
G01*
X109949500Y-63611000D01*
G75*
G02*
X109774000Y-63435500I0J175500D01*
G01*
G37*
G36*
G01*
X109774000Y-64705500D02*
X109774000Y-64354500D01*
G75*
G02*
X109949500Y-64179000I175500J0D01*
G01*
X111750500Y-64179000D01*
G75*
G02*
X111926000Y-64354500I0J-175500D01*
G01*
X111926000Y-64705500D01*
G75*
G02*
X111750500Y-64881000I-175500J0D01*
G01*
X109949500Y-64881000D01*
G75*
G02*
X109774000Y-64705500I0J175500D01*
G01*
G37*
G36*
G01*
X109774000Y-65975500D02*
X109774000Y-65624500D01*
G75*
G02*
X109949500Y-65449000I175500J0D01*
G01*
X111750500Y-65449000D01*
G75*
G02*
X111926000Y-65624500I0J-175500D01*
G01*
X111926000Y-65975500D01*
G75*
G02*
X111750500Y-66151000I-175500J0D01*
G01*
X109949500Y-66151000D01*
G75*
G02*
X109774000Y-65975500I0J175500D01*
G01*
G37*
G36*
G01*
X109774000Y-67245500D02*
X109774000Y-66894500D01*
G75*
G02*
X109949500Y-66719000I175500J0D01*
G01*
X111750500Y-66719000D01*
G75*
G02*
X111926000Y-66894500I0J-175500D01*
G01*
X111926000Y-67245500D01*
G75*
G02*
X111750500Y-67421000I-175500J0D01*
G01*
X109949500Y-67421000D01*
G75*
G02*
X109774000Y-67245500I0J175500D01*
G01*
G37*
G36*
G01*
X109774000Y-68515500D02*
X109774000Y-68164500D01*
G75*
G02*
X109949500Y-67989000I175500J0D01*
G01*
X111750500Y-67989000D01*
G75*
G02*
X111926000Y-68164500I0J-175500D01*
G01*
X111926000Y-68515500D01*
G75*
G02*
X111750500Y-68691000I-175500J0D01*
G01*
X109949500Y-68691000D01*
G75*
G02*
X109774000Y-68515500I0J175500D01*
G01*
G37*
G36*
G01*
X109774000Y-69785500D02*
X109774000Y-69434500D01*
G75*
G02*
X109949500Y-69259000I175500J0D01*
G01*
X111750500Y-69259000D01*
G75*
G02*
X111926000Y-69434500I0J-175500D01*
G01*
X111926000Y-69785500D01*
G75*
G02*
X111750500Y-69961000I-175500J0D01*
G01*
X109949500Y-69961000D01*
G75*
G02*
X109774000Y-69785500I0J175500D01*
G01*
G37*
G36*
G01*
X109774000Y-71055500D02*
X109774000Y-70704500D01*
G75*
G02*
X109949500Y-70529000I175500J0D01*
G01*
X111750500Y-70529000D01*
G75*
G02*
X111926000Y-70704500I0J-175500D01*
G01*
X111926000Y-71055500D01*
G75*
G02*
X111750500Y-71231000I-175500J0D01*
G01*
X109949500Y-71231000D01*
G75*
G02*
X109774000Y-71055500I0J175500D01*
G01*
G37*
G36*
G01*
X109774000Y-72325500D02*
X109774000Y-71974500D01*
G75*
G02*
X109949500Y-71799000I175500J0D01*
G01*
X111750500Y-71799000D01*
G75*
G02*
X111926000Y-71974500I0J-175500D01*
G01*
X111926000Y-72325500D01*
G75*
G02*
X111750500Y-72501000I-175500J0D01*
G01*
X109949500Y-72501000D01*
G75*
G02*
X109774000Y-72325500I0J175500D01*
G01*
G37*
G36*
G01*
X109774000Y-73595500D02*
X109774000Y-73244500D01*
G75*
G02*
X109949500Y-73069000I175500J0D01*
G01*
X111750500Y-73069000D01*
G75*
G02*
X111926000Y-73244500I0J-175500D01*
G01*
X111926000Y-73595500D01*
G75*
G02*
X111750500Y-73771000I-175500J0D01*
G01*
X109949500Y-73771000D01*
G75*
G02*
X109774000Y-73595500I0J175500D01*
G01*
G37*
G36*
G01*
X109774000Y-74865500D02*
X109774000Y-74514500D01*
G75*
G02*
X109949500Y-74339000I175500J0D01*
G01*
X111750500Y-74339000D01*
G75*
G02*
X111926000Y-74514500I0J-175500D01*
G01*
X111926000Y-74865500D01*
G75*
G02*
X111750500Y-75041000I-175500J0D01*
G01*
X109949500Y-75041000D01*
G75*
G02*
X109774000Y-74865500I0J175500D01*
G01*
G37*
G36*
G01*
X109774000Y-76135500D02*
X109774000Y-75784500D01*
G75*
G02*
X109949500Y-75609000I175500J0D01*
G01*
X111750500Y-75609000D01*
G75*
G02*
X111926000Y-75784500I0J-175500D01*
G01*
X111926000Y-76135500D01*
G75*
G02*
X111750500Y-76311000I-175500J0D01*
G01*
X109949500Y-76311000D01*
G75*
G02*
X109774000Y-76135500I0J175500D01*
G01*
G37*
G36*
G01*
X100474000Y-76135500D02*
X100474000Y-75784500D01*
G75*
G02*
X100649500Y-75609000I175500J0D01*
G01*
X102450500Y-75609000D01*
G75*
G02*
X102626000Y-75784500I0J-175500D01*
G01*
X102626000Y-76135500D01*
G75*
G02*
X102450500Y-76311000I-175500J0D01*
G01*
X100649500Y-76311000D01*
G75*
G02*
X100474000Y-76135500I0J175500D01*
G01*
G37*
G36*
G01*
X100474000Y-74865500D02*
X100474000Y-74514500D01*
G75*
G02*
X100649500Y-74339000I175500J0D01*
G01*
X102450500Y-74339000D01*
G75*
G02*
X102626000Y-74514500I0J-175500D01*
G01*
X102626000Y-74865500D01*
G75*
G02*
X102450500Y-75041000I-175500J0D01*
G01*
X100649500Y-75041000D01*
G75*
G02*
X100474000Y-74865500I0J175500D01*
G01*
G37*
G36*
G01*
X100474000Y-73595500D02*
X100474000Y-73244500D01*
G75*
G02*
X100649500Y-73069000I175500J0D01*
G01*
X102450500Y-73069000D01*
G75*
G02*
X102626000Y-73244500I0J-175500D01*
G01*
X102626000Y-73595500D01*
G75*
G02*
X102450500Y-73771000I-175500J0D01*
G01*
X100649500Y-73771000D01*
G75*
G02*
X100474000Y-73595500I0J175500D01*
G01*
G37*
G36*
G01*
X100474000Y-72325500D02*
X100474000Y-71974500D01*
G75*
G02*
X100649500Y-71799000I175500J0D01*
G01*
X102450500Y-71799000D01*
G75*
G02*
X102626000Y-71974500I0J-175500D01*
G01*
X102626000Y-72325500D01*
G75*
G02*
X102450500Y-72501000I-175500J0D01*
G01*
X100649500Y-72501000D01*
G75*
G02*
X100474000Y-72325500I0J175500D01*
G01*
G37*
G36*
G01*
X100474000Y-71055500D02*
X100474000Y-70704500D01*
G75*
G02*
X100649500Y-70529000I175500J0D01*
G01*
X102450500Y-70529000D01*
G75*
G02*
X102626000Y-70704500I0J-175500D01*
G01*
X102626000Y-71055500D01*
G75*
G02*
X102450500Y-71231000I-175500J0D01*
G01*
X100649500Y-71231000D01*
G75*
G02*
X100474000Y-71055500I0J175500D01*
G01*
G37*
G36*
G01*
X100474000Y-69785500D02*
X100474000Y-69434500D01*
G75*
G02*
X100649500Y-69259000I175500J0D01*
G01*
X102450500Y-69259000D01*
G75*
G02*
X102626000Y-69434500I0J-175500D01*
G01*
X102626000Y-69785500D01*
G75*
G02*
X102450500Y-69961000I-175500J0D01*
G01*
X100649500Y-69961000D01*
G75*
G02*
X100474000Y-69785500I0J175500D01*
G01*
G37*
G36*
G01*
X100474000Y-68515500D02*
X100474000Y-68164500D01*
G75*
G02*
X100649500Y-67989000I175500J0D01*
G01*
X102450500Y-67989000D01*
G75*
G02*
X102626000Y-68164500I0J-175500D01*
G01*
X102626000Y-68515500D01*
G75*
G02*
X102450500Y-68691000I-175500J0D01*
G01*
X100649500Y-68691000D01*
G75*
G02*
X100474000Y-68515500I0J175500D01*
G01*
G37*
G36*
G01*
X100474000Y-67245500D02*
X100474000Y-66894500D01*
G75*
G02*
X100649500Y-66719000I175500J0D01*
G01*
X102450500Y-66719000D01*
G75*
G02*
X102626000Y-66894500I0J-175500D01*
G01*
X102626000Y-67245500D01*
G75*
G02*
X102450500Y-67421000I-175500J0D01*
G01*
X100649500Y-67421000D01*
G75*
G02*
X100474000Y-67245500I0J175500D01*
G01*
G37*
G36*
G01*
X100474000Y-65975500D02*
X100474000Y-65624500D01*
G75*
G02*
X100649500Y-65449000I175500J0D01*
G01*
X102450500Y-65449000D01*
G75*
G02*
X102626000Y-65624500I0J-175500D01*
G01*
X102626000Y-65975500D01*
G75*
G02*
X102450500Y-66151000I-175500J0D01*
G01*
X100649500Y-66151000D01*
G75*
G02*
X100474000Y-65975500I0J175500D01*
G01*
G37*
G36*
G01*
X100474000Y-64705500D02*
X100474000Y-64354500D01*
G75*
G02*
X100649500Y-64179000I175500J0D01*
G01*
X102450500Y-64179000D01*
G75*
G02*
X102626000Y-64354500I0J-175500D01*
G01*
X102626000Y-64705500D01*
G75*
G02*
X102450500Y-64881000I-175500J0D01*
G01*
X100649500Y-64881000D01*
G75*
G02*
X100474000Y-64705500I0J175500D01*
G01*
G37*
G36*
G01*
X100474000Y-63435500D02*
X100474000Y-63084500D01*
G75*
G02*
X100649500Y-62909000I175500J0D01*
G01*
X102450500Y-62909000D01*
G75*
G02*
X102626000Y-63084500I0J-175500D01*
G01*
X102626000Y-63435500D01*
G75*
G02*
X102450500Y-63611000I-175500J0D01*
G01*
X100649500Y-63611000D01*
G75*
G02*
X100474000Y-63435500I0J175500D01*
G01*
G37*
G36*
G01*
X100474000Y-62165500D02*
X100474000Y-61814500D01*
G75*
G02*
X100649500Y-61639000I175500J0D01*
G01*
X102450500Y-61639000D01*
G75*
G02*
X102626000Y-61814500I0J-175500D01*
G01*
X102626000Y-62165500D01*
G75*
G02*
X102450500Y-62341000I-175500J0D01*
G01*
X100649500Y-62341000D01*
G75*
G02*
X100474000Y-62165500I0J175500D01*
G01*
G37*
G36*
G01*
X100474000Y-60895500D02*
X100474000Y-60544500D01*
G75*
G02*
X100649500Y-60369000I175500J0D01*
G01*
X102450500Y-60369000D01*
G75*
G02*
X102626000Y-60544500I0J-175500D01*
G01*
X102626000Y-60895500D01*
G75*
G02*
X102450500Y-61071000I-175500J0D01*
G01*
X100649500Y-61071000D01*
G75*
G02*
X100474000Y-60895500I0J175500D01*
G01*
G37*
G36*
G01*
X100474000Y-59625500D02*
X100474000Y-59274500D01*
G75*
G02*
X100649500Y-59099000I175500J0D01*
G01*
X102450500Y-59099000D01*
G75*
G02*
X102626000Y-59274500I0J-175500D01*
G01*
X102626000Y-59625500D01*
G75*
G02*
X102450500Y-59801000I-175500J0D01*
G01*
X100649500Y-59801000D01*
G75*
G02*
X100474000Y-59625500I0J175500D01*
G01*
G37*
G36*
G01*
X75559000Y-84911750D02*
X75559000Y-83948250D01*
G75*
G02*
X75828250Y-83679000I269250J0D01*
G01*
X76366750Y-83679000D01*
G75*
G02*
X76636000Y-83948250I0J-269250D01*
G01*
X76636000Y-84911750D01*
G75*
G02*
X76366750Y-85181000I-269250J0D01*
G01*
X75828250Y-85181000D01*
G75*
G02*
X75559000Y-84911750I0J269250D01*
G01*
G37*
G36*
G01*
X73684000Y-84911750D02*
X73684000Y-83948250D01*
G75*
G02*
X73953250Y-83679000I269250J0D01*
G01*
X74491750Y-83679000D01*
G75*
G02*
X74761000Y-83948250I0J-269250D01*
G01*
X74761000Y-84911750D01*
G75*
G02*
X74491750Y-85181000I-269250J0D01*
G01*
X73953250Y-85181000D01*
G75*
G02*
X73684000Y-84911750I0J269250D01*
G01*
G37*
G36*
G01*
X75589000Y-90961750D02*
X75589000Y-89998250D01*
G75*
G02*
X75858250Y-89729000I269250J0D01*
G01*
X76396750Y-89729000D01*
G75*
G02*
X76666000Y-89998250I0J-269250D01*
G01*
X76666000Y-90961750D01*
G75*
G02*
X76396750Y-91231000I-269250J0D01*
G01*
X75858250Y-91231000D01*
G75*
G02*
X75589000Y-90961750I0J269250D01*
G01*
G37*
G36*
G01*
X73714000Y-90961750D02*
X73714000Y-89998250D01*
G75*
G02*
X73983250Y-89729000I269250J0D01*
G01*
X74521750Y-89729000D01*
G75*
G02*
X74791000Y-89998250I0J-269250D01*
G01*
X74791000Y-90961750D01*
G75*
G02*
X74521750Y-91231000I-269250J0D01*
G01*
X73983250Y-91231000D01*
G75*
G02*
X73714000Y-90961750I0J269250D01*
G01*
G37*
X118280000Y-79080000D03*
X115740000Y-79080000D03*
X118280000Y-76540000D03*
X115740000Y-76540000D03*
X118280000Y-74000000D03*
X115740000Y-74000000D03*
X118280000Y-71460000D03*
X115740000Y-71460000D03*
X118280000Y-68920000D03*
X115740000Y-68920000D03*
X118280000Y-66380000D03*
X115740000Y-66380000D03*
X118280000Y-63840000D03*
X115740000Y-63840000D03*
X118280000Y-61300000D03*
G36*
G01*
X114839000Y-62150000D02*
X114839000Y-60450000D01*
G75*
G02*
X114890000Y-60399000I51000J0D01*
G01*
X116590000Y-60399000D01*
G75*
G02*
X116641000Y-60450000I0J-51000D01*
G01*
X116641000Y-62150000D01*
G75*
G02*
X116590000Y-62201000I-51000J0D01*
G01*
X114890000Y-62201000D01*
G75*
G02*
X114839000Y-62150000I0J51000D01*
G01*
G37*
D15*
X117120000Y-84490000D03*
G36*
G01*
X118170000Y-88131000D02*
X116070000Y-88131000D01*
G75*
G02*
X116019000Y-88080000I0J51000D01*
G01*
X116019000Y-85980000D01*
G75*
G02*
X116070000Y-85929000I51000J0D01*
G01*
X118170000Y-85929000D01*
G75*
G02*
X118221000Y-85980000I0J-51000D01*
G01*
X118221000Y-88080000D01*
G75*
G02*
X118170000Y-88131000I-51000J0D01*
G01*
G37*
X68820000Y-87270000D03*
G36*
G01*
X72461000Y-86220000D02*
X72461000Y-88320000D01*
G75*
G02*
X72410000Y-88371000I-51000J0D01*
G01*
X70310000Y-88371000D01*
G75*
G02*
X70259000Y-88320000I0J51000D01*
G01*
X70259000Y-86220000D01*
G75*
G02*
X70310000Y-86169000I51000J0D01*
G01*
X72410000Y-86169000D01*
G75*
G02*
X72461000Y-86220000I0J-51000D01*
G01*
G37*
X118850000Y-93510000D03*
G36*
G01*
X115209000Y-94560000D02*
X115209000Y-92460000D01*
G75*
G02*
X115260000Y-92409000I51000J0D01*
G01*
X117360000Y-92409000D01*
G75*
G02*
X117411000Y-92460000I0J-51000D01*
G01*
X117411000Y-94560000D01*
G75*
G02*
X117360000Y-94611000I-51000J0D01*
G01*
X115260000Y-94611000D01*
G75*
G02*
X115209000Y-94560000I0J51000D01*
G01*
G37*
X111216000Y-93544000D03*
G36*
G01*
X107575000Y-94594000D02*
X107575000Y-92494000D01*
G75*
G02*
X107626000Y-92443000I51000J0D01*
G01*
X109726000Y-92443000D01*
G75*
G02*
X109777000Y-92494000I0J-51000D01*
G01*
X109777000Y-94594000D01*
G75*
G02*
X109726000Y-94645000I-51000J0D01*
G01*
X107626000Y-94645000D01*
G75*
G02*
X107575000Y-94594000I0J51000D01*
G01*
G37*
G36*
G01*
X101506500Y-89216125D02*
X101506500Y-88263875D01*
G75*
G02*
X101781375Y-87989000I274875J0D01*
G01*
X102358625Y-87989000D01*
G75*
G02*
X102633500Y-88263875I0J-274875D01*
G01*
X102633500Y-89216125D01*
G75*
G02*
X102358625Y-89491000I-274875J0D01*
G01*
X101781375Y-89491000D01*
G75*
G02*
X101506500Y-89216125I0J274875D01*
G01*
G37*
G36*
G01*
X99681500Y-89216125D02*
X99681500Y-88263875D01*
G75*
G02*
X99956375Y-87989000I274875J0D01*
G01*
X100533625Y-87989000D01*
G75*
G02*
X100808500Y-88263875I0J-274875D01*
G01*
X100808500Y-89216125D01*
G75*
G02*
X100533625Y-89491000I-274875J0D01*
G01*
X99956375Y-89491000D01*
G75*
G02*
X99681500Y-89216125I0J274875D01*
G01*
G37*
G36*
G01*
X90913500Y-86783875D02*
X90913500Y-87736125D01*
G75*
G02*
X90638625Y-88011000I-274875J0D01*
G01*
X90061375Y-88011000D01*
G75*
G02*
X89786500Y-87736125I0J274875D01*
G01*
X89786500Y-86783875D01*
G75*
G02*
X90061375Y-86509000I274875J0D01*
G01*
X90638625Y-86509000D01*
G75*
G02*
X90913500Y-86783875I0J-274875D01*
G01*
G37*
G36*
G01*
X92738500Y-86783875D02*
X92738500Y-87736125D01*
G75*
G02*
X92463625Y-88011000I-274875J0D01*
G01*
X91886375Y-88011000D01*
G75*
G02*
X91611500Y-87736125I0J274875D01*
G01*
X91611500Y-86783875D01*
G75*
G02*
X91886375Y-86509000I274875J0D01*
G01*
X92463625Y-86509000D01*
G75*
G02*
X92738500Y-86783875I0J-274875D01*
G01*
G37*
G36*
G01*
X101429000Y-86676125D02*
X101429000Y-85723875D01*
G75*
G02*
X101703875Y-85449000I274875J0D01*
G01*
X102281125Y-85449000D01*
G75*
G02*
X102556000Y-85723875I0J-274875D01*
G01*
X102556000Y-86676125D01*
G75*
G02*
X102281125Y-86951000I-274875J0D01*
G01*
X101703875Y-86951000D01*
G75*
G02*
X101429000Y-86676125I0J274875D01*
G01*
G37*
G36*
G01*
X99604000Y-86676125D02*
X99604000Y-85723875D01*
G75*
G02*
X99878875Y-85449000I274875J0D01*
G01*
X100456125Y-85449000D01*
G75*
G02*
X100731000Y-85723875I0J-274875D01*
G01*
X100731000Y-86676125D01*
G75*
G02*
X100456125Y-86951000I-274875J0D01*
G01*
X99878875Y-86951000D01*
G75*
G02*
X99604000Y-86676125I0J274875D01*
G01*
G37*
G36*
G01*
X104976500Y-89216125D02*
X104976500Y-88263875D01*
G75*
G02*
X105251375Y-87989000I274875J0D01*
G01*
X105828625Y-87989000D01*
G75*
G02*
X106103500Y-88263875I0J-274875D01*
G01*
X106103500Y-89216125D01*
G75*
G02*
X105828625Y-89491000I-274875J0D01*
G01*
X105251375Y-89491000D01*
G75*
G02*
X104976500Y-89216125I0J274875D01*
G01*
G37*
G36*
G01*
X103151500Y-89216125D02*
X103151500Y-88263875D01*
G75*
G02*
X103426375Y-87989000I274875J0D01*
G01*
X104003625Y-87989000D01*
G75*
G02*
X104278500Y-88263875I0J-274875D01*
G01*
X104278500Y-89216125D01*
G75*
G02*
X104003625Y-89491000I-274875J0D01*
G01*
X103426375Y-89491000D01*
G75*
G02*
X103151500Y-89216125I0J274875D01*
G01*
G37*
G36*
G01*
X87473500Y-86783875D02*
X87473500Y-87736125D01*
G75*
G02*
X87198625Y-88011000I-274875J0D01*
G01*
X86621375Y-88011000D01*
G75*
G02*
X86346500Y-87736125I0J274875D01*
G01*
X86346500Y-86783875D01*
G75*
G02*
X86621375Y-86509000I274875J0D01*
G01*
X87198625Y-86509000D01*
G75*
G02*
X87473500Y-86783875I0J-274875D01*
G01*
G37*
G36*
G01*
X89298500Y-86783875D02*
X89298500Y-87736125D01*
G75*
G02*
X89023625Y-88011000I-274875J0D01*
G01*
X88446375Y-88011000D01*
G75*
G02*
X88171500Y-87736125I0J274875D01*
G01*
X88171500Y-86783875D01*
G75*
G02*
X88446375Y-86509000I274875J0D01*
G01*
X89023625Y-86509000D01*
G75*
G02*
X89298500Y-86783875I0J-274875D01*
G01*
G37*
G36*
G01*
X87493500Y-84813875D02*
X87493500Y-85766125D01*
G75*
G02*
X87218625Y-86041000I-274875J0D01*
G01*
X86641375Y-86041000D01*
G75*
G02*
X86366500Y-85766125I0J274875D01*
G01*
X86366500Y-84813875D01*
G75*
G02*
X86641375Y-84539000I274875J0D01*
G01*
X87218625Y-84539000D01*
G75*
G02*
X87493500Y-84813875I0J-274875D01*
G01*
G37*
G36*
G01*
X89318500Y-84813875D02*
X89318500Y-85766125D01*
G75*
G02*
X89043625Y-86041000I-274875J0D01*
G01*
X88466375Y-86041000D01*
G75*
G02*
X88191500Y-85766125I0J274875D01*
G01*
X88191500Y-84813875D01*
G75*
G02*
X88466375Y-84539000I274875J0D01*
G01*
X89043625Y-84539000D01*
G75*
G02*
X89318500Y-84813875I0J-274875D01*
G01*
G37*
G36*
G01*
X90933500Y-84813875D02*
X90933500Y-85766125D01*
G75*
G02*
X90658625Y-86041000I-274875J0D01*
G01*
X90081375Y-86041000D01*
G75*
G02*
X89806500Y-85766125I0J274875D01*
G01*
X89806500Y-84813875D01*
G75*
G02*
X90081375Y-84539000I274875J0D01*
G01*
X90658625Y-84539000D01*
G75*
G02*
X90933500Y-84813875I0J-274875D01*
G01*
G37*
G36*
G01*
X92758500Y-84813875D02*
X92758500Y-85766125D01*
G75*
G02*
X92483625Y-86041000I-274875J0D01*
G01*
X91906375Y-86041000D01*
G75*
G02*
X91631500Y-85766125I0J274875D01*
G01*
X91631500Y-84813875D01*
G75*
G02*
X91906375Y-84539000I274875J0D01*
G01*
X92483625Y-84539000D01*
G75*
G02*
X92758500Y-84813875I0J-274875D01*
G01*
G37*
G36*
G01*
X104959000Y-86676125D02*
X104959000Y-85723875D01*
G75*
G02*
X105233875Y-85449000I274875J0D01*
G01*
X105811125Y-85449000D01*
G75*
G02*
X106086000Y-85723875I0J-274875D01*
G01*
X106086000Y-86676125D01*
G75*
G02*
X105811125Y-86951000I-274875J0D01*
G01*
X105233875Y-86951000D01*
G75*
G02*
X104959000Y-86676125I0J274875D01*
G01*
G37*
G36*
G01*
X103134000Y-86676125D02*
X103134000Y-85723875D01*
G75*
G02*
X103408875Y-85449000I274875J0D01*
G01*
X103986125Y-85449000D01*
G75*
G02*
X104261000Y-85723875I0J-274875D01*
G01*
X104261000Y-86676125D01*
G75*
G02*
X103986125Y-86951000I-274875J0D01*
G01*
X103408875Y-86951000D01*
G75*
G02*
X103134000Y-86676125I0J274875D01*
G01*
G37*
D14*
G36*
X102924950Y-95279980D02*
G01*
X102934517Y-95282882D01*
X102943334Y-95287595D01*
X102951062Y-95293938D01*
X102957435Y-95301710D01*
X103457435Y-96051710D01*
X103462138Y-96060532D01*
X103465030Y-96070103D01*
X103466000Y-96080053D01*
X103465010Y-96090002D01*
X103462097Y-96099566D01*
X103457435Y-96108290D01*
X102957435Y-96858290D01*
X102951100Y-96866025D01*
X102943378Y-96872375D01*
X102934566Y-96877097D01*
X102925002Y-96880010D01*
X102915000Y-96881000D01*
X101915000Y-96881000D01*
X101905050Y-96880020D01*
X101895483Y-96877118D01*
X101886666Y-96872405D01*
X101878938Y-96866062D01*
X101872595Y-96858334D01*
X101867882Y-96849517D01*
X101864980Y-96839950D01*
X101864000Y-96830000D01*
X101864000Y-95330000D01*
X101864980Y-95320050D01*
X101867882Y-95310483D01*
X101872595Y-95301666D01*
X101878938Y-95293938D01*
X101886666Y-95287595D01*
X101895483Y-95282882D01*
X101905050Y-95279980D01*
X101915000Y-95279000D01*
X102915000Y-95279000D01*
X102924950Y-95279980D01*
G37*
G36*
X104374950Y-95279980D02*
G01*
X104384517Y-95282882D01*
X104393334Y-95287595D01*
X104401062Y-95293938D01*
X104407405Y-95301666D01*
X104412118Y-95310483D01*
X104415020Y-95320050D01*
X104416000Y-95330000D01*
X104416000Y-96830000D01*
X104415020Y-96839950D01*
X104412118Y-96849517D01*
X104407405Y-96858334D01*
X104401062Y-96866062D01*
X104393334Y-96872405D01*
X104384517Y-96877118D01*
X104374950Y-96880020D01*
X104365000Y-96881000D01*
X103215000Y-96881000D01*
X103205050Y-96880020D01*
X103195483Y-96877118D01*
X103186666Y-96872405D01*
X103178938Y-96866062D01*
X103172595Y-96858334D01*
X103167882Y-96849517D01*
X103164980Y-96839950D01*
X103164000Y-96830000D01*
X103164980Y-96820050D01*
X103167882Y-96810483D01*
X103172565Y-96801710D01*
X103653705Y-96080000D01*
X103172565Y-95358290D01*
X103167862Y-95349468D01*
X103164970Y-95339897D01*
X103164000Y-95329947D01*
X103164990Y-95319998D01*
X103167903Y-95310434D01*
X103172625Y-95301622D01*
X103178975Y-95293900D01*
X103186710Y-95287565D01*
X103195532Y-95282862D01*
X103205103Y-95279970D01*
X103215000Y-95279000D01*
X104365000Y-95279000D01*
X104374950Y-95279980D01*
G37*
D12*
X112702000Y-124910000D03*
X66182000Y-124910000D03*
X66182000Y-122370000D03*
X66182000Y-119830000D03*
X66182000Y-117290000D03*
X66182000Y-114750000D03*
X66182000Y-112210000D03*
X66182000Y-109670000D03*
X66182000Y-107130000D03*
X66182000Y-104590000D03*
X66182000Y-102050000D03*
X68722000Y-124910000D03*
X68722000Y-122370000D03*
X68722000Y-119830000D03*
X68722000Y-117290000D03*
X68722000Y-114750000D03*
X68722000Y-112210000D03*
X68722000Y-109670000D03*
X68722000Y-107130000D03*
X68722000Y-104590000D03*
X68722000Y-102050000D03*
X71262000Y-124910000D03*
X71262000Y-122370000D03*
X71262000Y-119830000D03*
X71262000Y-117290000D03*
X71262000Y-114750000D03*
X71262000Y-112210000D03*
X71262000Y-109670000D03*
X71262000Y-107130000D03*
X71262000Y-104590000D03*
X71262000Y-102050000D03*
X73802000Y-124910000D03*
X73802000Y-122370000D03*
X73802000Y-119830000D03*
X73802000Y-117290000D03*
X73802000Y-114750000D03*
X73802000Y-112210000D03*
X73802000Y-109670000D03*
X73802000Y-107130000D03*
X73802000Y-104590000D03*
X73802000Y-102050000D03*
X76342000Y-124910000D03*
X76342000Y-122370000D03*
X76342000Y-119830000D03*
X76342000Y-117290000D03*
X76342000Y-114750000D03*
X76342000Y-112210000D03*
X76342000Y-109670000D03*
X76342000Y-107130000D03*
X76342000Y-104590000D03*
X76342000Y-102050000D03*
X78882000Y-124910000D03*
X78882000Y-122370000D03*
X78882000Y-119830000D03*
X78882000Y-117290000D03*
X78882000Y-114750000D03*
X78882000Y-112210000D03*
X78882000Y-109670000D03*
X78882000Y-107130000D03*
X78882000Y-104590000D03*
X78882000Y-102050000D03*
X81422000Y-124910000D03*
X81422000Y-122370000D03*
X81422000Y-119830000D03*
X81422000Y-117290000D03*
X81422000Y-114750000D03*
X81422000Y-112210000D03*
X81422000Y-109670000D03*
X81422000Y-107130000D03*
X81422000Y-104590000D03*
X81422000Y-102050000D03*
X83962000Y-124910000D03*
X83962000Y-122370000D03*
X83962000Y-119830000D03*
X83962000Y-117290000D03*
X83962000Y-114750000D03*
X83962000Y-112210000D03*
X83962000Y-109670000D03*
X83962000Y-107130000D03*
X83962000Y-104590000D03*
X83962000Y-102050000D03*
X86502000Y-124910000D03*
X86502000Y-122370000D03*
X86502000Y-119830000D03*
X86502000Y-117290000D03*
X86502000Y-114750000D03*
X86502000Y-112210000D03*
X86502000Y-109670000D03*
X86502000Y-107130000D03*
X86502000Y-104590000D03*
X86502000Y-102050000D03*
X89042000Y-124910000D03*
X89042000Y-122370000D03*
X89042000Y-119830000D03*
X89042000Y-117290000D03*
X89042000Y-114750000D03*
X89042000Y-112210000D03*
X89042000Y-109670000D03*
X89042000Y-107130000D03*
X89042000Y-104590000D03*
X89042000Y-102050000D03*
X91582000Y-124910000D03*
X91582000Y-122370000D03*
X91582000Y-119830000D03*
X91582000Y-117290000D03*
X91582000Y-114750000D03*
X91582000Y-112210000D03*
X91582000Y-109670000D03*
X91582000Y-107130000D03*
X91582000Y-104590000D03*
X91582000Y-102050000D03*
X94122000Y-124910000D03*
X94122000Y-122370000D03*
X94122000Y-119830000D03*
X94122000Y-117290000D03*
X94122000Y-114750000D03*
X94122000Y-112210000D03*
X94122000Y-109670000D03*
X94122000Y-107130000D03*
X94122000Y-104590000D03*
X94122000Y-102050000D03*
X96662000Y-124910000D03*
X96662000Y-122370000D03*
X96662000Y-119830000D03*
X96662000Y-117290000D03*
X96662000Y-114750000D03*
X96662000Y-112210000D03*
X96662000Y-109670000D03*
X96662000Y-107130000D03*
X96662000Y-104590000D03*
X96662000Y-102050000D03*
X99202000Y-124910000D03*
X99202000Y-122370000D03*
X99202000Y-119830000D03*
X99202000Y-117290000D03*
X99202000Y-114750000D03*
X99202000Y-112210000D03*
X99202000Y-109670000D03*
X99202000Y-107130000D03*
X99202000Y-104590000D03*
X99202000Y-102050000D03*
X101742000Y-124910000D03*
X101742000Y-122370000D03*
X101742000Y-119830000D03*
X101742000Y-117290000D03*
X101742000Y-114750000D03*
X101742000Y-112210000D03*
X101742000Y-109670000D03*
X101742000Y-107130000D03*
X101742000Y-104590000D03*
X101742000Y-102050000D03*
X104282000Y-117290000D03*
X104282000Y-114750000D03*
X104282000Y-112210000D03*
X104282000Y-109670000D03*
X106822000Y-117290000D03*
X106822000Y-114750000D03*
X106822000Y-112210000D03*
X106822000Y-109670000D03*
X109362000Y-117290000D03*
X109362000Y-114750000D03*
X109362000Y-112210000D03*
X109362000Y-109670000D03*
X112702000Y-122370000D03*
X112702000Y-119830000D03*
X115242000Y-124910000D03*
X115242000Y-122370000D03*
X115242000Y-119830000D03*
X117782000Y-124910000D03*
X117782000Y-122370000D03*
X117782000Y-119830000D03*
X112672000Y-102170000D03*
X109372000Y-104690000D03*
X109372000Y-107230000D03*
X109372000Y-102150000D03*
X106832000Y-102150000D03*
X106832000Y-104690000D03*
X106832000Y-107230000D03*
X104292000Y-107230000D03*
X104292000Y-102150000D03*
X104292000Y-104690000D03*
X109352000Y-119810000D03*
X109352000Y-124890000D03*
X109352000Y-122350000D03*
X106812000Y-122350000D03*
X106812000Y-119810000D03*
X106812000Y-124890000D03*
X104272000Y-122350000D03*
X104272000Y-119810000D03*
X104272000Y-124890000D03*
X62918000Y-124910000D03*
X60378000Y-119830000D03*
X60378000Y-122370000D03*
X62918000Y-122370000D03*
X60378000Y-124910000D03*
X62918000Y-119830000D03*
X57838000Y-119830000D03*
X57838000Y-122370000D03*
X57808000Y-102170000D03*
X57838000Y-124910000D03*
X115212000Y-102170000D03*
X117752000Y-102170000D03*
X112672000Y-104710000D03*
X115212000Y-104710000D03*
X117752000Y-104710000D03*
X112672000Y-107250000D03*
X115212000Y-107250000D03*
X117752000Y-107250000D03*
X60348000Y-102170000D03*
X62888000Y-102170000D03*
X57808000Y-104710000D03*
X60348000Y-104710000D03*
X62888000Y-104710000D03*
X57808000Y-107250000D03*
X60348000Y-107250000D03*
X62888000Y-107250000D03*
G36*
G01*
X47712125Y-52075500D02*
X46759875Y-52075500D01*
G75*
G02*
X46485000Y-51800625I0J274875D01*
G01*
X46485000Y-51223375D01*
G75*
G02*
X46759875Y-50948500I274875J0D01*
G01*
X47712125Y-50948500D01*
G75*
G02*
X47987000Y-51223375I0J-274875D01*
G01*
X47987000Y-51800625D01*
G75*
G02*
X47712125Y-52075500I-274875J0D01*
G01*
G37*
G36*
G01*
X47712125Y-53900500D02*
X46759875Y-53900500D01*
G75*
G02*
X46485000Y-53625625I0J274875D01*
G01*
X46485000Y-53048375D01*
G75*
G02*
X46759875Y-52773500I274875J0D01*
G01*
X47712125Y-52773500D01*
G75*
G02*
X47987000Y-53048375I0J-274875D01*
G01*
X47987000Y-53625625D01*
G75*
G02*
X47712125Y-53900500I-274875J0D01*
G01*
G37*
G36*
G01*
X50313875Y-81461500D02*
X51266125Y-81461500D01*
G75*
G02*
X51541000Y-81736375I0J-274875D01*
G01*
X51541000Y-82313625D01*
G75*
G02*
X51266125Y-82588500I-274875J0D01*
G01*
X50313875Y-82588500D01*
G75*
G02*
X50039000Y-82313625I0J274875D01*
G01*
X50039000Y-81736375D01*
G75*
G02*
X50313875Y-81461500I274875J0D01*
G01*
G37*
G36*
G01*
X50313875Y-79636500D02*
X51266125Y-79636500D01*
G75*
G02*
X51541000Y-79911375I0J-274875D01*
G01*
X51541000Y-80488625D01*
G75*
G02*
X51266125Y-80763500I-274875J0D01*
G01*
X50313875Y-80763500D01*
G75*
G02*
X50039000Y-80488625I0J274875D01*
G01*
X50039000Y-79911375D01*
G75*
G02*
X50313875Y-79636500I274875J0D01*
G01*
G37*
G36*
G01*
X75511500Y-86886125D02*
X75511500Y-85933875D01*
G75*
G02*
X75786375Y-85659000I274875J0D01*
G01*
X76363625Y-85659000D01*
G75*
G02*
X76638500Y-85933875I0J-274875D01*
G01*
X76638500Y-86886125D01*
G75*
G02*
X76363625Y-87161000I-274875J0D01*
G01*
X75786375Y-87161000D01*
G75*
G02*
X75511500Y-86886125I0J274875D01*
G01*
G37*
G36*
G01*
X73686500Y-86886125D02*
X73686500Y-85933875D01*
G75*
G02*
X73961375Y-85659000I274875J0D01*
G01*
X74538625Y-85659000D01*
G75*
G02*
X74813500Y-85933875I0J-274875D01*
G01*
X74813500Y-86886125D01*
G75*
G02*
X74538625Y-87161000I-274875J0D01*
G01*
X73961375Y-87161000D01*
G75*
G02*
X73686500Y-86886125I0J274875D01*
G01*
G37*
G36*
G01*
X75506500Y-88856125D02*
X75506500Y-87903875D01*
G75*
G02*
X75781375Y-87629000I274875J0D01*
G01*
X76358625Y-87629000D01*
G75*
G02*
X76633500Y-87903875I0J-274875D01*
G01*
X76633500Y-88856125D01*
G75*
G02*
X76358625Y-89131000I-274875J0D01*
G01*
X75781375Y-89131000D01*
G75*
G02*
X75506500Y-88856125I0J274875D01*
G01*
G37*
G36*
G01*
X73681500Y-88856125D02*
X73681500Y-87903875D01*
G75*
G02*
X73956375Y-87629000I274875J0D01*
G01*
X74533625Y-87629000D01*
G75*
G02*
X74808500Y-87903875I0J-274875D01*
G01*
X74808500Y-88856125D01*
G75*
G02*
X74533625Y-89131000I-274875J0D01*
G01*
X73956375Y-89131000D01*
G75*
G02*
X73681500Y-88856125I0J274875D01*
G01*
G37*
D13*
X63080000Y-95050000D03*
X60540000Y-95050000D03*
X63080000Y-92510000D03*
X60540000Y-92510000D03*
X63080000Y-89970000D03*
X60540000Y-89970000D03*
X63080000Y-87430000D03*
X60540000Y-87430000D03*
X63080000Y-84890000D03*
X60540000Y-84890000D03*
X63080000Y-82350000D03*
X60540000Y-82350000D03*
X63080000Y-79810000D03*
X60540000Y-79810000D03*
X63080000Y-77270000D03*
X60540000Y-77270000D03*
X63080000Y-74730000D03*
X60540000Y-74730000D03*
X63080000Y-72190000D03*
X60540000Y-72190000D03*
X63080000Y-69650000D03*
X60540000Y-69650000D03*
X63080000Y-67110000D03*
X60540000Y-67110000D03*
X63080000Y-64570000D03*
X60540000Y-64570000D03*
X63080000Y-62030000D03*
X60540000Y-62030000D03*
X63080000Y-59490000D03*
X60540000Y-59490000D03*
X63080000Y-56950000D03*
X60540000Y-56950000D03*
X63080000Y-54410000D03*
X60540000Y-54410000D03*
X63080000Y-51870000D03*
X60540000Y-51870000D03*
X63080000Y-49330000D03*
X60540000Y-49330000D03*
X63080000Y-46790000D03*
G36*
G01*
X59639000Y-47640000D02*
X59639000Y-45940000D01*
G75*
G02*
X59690000Y-45889000I51000J0D01*
G01*
X61390000Y-45889000D01*
G75*
G02*
X61441000Y-45940000I0J-51000D01*
G01*
X61441000Y-47640000D01*
G75*
G02*
X61390000Y-47691000I-51000J0D01*
G01*
X59690000Y-47691000D01*
G75*
G02*
X59639000Y-47640000I0J51000D01*
G01*
G37*
D16*
X109810000Y-86250000D03*
X71570000Y-94560000D03*
D17*
X36890000Y-68480000D03*
D18*
X42840000Y-70430000D03*
D17*
X42890000Y-82680000D03*
X30840000Y-82630000D03*
D18*
X30840000Y-70430000D03*
D13*
X49770000Y-70510000D03*
X49770000Y-67970000D03*
X49770000Y-65430000D03*
G36*
G01*
X48869000Y-63740000D02*
X48869000Y-62040000D01*
G75*
G02*
X48920000Y-61989000I51000J0D01*
G01*
X50620000Y-61989000D01*
G75*
G02*
X50671000Y-62040000I0J-51000D01*
G01*
X50671000Y-63740000D01*
G75*
G02*
X50620000Y-63791000I-51000J0D01*
G01*
X48920000Y-63791000D01*
G75*
G02*
X48869000Y-63740000I0J51000D01*
G01*
G37*
D19*
X31846000Y-40014000D03*
X36926000Y-40014000D03*
G36*
G01*
X43357000Y-38714000D02*
X43357000Y-41314000D01*
G75*
G02*
X43306000Y-41365000I-51000J0D01*
G01*
X40706000Y-41365000D01*
G75*
G02*
X40655000Y-41314000I0J51000D01*
G01*
X40655000Y-38714000D01*
G75*
G02*
X40706000Y-38663000I51000J0D01*
G01*
X43306000Y-38663000D01*
G75*
G02*
X43357000Y-38714000I0J-51000D01*
G01*
G37*
D16*
X59570000Y-114290000D03*
D19*
X160260000Y-76760000D03*
G36*
G01*
X161560000Y-83191000D02*
X158960000Y-83191000D01*
G75*
G02*
X158909000Y-83140000I0J51000D01*
G01*
X158909000Y-80540000D01*
G75*
G02*
X158960000Y-80489000I51000J0D01*
G01*
X161560000Y-80489000D01*
G75*
G02*
X161611000Y-80540000I0J-51000D01*
G01*
X161611000Y-83140000D01*
G75*
G02*
X161560000Y-83191000I-51000J0D01*
G01*
G37*
D16*
X114570000Y-114290000D03*
D20*
X49136000Y-46054000D03*
X50406000Y-46054000D03*
G36*
G01*
X47290000Y-46804000D02*
X47290000Y-45304000D01*
G75*
G02*
X47341000Y-45253000I51000J0D01*
G01*
X48391000Y-45253000D01*
G75*
G02*
X48442000Y-45304000I0J-51000D01*
G01*
X48442000Y-46804000D01*
G75*
G02*
X48391000Y-46855000I-51000J0D01*
G01*
X47341000Y-46855000D01*
G75*
G02*
X47290000Y-46804000I0J51000D01*
G01*
G37*
D16*
X49040000Y-94280000D03*
X49070000Y-39290000D03*
X159570000Y-39290000D03*
X159570000Y-94290000D03*
X59600000Y-39300000D03*
X129570000Y-39290000D03*
G36*
G01*
X51236000Y-86480000D02*
X51236000Y-87980000D01*
G75*
G02*
X51185000Y-88031000I-51000J0D01*
G01*
X50135000Y-88031000D01*
G75*
G02*
X50084000Y-87980000I0J51000D01*
G01*
X50084000Y-86480000D01*
G75*
G02*
X50135000Y-86429000I51000J0D01*
G01*
X51185000Y-86429000D01*
G75*
G02*
X51236000Y-86480000I0J-51000D01*
G01*
G37*
D20*
X48120000Y-87230000D03*
X49390000Y-87230000D03*
G36*
G01*
X148800000Y-46549000D02*
X151800000Y-46549000D01*
G75*
G02*
X151851000Y-46600000I0J-51000D01*
G01*
X151851000Y-49600000D01*
G75*
G02*
X151800000Y-49651000I-51000J0D01*
G01*
X148800000Y-49651000D01*
G75*
G02*
X148749000Y-49600000I0J51000D01*
G01*
X148749000Y-46600000D01*
G75*
G02*
X148800000Y-46549000I51000J0D01*
G01*
G37*
D17*
X137500000Y-93100000D03*
X129500000Y-48100000D03*
X129500000Y-93100000D03*
X36810000Y-64370000D03*
D18*
X30860000Y-62420000D03*
D17*
X30810000Y-50170000D03*
X42860000Y-50220000D03*
D18*
X42860000Y-62420000D03*
D19*
X160350000Y-48120000D03*
G36*
G01*
X161650000Y-54551000D02*
X159050000Y-54551000D01*
G75*
G02*
X158999000Y-54500000I0J51000D01*
G01*
X158999000Y-51900000D01*
G75*
G02*
X159050000Y-51849000I51000J0D01*
G01*
X161650000Y-51849000D01*
G75*
G02*
X161701000Y-51900000I0J-51000D01*
G01*
X161701000Y-54500000D01*
G75*
G02*
X161650000Y-54551000I-51000J0D01*
G01*
G37*
X42084000Y-92796000D03*
X37004000Y-92796000D03*
G36*
G01*
X30573000Y-94096000D02*
X30573000Y-91496000D01*
G75*
G02*
X30624000Y-91445000I51000J0D01*
G01*
X33224000Y-91445000D01*
G75*
G02*
X33275000Y-91496000I0J-51000D01*
G01*
X33275000Y-94096000D01*
G75*
G02*
X33224000Y-94147000I-51000J0D01*
G01*
X30624000Y-94147000D01*
G75*
G02*
X30573000Y-94096000I0J51000D01*
G01*
G37*
D13*
X130805000Y-102962000D03*
X133345000Y-102962000D03*
X135885000Y-102962000D03*
X138425000Y-102962000D03*
X140965000Y-102962000D03*
X143505000Y-102962000D03*
X146045000Y-102962000D03*
X148585000Y-102962000D03*
X151125000Y-102962000D03*
X153665000Y-102962000D03*
X156205000Y-102962000D03*
X158745000Y-102962000D03*
X161285000Y-102962000D03*
G36*
G01*
X162975000Y-102061000D02*
X164675000Y-102061000D01*
G75*
G02*
X164726000Y-102112000I0J-51000D01*
G01*
X164726000Y-103812000D01*
G75*
G02*
X164675000Y-103863000I-51000J0D01*
G01*
X162975000Y-103863000D01*
G75*
G02*
X162924000Y-103812000I0J51000D01*
G01*
X162924000Y-102112000D01*
G75*
G02*
X162975000Y-102061000I51000J0D01*
G01*
G37*
M02*
