M48
; DRILL file {KiCad (6.0.8)} date Mon Mar 27 12:28:18 2023
; FORMAT={-:-/ absolute / metric / decimal}
; #@! TF.CreationDate,2023-03-27T12:28:18+02:00
; #@! TF.GenerationSoftware,Kicad,Pcbnew,(6.0.8)
; #@! TF.FileFunction,Plated,1,2,PTH
FMAT,2
METRIC
; #@! TA.AperFunction,Plated,PTH,ComponentDrill
T1C0.700
; #@! TA.AperFunction,Plated,PTH,ComponentDrill
T2C0.750
; #@! TA.AperFunction,Plated,PTH,ComponentDrill
T3C0.800
; #@! TA.AperFunction,Plated,PTH,ComponentDrill
T4C0.900
; #@! TA.AperFunction,Plated,PTH,ComponentDrill
T5C1.300
%
G90
G05
T1
X1.634Y-12.588
X1.634Y-17.668
X6.42Y-12.7
X6.42Y-17.78
X6.46Y-36.205
X6.46Y-41.285
X9.0Y-36.205
X9.0Y-41.285
X16.62Y-33.035
X21.7Y-33.035
X24.24Y-33.02
X27.415Y-11.445
X27.415Y-16.525
X29.32Y-33.02
X33.13Y-12.715
X33.13Y-17.795
X36.91Y-12.7
X36.91Y-17.78
T2
X16.605Y-30.59
X19.145Y-30.59
X21.685Y-30.59
X24.225Y-30.575
X26.765Y-30.575
X29.305Y-30.575
T3
X2.61Y-3.795
X2.61Y-6.335
X2.61Y-8.875
X3.89Y-20.31
X3.89Y-27.93
X6.43Y-20.31
X6.43Y-27.93
X8.96Y-12.74
X8.96Y-17.74
X8.97Y-20.31
X8.97Y-27.93
X11.5Y-12.74
X11.5Y-17.74
X11.51Y-20.31
X11.51Y-27.93
X19.14Y-19.58
X19.14Y-22.12
X19.14Y-24.66
X19.14Y-27.2
X26.76Y-19.58
X26.76Y-22.12
X26.76Y-24.66
X26.76Y-27.2
X34.37Y-20.31
X34.37Y-27.93
X36.91Y-20.31
X36.91Y-27.93
X39.45Y-12.7
X39.45Y-17.7
X39.45Y-20.31
X39.45Y-27.93
X41.99Y-12.7
X41.99Y-17.7
X41.99Y-20.31
X41.99Y-27.93
X43.25Y-3.81
X43.25Y-6.35
X43.25Y-8.89
T4
X2.65Y-38.745
X2.65Y-41.285
X10.23Y-5.08
X10.23Y-7.62
X12.81Y-38.745
X12.81Y-41.285
X22.97Y-12.08
X22.97Y-14.62
X35.63Y-5.08
X35.63Y-7.62
T5
X2.735Y-46.99
X7.815Y-46.99
X12.895Y-46.99
X20.39Y-5.08
X20.43Y-46.99
X25.47Y-5.08
X25.51Y-46.99
X32.495Y-47.005
X37.575Y-47.005
X42.655Y-47.005
T0
M30
